<?xml version="1.0" encoding="utf-8"?>
<!-- Generator: Adobe Illustrator 26.3.1, SVG Export Plug-In . SVG Version: 6.00 Build 0)  -->
<svg version="1.1" id="Capa_1" xmlns="http://www.w3.org/2000/svg" xmlns:xlink="http://www.w3.org/1999/xlink" x="0px" y="0px"
	 viewBox="0 0 140 140" style="enable-background:new 0 0 140 140;" xml:space="preserve">
<style type="text/css">
	.st0{fill:#0A2755;}
	.st1{fill:none;}
</style>
<g>
	<g id="Grupo_1435" transform="translate(13.139 11.627)">
		<g id="Grupo_1432" transform="translate(33.367 34.879)">
			<g id="Grupo_1431">
				<path id="Trazado_787" class="st0" d="M44.78,18.49H28.5V2.2c0-1.08-0.88-1.96-1.96-1.96c0,0,0,0,0,0h-6.08
					c-1.08,0-1.96,0.88-1.96,1.96c0,0,0,0,0,0v16.29H2.2c-1.08,0-1.96,0.88-1.96,1.96c0,0,0,0,0,0v6.08c0,1.08,0.88,1.96,1.96,1.96
					c0,0,0,0,0,0h16.28v16.29c0,1.08,0.88,1.96,1.96,1.96c0,0,0,0,0,0h6.08c1.08,0,1.96-0.88,1.96-1.96c0,0,0,0,0,0V28.5h16.29
					c1.08,0,1.96-0.88,1.96-1.96c0,0,0,0,0,0v-6.08C46.75,19.37,45.87,18.49,44.78,18.49C44.78,18.49,44.78,18.49,44.78,18.49z"/>
			</g>
		</g>
		<g id="Grupo_1434">
			<g id="Grupo_1433">
				<path id="Trazado_788" class="st0" d="M75.53,110.69H38.57c-10.63,0-19.91-6.98-22.07-16.59L0.71,25.31
					c-1.29-5.85,0.16-11.97,3.94-16.62c4.44-5.44,11.12-8.55,18.14-8.45h68.15c7-0.1,13.66,3,18.1,8.41
					c3.78,4.62,5.25,10.72,3.99,16.56L97.63,94C95.51,103.67,86.22,110.69,75.53,110.69z M22.79,6C17.52,5.9,12.5,8.22,9.15,12.29
					c-2.71,3.27-3.75,7.61-2.82,11.76l15.78,68.79c1.58,7.01,8.5,12.1,16.46,12.1h36.96c8,0,14.93-5.12,16.48-12.17l15.4-68.79
					c0.91-4.14-0.14-8.46-2.86-11.72C101.2,8.21,96.19,5.91,90.94,6L22.79,6z"/>
			</g>
		</g>
	</g>
	<rect id="Rectángulo_296" class="st1" width="140" height="140"/>
</g>
</svg>
