<?xml version="1.0" encoding="utf-8"?>
<!-- Generator: Adobe Illustrator 26.3.1, SVG Export Plug-In . SVG Version: 6.00 Build 0)  -->
<svg version="1.1" id="Capa_1" xmlns="http://www.w3.org/2000/svg" xmlns:xlink="http://www.w3.org/1999/xlink" x="0px" y="0px"
	 viewBox="0 0 140 140" style="enable-background:new 0 0 140 140;" xml:space="preserve">
<style type="text/css">
	.st0{fill:#0A2755;}
	.st1{fill:none;}
</style>
<g>
	<g id="Grupo_1482" transform="translate(23.41 17.101)">
		<path id="Trazado_801" class="st0" d="M-0.23,94.18v-5.62l23.38-3.04l11.5-20.68l5.07,2.87l-11.85,21
			c-0.59,1.04-1.62,1.74-2.8,1.91L-0.23,94.18z"/>
		<g id="Grupo_1481" transform="translate(16.081 22.008)">
			<path id="Trazado_802" class="st0" d="M50.93,84.7L45.6,55.14L21.83,39.89c-1.25-0.8-1.67-2.42-0.98-3.73L36.56,6.51L16.1,10.36
				L4.59,28.61l-4.82-3.04L11.94,6.27c0.42-0.67,1.1-1.13,1.88-1.28l27.49-5.17c1.55-0.29,3.03,0.72,3.33,2.27
				c0.12,0.63,0.02,1.29-0.28,1.86L27.11,36.51l22.61,14.51c0.67,0.43,1.13,1.11,1.27,1.89l5.55,30.78L50.93,84.7z"/>
		</g>
		<path id="Trazado_803" class="st0" d="M72.18,48.57c-0.23,0-0.45-0.02-0.68-0.06c-1.08-0.19-2.02-0.83-2.6-1.77L60.72,33.5
			l2.54-6.17l9.08,15l15.64-11.84l3.4,4.06l-16.83,13.2C73.87,48.28,73.04,48.57,72.18,48.57z"/>
		<circle id="Elipse_68" class="st0" cx="67.7" cy="10" r="10.23"/>
	</g>
	<rect id="Rectángulo_308" class="st1" width="140" height="140"/>
</g>
</svg>
