<?xml version="1.0" encoding="utf-8"?>
<!-- Generator: Adobe Illustrator 26.3.1, SVG Export Plug-In . SVG Version: 6.00 Build 0)  -->
<svg version="1.1" id="Capa_1" xmlns="http://www.w3.org/2000/svg" xmlns:xlink="http://www.w3.org/1999/xlink" x="0px" y="0px"
	 viewBox="0 0 140 140" style="enable-background:new 0 0 140 140;" xml:space="preserve">
<style type="text/css">
	.st0{fill:#0A2755;}
	.st1{fill:none;}
</style>
<g>
	<g id="Grupo_1453" transform="translate(11.756 11.742)">
		<g id="Grupo_1443" transform="translate(49.319 46.264)">
			<g id="Grupo_1440" transform="translate(39.693)">
				<g id="Grupo_1439">
					<path id="Trazado_792" class="st0" d="M13.75,27.66c-6.12,0.02-11.57-3.88-13.53-9.68l0,0c-1.18-3.53-0.9-7.38,0.79-10.7
						c1.7-3.38,4.7-5.93,8.3-7.07c7.43-2.41,15.42,1.59,17.93,8.98c1.18,3.53,0.89,7.39-0.8,10.7c-1.7,3.38-4.7,5.93-8.3,7.07
						C16.73,27.42,15.24,27.65,13.75,27.66z M5.74,16.14c1.5,4.37,6.24,6.73,10.63,5.28c2.13-0.68,3.89-2.18,4.9-4.17
						c0.99-1.93,1.15-4.18,0.46-6.23c-1.5-4.37-6.24-6.72-10.63-5.28c-2.13,0.67-3.89,2.18-4.9,4.17
						C5.22,11.84,5.05,14.08,5.74,16.14z"/>
				</g>
			</g>
			<g id="Grupo_1442" transform="translate(0 2.712)">
				<g id="Grupo_1441" transform="translate(0 0)">
					
						<rect id="Rectángulo_298" x="22.05" y="-14.46" transform="matrix(0.3627 -0.9319 0.9319 0.3627 4.9921 30.7182)" class="st0" width="5.81" height="52.35"/>
				</g>
			</g>
		</g>
		<g id="Grupo_1448" transform="translate(0 7.68)">
			<g id="Grupo_1445" transform="translate(45.278 81.667)">
				<g id="Grupo_1444">
					<path id="Trazado_793" class="st0" d="M13.72,27.65c-1.54,0-3.08-0.25-4.54-0.74c-3.59-1.18-6.56-3.76-8.22-7.16
						c-1.66-3.33-1.91-7.19-0.69-10.71C2.86,1.68,10.89-2.24,18.3,0.25c3.59,1.18,6.56,3.76,8.23,7.16
						c1.66,3.33,1.9,7.19,0.68,10.71C25.21,23.84,19.79,27.67,13.72,27.65z M13.75,5.32c-3.58-0.02-6.78,2.24-7.97,5.62
						c-0.71,2.05-0.57,4.3,0.4,6.24c0.99,2,2.74,3.52,4.86,4.22c4.38,1.48,9.13-0.82,10.68-5.18c0.71-2.05,0.57-4.3-0.4-6.24
						c-0.99-2-2.74-3.52-4.86-4.22C15.58,5.47,14.67,5.32,13.75,5.32z"/>
				</g>
			</g>
			<g id="Grupo_1447">
				<g id="Grupo_1446">
					<path id="Trazado_794" class="st0" d="M67.18,93.16l-19.7-47.85L3.23,10.17l-3.72-8.28l5.3-2.38l3.15,7.01l28.07,21.85
						l16.26,13.35l20.27,49.23L67.18,93.16z"/>
				</g>
			</g>
		</g>
		<g id="Grupo_1450" transform="translate(7.952)">
			<g id="Grupo_1449">
				<path id="Trazado_795" class="st0" d="M39.81,52.38L7.04,7.72l-7.53-2.74L1.5-0.49l9.18,3.34l33.91,46.62L39.81,52.38z"/>
			</g>
		</g>
		<g id="Grupo_1452" transform="translate(60.531 61.875)">
			<g id="Grupo_1451" transform="translate(0 0)">
				
					<rect id="Rectángulo_299" x="-3.29" y="7.99" transform="matrix(0.701 -0.7132 0.7132 0.701 -3.8882 9.3068)" class="st0" width="24.88" height="2.6"/>
			</g>
		</g>
	</g>
	<rect id="Rectángulo_300" class="st1" width="140" height="140"/>
</g>
</svg>
