<?xml version="1.0" encoding="utf-8"?>
<!-- Generator: Adobe Illustrator 26.3.1, SVG Export Plug-In . SVG Version: 6.00 Build 0)  -->
<svg version="1.1" id="Capa_1" xmlns="http://www.w3.org/2000/svg" xmlns:xlink="http://www.w3.org/1999/xlink" x="0px" y="0px"
	 viewBox="0 0 140 140" style="enable-background:new 0 0 140 140;" xml:space="preserve">
<style type="text/css">
	.st0{fill:#0A2755;}
	.st1{fill:none;}
</style>
<g>
	<g id="Grupo_1479" transform="translate(17.531 11.858)">
		<g id="Grupo_1469" transform="translate(49.701 2.893)">
			<g id="Grupo_1468">
				<rect id="Rect치ngulo_304" x="-0.12" y="-0.13" class="st0" width="5.79" height="110.86"/>
			</g>
		</g>
		<g id="Grupo_1471" transform="translate(39.607)">
			<g id="Grupo_1470">
				<rect id="Rect치ngulo_305" x="-0.12" y="-0.13" class="st0" width="25.97" height="5.79"/>
			</g>
		</g>
		<g id="Grupo_1473" transform="translate(29.218 110.859)">
			<g id="Grupo_1472" transform="translate(0 0)">
				<rect id="Rect치ngulo_306" x="-0.12" y="-0.13" class="st0" width="46.75" height="5.79"/>
			</g>
		</g>
		<g id="Grupo_1478" transform="translate(0 11.517)">
			<g id="Grupo_1475">
				<g id="Grupo_1474">
					<path id="Trazado_799" class="st0" d="M52.47,50.62H41.63C25.16,50.6,11.81,37.25,11.79,20.78v-9.56
						c0-3.07-2.49-5.56-5.56-5.56h-6.35v-5.78h6.35c6.26,0.01,11.34,5.08,11.35,11.34v9.56c0.02,13.28,10.78,24.04,24.06,24.06
						h10.84V50.62z"/>
				</g>
			</g>
			<g id="Grupo_1477" transform="translate(52.594)">
				<g id="Grupo_1476">
					<path id="Trazado_800" class="st0" d="M10.71,50.62H-0.13v-5.79h10.84c13.28-0.01,24.05-10.78,24.06-24.06v-9.56
						c0.01-6.26,5.08-11.34,11.34-11.34h6.35v5.78h-6.35c-3.07,0-5.56,2.49-5.56,5.56v9.56C40.54,37.25,27.19,50.6,10.71,50.62z"/>
				</g>
			</g>
		</g>
	</g>
	<rect id="Rect치ngulo_307" y="0" class="st1" width="140" height="140"/>
</g>
</svg>
