<?xml version="1.0" encoding="utf-8"?>
<!-- Generator: Adobe Illustrator 26.3.1, SVG Export Plug-In . SVG Version: 6.00 Build 0)  -->
<svg version="1.1" id="Capa_1" xmlns="http://www.w3.org/2000/svg" xmlns:xlink="http://www.w3.org/1999/xlink" x="0px" y="0px"
	 viewBox="0 0 140 140" style="enable-background:new 0 0 140 140;" xml:space="preserve">
<style type="text/css">
	.st0{fill:#0A2755;}
	.st1{fill:none;}
</style>
<g id="Grupo_861" transform="translate(240.571 817.571)">
	<g id="Grupo_860" transform="translate(0 0)">
		<g id="Grupo_859" transform="translate(17.553 35.08)">
			<g id="Grupo_856" transform="translate(14.999 11.103)">
				<path id="Trazado_608" class="st0" d="M-165.68-816.4l-1.66-1.6l-33.21,32.12c-1.57,1.49-4.02,1.49-5.59,0L-239.34-818
					l-1.66,1.6l23.31,22.55L-241-771.3l1.66,1.6l23.32-22.55l8.24,7.97c1.2,1.15,2.79,1.79,4.45,1.78c1.66,0.01,3.25-0.63,4.45-1.78
					l8.24-7.97l23.31,22.55l1.66-1.6l-23.31-22.55L-165.68-816.4z"/>
			</g>
			<g id="Grupo_858">
				<g id="Grupo_857">
					<path id="Trazado_609" class="st0" d="M-146.18-812.66c2.52-0.04,4.6,1.97,4.64,4.49v50.1c-0.04,2.52-2.12,4.53-4.64,4.49
						l-84.52,0.5c-2.52,0.04-4.6-1.97-4.64-4.49v-50.1c0.04-2.52,2.12-4.53,4.64-4.49L-146.18-812.66 M-145.48-818h-85.72
						c-5.32-0.08-9.7,4.16-9.8,9.48v51.31c0.1,5.32,4.48,9.56,9.8,9.48h85.72c5.32,0.08,9.7-4.16,9.8-9.48v-51.31
						C-135.77-813.84-140.16-818.08-145.48-818z"/>
				</g>
			</g>
		</g>
		<rect id="Rectángulo_206" x="-240.57" y="-817.57" class="st1" width="140" height="140"/>
	</g>
	<rect id="Rectángulo_207" x="-240.57" y="-817.57" class="st1" width="140" height="140"/>
</g>
</svg>
