<?xml version="1.0" encoding="utf-8"?>
<!-- Generator: Adobe Illustrator 26.3.1, SVG Export Plug-In . SVG Version: 6.00 Build 0)  -->
<svg version="1.1" id="Capa_1" xmlns="http://www.w3.org/2000/svg" xmlns:xlink="http://www.w3.org/1999/xlink" x="0px" y="0px"
	 viewBox="0 0 140 140" style="enable-background:new 0 0 140 140;" xml:space="preserve">
<style type="text/css">
	.st0{fill:#0A2755;}
	.st1{fill:none;}
</style>
<g id="Grupo_874" transform="translate(498.702 819.56)">
	<g id="Grupo_873" transform="translate(17.502 34.928)">
		<g id="Grupo_865">
			<g id="Grupo_862" transform="translate(14.783 10.231)">
				<path id="Trazado_610" class="st0" d="M-424.07-818.32l-1.65-1.68l-33.04,33.61c-1.5,1.54-3.96,1.56-5.49,0.07
					c-0.02-0.02-0.04-0.04-0.07-0.07L-497.35-820l-1.65,1.68l23.19,23.6l-23.19,23.6l1.65,1.68l23.19-23.6l8.2,8.34
					c2.39,2.45,6.31,2.49,8.75,0.1c0.04-0.03,0.07-0.07,0.1-0.1l8.2-8.34l23.19,23.6l1.65-1.68l-23.19-23.6L-424.07-818.32z"/>
			</g>
			<g id="Grupo_864">
				<g id="Grupo_863">
					<path id="Trazado_611" class="st0" d="M-404.92-814.63c2.52-0.02,4.58,2,4.61,4.52v50.45c-0.02,2.52-2.09,4.55-4.61,4.52
						l-83.86,0.51c-2.52,0.02-4.58-2-4.61-4.52v-50.45c0.02-2.52,2.09-4.55,4.61-4.52L-404.92-814.63 M-404.23-820h-85.05
						c-5.32-0.04-9.67,4.22-9.72,9.54v51.67c0.06,5.32,4.41,9.59,9.72,9.54h85.05c5.32,0.04,9.67-4.23,9.72-9.54v-51.67
						C-394.56-815.77-398.91-820.04-404.23-820L-404.23-820z"/>
				</g>
			</g>
		</g>
		<g id="Grupo_870" transform="translate(46.569 14.177)">
			<g id="Grupo_867" transform="translate(4.549 15.138)">
				<g id="Grupo_866">
					<path id="Trazado_612" class="st0" d="M-497.85-817.72c0.63,0,1.14-0.51,1.14-1.14c0-0.63-0.51-1.14-1.14-1.14
						c-0.63,0-1.14,0.51-1.14,1.14C-498.99-818.23-498.48-817.72-497.85-817.72z"/>
				</g>
			</g>
			<g id="Grupo_869" transform="translate(0)">
				<g id="Grupo_868">
					<path id="Trazado_613" class="st0" d="M-493.3-806.05c-0.63,0-1.14-0.51-1.14-1.14c0,0,0,0,0,0v-2.6
						c0-0.63,0.51-1.14,1.14-1.14c0,0,0,0,0,0c1.87-0.01,3.39-1.53,3.38-3.41c-0.01-1.87-1.53-3.39-3.41-3.38
						c-1.87,0.01-3.38,1.52-3.38,3.39c-0.02,0.63-0.55,1.13-1.18,1.11c-0.61-0.02-1.09-0.5-1.11-1.11c-0.01-3.14,2.53-5.7,5.68-5.71
						c3.14-0.01,5.7,2.53,5.71,5.68c0.01,2.71-1.9,5.05-4.55,5.6v1.57C-492.16-806.56-492.67-806.05-493.3-806.05z"/>
				</g>
			</g>
		</g>
		<g id="Grupo_872" transform="translate(39.556 10.082)">
			<g id="Grupo_871">
				<path id="Trazado_614" class="st0" d="M-486.31-794.7c-6.99-0.02-12.63-5.71-12.6-12.69c0.02-6.99,5.71-12.63,12.69-12.6
					c6.97,0.02,12.6,5.68,12.61,12.65C-473.64-800.36-479.31-794.7-486.31-794.7z M-486.31-817.63
					c-5.68,0.02-10.26,4.64-10.24,10.31s4.64,10.26,10.31,10.24c5.66-0.02,10.24-4.61,10.24-10.28
					C-476.01-813.03-480.63-817.63-486.31-817.63z"/>
			</g>
		</g>
	</g>
	<rect id="Rectángulo_208" x="-498.7" y="-819.56" class="st1" width="140" height="140"/>
</g>
</svg>
