<?xml version="1.0" encoding="utf-8"?>
<!-- Generator: Adobe Illustrator 26.3.1, SVG Export Plug-In . SVG Version: 6.00 Build 0)  -->
<svg version="1.1" id="Capa_1" xmlns="http://www.w3.org/2000/svg" xmlns:xlink="http://www.w3.org/1999/xlink" x="0px" y="0px"
	 viewBox="0 0 140 140" style="enable-background:new 0 0 140 140;" xml:space="preserve">
<style type="text/css">
	.st0{fill:#0A2755;}
	.st1{fill:none;}
</style>
<g id="Grupo_897" transform="translate(31.001 32)">
	<g id="Grupo_896" transform="translate(17.371 27.683)">
		<g id="Grupo_893" transform="translate(31.473)">
			<path id="Trazado_618" class="st0" d="M-9.65-26.51c8.83,0.07,15.93,7.27,15.88,16.1C6.23-1.64-0.88,5.47-9.65,5.48
				c-8.77-0.01-15.87-7.11-15.88-15.88C-25.58-19.23-18.47-26.44-9.65-26.51 M-9.43-32c-11.73,0.07-21.2,9.62-21.16,21.36
				c0.01,11.68,9.48,21.15,21.16,21.16c11.68-0.01,21.15-9.48,21.16-21.16C11.78-22.38,2.31-31.93-9.43-32z"/>
		</g>
		<g id="Grupo_894" transform="translate(55.167 36.497)">
			<path id="Trazado_619" class="st0" d="M13.93-26.41v7.22c-3.73,1.21-5.58,4.48-5.58,8.31V-5c0,3.83,1.86,6.24,5.58,7.46v7.96
				c-13.6,0.21-26.95,3.59-39.02,9.87v-36.04c11.49-6.72,23.26-10.27,38.29-10.66 M13.21-32c-0.06,0-0.11,0-0.17,0
				c-7.33,0.12-14.61,1.2-21.66,3.23c-6.58,1.99-12.88,4.78-18.77,8.32c-1.98,1.16-3.2,3.28-3.2,5.58V19.6
				c0,2.26,1.18,4.36,3.12,5.54c1.01,0.61,2.17,0.93,3.34,0.93c1.05,0,2.08-0.25,3.01-0.74c10.58-5.81,22.42-8.94,34.49-9.13
				c3.37-0.01,6.09-2.75,6.08-6.11c0-0.05,0-0.09,0-0.14V3.53c0.1-2.81-1.61-5.38-4.25-6.37C14.17-3.09,13.4-3.95,13.27-5v-5.88
				c0.13-1.06,0.9-1.92,1.94-2.16c2.59-0.79,4.33-3.22,4.24-5.93v-6.34c0.08-1.78-0.54-3.52-1.73-4.85
				C16.51-31.34,14.89-32,13.21-32L13.21-32z"/>
		</g>
		<g id="Grupo_895" transform="translate(0 36.497)">
			<path id="Trazado_620" class="st0" d="M-24.34-26.41c15.04,0.4,26.8,3.94,38.29,10.66v36.04c-12.06-6.28-25.42-9.66-39.01-9.87
				V2.46c3.72-1.21,5.58-3.63,5.58-7.46v-5.88c0-3.83-1.86-7.1-5.58-8.31v-7.22 M-24.34-32c-1.69,0-3.3,0.66-4.51,1.83
				c-1.19,1.33-1.82,3.07-1.74,4.85v6.34c-0.09,2.71,1.65,5.14,4.25,5.93c1.03,0.25,1.81,1.11,1.94,2.16V-5
				c-0.13,1.05-0.9,1.92-1.94,2.16c-2.64,0.99-4.35,3.55-4.25,6.37v6.43c-0.08,3.37,2.58,6.16,5.95,6.25c0.04,0,0.08,0,0.13,0
				c12.07,0.19,23.91,3.32,34.49,9.13c0.93,0.49,1.96,0.74,3.01,0.74c1.18,0,2.34-0.32,3.34-0.93c1.94-1.17,3.12-3.27,3.12-5.54
				v-34.48c0-2.3-1.22-4.42-3.2-5.58c-5.89-3.54-12.19-6.33-18.77-8.32C-9.56-30.8-16.84-31.88-24.16-32
				C-24.22-32-24.28-32-24.34-32L-24.34-32z"/>
		</g>
	</g>
	<rect id="Rectángulo_213" x="-31" y="-32" class="st1" width="140" height="140"/>
</g>
</svg>
