<?xml version="1.0" encoding="utf-8"?>
<!-- Generator: Adobe Illustrator 26.3.1, SVG Export Plug-In . SVG Version: 6.00 Build 0)  -->
<svg version="1.1" id="Capa_1" xmlns="http://www.w3.org/2000/svg" xmlns:xlink="http://www.w3.org/1999/xlink" x="0px" y="0px"
	 viewBox="0 0 140 140" style="enable-background:new 0 0 140 140;" xml:space="preserve">
<style type="text/css">
	.st0{fill:#0A2755;}
	.st1{fill:none;}
</style>
<g id="Grupo_892" transform="translate(29.721 30.722)">
	<g id="Grupo_891" transform="translate(23 17.65)">
		<g id="Grupo_889" transform="translate(23.518 27.254)">
			<g id="Grupo_877">
				<g id="Grupo_876">
					<g id="Grupo_875">
						<rect id="Rect치ngulo_209" x="-30.01" y="-31" class="st0" width="47.04" height="2.27"/>
					</g>
				</g>
			</g>
			<g id="Grupo_880" transform="translate(0 23.52)">
				<g id="Grupo_879">
					<g id="Grupo_878">
						<rect id="Rect치ngulo_210" x="-30.01" y="-31" class="st0" width="47.04" height="2.27"/>
					</g>
				</g>
			</g>
			<g id="Grupo_883" transform="translate(0 47.041)">
				<g id="Grupo_882">
					<g id="Grupo_881">
						<rect id="Rect치ngulo_211" x="-30.01" y="-31" class="st0" width="47.04" height="2.27"/>
					</g>
				</g>
			</g>
			<g id="Grupo_888" transform="translate(28.331 41.351)">
				<g id="Grupo_885" transform="translate(0 3.175)">
					<g id="Grupo_884">
						<path id="Trazado_615" class="st0" d="M-28.31,2.22l-1.7,5.61l5.82-1.61L8.99-26.94L4.93-31L-28.31,2.22z"/>
					</g>
				</g>
				<g id="Grupo_887" transform="translate(36.737)">
					<g id="Grupo_886">
						<path id="Trazado_616" class="st0" d="M-25.41-30.16c-1.12-1.12-2.94-1.12-4.06,0l-0.55,0.55l4.06,4.06l0.55-0.56
							C-24.29-27.23-24.29-29.04-25.41-30.16z"/>
					</g>
				</g>
			</g>
		</g>
		<g id="Grupo_890">
			<path id="Trazado_617" class="st0" d="M58.2,33.3v-53.11c-0.02-3.01-2.46-5.43-5.47-5.42h-71.45c-3.01-0.01-5.45,2.41-5.47,5.42
				v88.23c0.02,3.01,2.46,5.43,5.47,5.42h35.75v5.77h-35.75c-6.21,0.02-11.26-4.98-11.29-11.19v-88.23
				c0.03-6.21,5.09-11.21,11.29-11.19h71.45c6.21-0.02,11.26,4.99,11.29,11.19V33.3H58.2z"/>
		</g>
	</g>
	<rect id="Rect치ngulo_212" x="-29.72" y="-30.72" class="st1" width="140" height="140"/>
</g>
</svg>
