<?xml version="1.0" encoding="utf-8"?>
<!-- Generator: Adobe Illustrator 26.3.1, SVG Export Plug-In . SVG Version: 6.00 Build 0)  -->
<svg version="1.1" id="Capa_1" xmlns="http://www.w3.org/2000/svg" xmlns:xlink="http://www.w3.org/1999/xlink" x="0px" y="0px"
	 viewBox="0 0 140 140" style="enable-background:new 0 0 140 140;" xml:space="preserve">
<style type="text/css">
	.st0{fill:#0A2755;}
	.st1{fill:none;}
</style>
<g id="Grupo_911" transform="translate(28.375 31.375)">
	<g id="Grupo_910" transform="translate(22.043 17.485)">
		<g id="Grupo_908" transform="translate(23.302 26.994)">
			<g id="Grupo_900">
				<g id="Grupo_899">
					<g id="Grupo_898">
						<rect id="Rect치ngulo_214" x="-27.62" y="-31" class="st0" width="46.61" height="2.25"/>
					</g>
				</g>
			</g>
			<g id="Grupo_903" transform="translate(0 23.303)">
				<g id="Grupo_902">
					<g id="Grupo_901">
						<rect id="Rect치ngulo_215" x="-27.62" y="-31" class="st0" width="46.61" height="2.25"/>
					</g>
				</g>
			</g>
			<g id="Grupo_906" transform="translate(0 46.606)">
				<g id="Grupo_905">
					<g id="Grupo_904">
						<rect id="Rect치ngulo_216" x="-27.62" y="-31" class="st0" width="46.61" height="2.25"/>
					</g>
				</g>
			</g>
			<g id="Grupo_907" transform="translate(57.142 41.355)">
				<path id="Trazado_621" class="st0" d="M-8.14-4.64c0-5.98-5.92-9-9.93-9.16c-3.44-0.14-3.44-2.41-3.44-3.16
					c0.08-1.98,1.68-3.56,3.66-3.59c2.02,0,3.86,1.78,4.39,2.46l-0.01-0.02l4.74-3.46c-1.59-2-3.73-3.51-6.16-4.32V-31h-5.92v5.1
					c-3.88,1.26-6.54,4.85-6.62,8.93c-0.13,2.8,1.17,5.48,3.44,7.12c1.68,1.14,3.65,1.78,5.68,1.84c1.25,0.05,4.25,1.09,4.25,3.37
					c0.15,1.85-1.23,3.47-3.08,3.62c-0.21,0.02-0.41,0.01-0.62-0.01c-2.26,0-4.38-2.27-4.99-3.14l-4.89,3.26
					c1.7,2.37,4.08,4.18,6.82,5.18v5.1h5.92V4.36C-10.77,3.36-7.95-0.41-8.14-4.64L-8.14-4.64z"/>
			</g>
		</g>
		<g id="Grupo_909">
			<path id="Trazado_622" class="st0" d="M59.78,20.95v-40.86c-0.02-2.98-2.44-5.38-5.42-5.37h-70.79c-2.98-0.01-5.4,2.39-5.42,5.37
				v87.41c0.02,2.98,2.44,5.38,5.42,5.37h58.72v5.72h-58.72c-6.15,0.02-11.15-4.94-11.19-11.09v-87.41
				c0.03-6.15,5.04-11.11,11.19-11.09h70.79c6.15-0.02,11.15,4.94,11.19,11.09v40.86L59.78,20.95z"/>
		</g>
	</g>
	<rect id="Rect치ngulo_217" x="-28.38" y="-31.38" class="st1" width="140" height="140"/>
</g>
</svg>
