<?xml version="1.0" encoding="utf-8"?>
<!-- Generator: Adobe Illustrator 26.3.1, SVG Export Plug-In . SVG Version: 6.00 Build 0)  -->
<svg version="1.1" id="Capa_1" xmlns="http://www.w3.org/2000/svg" xmlns:xlink="http://www.w3.org/1999/xlink" x="0px" y="0px"
	 viewBox="0 0 140 140" style="enable-background:new 0 0 140 140;" xml:space="preserve">
<style type="text/css">
	.st0{fill:none;stroke:#0A2755;stroke-width:33.141;stroke-miterlimit:10;}
	.st1{fill:#0A2755;}
	.st2{fill:none;}
</style>
<g id="Grupo_933" transform="translate(28.081 31.08)">
	<g id="Grupo_932" transform="translate(22.537 17.539)">
		<g id="Grupo_913" transform="translate(91.859 71.234)">
			<g id="Grupo_912">
				<path id="Trazado_623" class="st0" d="M-27.63-30.64"/>
			</g>
		</g>
		<g id="Grupo_915" transform="translate(65.859 14.267)">
			<g id="Grupo_914">
				<path id="Trazado_624" class="st1" d="M-15.61-12.13h-9.65c-1.31,0-2.37-1.06-2.37-2.37c0,0,0,0,0,0v-13.78
					c0-1.31,1.06-2.37,2.37-2.37c0,0,0,0,0,0h9.65c1.31,0,2.37,1.06,2.37,2.37v13.78C-13.24-13.19-14.3-12.13-15.61-12.13z"/>
			</g>
		</g>
		<g id="Grupo_917" transform="translate(44.832 14.267)">
			<g id="Grupo_916">
				<path id="Trazado_625" class="st1" d="M-15.6-12.13h-9.65c-1.31,0-2.37-1.06-2.37-2.37v-13.78c0-1.31,1.06-2.37,2.37-2.37
					c0,0,0,0,0,0h9.65c1.31,0,2.37,1.06,2.37,2.37v13.78C-13.23-13.19-14.29-12.13-15.6-12.13z"/>
			</g>
		</g>
		<g id="Grupo_919" transform="translate(65.859 41.49)">
			<g id="Grupo_918">
				<path id="Trazado_626" class="st1" d="M-15.61-12.13h-9.65c-1.31,0-2.37-1.06-2.37-2.37c0,0,0,0,0,0v-13.78
					c0-1.31,1.06-2.37,2.37-2.37c0,0,0,0,0,0h9.65c1.31,0,2.37,1.06,2.37,2.37v13.78C-13.24-13.19-14.3-12.13-15.61-12.13z"/>
			</g>
		</g>
		<g id="Grupo_921" transform="translate(44.832 41.49)">
			<g id="Grupo_920">
				<path id="Trazado_627" class="st1" d="M-15.6-12.13h-9.65c-1.31,0-2.37-1.06-2.37-2.37v-13.78c0-1.31,1.06-2.37,2.37-2.37h9.65
					c1.31,0,2.37,1.06,2.37,2.37v13.78C-13.23-13.19-14.29-12.13-15.6-12.13z"/>
			</g>
		</g>
		<g id="Grupo_923" transform="translate(65.859 68.086)">
			<g id="Grupo_922">
				<path id="Trazado_628" class="st1" d="M-15.61-12.13h-9.65c-1.31,0-2.37-1.06-2.37-2.37c0,0,0,0,0,0v-13.78
					c0-1.31,1.06-2.37,2.37-2.37c0,0,0,0,0,0h9.65c1.31,0,2.37,1.06,2.37,2.37v13.77C-13.24-13.19-14.3-12.13-15.61-12.13
					L-15.61-12.13z"/>
			</g>
		</g>
		<g id="Grupo_925" transform="translate(44.832 68.086)">
			<g id="Grupo_924">
				<path id="Trazado_629" class="st1" d="M-15.6-12.13h-9.65c-1.31,0-2.37-1.06-2.37-2.37v-13.78c0-1.31,1.06-2.37,2.37-2.37
					c0,0,0,0,0,0h9.65c1.31,0,2.37,1.06,2.37,2.37v13.77C-13.23-13.19-14.29-12.13-15.6-12.13L-15.6-12.13z"/>
			</g>
		</g>
		<g id="Grupo_927" transform="translate(91.859 71.234)">
			<g id="Grupo_926">
				<path id="Trazado_630" class="st0" d="M-27.63-30.64"/>
			</g>
		</g>
		<g id="Grupo_929" transform="translate(30.979)">
			<g id="Grupo_928">
				<path id="Trazado_631" class="st1" d="M28.52-25.46c0.98,0,1.78,0.8,1.79,1.78v85.36c0,0.98-0.8,1.78-1.79,1.78h-42.29v5.19
					h42.29c3.85,0,6.97-3.12,6.98-6.97v-85.37c-0.01-3.85-3.13-6.97-6.98-6.97h-56.14v52.47h5.2v-47.28H28.52"/>
			</g>
		</g>
		<g id="Grupo_931" transform="translate(0 60.28)">
			<g id="Grupo_930">
				<path id="Trazado_632" class="st1" d="M2.05-21.62L-5.37-1.57l-5.34-5.34l-7.46,7.46l-2.12-2.12l7.46-7.46l-4.9-4.9L2.05-21.62
					 M10.93-30.65L0.16-26.46l-19.77,7.69l-7.42,2.89l5.63,5.63l1.22,1.22l-3.78,3.78l-3.67,3.68l3.67,3.67l2.12,2.12l3.67,3.67
					l3.67-3.68l3.78-3.78l1.67,1.67l5.73,5.73l2.82-7.6l7.42-20.05L10.93-30.65L10.93-30.65z"/>
			</g>
		</g>
	</g>
	<rect id="Rectángulo_218" x="-28.08" y="-31.08" class="st2" width="140" height="140"/>
</g>
</svg>
