<?xml version="1.0" encoding="utf-8"?>
<!-- Generator: Adobe Illustrator 26.3.1, SVG Export Plug-In . SVG Version: 6.00 Build 0)  -->
<svg version="1.1" id="Capa_1" xmlns="http://www.w3.org/2000/svg" xmlns:xlink="http://www.w3.org/1999/xlink" x="0px" y="0px"
	 viewBox="0 0 140 140" style="enable-background:new 0 0 140 140;" xml:space="preserve">
<style type="text/css">
	.st0{fill:#0A2755;}
	.st1{fill:none;}
</style>
<g id="Grupo_950" transform="translate(20.803 30.872)">
	<g id="Grupo_949" transform="translate(23.349 17.521)">
		<g id="Grupo_947" transform="translate(23.231 27.909)">
			<g id="Grupo_936">
				<g id="Grupo_935">
					<g id="Grupo_934">
						<rect id="Rect치ngulo_219" x="-20.72" y="-30.79" class="st0" width="46.47" height="2.25"/>
					</g>
				</g>
			</g>
			<g id="Grupo_939" transform="translate(0 23.233)">
				<g id="Grupo_938">
					<g id="Grupo_937">
						<rect id="Rect치ngulo_220" x="-20.72" y="-30.79" class="st0" width="46.47" height="2.25"/>
					</g>
				</g>
			</g>
			<g id="Grupo_942" transform="translate(0 46.466)">
				<g id="Grupo_941">
					<g id="Grupo_940">
						<rect id="Rect치ngulo_221" x="-20.72" y="-30.79" class="st0" width="46.47" height="2.25"/>
					</g>
				</g>
			</g>
			<g id="Grupo_944" transform="translate(43.197 71.121)">
				<g id="Grupo_943">
					<path id="Trazado_633" class="st0" d="M-20.72-19.57v-3.39c0.08-4.39,3.69-7.89,8.08-7.83h10.29c4.39-0.07,8.01,3.44,8.09,7.83
						v3.39H-20.72z"/>
				</g>
			</g>
			<g id="Grupo_946" transform="translate(49.024 52.475)">
				<g id="Grupo_945">
					<ellipse id="Elipse_56" class="st0" cx="-13.31" cy="-23.32" rx="7.4" ry="7.47"/>
				</g>
			</g>
		</g>
		<g id="Grupo_948">
			<path id="Trazado_634" class="st0" d="M66.42,44.71v-64.34c0-2.98-2.42-5.4-5.4-5.4H-9.56c-2.98,0-5.4,2.42-5.4,5.4v87.94
				c0,2.98,2.42,5.4,5.4,5.4H38.3v5.75H-9.56c-6.16-0.01-11.15-5-11.15-11.15v-87.94c0.01-6.16,5-11.15,11.15-11.15h70.58
				c6.16,0.01,11.15,5,11.15,11.15v64.34L66.42,44.71z"/>
		</g>
	</g>
	<rect id="Rect치ngulo_222" x="-20.8" y="-30.87" class="st1" width="140" height="140"/>
</g>
</svg>
