<?xml version="1.0" encoding="utf-8"?>
<!-- Generator: Adobe Illustrator 26.3.1, SVG Export Plug-In . SVG Version: 6.00 Build 0)  -->
<svg version="1.1" id="Capa_1" xmlns="http://www.w3.org/2000/svg" xmlns:xlink="http://www.w3.org/1999/xlink" x="0px" y="0px"
	 viewBox="0 0 140 140" style="enable-background:new 0 0 140 140;" xml:space="preserve">
<style type="text/css">
	.st0{fill:#0A2755;}
	.st1{fill:none;}
</style>
<g id="Grupo_968" transform="translate(500.029 1143.187)">
	<g id="Grupo_967" transform="translate(22.847 17.773)">
		<g id="Grupo_964" transform="translate(23.527 27.264)">
			<g id="Grupo_953">
				<g id="Grupo_952">
					<g id="Grupo_951">
						<rect id="Rect치ngulo_223" x="-500" y="-1143" class="st0" width="47.06" height="2.28"/>
					</g>
				</g>
			</g>
			<g id="Grupo_956" transform="translate(0 23.529)">
				<g id="Grupo_955">
					<g id="Grupo_954">
						<rect id="Rect치ngulo_224" x="-500" y="-1143" class="st0" width="47.06" height="2.28"/>
					</g>
				</g>
			</g>
			<g id="Grupo_959" transform="translate(0 47.057)">
				<g id="Grupo_958">
					<g id="Grupo_957">
						<rect id="Rect치ngulo_225" x="-500" y="-1143" class="st0" width="35.29" height="2.28"/>
					</g>
				</g>
			</g>
			<g id="Grupo_961" transform="translate(35.294 61.947)">
				<g id="Grupo_960">
					<path id="Trazado_635" class="st0" d="M-500-1132.87v-3.06c0.04-3.93,3.25-7.1,7.19-7.07h9.14c3.93-0.03,7.15,3.13,7.19,7.07
						v3.06H-500z"/>
				</g>
			</g>
			<g id="Grupo_963" transform="translate(40.475 45.115)">
				<g id="Grupo_962">
					<ellipse id="Elipse_57" class="st0" cx="-493.42" cy="-1136.26" rx="6.58" ry="6.74"/>
				</g>
			</g>
		</g>
		<g id="Grupo_965">
			<path id="Trazado_636" class="st0" d="M-411.76-1078.68v-53.13c-0.02-3.01-2.46-5.43-5.47-5.42h-71.48
				c-3.01-0.01-5.45,2.42-5.47,5.42v88.26c0.02,3.01,2.46,5.43,5.47,5.42h35.76v5.77h-35.76c-6.21,0.02-11.26-4.98-11.3-11.19
				v-88.26c0.04-6.21,5.09-11.22,11.3-11.19h71.48c6.21-0.02,11.26,4.98,11.3,11.19v53.13H-411.76z"/>
		</g>
		<g id="Grupo_966" transform="translate(0.011 0.011)">
			<path id="Trazado_637" class="st0" d="M-417.23-1143h-35.76v5.77h35.76c3.01-0.01,5.45,2.42,5.47,5.42v88.26
				c-0.02,3.01-2.46,5.43-5.47,5.42h-71.48c-3.01,0.01-5.45-2.42-5.47-5.42v-53.13H-500v53.13c0.04,6.21,5.09,11.22,11.3,11.19
				h71.47c6.21,0.02,11.26-4.98,11.3-11.19v-88.26C-405.96-1138.01-411.02-1143.02-417.23-1143z"/>
		</g>
	</g>
	<rect id="Rect치ngulo_226" x="-500.03" y="-1143.19" class="st1" width="140" height="140"/>
</g>
</svg>
