<?xml version="1.0" encoding="utf-8"?>
<!-- Generator: Adobe Illustrator 26.3.1, SVG Export Plug-In . SVG Version: 6.00 Build 0)  -->
<svg version="1.1" id="Capa_1" xmlns="http://www.w3.org/2000/svg" xmlns:xlink="http://www.w3.org/1999/xlink" x="0px" y="0px"
	 viewBox="0 0 140 140" style="enable-background:new 0 0 140 140;" xml:space="preserve">
<style type="text/css">
	.st0{fill:none;stroke:#0A2755;stroke-width:33;stroke-miterlimit:10;}
	.st1{fill:#0A2755;}
	.st2{fill:none;}
</style>
<g id="Grupo_986" transform="translate(26.696 31.696)">
	<g id="Grupo_970" transform="translate(42.542 111.155)">
		<g id="Grupo_969">
			<path id="Trazado_638" class="st0" d="M-27.01-31.75"/>
		</g>
	</g>
	<g id="Grupo_985" transform="translate(23.601 23.406)">
		<g id="Grupo_972">
			<g id="Grupo_971">
				<path id="Trazado_639" class="st1" d="M-14.15,22.92h-2.01c-3.16-0.01-5.72-2.57-5.73-5.73v-38.08
					c0.01-3.16,2.57-5.72,5.73-5.73h71.21c3.16,0.01,5.72,2.57,5.73,5.73v35.61h5.12v-35.61c-0.01-5.99-4.86-10.84-10.85-10.85
					h-71.21c-5.99,0.01-10.84,4.86-10.85,10.85v38.08c0.01,5.99,4.86,10.84,10.85,10.85h2.01L-14.15,22.92z"/>
			</g>
		</g>
		<g id="Grupo_974" transform="translate(23.41 77.438)">
			<g id="Grupo_973">
				<path id="Trazado_640" class="st1" d="M-27.01-21.4v-3.13c0.09-4.07,3.45-7.3,7.52-7.22h9.58c4.07-0.08,7.43,3.15,7.52,7.22
					v3.13H-27.01z"/>
			</g>
		</g>
		<g id="Grupo_976" transform="translate(18.076 24.217)">
			<g id="Grupo_975">
				<path id="Trazado_641" class="st1" d="M-21.91,3.82h-5.11V-7.47c0-3.86,3.13-6.99,6.99-6.99H0.49l17.29-17.29l3.61,3.61
					L1.45-9.25l-21.47-0.1c-1.04,0-1.88,0.84-1.89,1.88L-21.91,3.82z"/>
			</g>
		</g>
		<g id="Grupo_978" transform="translate(12.743 14.722)">
			<g id="Grupo_977">
				<ellipse id="Elipse_58" class="st1" cx="-16.72" cy="-21.45" rx="10.29" ry="10.29"/>
			</g>
		</g>
		<g id="Grupo_980" transform="translate(28.834 60.235)">
			<g id="Grupo_979">
				<ellipse id="Elipse_59" class="st1" cx="-20.12" cy="-24.86" rx="6.89" ry="6.89"/>
			</g>
		</g>
		<g id="Grupo_982" transform="translate(57.038 77.438)">
			<g id="Grupo_981">
				<path id="Trazado_642" class="st1" d="M-27.01-21.4v-3.13c0.09-4.07,3.45-7.3,7.52-7.22h9.58c4.07-0.08,7.43,3.15,7.52,7.22
					v3.13H-27.01z"/>
			</g>
		</g>
		<g id="Grupo_984" transform="translate(62.461 60.235)">
			<g id="Grupo_983">
				<ellipse id="Elipse_60" class="st1" cx="-20.12" cy="-24.86" rx="6.89" ry="6.89"/>
			</g>
		</g>
	</g>
	<rect id="Rectángulo_227" x="-26.7" y="-31.7" class="st2" width="140" height="140"/>
</g>
</svg>
