<?xml version="1.0" encoding="utf-8"?>
<!-- Generator: Adobe Illustrator 26.3.1, SVG Export Plug-In . SVG Version: 6.00 Build 0)  -->
<svg version="1.1" id="Capa_1" xmlns="http://www.w3.org/2000/svg" xmlns:xlink="http://www.w3.org/1999/xlink" x="0px" y="0px"
	 viewBox="0 0 140 140" style="enable-background:new 0 0 140 140;" xml:space="preserve">
<style type="text/css">
	.st0{fill:#0A2755;}
	.st1{fill:none;}
</style>
<g id="Grupo_991" transform="translate(31.129 31.13)">
	<g id="Grupo_990" transform="translate(37.978 22.749)">
		<g id="Grupo_988">
			<g id="Grupo_987">
				<path id="Trazado_643" class="st0" d="M30.85-0.78c1.31-2.04,1.69-4.54,1.07-6.88c-0.63-2.34-2.22-4.31-4.37-5.43
					c-0.93-0.49-1.5-1.47-1.46-2.52c0.11-2.42-0.8-4.78-2.52-6.5c-1.72-1.71-4.08-2.63-6.5-2.52c-1.05,0.05-2.03-0.52-2.52-1.45
					c-1.12-2.15-3.09-3.74-5.43-4.37c-2.34-0.63-4.84-0.24-6.89,1.07c-0.89,0.57-2.02,0.57-2.91,0c-2.04-1.31-4.54-1.7-6.89-1.07
					c-2.34,0.63-4.32,2.21-5.43,4.37c-0.49,0.93-1.47,1.5-2.52,1.45c-2.42-0.11-4.78,0.8-6.5,2.52c-1.71,1.72-2.63,4.08-2.52,6.5
					c0.05,1.05-0.52,2.04-1.45,2.52c-2.15,1.12-3.74,3.09-4.37,5.43c-0.42,1.2-0.37,2.52,0.15,3.69c0.43,0.9,0.72,1.86,0.88,2.85
					c0.25,1.07,0.19,2.2-0.16,3.24c-0.66,1.57-1.02,3.26-1.07,4.96c-0.11,1.13,0.19,2.27,0.84,3.2c0.54,0.57,1.14,1.08,1.78,1.53
					c0.92,0.8,1.71,1.74,2.33,2.79c0.63,0.92,1,1.99,1.07,3.1c0.05,0.88,0.22,1.76,0.49,2.6c0.22,0.61,0.51,1.19,0.85,1.73
					c0.17,0.27,1.16,1.19,1.16,1.44c1.72,1.71,4.08,2.63,6.5,2.52c1.05-0.05,2.04,0.52,2.52,1.45c0.35,0.68,0.8,1.32,1.32,1.88
					v30.51c0,1.2,0.72,2.28,1.83,2.74c1.11,0.46,2.38,0.21,3.23-0.64l7.4-7.36l7.39,7.36c0.56,0.55,1.31,0.86,2.09,0.86
					c0.39,0,0.78-0.08,1.14-0.23c1.11-0.46,1.83-1.54,1.83-2.74V29.32c0.52-0.57,0.97-1.2,1.32-1.88c0.49-0.93,1.47-1.5,2.52-1.45
					c2.42,0.11,4.78-0.8,6.5-2.52c1.71-1.72,2.63-4.08,2.52-6.5c-0.05-1.05,0.52-2.03,1.46-2.52c2.15-1.12,3.74-3.09,4.36-5.43
					c0.63-2.34,0.24-4.84-1.07-6.89C30.28,1.24,30.28,0.11,30.85-0.78z M7.31,52.7l-4.43-4.41c-1.16-1.15-3.02-1.15-4.18,0
					l-4.43,4.41V32.09c1.79,0.08,3.56-0.39,5.07-1.35c0.89-0.57,2.02-0.57,2.91,0c1.39,0.89,3.01,1.36,4.66,1.36
					c0.14,0,0.27-0.01,0.41-0.01L7.31,52.7z M26.2,7.49c-0.19,0.74-0.69,1.35-1.37,1.7c-2.99,1.55-4.8,4.7-4.65,8.06
					c0.04,0.76-0.25,1.5-0.79,2.03c-0.53,0.54-1.27,0.82-2.03,0.79c-3.36-0.15-6.51,1.67-8.06,4.65c-0.35,0.68-0.96,1.17-1.7,1.36
					c-0.73,0.2-1.51,0.08-2.15-0.33c-1.39-0.89-3.01-1.36-4.66-1.36c-1.65,0-3.27,0.47-4.65,1.36c-0.64,0.41-1.42,0.53-2.15,0.33
					c-0.74-0.19-1.35-0.69-1.7-1.36c-1.55-2.99-4.7-4.81-8.06-4.65c-0.76,0.04-1.5-0.25-2.03-0.79c-0.54-0.54-0.83-1.27-0.79-2.03
					c0.1-2.33-0.74-4.61-2.35-6.31c-0.05-0.05-0.09-0.1-0.14-0.15c-0.63-0.64-1.36-1.18-2.16-1.6c-0.68-0.35-1.17-0.96-1.37-1.7
					c-0.2-0.73-0.08-1.52,0.34-2.15c1.81-2.84,1.81-6.47,0-9.31c-0.41-0.64-0.54-1.42-0.34-2.15c0.19-0.74,0.69-1.35,1.37-1.7
					c2.99-1.55,4.8-4.7,4.65-8.06c-0.04-0.76,0.25-1.5,0.78-2.03c0.54-0.54,1.27-0.82,2.03-0.79c3.36,0.15,6.51-1.67,8.06-4.65
					c0.35-0.68,0.96-1.17,1.7-1.37c0.73-0.2,1.52-0.08,2.15,0.34c2.84,1.81,6.47,1.81,9.31,0c0.64-0.41,1.42-0.54,2.15-0.34
					c0.74,0.19,1.35,0.69,1.7,1.37c1.55,2.99,4.7,4.81,8.06,4.65c0.76-0.04,1.5,0.25,2.03,0.79c0.54,0.54,0.82,1.27,0.79,2.03
					c-0.15,3.36,1.67,6.51,4.66,8.06c0.68,0.35,1.17,0.96,1.36,1.7c0.2,0.73,0.08,1.52-0.34,2.15c-1.81,2.84-1.81,6.47,0,9.31
					C26.27,5.97,26.39,6.75,26.2,7.49L26.2,7.49z"/>
			</g>
		</g>
		<g id="Grupo_989" transform="translate(19.06 23.385)">
			<path id="Trazado_644" class="st0" d="M-5.91-29.13l-1.62-1.62L-22.17-16.1l-6.83-6.83l-1.62,1.62l8.45,8.45l1.62-1.62l0,0
				L-5.91-29.13z"/>
		</g>
	</g>
	<rect id="Rectángulo_228" x="-31.13" y="-31.13" class="st1" width="140" height="140"/>
</g>
</svg>
