<?xml version="1.0" encoding="utf-8"?>
<!-- Generator: Adobe Illustrator 26.3.1, SVG Export Plug-In . SVG Version: 6.00 Build 0)  -->
<svg version="1.1" id="Capa_1" xmlns="http://www.w3.org/2000/svg" xmlns:xlink="http://www.w3.org/1999/xlink" x="0px" y="0px"
	 viewBox="0 0 140 140" style="enable-background:new 0 0 140 140;" xml:space="preserve">
<style type="text/css">
	.st0{fill:#0A2755;}
	.st1{fill:none;}
</style>
<g id="Grupo_1002" transform="translate(237.233 1471.144)">
	<g id="Grupo_1001" transform="translate(24.003 35.902)">
		<g id="Grupo_994">
			<g id="Grupo_993">
				<g id="Grupo_992">
					<path id="Trazado_645" class="st0" d="M-181.53-1465.4c0.27,0.28,0.4,0.68,0.34,1.07v6.48c0,1.27-0.22,0.94-0.34,1.07h-49.54
						c-0.4,0-0.34-0.48-0.34-1.07v-6.49c0-0.59,0-1.07,0.34-1.07L-181.53-1465.4 M-181.35-1471h-49.89c-3.18,0-5.76,2.98-5.76,6.67
						v6.48c0,3.68,2.58,6.67,5.76,6.67h49.89c3.18,0,5.76-2.99,5.76-6.67v-6.48C-175.59-1468.02-178.17-1471-181.35-1471
						L-181.35-1471z"/>
				</g>
			</g>
		</g>
		<g id="Grupo_997" transform="translate(0 46.825)">
			<g id="Grupo_996">
				<g id="Grupo_995">
					<path id="Trazado_646" class="st0" d="M-181.53-1465.4c0.27,0.29,0.4,0.68,0.34,1.07v6.48c0,1.27-0.22,0.94-0.34,1.07h-49.54
						c-0.4,0-0.34-0.48-0.34-1.07v-6.48c0-0.59,0-1.07,0.34-1.07H-181.53 M-181.35-1471h-49.89c-3.18,0-5.76,2.98-5.76,6.67v6.48
						c0,3.68,2.58,6.67,5.76,6.67h49.89c3.18,0,5.76-2.99,5.76-6.67v-6.48C-175.59-1468.02-178.17-1471-181.35-1471z"/>
				</g>
			</g>
		</g>
		<g id="Grupo_1000" transform="translate(6.221 17.191)">
			<g id="Grupo_998" transform="translate(5.596 12.213)">
				<path id="Trazado_647" class="st1" d="M-189.02-1471h-47.63c-0.34,0-0.34,0.48-0.34,1.07v6.48c0,0.59-0.06,1.07,0.34,1.07H-189
					C-189.81-1465.2-189.82-1468.18-189.02-1471L-189.02-1471z"/>
			</g>
			<g id="Grupo_999">
				<path id="Trazado_648" class="st0" d="M-154.05-1444.31c2.34-2.88,3.62-6.48,3.63-10.2c-0.1-9.19-7.61-16.56-16.8-16.48
					c-5.29-0.01-10.28,2.47-13.48,6.69c-0.21-0.04-0.43-0.07-0.65-0.08h-49.88c-3.18,0-5.76,2.99-5.76,6.67v6.48
					c0,3.68,2.58,6.67,5.76,6.67h49.89c0.24-0.01,0.47-0.04,0.7-0.08c5.62,7.32,16.06,8.79,23.48,3.31l12.3,12.3l3.04-3.04
					L-154.05-1444.31z M-231.06-1450.17c-0.4,0-0.34-0.48-0.34-1.07v-6.48c0-0.59,0-1.07,0.34-1.07h47.64
					c-0.8,2.82-0.79,5.81,0.02,8.62H-231.06z M-167.16-1442.17c-6.79-0.14-12.17-5.76-12.03-12.55c0.14-6.79,5.76-12.17,12.55-12.03
					c6.69,0.14,12.03,5.6,12.03,12.29C-154.69-1447.6-160.31-1442.1-167.16-1442.17L-167.16-1442.17z"/>
			</g>
		</g>
	</g>
	<rect id="Rectángulo_229" x="-237.23" y="-1471.14" class="st1" width="140" height="140"/>
</g>
</svg>
