<?xml version="1.0" encoding="utf-8"?>
<!-- Generator: Adobe Illustrator 26.3.1, SVG Export Plug-In . SVG Version: 6.00 Build 0)  -->
<svg version="1.1" id="Capa_1" xmlns="http://www.w3.org/2000/svg" xmlns:xlink="http://www.w3.org/1999/xlink" x="0px" y="0px"
	 viewBox="0 0 140 140" style="enable-background:new 0 0 140 140;" xml:space="preserve">
<style type="text/css">
	.st0{fill:#0A2755;}
	.st1{fill:none;}
</style>
<g id="Grupo_1014" transform="translate(505.597 1469.39)">
	<g id="Grupo_1013" transform="translate(22.841 21.958)">
		<g id="Grupo_1004" transform="translate(6.438)">
			<g id="Grupo_1003">
				<path id="Trazado_649" class="st0" d="M-500.26-1425.98H-506c0-24.62,21.45-43.02,40.63-43.02c15.83,0,35.11,11.16,39.68,31.84
					l-5.6,1.24c-3.92-17.76-20.48-27.34-34.07-27.34C-481.84-1463.26-500.26-1447.32-500.26-1425.98z"/>
			</g>
		</g>
		<g id="Grupo_1006" transform="translate(70.983 38.262)">
			<g id="Grupo_1005">
				<path id="Trazado_650" class="st0" d="M-497.27-1431.21h-5.86c-1.58,0-2.87-1.29-2.87-2.87v-32.05c0-1.58,1.29-2.87,2.87-2.87
					h5.86c8.86,0,14.59,4.57,14.59,11.65v14.06C-482.69-1436.07-488.55-1431.21-497.27-1431.21z M-500.26-1436.95h2.99
					c4.28,0,8.85-1.67,8.85-6.34v-14.06c0-5.33-6.19-5.91-8.85-5.91h-2.99V-1436.95z"/>
			</g>
		</g>
		<g id="Grupo_1008" transform="translate(0 38.262)">
			<g id="Grupo_1007">
				<path id="Trazado_651" class="st0" d="M-485.55-1431.21h-5.86c-8.86,0-14.59-4.57-14.59-11.65v-14.06
					c0-7.23,5.86-12.08,14.59-12.08h5.86c1.58,0,2.87,1.29,2.87,2.87v32.05C-482.69-1432.5-483.97-1431.21-485.55-1431.21z
					 M-491.41-1463.26c-4.28,0-8.85,1.67-8.85,6.35v14.06c0,5.33,6.19,5.91,8.85,5.91h2.99v-26.31H-491.41z"/>
			</g>
		</g>
		<g id="Grupo_1010" transform="translate(45.057 68.802)">
			<g id="Grupo_1009">
				<path id="Trazado_652" class="st0" d="M-486.43-1447.85H-506v-5.74h19.57c3.51-0.01,6.36-2.85,6.36-6.36v-9.05h5.74v9.05
					C-474.34-1453.27-479.75-1447.86-486.43-1447.85z"/>
			</g>
		</g>
		<g id="Grupo_1012" transform="translate(39.525 79.536)">
			<g id="Grupo_1011">
				<ellipse id="Elipse_61" class="st0" cx="-498.45" cy="-1461.45" rx="7.55" ry="7.55"/>
			</g>
		</g>
	</g>
	<rect id="Rectángulo_230" x="-505.6" y="-1469.39" class="st1" width="140" height="140"/>
</g>
</svg>
