<?xml version="1.0" encoding="utf-8"?>
<!-- Generator: Adobe Illustrator 26.3.1, SVG Export Plug-In . SVG Version: 6.00 Build 0)  -->
<svg version="1.1" id="Capa_1" xmlns="http://www.w3.org/2000/svg" xmlns:xlink="http://www.w3.org/1999/xlink" x="0px" y="0px"
	 viewBox="0 0 140 140" style="enable-background:new 0 0 140 140;" xml:space="preserve">
<style type="text/css">
	.st0{fill:#0A2755;}
	.st1{fill:none;}
</style>
<g id="Grupo_1030" transform="translate(767.414 1468.923)">
	<g id="Grupo_1029" transform="translate(18.138 34.822)">
		<g id="Grupo_1016">
			<g id="Grupo_1015">
				<path id="Trazado_653" class="st0" d="M-672.96-1400.34h-84.55c-5.24,0-9.5-4.52-9.5-10.07v-48.52c0-5.56,4.26-10.07,9.5-10.07
					h84.55c5.24,0,9.5,4.52,9.5,10.07v48.52C-663.46-1404.85-667.71-1400.34-672.96-1400.34L-672.96-1400.34z M-757.5-1463.51
					c-2.45,0.08-4.38,2.12-4.32,4.58v48.52c-0.07,2.45,1.86,4.5,4.32,4.58h84.55c2.45-0.08,4.38-2.13,4.31-4.58v-48.52
					c0.07-2.45-1.86-4.5-4.32-4.58H-757.5z"/>
			</g>
		</g>
		<g id="Grupo_1018" transform="translate(15.675 39.551)">
			<g id="Grupo_1017">
				<path id="Trazado_654" class="st0" d="M-767-1457.1v-4.08c0.1-4.41,3.75-7.9,8.15-7.82h10.37c4.41-0.08,8.05,3.41,8.15,7.81
					v4.09"/>
			</g>
		</g>
		<g id="Grupo_1020" transform="translate(79.514 26.967)">
			<g id="Grupo_1019">
				<path id="Trazado_655" class="st0" d="M-767-1469"/>
			</g>
		</g>
		<g id="Grupo_1022" transform="translate(51.052 44.802)">
			<g id="Grupo_1021">
				<rect id="Rect치ngulo_231" x="-767" y="-1469" class="st0" width="36.92" height="2.43"/>
			</g>
		</g>
		<g id="Grupo_1024" transform="translate(51.052 23.075)">
			<g id="Grupo_1023">
				<rect id="Rect치ngulo_232" x="-767" y="-1469" class="st0" width="36.92" height="2.43"/>
			</g>
		</g>
		<g id="Grupo_1026" transform="translate(51.052 33.939)">
			<g id="Grupo_1025">
				<rect id="Rect치ngulo_233" x="-767" y="-1469" class="st0" width="36.92" height="2.43"/>
			</g>
		</g>
		<g id="Grupo_1028" transform="translate(19.68 17.887)">
			<g id="Grupo_1027">
				<ellipse id="Elipse_62" class="st0" cx="-758.13" cy="-1460.14" rx="8.87" ry="8.86"/>
			</g>
		</g>
	</g>
	<rect id="Rect치ngulo_234" x="-767.41" y="-1468.92" class="st1" width="140" height="140"/>
</g>
</svg>
