<?xml version="1.0" encoding="utf-8"?>
<!-- Generator: Adobe Illustrator 26.3.1, SVG Export Plug-In . SVG Version: 6.00 Build 0)  -->
<svg version="1.1" id="Capa_1" xmlns="http://www.w3.org/2000/svg" xmlns:xlink="http://www.w3.org/1999/xlink" x="0px" y="0px"
	 viewBox="0 0 140 140" style="enable-background:new 0 0 140 140;" xml:space="preserve">
<style type="text/css">
	.st0{fill:none;}
	.st1{fill:#0A2755;}
</style>
<g id="Grupo_1048" transform="translate(1018.999 1473.833)">
	<g id="Grupo_1047" transform="translate(23.221 17.102)">
		<g id="Grupo_1039" transform="translate(23.261 33.324)">
			<g id="Grupo_1032" transform="translate(0 19.626)">
				<g id="Grupo_1031">
					<line id="Línea_87" class="st0" x1="-1019" y1="-1474" x2="-972.48" y2="-1474"/>
				</g>
			</g>
			<g id="Grupo_1034" transform="translate(0)">
				<g id="Grupo_1033">
					<rect id="Rectángulo_235" x="-1019" y="-1474" class="st1" width="46.52" height="2.1"/>
				</g>
			</g>
			<g id="Grupo_1036" transform="translate(0 18.574)">
				<g id="Grupo_1035">
					<rect id="Rectángulo_236" x="-1019" y="-1474" class="st1" width="46.52" height="2.1"/>
				</g>
			</g>
			<g id="Grupo_1038" transform="translate(0 37.289)">
				<g id="Grupo_1037">
					<rect id="Rectángulo_237" x="-1019" y="-1474" class="st1" width="46.52" height="2.1"/>
				</g>
			</g>
		</g>
		<g id="Grupo_1041" transform="translate(75.427 66.064)">
			<g id="Grupo_1040">
				<ellipse id="Elipse_63" class="st1" cx="-1010.57" cy="-1465.57" rx="8.43" ry="8.43"/>
			</g>
		</g>
		<g id="Grupo_1045" transform="translate(68.788 87.425)">
			<g id="Grupo_1042" transform="translate(12.969 2.369)">
				<path id="Trazado_656" class="st1" d="M-1019-1466.19l2.1,2.42l2.1-2.42l-2.1-7.81L-1019-1466.19z"/>
			</g>
			<g id="Grupo_1043">
				<path id="Trazado_657" class="st1" d="M-1007.42-1463.5l0.17-0.65l2.1-7.81l0.55-2.04h-5.19c-5-0.08-9.12,3.9-9.21,8.89v3.85
					h13.52l-1.51-1.73L-1007.42-1463.5z"/>
			</g>
			<g id="Grupo_1044" transform="translate(15.741)">
				<path id="Trazado_658" class="st1" d="M-1013.81-1474h-5.19l0.55,2.04l2.1,7.81l0.17,0.65l-0.44,0.51l-1.51,1.73h13.52v-3.85
					C-1004.69-1470.11-1008.81-1474.08-1013.81-1474z"/>
			</g>
		</g>
		<g id="Grupo_1046">
			<path id="Trazado_659" class="st1" d="M-931.76-1421.2v-41.54c0.01-3-2.41-5.44-5.41-5.46h-70.67c-3,0.02-5.42,2.46-5.41,5.46
				v88.85c-0.01,3,2.41,5.44,5.41,5.46h58.62v5.81h-58.62c-6.19-0.03-11.19-5.08-11.17-11.27v-88.85
				c-0.02-6.19,4.98-11.23,11.17-11.27h70.67c6.19,0.03,11.19,5.08,11.17,11.27v41.54H-931.76z"/>
		</g>
	</g>
	<rect id="Rectángulo_238" x="-1019" y="-1473.83" class="st0" width="140" height="140"/>
</g>
</svg>
