<?xml version="1.0" encoding="utf-8"?>
<!-- Generator: Adobe Illustrator 26.3.1, SVG Export Plug-In . SVG Version: 6.00 Build 0)  -->
<svg version="1.1" id="Capa_1" xmlns="http://www.w3.org/2000/svg" xmlns:xlink="http://www.w3.org/1999/xlink" x="0px" y="0px"
	 viewBox="0 0 140 140" style="enable-background:new 0 0 140 140;" xml:space="preserve">
<style type="text/css">
	.st0{fill:#0A2755;}
	.st1{fill:none;}
</style>
<g id="Grupo_1094" transform="translate(237.813 1820.589)">
	<g id="Grupo_1093" transform="translate(23.453 23.847)">
		<g id="Grupo_1090">
			<g id="Grupo_1089">
				<g id="Grupo_1088">
					<path id="Trazado_673" class="st0" d="M-145.21-1758.2c-0.02-13.46-9-25.27-21.96-28.9c-0.84-18.94-16.43-33.88-35.39-33.9
						c-19.56,0.02-35.41,15.87-35.43,35.42c-0.01,6.34,1.69,12.56,4.91,18.01l-4.78,17.29l17.29-4.78c5,2.96,10.66,4.63,16.47,4.88
						c3.63,12.97,15.43,21.94,28.9,21.97c5.37,0.01,10.64-1.43,15.26-4.17l14.6,4.04l-4.04-14.6
						C-146.65-1747.55-145.21-1752.83-145.21-1758.2L-145.21-1758.2z M-219.72-1760.93l-10.35,2.86l2.87-10.35l-0.65-1.02
						c-3.08-4.82-4.71-10.42-4.7-16.13c0.02-16.56,13.44-29.98,30-29.99c16.56,0.02,29.98,13.44,29.99,30
						c-0.02,16.56-13.44,29.98-30,29.99c-5.72,0.01-11.31-1.62-16.13-4.7L-219.72-1760.93z M-153.14-1736.13l-7.68-2.13l-1.03,0.67
						c-3.98,2.58-8.62,3.95-13.36,3.95c-10.54-0.02-19.9-6.75-23.28-16.73c16.32-1.92,29.19-14.79,31.11-31.11
						c9.98,3.38,16.71,12.74,16.73,23.28c0.01,4.74-1.37,9.38-3.95,13.36l-0.67,1.03L-153.14-1736.13z"/>
				</g>
			</g>
		</g>
		<g id="Grupo_1092" transform="translate(12.285 14.964)">
			<g id="Grupo_1091">
				<path id="Trazado_674" class="st0" d="M-205.59-1811.14l-8.1,21.9l-5.84-5.84l-8.14,8.14l-2.31-2.31l8.14-8.14l-5.35-5.35
					L-205.59-1811.14 M-195.88-1821l-11.76,4.57l-21.6,8.4l-8.1,3.15l6.15,6.15l1.34,1.34l-4.13,4.13l-4.01,4.01l4.01,4.01
					l2.31,2.31l4.01,4.01l4.01-4.01l4.13-4.13l1.82,1.82l6.26,6.26l3.07-8.3l8.1-21.89L-195.88-1821L-195.88-1821z M-205.58-1805.47
					L-205.58-1805.47z"/>
			</g>
		</g>
	</g>
	<rect id="Rectángulo_242" x="-237.81" y="-1820.59" class="st1" width="140" height="140"/>
</g>
</svg>
