<?xml version="1.0" encoding="utf-8"?>
<!-- Generator: Adobe Illustrator 26.3.1, SVG Export Plug-In . SVG Version: 6.00 Build 0)  -->
<svg version="1.1" id="Capa_1" xmlns="http://www.w3.org/2000/svg" xmlns:xlink="http://www.w3.org/1999/xlink" x="0px" y="0px"
	 viewBox="0 0 140 140" style="enable-background:new 0 0 140 140;" xml:space="preserve">
<style type="text/css">
	.st0{fill:#0A2755;}
	.st1{fill:none;}
</style>
<g id="Grupo_1130" transform="translate(767.696 1821.236)">
	<g id="Grupo_1129" transform="translate(11.687 25.074)">
		<g id="Grupo_1108" transform="translate(40.217 45.852)">
			<g id="Grupo_1107">
				<path id="Trazado_679" class="st0" d="M-767-1805.92v-4.56c0.11-5.91,4.99-10.62,10.9-10.52h13.87
					c5.91-0.1,10.79,4.61,10.9,10.52v4.56L-767-1805.92z"/>
			</g>
		</g>
		<g id="Grupo_1110" transform="translate(48.233 22.815)">
			<g id="Grupo_1109">
				<ellipse id="Elipse_64" class="st0" cx="-757.47" cy="-1811.47" rx="9.53" ry="9.53"/>
			</g>
		</g>
		<g id="Grupo_1113" transform="translate(18.747)">
			<g id="Grupo_1112">
				<g id="Grupo_1111">
					<path id="Trazado_680" class="st0" d="M-686.21-1793.75c-2.29-5.37-5.59-10.25-9.71-14.38c-4.06-4.09-8.89-7.33-14.2-9.56
						c-11.04-4.61-23.51-4.4-34.39,0.58c-5.24,2.4-9.95,5.81-13.87,10.04c-3.62,3.87-6.53,8.35-8.61,13.22l8.35-0.14
						c6.21-11.64,18.21-19.04,31.4-19.34c20.31-0.34,37.06,16.42,37.42,37.45c0.36,21.03-15.82,38.36-36.12,38.7
						c-13.19,0.14-25.44-6.84-32.04-18.27l-8.35,0.14c2.24,4.8,5.31,9.17,9.05,12.92c4.06,4.09,8.89,7.34,14.2,9.56
						c11.04,4.61,23.51,4.4,34.39-0.58c5.24-2.4,9.95-5.82,13.87-10.04c3.98-4.27,7.11-9.26,9.22-14.7
						C-681.16-1769.64-681.38-1782.42-686.21-1793.75L-686.21-1793.75z"/>
				</g>
			</g>
		</g>
		<g id="Grupo_1126" transform="translate(5.644 38.685)">
			<g id="Grupo_1119" transform="translate(0 4.178)">
				<g id="Grupo_1118">
					<g id="Grupo_1115" transform="translate(1.217 1.219)">
						<g id="Grupo_1114" transform="translate(0 0)">
							
								<rect id="Rectángulo_244" x="-764.56" y="-1821.15" transform="matrix(0.7071 -0.7071 0.7071 0.7071 1061.3607 -1071.7687)" class="st0" width="2.94" height="8.11"/>
						</g>
					</g>
					<g id="Grupo_1117">
						<g id="Grupo_1116">
							<path id="Trazado_681" class="st0" d="M-763.7-1818.56l4.52,4.52l-0.86,0.86l-4.52-4.52L-763.7-1818.56 M-763.7-1821
								l-1.22,1.22l-0.86,0.86l-1.22,1.22l1.22,1.22l4.52,4.52l1.22,1.22l1.22-1.22l0.86-0.86l1.22-1.22l-1.22-1.22l-4.52-4.52
								L-763.7-1821L-763.7-1821z"/>
						</g>
					</g>
				</g>
			</g>
			<g id="Grupo_1125" transform="translate(3.792)">
				<g id="Grupo_1124">
					<g id="Grupo_1121" transform="translate(1.218 1.218)">
						<g id="Grupo_1120" transform="translate(0 0)">
							
								<rect id="Rectángulo_245" x="-767.98" y="-1816.54" transform="matrix(0.7071 -0.7071 0.7071 0.7071 1060.5369 -1069.7828)" class="st0" width="13.82" height="2.94"/>
						</g>
					</g>
					<g id="Grupo_1123">
						<g id="Grupo_1122">
							<path id="Trazado_682" class="st0" d="M-756.01-1818.56l0.86,0.86l-8.55,8.55l-0.86-0.86L-756.01-1818.56 M-756.01-1821
								l-1.22,1.22l-8.55,8.55l-1.22,1.22l1.22,1.22l0.86,0.86l1.22,1.22l1.22-1.22l8.55-8.55l1.22-1.22l-1.22-1.22l-0.86-0.86
								L-756.01-1821L-756.01-1821z"/>
						</g>
					</g>
				</g>
			</g>
		</g>
		<g id="Grupo_1128" transform="translate(0 31.217)">
			<g id="Grupo_1127">
				<path id="Trazado_683" class="st0" d="M-752.32-1791.63c-8.11,0-14.68-6.57-14.68-14.68c0-8.11,6.57-14.68,14.68-14.68
					c8.11,0,14.68,6.57,14.68,14.68C-737.64-1798.21-744.21-1791.64-752.32-1791.63z M-752.32-1818.42c-6.68,0-12.1,5.42-12.1,12.1
					c0,6.68,5.42,12.1,12.1,12.1c6.68,0,12.1-5.42,12.1-12.1C-740.22-1813-745.64-1818.41-752.32-1818.42L-752.32-1818.42z"/>
			</g>
		</g>
	</g>
	<rect id="Rectángulo_246" x="-767.7" y="-1821.24" class="st1" width="140" height="140"/>
</g>
</svg>
