<?xml version="1.0" encoding="utf-8"?>
<!-- Generator: Adobe Illustrator 26.3.1, SVG Export Plug-In . SVG Version: 6.00 Build 0)  -->
<svg version="1.1" id="Capa_1" xmlns="http://www.w3.org/2000/svg" xmlns:xlink="http://www.w3.org/1999/xlink" x="0px" y="0px"
	 viewBox="0 0 140 140" style="enable-background:new 0 0 140 140;" xml:space="preserve">
<style type="text/css">
	.st0{fill:#0A2755;}
	.st1{fill:none;}
</style>
<g id="Grupo_1149" transform="translate(1267 1825.001)">
	<g id="Grupo_1148" transform="translate(44.54 17.403)">
		<path id="Trazado_690" class="st0" d="M-1216.28-1799.3c-0.03-1.99-0.28-3.96-0.76-5.89c-2.76-11.58-13.09-19.77-25-19.81
			c-13.9,0.19-25.04,11.55-24.96,25.45l0.29,59.6c0.09,10.82,8.86,19.56,19.68,19.61c10.6-0.15,19.1-8.82,19.05-19.42l-0.26-53.97
			c0.02-6.96-5.56-12.65-12.52-12.77c-6.87,0.02-12.42,5.6-12.4,12.47c0,0.06,0,0.11,0,0.17l0.25,54.1h6.51l-0.26-54.07
			c0.01-3.28,2.68-5.92,5.96-5.91c0.03,0,0.06,0,0.09,0c3.22,0.12,5.79,2.74,5.85,5.97l0.26,53.97c0.07,7.08-5.62,12.88-12.7,12.95
			c-0.06,0-0.12,0-0.18,0c-7.11-0.17-12.8-5.97-12.83-13.08l-0.29-59.6c-0.17-10.39,8.11-18.96,18.5-19.13c0.09,0,0.17,0,0.26,0
			c10.54,0.17,18.98,8.78,18.96,19.31l0.2,42.62l0.08,16.98c3.75,0,2.03,0.03,6.49,0.03L-1216.28-1799.3z"/>
	</g>
	<rect id="Rectángulo_248" x="-1267" y="-1825" class="st1" width="140" height="140"/>
</g>
</svg>
