<?xml version="1.0" encoding="utf-8"?>
<!-- Generator: Adobe Illustrator 26.3.1, SVG Export Plug-In . SVG Version: 6.00 Build 0)  -->
<svg version="1.1" id="Capa_1" xmlns="http://www.w3.org/2000/svg" xmlns:xlink="http://www.w3.org/1999/xlink" x="0px" y="0px"
	 viewBox="0 0 140 140" style="enable-background:new 0 0 140 140;" xml:space="preserve">
<style type="text/css">
	.st0{fill:#0A2755;}
	.st1{fill:none;}
</style>
<g id="Grupo_1167" transform="translate(241.403 808.404)">
	<g id="Grupo_1166" transform="translate(24.59 17.219)">
		<g id="Grupo_1151" transform="translate(20.821)">
			<g id="Grupo_1150">
				<path id="Trazado_691" class="st0" d="M-198.95-756.27h-32.38c-5.34-0.01-9.67-4.34-9.68-9.68v-1.92h5.68v1.92
					c0,2.21,1.79,4,4,4h32.38c2.21,0,4-1.79,4-4v-32.38c0-2.21-1.79-4-4-4h-32.38c-2.21,0-4,1.79-4,4v17.34H-241v-17.34
					c0.01-5.34,4.33-9.67,9.68-9.68h32.38c5.34,0.01,9.67,4.33,9.68,9.68v32.38C-189.28-760.6-193.6-756.28-198.95-756.27z"/>
			</g>
		</g>
		<g id="Grupo_1153" transform="translate(14.67 57.107)">
			<g id="Grupo_1152">
				<path id="Trazado_692" class="st0" d="M-186.64-788.65h-44.68c-5.34-0.01-9.67-4.34-9.67-9.69c0.01-5.34,4.33-9.66,9.67-9.67
					h44.68c5.34-0.01,9.68,4.32,9.69,9.67c0.01,5.34-4.32,9.68-9.67,9.69C-186.63-788.65-186.64-788.65-186.64-788.65
					L-186.64-788.65z M-231.32-802.33c-2.21,0-4,1.79-4,4s1.79,4,4,4h44.68c2.21,0,4-1.79,4-4s-1.79-4-4-4H-231.32z"/>
			</g>
		</g>
		<g id="Grupo_1155" transform="translate(4.513 34.721)">
			<g id="Grupo_1154">
				<path id="Trazado_693" class="st0" d="M-228-772.88h-4.42c-4.73,0-8.57-3.84-8.58-8.57V-808h5.68v26.54c0,1.6,1.3,2.9,2.9,2.9
					c0,0,0,0,0,0h4.42L-228-772.88z"/>
			</g>
		</g>
		<g id="Grupo_1157" transform="translate(0 30.811)">
			<g id="Grupo_1156">
				<rect id="Rectángulo_249" x="-241" y="-808" class="st0" width="49.63" height="5.68"/>
			</g>
		</g>
		<g id="Grupo_1159" transform="translate(21.506 75.804)">
			<g id="Grupo_1158">
				<rect id="Rectángulo_250" x="-241" y="-808" class="st0" width="5.68" height="28.81"/>
			</g>
		</g>
		<g id="Grupo_1161" transform="translate(64.662 75.804)">
			<g id="Grupo_1160">
				<rect id="Rectángulo_251" x="-241" y="-808" class="st0" width="5.68" height="28.81"/>
			</g>
		</g>
		<g id="Grupo_1163" transform="translate(43.847 47.836)">
			<g id="Grupo_1162">
				<rect id="Rectángulo_252" x="-241" y="-808" class="st0" width="5.68" height="14.4"/>
			</g>
		</g>
		<g id="Grupo_1165" transform="translate(23.659 84.321)">
			<g id="Grupo_1164">
				<rect id="Rectángulo_253" x="-241" y="-808" class="st0" width="43.84" height="5.68"/>
			</g>
		</g>
	</g>
	<rect id="Rectángulo_254" x="-241.4" y="-808.4" class="st1" width="140" height="140"/>
</g>
</svg>
