<?xml version="1.0" encoding="utf-8"?>
<!-- Generator: Adobe Illustrator 26.3.1, SVG Export Plug-In . SVG Version: 6.00 Build 0)  -->
<svg version="1.1" id="Capa_1" xmlns="http://www.w3.org/2000/svg" xmlns:xlink="http://www.w3.org/1999/xlink" x="0px" y="0px"
	 viewBox="0 0 140 140" style="enable-background:new 0 0 140 140;" xml:space="preserve">
<style type="text/css">
	.st0{fill:#0A2755;}
	.st1{fill:none;stroke:#0A2755;stroke-width:3;stroke-miterlimit:10;}
	.st2{fill:none;}
</style>
<g id="Grupo_1180" transform="translate(561.057 809.057)">
	<g id="Grupo_1170" transform="translate(38.669 24.734)">
		<g id="Grupo_1168">
			<path id="Trazado_694" class="st0" d="M-534.85-745.22c-15.17-2.89-26.15-16.16-26.15-31.61c0.02-17.76,14.41-32.15,32.17-32.17
				c10.63,0,20.58,5.25,26.58,14.03l-4.64,3.17c-4.95-7.25-13.16-11.58-21.93-11.58c-14.66,0.02-26.53,11.89-26.55,26.55
				c0,12.74,9.05,23.69,21.57,26.09L-534.85-745.22z"/>
		</g>
		<g id="Grupo_1169" transform="translate(26.675 61.022)">
			<path id="Trazado_695" class="st1" d="M-561-809"/>
		</g>
	</g>
	<g id="Grupo_1177" transform="translate(67.849 37.07)">
		<g id="Grupo_1172" transform="translate(22.539)">
			<g id="Grupo_1171">
				<path id="Trazado_696" class="st0" d="M-552.45-776.76h-5.74c-1.55,0-2.81-1.26-2.81-2.81l0,0v-26.62
					c0-1.55,1.26-2.81,2.81-2.81c0,0,0,0,0,0h5.74c8.68,0,12.32,4.48,12.32,11.41v8.98C-540.13-781.52-543.9-776.76-552.45-776.76z
					 M-555.38-782.38h2.93c4.19,0,6.7-1.63,6.7-6.22v-8.98c0-5.22-4.09-5.79-6.7-5.79h-2.93V-782.38z"/>
			</g>
		</g>
		<g id="Grupo_1174" transform="translate(5.86 25.139)">
			<g id="Grupo_1173">
				<path id="Trazado_697" class="st0" d="M-550.55-788.27H-561v-5.62h10.45c3.44,0,6.23-2.79,6.23-6.23V-809h5.62v8.87
					C-538.7-793.58-544.01-788.28-550.55-788.27z"/>
			</g>
		</g>
		<g id="Grupo_1176" transform="translate(0 37.327)">
			<g id="Grupo_1175">
				<ellipse id="Elipse_66" class="st0" cx="-555.14" cy="-803.14" rx="5.86" ry="5.86"/>
			</g>
		</g>
	</g>
	<g id="Grupo_1179" transform="translate(30.962 95.453)">
		<g id="Grupo_1178">
			<path id="Trazado_698" class="st0" d="M-483.72-781.88h-5.62v-8.34c0-9.47-3.39-13.15-12.1-13.15h-40.85
				c-8.92,0-13.08,4.18-13.08,13.15v8.34H-561v-8.34c0-12.11,6.64-18.78,18.7-18.78h40.85c11.76,0,17.72,6.32,17.72,18.78
				L-483.72-781.88z"/>
		</g>
	</g>
	<rect id="Rectángulo_255" x="-561.06" y="-809.06" class="st2" width="140" height="140"/>
</g>
</svg>
