<?xml version="1.0" encoding="utf-8"?>
<!-- Generator: Adobe Illustrator 26.3.1, SVG Export Plug-In . SVG Version: 6.00 Build 0)  -->
<svg version="1.1" id="Capa_1" xmlns="http://www.w3.org/2000/svg" xmlns:xlink="http://www.w3.org/1999/xlink" x="0px" y="0px"
	 viewBox="0 0 140 140" style="enable-background:new 0 0 140 140;" xml:space="preserve">
<style type="text/css">
	.st0{fill:#0A2755;}
	.st1{fill:none;}
</style>
<g id="Grupo_1187" transform="translate(871.182 807.162)">
	<g id="Grupo_1186" transform="translate(0.14 0)">
		<g id="Grupo_1185" transform="translate(17.379 50.424)">
			<g id="Grupo_1181">
				<path id="Trazado_699" class="st0" d="M-866.56-780.83c1.28,1.53,2.8,2.83,4.5,3.88c1.34,0.81,2.87,1.26,4.43,1.28
					c1.22,0.05,2.42-0.34,3.37-1.1c0.85-0.68,1.34-1.71,1.32-2.8c0.07-1.08-0.35-2.14-1.14-2.89c-0.76-0.68-2.49-1.37-5.17-2.09
					c-3.68-0.99-6.28-2.28-7.8-3.88c-1.6-1.79-2.42-4.15-2.28-6.55c-0.12-3.31,1.19-6.51,3.6-8.79c2.55-2.32,5.91-3.54,9.36-3.4
					c1.99-0.01,3.98,0.27,5.89,0.83c1.88,0.57,3.66,1.42,5.28,2.53l-3.21,7.37c-1.07-0.93-2.28-1.69-3.58-2.25
					c-1.15-0.49-2.38-0.75-3.63-0.76c-1.07-0.05-2.13,0.26-3,0.89c-0.73,0.52-1.17,1.37-1.15,2.27c-0.03,0.87,0.34,1.71,1.01,2.26
					c1.19,0.79,2.52,1.34,3.91,1.62l0.46,0.13c4.17,1.13,6.92,2.37,8.24,3.72c0.91,0.95,1.6,2.08,2.03,3.32
					c0.48,1.38,0.71,2.84,0.69,4.3c0.15,3.62-1.28,7.13-3.93,9.61c-2.62,2.42-6.11,3.63-10.47,3.63c-2.45,0.03-4.88-0.42-7.15-1.33
					c-2.31-1-4.41-2.42-6.2-4.18L-866.56-780.83z"/>
			</g>
			<g id="Grupo_1182" transform="translate(35.296 1.608)">
				<path id="Trazado_700" class="st0" d="M-871.18-769.59v-37.57h10.34v37.57H-871.18z"/>
			</g>
			<g id="Grupo_1183" transform="translate(53.918 0.898)">
				<path id="Trazado_701" class="st0" d="M-871.18-769.59v-37.57h7.83c5.84,0,9.96,0.27,12.38,0.82c2.29,0.49,4.45,1.42,6.38,2.75
					c2.34,1.61,4.2,3.81,5.41,6.38c2.46,5.65,2.46,12.08,0,17.73c-1.21,2.57-3.08,4.77-5.41,6.38c-1.88,1.29-3.99,2.21-6.21,2.71
					c-3.57,0.64-7.2,0.91-10.83,0.81L-871.18-769.59L-871.18-769.59z M-861.04-778.01h1.72c4.02,0,6.95-0.83,8.8-2.47
					c1.85-1.65,2.77-4.27,2.77-7.87c0-3.59-0.92-6.23-2.77-7.91c-1.85-1.68-4.78-2.51-8.8-2.52h-1.72L-861.04-778.01z"/>
			</g>
			<g id="Grupo_1184" transform="translate(94.477 0.898)">
				<path id="Trazado_702" class="st0" d="M-871.18-769.59v-37.57h10.34v37.57H-871.18z"/>
			</g>
		</g>
		<rect id="Rectángulo_256" x="-871.18" y="-807.16" class="st1" width="139.86" height="139.68"/>
	</g>
	<rect id="Rectángulo_257" x="-871.18" y="-806.84" class="st1" width="139.86" height="139.68"/>
</g>
</svg>
