<?xml version="1.0" encoding="utf-8"?>
<!-- Generator: Adobe Illustrator 26.3.1, SVG Export Plug-In . SVG Version: 6.00 Build 0)  -->
<svg version="1.1" id="Capa_1" xmlns="http://www.w3.org/2000/svg" xmlns:xlink="http://www.w3.org/1999/xlink" x="0px" y="0px"
	 viewBox="0 0 140 140" style="enable-background:new 0 0 140 140;" xml:space="preserve">
<style type="text/css">
	.st0{fill:#0A2755;}
	.st1{fill:none;}
</style>
<g id="Grupo_1390" transform="translate(1177.383 808.383)">
	<g id="Grupo_1389" transform="translate(17.476 20.675)">
		<g id="Grupo_1386">
			<path id="Trazado_770" class="st0" d="M-1086.26-808h-77.2c-7.47,0.01-13.53,6.06-13.54,13.54v54.58
				c0.01,7.47,6.07,13.53,13.54,13.53h35.75v13.92h-19v5.46h43.7v-5.46h-19.01v-13.92h35.76c7.47-0.01,13.53-6.06,13.54-13.53
				v-54.58C-1072.73-801.94-1078.79-807.99-1086.26-808z M-1078.12-739.89c-0.01,4.49-3.64,8.13-8.13,8.13h-77.2
				c-4.49,0-8.13-3.64-8.13-8.13v-54.58c0.01-4.49,3.64-8.12,8.13-8.13h77.2c4.49,0,8.13,3.64,8.13,8.13V-739.89z"/>
		</g>
		<g id="Grupo_1387" transform="translate(16.445 26.564)">
			<path id="Trazado_771" class="st0" d="M-1177-798.39l35.75,8.27l35.75-8.94l-35.75-8.93L-1177-798.39z"/>
		</g>
		<g id="Grupo_1388" transform="translate(34.319 44.063)">
			<path id="Trazado_772" class="st0" d="M-1177-808v13.41c0,0,5.14,8.59,17.88,8.94c12.9,0.35,17.87-8.93,17.87-8.93V-808
				l-17.87,4.7L-1177-808z"/>
		</g>
	</g>
	<rect id="Rectángulo_286" x="-1177.38" y="-808.38" class="st1" width="140" height="140"/>
</g>
</svg>
