<?xml version="1.0" encoding="utf-8"?>
<!-- Generator: Adobe Illustrator 26.3.1, SVG Export Plug-In . SVG Version: 6.00 Build 0)  -->
<svg version="1.1" id="Capa_1" xmlns="http://www.w3.org/2000/svg" xmlns:xlink="http://www.w3.org/1999/xlink" x="0px" y="0px"
	 viewBox="0 0 140 140" style="enable-background:new 0 0 140 140;" xml:space="preserve">
<style type="text/css">
	.st0{fill:none;stroke:#0A2755;stroke-width:33;stroke-miterlimit:10;}
	.st1{fill:#0A2755;}
	.st2{fill:none;}
</style>
<g id="Grupo_1213" transform="translate(1477.822 807.823)">
	<g id="Grupo_1194" transform="translate(100.418 89.324)">
		<g id="Grupo_1193">
			<path id="Trazado_706" class="st0" d="M-1478-808"/>
		</g>
	</g>
	<g id="Grupo_1196" transform="translate(74.338 30.853)">
		<g id="Grupo_1195">
			<path id="Trazado_707" class="st1" d="M-1465.94-789.43h-9.68c-1.31,0-2.38-1.06-2.38-2.38v-13.82c0-1.31,1.07-2.38,2.38-2.38
				h9.68c1.31,0,2.37,1.07,2.37,2.38v13.82C-1463.57-790.49-1464.63-789.43-1465.94-789.43L-1465.94-789.43z"/>
		</g>
	</g>
	<g id="Grupo_1198" transform="translate(53.249 30.853)">
		<g id="Grupo_1197">
			<path id="Trazado_708" class="st1" d="M-1465.94-789.43h-9.68c-1.31,0-2.38-1.06-2.38-2.38v-13.82c0-1.31,1.07-2.38,2.38-2.38
				h9.68c1.31,0,2.38,1.06,2.38,2.38v13.82C-1463.56-790.49-1464.62-789.43-1465.94-789.43z"/>
		</g>
	</g>
	<g id="Grupo_1200" transform="translate(74.338 58.159)">
		<g id="Grupo_1199">
			<path id="Trazado_709" class="st1" d="M-1465.94-789.43h-9.68c-1.31,0-2.38-1.06-2.38-2.38v-13.82c0-1.31,1.07-2.38,2.38-2.38
				h9.68c1.31,0,2.37,1.07,2.37,2.38v13.82C-1463.57-790.49-1464.63-789.43-1465.94-789.43L-1465.94-789.43z"/>
		</g>
	</g>
	<g id="Grupo_1202" transform="translate(53.249 58.159)">
		<g id="Grupo_1201">
			<path id="Trazado_710" class="st1" d="M-1465.94-789.43h-9.68c-1.31,0-2.38-1.06-2.38-2.38v-13.82c0-1.31,1.07-2.38,2.38-2.38
				h9.68c1.31,0,2.38,1.06,2.38,2.38v13.82C-1463.56-790.49-1464.62-789.43-1465.94-789.43z"/>
		</g>
	</g>
	<g id="Grupo_1204" transform="translate(74.338 84.832)">
		<g id="Grupo_1203">
			<path id="Trazado_711" class="st1" d="M-1465.94-789.43h-9.68c-1.31,0-2.38-1.06-2.38-2.37l0,0v-13.82
				c0-1.31,1.06-2.38,2.38-2.38h9.68c1.31,0,2.37,1.07,2.37,2.38v13.82C-1463.57-790.49-1464.63-789.43-1465.94-789.43
				C-1465.94-789.43-1465.94-789.43-1465.94-789.43L-1465.94-789.43z"/>
		</g>
	</g>
	<g id="Grupo_1206" transform="translate(53.249 84.832)">
		<g id="Grupo_1205">
			<path id="Trazado_712" class="st1" d="M-1465.94-789.43h-9.68c-1.31,0-2.38-1.06-2.38-2.37l0,0v-13.82
				c0-1.31,1.06-2.38,2.38-2.38h9.68c1.31,0,2.38,1.06,2.38,2.38v13.82C-1463.56-790.49-1464.62-789.43-1465.94-789.43
				C-1465.94-789.43-1465.94-789.43-1465.94-789.43z"/>
		</g>
	</g>
	<g id="Grupo_1208" transform="translate(100.418 89.324)">
		<g id="Grupo_1207">
			<path id="Trazado_713" class="st0" d="M-1478-808"/>
		</g>
	</g>
	<g id="Grupo_1210" transform="translate(38.905 17.234)">
		<g id="Grupo_1209">
			<path id="Trazado_714" class="st1" d="M-1421.69-802.79c0.99,0,1.79,0.81,1.79,1.79v85.78c0,0.99-0.8,1.79-1.79,1.79h-48.48v5.21
				h48.48c3.86-0.01,6.99-3.14,7-7v-85.78c-0.01-3.86-3.14-6.99-7-7H-1478v64.72h5.21v-59.51H-1421.69"/>
		</g>
	</g>
	<g id="Grupo_1212" transform="translate(23.37 90.274)">
		<g id="Grupo_1211">
			<path id="Trazado_715" class="st1" d="M-1451.91-800.8c-0.35-0.15-0.75-0.08-1.02,0.19l-2.71,2.71l-4.95-0.88l-0.88-4.95
				l2.71-2.71c0.27-0.27,0.34-0.67,0.19-1.02c-0.15-0.35-0.5-0.56-0.88-0.55c-1.92,0.09-3.73,0.89-5.09,2.25
				c-2.1,2.1-2.81,5.22-1.82,8.02l-10.65,10.65c-1.33,1.33-1.33,3.49,0,4.83c0,0,0,0,0,0c0.64,0.64,1.51,1,2.41,1
				c0.91,0,1.77-0.36,2.41-1l10.7-10.7c2.76,0.91,5.8,0.18,7.86-1.87c1.36-1.35,2.16-3.17,2.25-5.09
				C-1451.35-800.29-1451.56-800.64-1451.91-800.8L-1451.91-800.8z M-1472.93-784.29c-0.56,0.56-1.47,0.56-2.04,0c0,0,0,0,0,0
				c-0.56-0.56-0.56-1.47,0-2.04c0,0,0,0,0,0c0.56-0.56,1.47-0.56,2.04,0c0,0,0,0,0,0
				C-1472.37-785.76-1472.37-784.85-1472.93-784.29z"/>
		</g>
	</g>
	<rect id="Rectángulo_259" x="-1477.82" y="-807.82" class="st2" width="140" height="140"/>
</g>
</svg>
