<?xml version="1.0" encoding="utf-8"?>
<!-- Generator: Adobe Illustrator 26.3.1, SVG Export Plug-In . SVG Version: 6.00 Build 0)  -->
<svg version="1.1" id="Capa_1" xmlns="http://www.w3.org/2000/svg" xmlns:xlink="http://www.w3.org/1999/xlink" x="0px" y="0px"
	 viewBox="0 0 140 140" style="enable-background:new 0 0 140 140;" xml:space="preserve">
<style type="text/css">
	.st0{fill:#0A2755;}
	.st1{fill:none;}
</style>
<g id="Grupo_1222" transform="translate(245.097 1198.096)">
	<g id="Grupo_1221" transform="translate(36.716 37.29)">
		<g id="Grupo_1214">
			<path id="Trazado_716" class="st0" d="M-173.09-1128.9l-19.91-19.71c0.32-0.34,0.66-0.66,0.97-1.01
				c4.67-5.26,7.25-12.03,7.27-19.06c0-16.17-13.51-29.32-30.12-29.32s-30.12,13.15-30.12,29.32s13.51,29.32,30.12,29.32
				c6.53-0.01,12.89-2.1,18.15-5.98l20.12,19.92L-173.09-1128.9z M-214.88-1144.39c-13.83,0-25.09-10.9-25.09-24.29
				c0-13.39,11.25-24.29,25.09-24.29s25.09,10.9,25.09,24.29c-0.02,5.8-2.16,11.39-6.01,15.73c-0.99,1.13-2.08,2.17-3.26,3.1
				C-203.58-1146.31-209.15-1144.39-214.88-1144.39z"/>
		</g>
		<g id="Grupo_1216" transform="translate(22.037 11.954)">
			<g id="Grupo_1215" transform="translate(0 0)">
				<ellipse id="Elipse_67" class="st0" cx="-236.7" cy="-1189.7" rx="7.24" ry="7.24"/>
			</g>
		</g>
		<g id="Grupo_1220" transform="translate(17.408 31.05)">
			<g id="Grupo_1217" transform="translate(11.126 2.032)">
				<path id="Trazado_717" class="st0" d="M-245-1191.3l1.8,2.08l1.8-2.08l-1.8-6.7L-245-1191.3z"/>
			</g>
			<g id="Grupo_1218">
				<path id="Trazado_718" class="st0" d="M-235.14-1188.97l0.16-0.59l1.8-6.7l0.47-1.73h-4.39c-4.29-0.07-7.82,3.34-7.9,7.63v3.3
					h11.52l-1.26-1.45L-235.14-1188.97z"/>
			</g>
			<g id="Grupo_1219" transform="translate(13.567)">
				<path id="Trazado_719" class="st0" d="M-240.61-1198H-245l0.47,1.73l1.8,6.7l0.16,0.59l-0.4,0.46l-1.26,1.45h11.53v-3.3
					C-232.79-1194.66-236.32-1198.07-240.61-1198z"/>
			</g>
		</g>
	</g>
	<rect id="Rectángulo_260" x="-245.1" y="-1198.1" class="st1" width="140" height="140"/>
</g>
</svg>
