<?xml version="1.0" encoding="utf-8"?>
<!-- Generator: Adobe Illustrator 26.3.1, SVG Export Plug-In . SVG Version: 6.00 Build 0)  -->
<svg version="1.1" id="Capa_1" xmlns="http://www.w3.org/2000/svg" xmlns:xlink="http://www.w3.org/1999/xlink" x="0px" y="0px"
	 viewBox="0 0 140 140" style="enable-background:new 0 0 140 140;" xml:space="preserve">
<style type="text/css">
	.st0{fill:#0A2755;}
	.st1{fill:none;}
</style>
<g id="Grupo_1234" transform="translate(559.161 1194.162)">
	<g id="Grupo_1233" transform="translate(17.545 22.88)">
		<g id="Grupo_1224">
			<g id="Grupo_1223">
				<path id="Trazado_720" class="st0" d="M-469.93-1117.94h-49.84c-3.7-0.01-6.86-2.69-7.45-6.35l-10.82-63.92H-559v-5.8h25.8
					l3.96,23.42h66.93c2.31,0,4.49,1.06,5.91,2.88c1.43,1.81,1.97,4.18,1.46,6.43l-7.64,37.38l-0.01,0.03
					C-463.33-1120.4-466.39-1117.94-469.93-1117.94z M-528.26-1164.78l6.69,39.52c0.14,0.88,0.9,1.53,1.79,1.53h49.84
					c0.84,0,1.57-0.58,1.77-1.4l7.63-37.37l0.01-0.03c0.13-0.54,0-1.12-0.35-1.56c-0.34-0.44-0.87-0.69-1.42-0.69L-528.26-1164.78z"
					/>
			</g>
		</g>
		<g id="Grupo_1227" transform="translate(23.136 70.355)">
			<g id="Grupo_1226">
				<g id="Grupo_1225">
					<path id="Trazado_721" class="st0" d="M-547.29-1188.2c3.27,0,5.91,2.65,5.91,5.92c0,3.27-2.65,5.91-5.92,5.91
						c-3.27,0-5.91-2.65-5.91-5.92C-553.2-1185.56-550.55-1188.2-547.29-1188.2 M-547.29-1194c-6.47,0-11.71,5.24-11.71,11.71
						c0,6.47,5.24,11.71,11.71,11.71c6.47,0,11.71-5.24,11.71-11.71c0,0,0,0,0,0C-535.58-1188.76-540.82-1194-547.29-1194z"/>
				</g>
			</g>
		</g>
		<g id="Grupo_1230" transform="translate(80.978 70.355)">
			<g id="Grupo_1229">
				<g id="Grupo_1228">
					<path id="Trazado_722" class="st0" d="M-547.29-1188.2c3.27,0,5.91,2.65,5.91,5.92c0,3.27-2.65,5.91-5.92,5.91
						c-3.27,0-5.91-2.65-5.91-5.92C-553.2-1185.56-550.55-1188.2-547.29-1188.2 M-547.29-1194c-6.47,0-11.71,5.24-11.71,11.71
						s5.24,11.71,11.71,11.71c6.47,0,11.71-5.24,11.71-11.71C-535.58-1188.76-540.82-1194-547.29-1194
						C-547.29-1194-547.29-1194-547.29-1194z"/>
				</g>
			</g>
		</g>
		<g id="Grupo_1232" transform="translate(28.413 36.132)">
			<g id="Grupo_1231">
				<rect id="Rectángulo_261" x="-559" y="-1194" class="st0" width="71.54" height="2.63"/>
			</g>
		</g>
	</g>
	<rect id="Rectángulo_262" x="-559.16" y="-1194.16" class="st1" width="140" height="140"/>
</g>
</svg>
