<?xml version="1.0" encoding="utf-8"?>
<!-- Generator: Adobe Illustrator 26.3.1, SVG Export Plug-In . SVG Version: 6.00 Build 0)  -->
<svg version="1.1" id="Capa_1" xmlns="http://www.w3.org/2000/svg" xmlns:xlink="http://www.w3.org/1999/xlink" x="0px" y="0px"
	 viewBox="0 0 140 140" style="enable-background:new 0 0 140 140;" xml:space="preserve">
<style type="text/css">
	.st0{fill:#0A2755;}
	.st1{fill:none;}
</style>
<g id="Grupo_1240" transform="translate(877.999 1194.999)">
	<g id="Grupo_1239" transform="translate(24.075 38.996)">
		<g id="Grupo_1236">
			<g id="Grupo_1235">
				<path id="Trazado_723" class="st0" d="M-781.87-1187.61c-1.03-0.63-2.31-0.68-3.4-0.15l-22.88,11.27v-8.19
					c-0.05-5.74-4.74-10.36-10.48-10.31h-48.89c-5.74-0.05-10.43,4.57-10.48,10.31c0,0,0,0,0,0v41.25
					c0.05,5.74,4.74,10.35,10.48,10.31h48.89c5.74,0.04,10.43-4.57,10.48-10.31v-8.19l22.89,11.28c1.72,0.85,3.8,0.17,4.68-1.54
					c0.24-0.48,0.37-1.01,0.37-1.55v-41.24C-780.22-1185.88-780.84-1186.99-781.87-1187.61z M-814.7-1142.71
					c-0.02,1.96-1.62,3.54-3.58,3.52c0,0,0,0,0,0h-50.1c-1.96,0.02-3.56-1.56-3.58-3.52c0,0,0,0,0,0v-42.27
					c0.02-1.96,1.62-3.54,3.58-3.52h50.1c1.96-0.01,3.56,1.56,3.58,3.52V-1142.71z M-785.98-1148.35l-21.86-10.76v-9.91l21.86-10.76
					V-1148.35z"/>
			</g>
		</g>
		<g id="Grupo_1238" transform="translate(18.142 18.44)">
			<g id="Grupo_1237">
				<path id="Trazado_724" class="st0" d="M-864.93-1168.86c-7.21-0.01-13.06-5.85-13.06-13.07c0.01-7.21,5.85-13.06,13.07-13.07
					c7.21,0.01,13.06,5.85,13.07,13.07C-851.87-1174.72-857.72-1168.87-864.93-1168.86z M-864.93-1192.24
					c-5.69,0.01-10.3,4.62-10.31,10.31c0.01,5.69,4.62,10.3,10.31,10.31c5.69-0.01,10.31-4.62,10.31-10.31
					C-854.63-1187.62-859.24-1192.23-864.93-1192.24L-864.93-1192.24z"/>
			</g>
		</g>
	</g>
	<rect id="Rectángulo_263" x="-878" y="-1195" class="st1" width="140" height="140"/>
</g>
</svg>
