<?xml version="1.0" encoding="utf-8"?>
<!-- Generator: Adobe Illustrator 26.3.1, SVG Export Plug-In . SVG Version: 6.00 Build 0)  -->
<svg version="1.1" id="Capa_1" xmlns="http://www.w3.org/2000/svg" xmlns:xlink="http://www.w3.org/1999/xlink" x="0px" y="0px"
	 viewBox="0 0 140 140" style="enable-background:new 0 0 140 140;" xml:space="preserve">
<style type="text/css">
	.st0{fill:#0A2755;}
	.st1{fill:none;}
</style>
<g id="Grupo_1266" transform="translate(1177.099 1194.099)">
	<g id="Grupo_1262" transform="translate(17.531 20.738)">
		<g id="Grupo_1261">
			<path id="Trazado_730" class="st0" d="M-1085.98-1194h-77.44c-7.5,0.01-13.57,6.08-13.58,13.58v54.74
				c0.01,7.5,6.08,13.57,13.58,13.58h35.86v13.96h-19.06v5.48h43.83v-5.48h-19.06v-13.96h35.86c7.5-0.01,13.57-6.08,13.58-13.58
				v-54.74C-1072.41-1187.92-1078.49-1193.99-1085.98-1194z M-1077.82-1125.68c-0.01,4.5-3.66,8.15-8.16,8.15h-77.44
				c-4.5-0.01-8.15-3.65-8.16-8.15v-54.74c0.01-4.5,3.65-8.15,8.16-8.15h77.44c4.5,0,8.15,3.65,8.16,8.15V-1125.68z"/>
		</g>
	</g>
	<g id="Grupo_1263" transform="translate(40.263 46.02)">
		<path id="Trazado_731" class="st0" d="M-1170.4-1175.29l-1.89,4.84h-4.72l8.94-23.55h3.47l8.7,23.55h-4.78l-1.76-4.84H-1170.4z
			 M-1166.53-1187.28h-0.06l-2.52,8.34h5.45L-1166.53-1187.28z"/>
		<path id="Trazado_732" class="st0" d="M-1153-1193.39h5.57c4.26,0,6.88,1.67,6.88,6.24c0.1,1.72-0.65,3.38-2.01,4.44
			c2.71,0.49,3.92,3.23,3.92,5.75c0,4.5-3.16,6.51-7.33,6.51h-7.03V-1193.39z M-1148.52-1183.84h0.55c2.19,0,3.25-0.64,3.25-3.01
			c0-2.34-1.34-2.95-3.22-2.95h-0.58L-1148.52-1183.84z M-1148.52-1174.04h0.94c2.4,0,4.47-0.3,4.47-3.29c0-2.99-2.43-3.1-4.69-3.1
			h-0.73V-1174.04z"/>
		<path id="Trazado_733" class="st0" d="M-1119.32-1187.31c-1.24-1.52-3.09-2.41-5.05-2.43c-4.29,0-6.76,3.96-6.76,7.91
			c0,3.86,2.56,7.73,6.72,7.73c1.96-0.06,3.8-0.95,5.08-2.44v5.32c-1.61,0.84-3.39,1.31-5.2,1.37c-6.45,0-11.23-5.57-11.23-11.9
			c0-6.51,4.59-12.26,11.32-12.26c1.79,0.01,3.55,0.47,5.11,1.34L-1119.32-1187.31z"/>
	</g>
	<g id="Grupo_1265" transform="translate(26.885 72.084)">
		<g id="Grupo_1264">
			<path id="Trazado_734" class="st0" d="M-1160.98-1189.13l-4.01,10.82l-2.89-2.89l-4.02,4.03l-1.14-1.14l4.02-4.02l-2.64-2.65
				L-1160.98-1189.13 M-1156.18-1194l-5.81,2.26l-10.68,4.15l-4.01,1.56l3.04,3.04l0.66,0.66l-2.04,2.04l-1.98,1.98l1.98,1.98
				l1.14,1.14l1.98,1.98l1.98-1.98l2.04-2.04l0.9,0.9l3.1,3.1l1.52-4.11l4.01-10.82L-1156.18-1194L-1156.18-1194z"/>
		</g>
	</g>
	<rect id="Rectángulo_269" x="-1177.1" y="-1194.1" class="st1" width="140" height="140"/>
</g>
</svg>
