<?xml version="1.0" encoding="utf-8"?>
<!-- Generator: Adobe Illustrator 26.3.1, SVG Export Plug-In . SVG Version: 6.00 Build 0)  -->
<svg version="1.1" id="Capa_1" xmlns="http://www.w3.org/2000/svg" xmlns:xlink="http://www.w3.org/1999/xlink" x="0px" y="0px"
	 viewBox="0 0 140 140" style="enable-background:new 0 0 140 140;" xml:space="preserve">
<style type="text/css">
	.st0{fill:#0A2755;}
	.st1{fill:none;}
</style>
<g id="Grupo_1326" transform="translate(1475.888 1193.888)">
	<g id="Grupo_1309" transform="translate(45.626 11.718)">
		<g id="Grupo_1308">
			<path id="Trazado_747" class="st0" d="M-1451.6-1194c-10.37,0.02-19.83,5.92-24.4,15.23h6.56c3.99-5.94,10.68-9.51,17.84-9.51
				c11.87,0.01,21.49,9.63,21.5,21.5c-0.01,11.87-9.63,21.49-21.5,21.5c-6.08,0-11.87-2.59-15.94-7.11h-7.13
				c4.96,7.97,13.68,12.82,23.06,12.83c15.03-0.02,27.2-12.19,27.22-27.22C-1424.4-1181.8-1436.58-1193.98-1451.6-1194z"/>
		</g>
	</g>
	<g id="Grupo_1319" transform="translate(33.17 73.149)">
		<g id="Grupo_1312">
			<g id="Grupo_1311">
				<g id="Grupo_1310">
					<path id="Trazado_748" class="st0" d="M-1419.33-1188.28c0.28,0.29,0.41,0.69,0.34,1.09v6.62c0,1.3-0.22,0.96-0.34,1.09h-50.6
						c-0.4,0-0.34-0.49-0.34-1.09v-6.62c0-0.6,0-1.09,0.34-1.09L-1419.33-1188.28 M-1419.15-1194h-50.96
						c-3.25,0-5.88,3.05-5.88,6.81v6.62c0,3.76,2.63,6.81,5.88,6.81h50.96c3.25,0,5.89-3.05,5.89-6.81v-6.62
						C-1413.27-1190.95-1415.9-1194-1419.15-1194L-1419.15-1194z"/>
				</g>
			</g>
		</g>
		<g id="Grupo_1315" transform="translate(11.014 14.526)">
			<g id="Grupo_1314">
				<g id="Grupo_1313">
					<path id="Trazado_749" class="st0" d="M-1419.33-1188.28c0.28,0.29,0.4,0.69,0.35,1.09v6.62c0,1.3-0.22,0.96-0.35,1.09h-50.6
						c-0.4,0-0.35-0.49-0.35-1.09v-6.62c0-0.6,0-1.09,0.35-1.09H-1419.33 M-1419.15-1194h-50.96c-3.25,0-5.89,3.05-5.89,6.81v6.62
						c0,3.76,2.64,6.81,5.89,6.81h50.96c3.25,0,5.89-3.05,5.89-6.81v-6.62C-1413.26-1190.95-1415.9-1194-1419.15-1194L-1419.15-1194
						z"/>
				</g>
			</g>
		</g>
		<g id="Grupo_1318" transform="translate(4.053 29.053)">
			<g id="Grupo_1317">
				<g id="Grupo_1316">
					<path id="Trazado_750" class="st0" d="M-1419.33-1188.28c0.28,0.29,0.41,0.69,0.34,1.09v6.62c0,1.3-0.22,0.96-0.34,1.09h-50.6
						c-0.4,0-0.34-0.49-0.34-1.09v-6.62c0-0.6,0-1.09,0.34-1.09H-1419.33 M-1419.15-1194h-50.96c-3.25,0-5.89,3.05-5.89,6.81v6.62
						c0,3.76,2.64,6.81,5.89,6.81h50.96c3.25,0,5.89-3.05,5.89-6.81v-6.62C-1413.27-1190.95-1415.91-1194-1419.15-1194
						L-1419.15-1194z"/>
				</g>
			</g>
		</g>
	</g>
	<g id="Grupo_1321" transform="translate(61.401 21.026)">
		<g id="Grupo_1320">
			<path id="Trazado_751" class="st0" d="M-1458.72-1170.62c0-5.3-5.25-7.98-8.8-8.12c-3.06-0.12-3.06-2.14-3.06-2.8
				c0.07-1.76,1.49-3.15,3.25-3.19c1.54,0.18,2.95,0.96,3.9,2.18l-0.01-0.02l4.21-3.07c-1.42-1.78-3.31-3.11-5.47-3.83v-4.52h-5.25
				v4.53c-1.37,0.44-2.6,1.22-3.58,2.28c-1.45,1.53-2.26,3.54-2.29,5.64c-0.11,2.49,1.04,4.86,3.05,6.31
				c1.49,1.01,3.23,1.58,5.03,1.63c1.11,0.04,3.77,0.97,3.77,2.99c0.14,1.64-1.09,3.08-2.73,3.21c-0.18,0.02-0.37,0.01-0.55-0.01
				c-2.01,0-3.88-2.02-4.43-2.78l-4.34,2.9c1.51,2.11,3.62,3.71,6.05,4.6v4.53h5.25v-4.47c1.29-0.33,2.48-0.97,3.47-1.86
				C-1459.56-1166.08-1458.65-1168.31-1458.72-1170.62z"/>
		</g>
	</g>
	<g id="Grupo_1323" transform="translate(37.766 38.571)">
		<g id="Grupo_1322">
			<rect id="Rectángulo_277" x="-1476" y="-1194" class="st0" width="21.91" height="2.57"/>
		</g>
	</g>
	<g id="Grupo_1325" transform="translate(47.411 28.937)">
		<g id="Grupo_1324">
			<rect id="Rectángulo_278" x="-1476" y="-1194" class="st0" width="2.57" height="21.91"/>
		</g>
	</g>
	<rect id="Rectángulo_279" x="-1475.89" y="-1193.89" class="st1" width="140" height="140"/>
</g>
</svg>
