<?xml version="1.0" encoding="utf-8"?>
<!-- Generator: Adobe Illustrator 26.3.1, SVG Export Plug-In . SVG Version: 6.00 Build 0)  -->
<svg version="1.1" id="Capa_1" xmlns="http://www.w3.org/2000/svg" xmlns:xlink="http://www.w3.org/1999/xlink" x="0px" y="0px"
	 viewBox="0 0 140 140" style="enable-background:new 0 0 140 140;" xml:space="preserve">
<style type="text/css">
	.st0{fill:#0A2755;}
	.st1{fill:none;}
</style>
<g id="Grupo_1338" transform="translate(241 1608)">
	<g id="Grupo_1336" transform="translate(23.293 35.788)">
		<g id="Grupo_1329">
			<g id="Grupo_1328">
				<g id="Grupo_1327">
					<path id="Trazado_752" class="st0" d="M-184.82-1602.33c0.28,0.29,0.4,0.69,0.34,1.08v6.57c0,1.29-0.22,0.95-0.34,1.08h-50.17
						c-0.4,0-0.34-0.49-0.34-1.08v-6.56c0-0.6,0-1.08,0.34-1.08L-184.82-1602.33 M-184.65-1608h-50.52c-3.22,0-5.84,3.02-5.84,6.75
						v6.57c0,3.73,2.61,6.75,5.84,6.75h50.52c3.22,0,5.83-3.02,5.83-6.75v-6.57C-178.81-1604.98-181.43-1608-184.65-1608z"/>
				</g>
			</g>
		</g>
		<g id="Grupo_1332" transform="translate(10.92 24.107)">
			<g id="Grupo_1331">
				<g id="Grupo_1330">
					<path id="Trazado_753" class="st0" d="M-184.82-1602.33c0.27,0.29,0.4,0.69,0.34,1.08v6.57c0,1.29-0.22,0.95-0.34,1.08h-50.17
						c-0.4,0-0.34-0.49-0.34-1.08v-6.57c0-0.6,0-1.08,0.34-1.08H-184.82 M-184.64-1608h-50.52c-3.22,0-5.84,3.02-5.84,6.75v6.57
						c0,3.73,2.61,6.75,5.84,6.75h50.52c3.22,0,5.83-3.02,5.83-6.75v-6.57C-178.81-1604.98-181.42-1608-184.64-1608z"/>
				</g>
			</g>
		</g>
		<g id="Grupo_1335" transform="translate(0 47.418)">
			<g id="Grupo_1334">
				<g id="Grupo_1333">
					<path id="Trazado_754" class="st0" d="M-184.82-1602.33c0.28,0.29,0.4,0.69,0.34,1.08v6.56c0,1.29-0.22,0.95-0.34,1.08h-50.17
						c-0.4,0-0.34-0.49-0.34-1.08v-6.56c0-0.6,0-1.08,0.34-1.08H-184.82 M-184.65-1608h-50.52c-3.22,0-5.84,3.02-5.84,6.75v6.56
						c0,3.73,2.61,6.75,5.84,6.75h50.52c3.22,0,5.83-3.02,5.83-6.75v-6.56C-178.81-1604.98-181.43-1608-184.65-1608z"/>
				</g>
			</g>
		</g>
	</g>
	<g id="Grupo_1337" transform="translate(103.779 49.728)">
		<path id="Trazado_755" class="st0" d="M-221.51-1581.63c0-5.98-5.93-9.01-9.93-9.16c-3.45-0.14-3.45-2.42-3.45-3.16
			c0.07-1.98,1.68-3.56,3.66-3.59c2.02,0,3.86,1.78,4.39,2.46l-0.01-0.02l4.74-3.46c-1.6-2.01-3.74-3.51-6.17-4.32v-5.1h-5.92v5.11
			c-3.88,1.26-6.54,4.85-6.62,8.93c-0.13,2.8,1.17,5.48,3.45,7.12c1.68,1.14,3.65,1.78,5.68,1.84c1.25,0.05,4.25,1.09,4.25,3.37
			c0.15,1.85-1.23,3.47-3.08,3.63c-0.21,0.02-0.41,0.01-0.62-0.01c-2.26,0-4.38-2.28-4.99-3.14l-4.89,3.27
			c1.7,2.38,4.08,4.18,6.82,5.18v5.11h5.92v-5.04C-224.15-1573.63-221.32-1577.4-221.51-1581.63L-221.51-1581.63z"/>
	</g>
	<rect id="Rectángulo_280" x="-241" y="-1608" class="st1" width="140" height="140"/>
</g>
</svg>
