<?xml version="1.0" encoding="utf-8"?>
<!-- Generator: Adobe Illustrator 26.3.1, SVG Export Plug-In . SVG Version: 6.00 Build 0)  -->
<svg version="1.1" id="Capa_1" xmlns="http://www.w3.org/2000/svg" xmlns:xlink="http://www.w3.org/1999/xlink" x="0px" y="0px"
	 viewBox="0 0 140 140" style="enable-background:new 0 0 140 140;" xml:space="preserve">
<style type="text/css">
	.st0{fill:#0A2755;}
	.st1{fill:none;}
</style>
<g id="Grupo_1014" transform="translate(500.76 759.76)">
	<g id="Grupo_1013" transform="translate(23.509 23.143)">
		<g id="Grupo_1004" transform="translate(6.382)">
			<g id="Grupo_1003">
				<path id="Trazado_649" class="st0" d="M-495.31-717.35H-501c0-24.41,21.27-42.65,40.28-42.65c15.69,0,34.81,11.06,39.33,31.57
					l-5.55,1.23c-3.88-17.6-20.3-27.1-33.78-27.1C-477.05-754.31-495.31-738.5-495.31-717.35z"/>
			</g>
		</g>
		<g id="Grupo_1006" transform="translate(70.367 37.93)">
			<g id="Grupo_1005">
				<path id="Trazado_650" class="st0" d="M-492.35-722.54h-5.81c-1.57,0-2.84-1.27-2.85-2.85v-31.77c0-1.57,1.27-2.84,2.85-2.85
					h5.81c8.78,0,14.46,4.53,14.46,11.55v13.93C-477.89-727.35-483.7-722.54-492.35-722.54z M-495.31-728.23h2.96
					c4.24,0,8.77-1.65,8.77-6.29v-13.93c0-5.28-6.13-5.86-8.77-5.86h-2.96V-728.23z"/>
			</g>
		</g>
		<g id="Grupo_1008" transform="translate(0 37.93)">
			<g id="Grupo_1007">
				<path id="Trazado_651" class="st0" d="M-480.73-722.54h-5.81c-8.78,0-14.46-4.53-14.46-11.55v-13.93
					c0-7.17,5.81-11.98,14.46-11.98h5.81c1.57,0,2.84,1.27,2.85,2.84v31.77C-477.89-723.81-479.16-722.54-480.73-722.54z
					 M-486.54-754.31c-4.24,0-8.77,1.65-8.77,6.29v13.93c0,5.29,6.13,5.86,8.77,5.86h2.96v-26.08H-486.54z"/>
			</g>
		</g>
		<g id="Grupo_1010" transform="translate(44.666 68.205)">
			<g id="Grupo_1009">
				<path id="Trazado_652" class="st0" d="M-481.6-739.03H-501v-5.69h19.4c3.48-0.01,6.3-2.83,6.3-6.31V-760h5.69v8.97
					C-469.62-744.41-474.98-739.04-481.6-739.03z"/>
			</g>
		</g>
		<g id="Grupo_1012" transform="translate(39.181 78.846)">
			<g id="Grupo_1011">
				<ellipse id="Elipse_61" class="st0" cx="-493.52" cy="-752.52" rx="7.48" ry="7.48"/>
			</g>
		</g>
	</g>
	<rect id="Rectángulo_230" x="-500.76" y="-759.76" class="st1" width="140" height="140"/>
</g>
</svg>
