<?xml version="1.0" encoding="utf-8"?>
<!-- Generator: Adobe Illustrator 26.3.1, SVG Export Plug-In . SVG Version: 6.00 Build 0)  -->
<svg version="1.1" id="Capa_1" xmlns="http://www.w3.org/2000/svg" xmlns:xlink="http://www.w3.org/1999/xlink" x="0px" y="0px"
	 viewBox="0 0 140 140" style="enable-background:new 0 0 140 140;" xml:space="preserve">
<style type="text/css">
	.st0{fill:#0A2755;}
	.st1{fill:none;}
</style>
<g id="Grupo_1245" transform="translate(876.67 1607.67)">
	<g id="Grupo_1241" transform="translate(26.279 26.279)">
		<path id="Trazado_725" class="st0" d="M-833.02-1605.15c22.72,0,41.13,18.42,41.13,41.13s-18.42,41.13-41.13,41.13
			c-22.72,0-41.13-18.42-41.13-41.13C-874.13-1586.73-855.73-1605.13-833.02-1605.15 M-833.02-1608
			c-24.29,0-43.98,19.69-43.98,43.98s19.69,43.98,43.98,43.98c24.29,0,43.98-19.69,43.98-43.98c0,0,0,0,0,0
			C-789.04-1588.31-808.73-1608-833.02-1608z"/>
	</g>
	<g id="Grupo_1242" transform="translate(13.792 13.792)">
		<path id="Trazado_726" class="st0" d="M-820.53-1602.3c28.04,0,50.77,22.73,50.77,50.77s-22.73,50.77-50.77,50.77
			s-50.77-22.73-50.77-50.77c0,0,0,0,0,0C-871.3-1579.57-848.57-1602.3-820.53-1602.3 M-820.53-1608
			c-31.19,0-56.47,25.28-56.47,56.47s25.28,56.47,56.47,56.47c31.18,0,56.47-25.28,56.47-56.46
			C-764.1-1582.7-789.36-1607.96-820.53-1608L-820.53-1608z"/>
	</g>
	<g id="Grupo_1244" transform="translate(45.223 49.319)">
		<g id="Grupo_1243">
			<path id="Trazado_727" class="st0" d="M-835.73-1603.05l-2.6,7.02l-8.87,23.99l-1.82,4.93l-3.72-3.72l-2-2l-2.02-2.02l-2.01,2.02
				l-4.53,4.53l-2.38,2.38l-2.38-2.38l-2.53-2.53l-2.38-2.38l2.38-2.38l4.53-4.53l2.01-2.02l-2.01-2.01l-1.47-1.47l-3.65-3.65
				l4.81-1.87l23.66-9.2L-835.73-1603.05 M-830.87-1608l-12.88,5.01l-23.66,9.2l-8.88,3.45l6.74,6.74l1.47,1.46l-4.53,4.53l-4.4,4.4
				l4.4,4.4l2.53,2.53l4.39,4.4l4.4-4.4l4.53-4.53l2,2l6.86,6.86l3.37-9.1l8.88-23.99L-830.87-1608L-830.87-1608z"/>
		</g>
	</g>
	<rect id="Rectángulo_264" x="-876.67" y="-1607.67" class="st1" width="140" height="140"/>
</g>
</svg>
