<?xml version="1.0" encoding="utf-8"?>
<!-- Generator: Adobe Illustrator 26.3.1, SVG Export Plug-In . SVG Version: 6.00 Build 0)  -->
<svg version="1.1" id="Capa_1" xmlns="http://www.w3.org/2000/svg" xmlns:xlink="http://www.w3.org/1999/xlink" x="0px" y="0px"
	 viewBox="0 0 140 140" style="enable-background:new 0 0 140 140;" xml:space="preserve">
<style type="text/css">
	.st0{fill:#0A2755;}
	.st1{fill:none;}
</style>
<g id="Grupo_1288" transform="translate(1176.553 1607.553)">
	<g id="Grupo_1287" transform="translate(23.461 17.604)">
		<g id="Grupo_1285" transform="translate(20.326 15.154)">
			<g id="Grupo_1278" transform="translate(3.131)">
				<g id="Grupo_1277">
					<g id="Grupo_1276">
						<rect id="Rectángulo_271" x="-1177" y="-1608" class="st0" width="46.92" height="2.27"/>
					</g>
				</g>
			</g>
			<g id="Grupo_1281" transform="translate(3.131 79.521)">
				<g id="Grupo_1280">
					<g id="Grupo_1279">
						<rect id="Rectángulo_272" x="-1177" y="-1608" class="st0" width="46.92" height="2.27"/>
					</g>
				</g>
			</g>
			<g id="Grupo_1284" transform="translate(0 10.611)">
				<g id="Grupo_1282">
					<path id="Trazado_739" class="st0" d="M-1173.76-1581.11c0.02-13.06,10.6-23.64,23.65-23.65c7.88-0.02,15.25,3.92,19.6,10.49
						h-8.13v3.24h12.72v-12.48h-3.24v5.54c-5.08-6.37-12.8-10.06-20.95-10.03c-14.84,0.02-26.87,12.05-26.89,26.89v0.32h3.24
						V-1581.11z"/>
				</g>
				<g id="Grupo_1283" transform="translate(1.603 32.078)">
					<path id="Trazado_740" class="st0" d="M-1128.58-1608l-0.07,0.31c-2.88,12.72-15.53,20.69-28.24,17.8
						c-6.06-1.37-11.33-5.08-14.68-10.32h6.84v-3.24H-1177v12.3h3.24v-6.48c8.46,12.19,25.2,15.21,37.39,6.75
						c5.51-3.82,9.39-9.57,10.88-16.11l0.07-0.31L-1128.58-1608z"/>
				</g>
			</g>
		</g>
		<g id="Grupo_1286">
			<path id="Trazado_741" class="st0" d="M-1094.45-1608h-71.29c-6.22,0.01-11.26,5.04-11.26,11.26v88.79
				c0.01,6.22,5.05,11.25,11.26,11.26h71.29c6.22-0.01,11.25-5.05,11.26-11.26v-88.79C-1083.2-1602.95-1088.24-1607.99-1094.45-1608
				z M-1094.45-1502.49h-71.27c-3.01,0-5.45-2.44-5.45-5.45v-57.2h-0.02v-31.59c0-3.01,2.44-5.45,5.45-5.46h71.27
				c3.01,0,5.45,2.44,5.46,5.46v57.2h0.02v31.59C-1089-1504.94-1091.44-1502.49-1094.45-1502.49z"/>
		</g>
	</g>
	<rect id="Rectángulo_273" x="-1176.55" y="-1607.55" class="st1" width="140" height="140"/>
</g>
</svg>
