<?xml version="1.0" encoding="utf-8"?>
<!-- Generator: Adobe Illustrator 26.3.1, SVG Export Plug-In . SVG Version: 6.00 Build 0)  -->
<svg version="1.1" id="Capa_1" xmlns="http://www.w3.org/2000/svg" xmlns:xlink="http://www.w3.org/1999/xlink" x="0px" y="0px"
	 viewBox="0 0 140 140" style="enable-background:new 0 0 140 140;" xml:space="preserve">
<style type="text/css">
	.st0{fill:#0A2755;}
	.st1{fill:none;}
</style>
<g id="Grupo_1364" transform="translate(1474 1610.148)">
	<g id="Grupo_1346" transform="translate(21.14 25.01)">
		<g id="Grupo_1345">
			<path id="Trazado_761" class="st0" d="M-1389.12-1617h-72.22c-6.98,0-12.67,6.22-12.67,13.86v55.87
				c0,7.64,5.68,13.86,12.67,13.86h33.45v14.25h-17.78v5.59h40.88v-5.59h-17.78v-14.25h33.45c6.98,0,12.67-6.22,12.67-13.86v-55.87
				C-1376.45-1610.78-1382.13-1617-1389.12-1617z M-1381.51-1547.28c0,4.59-3.41,8.32-7.61,8.32h-72.22c-4.2,0-7.61-3.73-7.61-8.32
				v-55.87c0-4.59,3.41-8.32,7.61-8.32h72.22c4.2,0,7.61,3.73,7.61,8.32V-1547.28z"/>
		</g>
	</g>
	<g id="Grupo_1348" transform="translate(25.962 75.547)">
		<g id="Grupo_1347">
			<path id="Trazado_762" class="st0" d="M-1454.68-1611.12l-4.83,13.05l-3.48-3.48l-4.85,4.85l-1.38-1.38l4.85-4.85l-3.19-3.19
				L-1454.68-1611.12 M-1448.89-1617l-7.01,2.73l-12.88,5.01l-4.83,1.88l3.67,3.66l0.8,0.8l-2.46,2.46l-2.39,2.39l2.39,2.39
				l1.38,1.38l2.39,2.39l2.39-2.39l2.46-2.46l1.09,1.09l3.73,3.74l1.83-4.95l4.83-13.05L-1448.89-1617L-1448.89-1617z
				 M-1454.68-1607.74L-1454.68-1607.74z"/>
		</g>
	</g>
	<g id="Grupo_1361" transform="translate(52.265 52.193)">
		<g id="Grupo_1354" transform="translate(0 8.168)">
			<g id="Grupo_1353">
				<g id="Grupo_1350" transform="translate(2.381 2.38)">
					<g id="Grupo_1349" transform="translate(0)">
						
							<rect id="Rectángulo_282" x="-1469.24" y="-1617.29" transform="matrix(0.7071 -0.7071 0.7071 0.7071 708.5007 -1508.2062)" class="st0" width="5.75" height="15.85"/>
					</g>
				</g>
				<g id="Grupo_1352">
					<g id="Grupo_1351">
						<path id="Trazado_763" class="st0" d="M-1467.55-1612.24l8.83,8.83l-1.69,1.69l-8.83-8.83L-1467.55-1612.24 M-1467.55-1617
							l-2.38,2.38l-1.69,1.69l-2.38,2.38l2.38,2.38l8.83,8.83l2.38,2.38l2.38-2.38l1.69-1.69l2.38-2.38l-2.38-2.38l-8.83-8.83
							L-1467.55-1617z"/>
					</g>
				</g>
			</g>
		</g>
		<g id="Grupo_1360" transform="translate(7.413)">
			<g id="Grupo_1359">
				<g id="Grupo_1356" transform="translate(2.38 2.38)">
					<g id="Grupo_1355" transform="translate(0)">
						
							<rect id="Rectángulo_283" x="-1475.92" y="-1608.29" transform="matrix(0.7071 -0.7071 0.7071 0.7071 706.8677 -1504.3005)" class="st0" width="27.01" height="5.75"/>
					</g>
				</g>
				<g id="Grupo_1358">
					<g id="Grupo_1357">
						<path id="Trazado_764" class="st0" d="M-1452.52-1612.24l1.69,1.69l-16.72,16.72l-1.69-1.69L-1452.52-1612.24 M-1452.52-1617
							l-2.38,2.38l-16.72,16.72l-2.38,2.38l2.38,2.38l1.69,1.69l2.38,2.38l2.38-2.38l16.72-16.72l2.38-2.38l-2.38-2.38l-1.69-1.69
							L-1452.52-1617z"/>
					</g>
				</g>
			</g>
		</g>
	</g>
	<g id="Grupo_1363" transform="translate(41.24 37.965)">
		<g id="Grupo_1362">
			<path id="Trazado_765" class="st0" d="M-1445.3-1559.6c-15.85,0-28.7-12.85-28.7-28.7c0-15.85,12.85-28.7,28.7-28.7
				s28.7,12.85,28.7,28.7c0,0,0,0,0,0C-1416.62-1572.46-1429.46-1559.62-1445.3-1559.6z M-1445.3-1611.95
				c-13.06,0-23.65,10.59-23.65,23.65c0,13.06,10.59,23.65,23.65,23.65c13.06,0,23.65-10.59,23.65-23.65
				C-1421.67-1601.36-1432.25-1611.93-1445.3-1611.95L-1445.3-1611.95z"/>
		</g>
	</g>
	<rect id="Rectángulo_284" x="-1474" y="-1610.15" class="st1" width="140" height="140"/>
</g>
</svg>
