<?xml version="1.0" encoding="utf-8"?>
<!-- Generator: Adobe Illustrator 26.3.1, SVG Export Plug-In . SVG Version: 6.00 Build 0)  -->
<svg version="1.1" id="Capa_1" xmlns="http://www.w3.org/2000/svg" xmlns:xlink="http://www.w3.org/1999/xlink" x="0px" y="0px"
	 viewBox="0 0 140 140" style="enable-background:new 0 0 140 140;" xml:space="preserve">
<style type="text/css">
	.st0{fill:#0A2755;}
	.st1{fill:none;}
</style>
<g id="Grupo_1344" transform="translate(1513.658 761.658)">
	<g id="Grupo_1340" transform="translate(17.641 20.868)">
		<g id="Grupo_1339">
			<path id="Trazado_756" class="st0" d="M-1422.41-762h-77.93c-7.54,0.01-13.66,6.12-13.67,13.66v55.09
				c0.01,7.54,6.12,13.65,13.67,13.66h36.09v14.05h-19.18v5.51h44.11v-5.51h-19.18v-14.05h36.09c7.54-0.01,13.66-6.12,13.67-13.66
				v-55.09C-1408.75-755.88-1414.86-761.99-1422.41-762z M-1414.2-693.25c-0.01,4.53-3.68,8.2-8.21,8.21h-77.93
				c-4.53,0-8.2-3.67-8.21-8.21v-55.09c0.01-4.53,3.68-8.2,8.21-8.21h77.93c4.53,0,8.2,3.67,8.21,8.21V-693.25z"/>
		</g>
	</g>
	<g id="Grupo_1341" transform="translate(31.759 54.447)">
		<path id="Trazado_757" class="st0" d="M-1506.19-752.85l3.67-9.15h2.05l3.7,9.28l3.18-8.79h4.65l-6.98,15.34h-2.17l-3.21-9.15
			l-3.58,9.15h-2.2l-6.92-15.34h4.69L-1506.19-752.85z"/>
		<path id="Trazado_758" class="st0" d="M-1480.7-752.85l3.67-9.15h2.05l3.7,9.28l3.18-8.79h4.66l-6.98,15.34h-2.17l-3.22-9.15
			l-3.58,9.15h-2.2l-6.92-15.34h4.69L-1480.7-752.85z"/>
		<path id="Trazado_759" class="st0" d="M-1455.2-752.85l3.67-9.15h2.05l3.7,9.28l3.18-8.79h4.65l-6.98,15.34h-2.17l-3.21-9.15
			l-3.58,9.15h-2.2l-6.92-15.34h4.68L-1455.2-752.85z"/>
	</g>
	<g id="Grupo_1343" transform="translate(27.057 72.539)">
		<g id="Grupo_1342">
			<path id="Trazado_760" class="st0" d="M-1497.88-757.1l-4.03,10.89l-2.9-2.9l-4.05,4.05l-1.15-1.15l4.05-4.05l-2.66-2.66
				L-1497.88-757.1 M-1493.05-761.99l-5.85,2.27l-10.74,4.18l-4.03,1.57l3.06,3.06l0.67,0.67l-2.06,2.05l-1.99,1.99l1.99,2
				l1.15,1.15l2,2l1.99-2l2.05-2.05l0.91,0.91l3.12,3.12l1.53-4.13l4.03-10.89L-1493.05-761.99L-1493.05-761.99z"/>
		</g>
	</g>
	<rect id="Rectángulo_281" x="-1513.66" y="-761.66" class="st1" width="140" height="140"/>
</g>
</svg>
