<?xml version="1.0" encoding="utf-8"?>
<!-- Generator: Adobe Illustrator 26.3.1, SVG Export Plug-In . SVG Version: 6.00 Build 0)  -->
<svg version="1.1" id="Capa_1" xmlns="http://www.w3.org/2000/svg" xmlns:xlink="http://www.w3.org/1999/xlink" x="0px" y="0px"
	 viewBox="0 0 140 140" style="enable-background:new 0 0 140 140;" xml:space="preserve">
<style type="text/css">
	.st0{fill:#0A2755;}
	.st1{fill:none;}
</style>
<g id="Grupo_1260" transform="translate(560.147 2032.147)">
	<g id="Grupo_1247" transform="translate(72.166 83.493)">
		<g id="Grupo_1246">
			<path id="Trazado_728" class="st0" d="M-518.24-1991.87l-11.56-11.44c0.19-0.19,0.38-0.38,0.56-0.59
				c2.71-3.05,4.21-6.99,4.23-11.07c0.26-9.66-7.36-17.71-17.02-17.97c-9.66-0.26-17.71,7.36-17.97,17.02
				c-0.26,9.66,7.36,17.71,17.02,17.97c0.16,0,0.32,0.01,0.47,0.01c3.79-0.01,7.49-1.22,10.54-3.47l11.68,11.56L-518.24-1991.87z
				 M-542.51-2000.87c-7.79-0.25-13.9-6.77-13.65-14.56s6.77-13.9,14.56-13.65c7.61,0.25,13.66,6.49,13.66,14.11
				c-0.01,3.37-1.25,6.62-3.49,9.14c-0.58,0.66-1.21,1.26-1.9,1.8C-535.95-2001.98-539.18-2000.87-542.51-2000.87z"/>
		</g>
	</g>
	<g id="Grupo_1259" transform="translate(23.263 17.456)">
		<g id="Grupo_1257" transform="translate(23.259 27.942)">
			<g id="Grupo_1250">
				<g id="Grupo_1249">
					<g id="Grupo_1248">
						<rect id="Rect치ngulo_265" x="-560" y="-2032" class="st0" width="46.52" height="2.25"/>
					</g>
				</g>
			</g>
			<g id="Grupo_1253" transform="translate(0 23.261)">
				<g id="Grupo_1252">
					<g id="Grupo_1251">
						<rect id="Rect치ngulo_266" x="-560" y="-2032" class="st0" width="46.52" height="2.25"/>
					</g>
				</g>
			</g>
			<g id="Grupo_1256" transform="translate(0 46.522)">
				<g id="Grupo_1255">
					<g id="Grupo_1254">
						<rect id="Rect치ngulo_267" x="-560" y="-2032" class="st0" width="28.57" height="2.25"/>
					</g>
				</g>
			</g>
		</g>
		<g id="Grupo_1258">
			<path id="Trazado_729" class="st0" d="M-472.76-1967.83v-53c0-2.99-2.42-5.41-5.41-5.41h-70.66c-2.99,0-5.41,2.42-5.41,5.41
				v88.05c0,2.99,2.42,5.41,5.41,5.41h35.35v5.76h-35.35c-6.17-0.01-11.16-5-11.17-11.17v-88.05c0.01-6.16,5-11.16,11.17-11.17
				h70.66c6.17,0.01,11.16,5,11.17,11.17v53L-472.76-1967.83z"/>
		</g>
	</g>
	<rect id="Rect치ngulo_268" x="-560.15" y="-2032.15" class="st1" width="140" height="140"/>
</g>
</svg>
