<?xml version="1.0" encoding="utf-8"?>
<!-- Generator: Adobe Illustrator 26.3.1, SVG Export Plug-In . SVG Version: 6.00 Build 0)  -->
<svg version="1.1" id="Capa_1" xmlns="http://www.w3.org/2000/svg" xmlns:xlink="http://www.w3.org/1999/xlink" x="0px" y="0px"
	 viewBox="0 0 140 140" style="enable-background:new 0 0 140 140;" xml:space="preserve">
<style type="text/css">
	.st0{fill:#0A2755;}
	.st1{fill:none;}
</style>
<g id="Grupo_1275" transform="translate(876.685 2031.686)">
	<g id="Grupo_1268" transform="translate(17.593 51.531)">
		<g id="Grupo_1267">
			<path id="Trazado_735" class="st0" d="M-780.97-2026.35c1.96-0.01,3.56,1.57,3.57,3.53v50.08c-0.02,3.57-2.93,6.46-6.5,6.44
				h-80.88c-3.57,0.02-6.48-2.87-6.5-6.44v-41.36c0.02-3.57,2.93-6.46,6.5-6.44h57.89l6.02-5.81L-780.97-2026.35 M-780.98-2032
				h-22.22l-1.66,1.6l-4.36,4.21h-55.56c-6.71-0.02-12.17,5.39-12.21,12.1v41.36c0.04,6.71,5.5,12.12,12.21,12.1h80.88
				c6.71,0.02,12.17-5.39,12.21-12.1v-50.08C-771.73-2027.9-775.88-2032.01-780.98-2032L-780.98-2032z"/>
		</g>
	</g>
	<g id="Grupo_1270" transform="translate(29.684 37.651)">
		<g id="Grupo_1269">
			<path id="Trazado_736" class="st0" d="M-874.17-2011.58H-877v-12.99c0-4.1,3.33-7.43,7.43-7.43h62.2c4.1,0,7.43,3.33,7.43,7.43
				v9.4h-2.82v-9.4c-0.01-2.54-2.07-4.6-4.61-4.6h-62.2c-2.54,0-4.6,2.06-4.6,4.6L-874.17-2011.58z"/>
		</g>
	</g>
	<g id="Grupo_1272" transform="translate(35.111 30.527)">
		<g id="Grupo_1271">
			<path id="Trazado_737" class="st0" d="M-799.93-2009.38h-2.82v-15.19c-0.01-2.54-2.07-4.6-4.61-4.6h-62.2
				c-2.54,0-4.6,2.06-4.6,4.6v1.28H-877v-1.28c0-4.1,3.33-7.43,7.43-7.43h62.2c4.1,0,7.43,3.33,7.43,7.43V-2009.38z"/>
		</g>
	</g>
	<g id="Grupo_1274" transform="translate(40.378 23.409)">
		<g id="Grupo_1273">
			<path id="Trazado_738" class="st0" d="M-799.93-2003.1h-2.83v-21.47c-0.01-2.54-2.07-4.6-4.61-4.6h-62.2
				c-2.54,0-4.6,2.06-4.6,4.6v1.28H-877v-1.28c0-4.1,3.33-7.43,7.43-7.43h62.2c4.1,0,7.43,3.33,7.43,7.43L-799.93-2003.1z"/>
		</g>
	</g>
	<rect id="Rectángulo_270" x="-876.68" y="-2031.69" class="st1" width="140" height="140"/>
</g>
</svg>
