<?xml version="1.0" encoding="utf-8"?>
<!-- Generator: Adobe Illustrator 26.3.1, SVG Export Plug-In . SVG Version: 6.00 Build 0)  -->
<svg version="1.1" id="Capa_1" xmlns="http://www.w3.org/2000/svg" xmlns:xlink="http://www.w3.org/1999/xlink" x="0px" y="0px"
	 viewBox="0 0 140 140" style="enable-background:new 0 0 140 140;" xml:space="preserve">
<style type="text/css">
	.st0{fill:#0A2755;}
	.st1{fill:none;}
</style>
<g id="Grupo_1373" transform="translate(1175.824 2030.824)">
	<g id="Grupo_1370" transform="translate(31.613 48.521)">
		<g id="Grupo_1369">
			<g id="Grupo_1366">
				<g id="Grupo_1365">
					<path id="Trazado_766" class="st0" d="M-1137.51-2011.75l-38.49-8.9l38.49-10.35l38.49,9.62L-1137.51-2011.75z"/>
				</g>
			</g>
			<g id="Grupo_1368" transform="translate(19.246 19.103)">
				<g id="Grupo_1367">
					<path id="Trazado_767" class="st0" d="M-1176-2031l19.25,5.06l19.25-5.06v14.44c0,0-5.36,10-19.25,9.62
						c-13.71-0.38-19.25-9.63-19.25-9.63L-1176-2031z"/>
				</g>
			</g>
		</g>
	</g>
	<g id="Grupo_1371" transform="translate(24.251 24.253)">
		<path id="Trazado_768" class="st0" d="M-1130.14-2028.12c23.73,0,42.97,19.24,42.97,42.97s-19.24,42.97-42.97,42.97
			c-23.73,0-42.97-19.24-42.97-42.97C-1173.09-2008.87-1153.87-2028.09-1130.14-2028.12 M-1130.14-2031
			c-25.33,0-45.85,20.53-45.85,45.85c0,25.33,20.53,45.86,45.85,45.86c25.32,0,45.85-20.53,45.85-45.86
			C-1084.29-2010.47-1104.82-2031-1130.14-2031z"/>
	</g>
	<g id="Grupo_1372" transform="translate(11.85 11.852)">
		<path id="Trazado_769" class="st0" d="M-1117.74-2025.33c29.04,0,52.58,23.55,52.58,52.59c0,29.04-23.55,52.58-52.59,52.58
			c-29.04,0-52.58-23.54-52.58-52.58C-1170.3-2001.78-1146.77-2025.3-1117.74-2025.33 M-1117.75-2031
			c-32.17,0-58.25,26.08-58.25,58.25s26.08,58.25,58.25,58.25s58.25-26.08,58.25-58.25l0,0
			C-1059.49-2004.92-1085.57-2031-1117.75-2031z"/>
	</g>
	<rect id="Rectángulo_285" x="-1175.82" y="-2030.82" class="st1" width="140" height="140"/>
</g>
</svg>
