<?xml version="1.0" encoding="utf-8"?>
<!-- Generator: Adobe Illustrator 26.3.1, SVG Export Plug-In . SVG Version: 6.00 Build 0)  -->
<svg version="1.1" id="Capa_1" xmlns="http://www.w3.org/2000/svg" xmlns:xlink="http://www.w3.org/1999/xlink" x="0px" y="0px"
	 viewBox="0 0 74 74" style="enable-background:new 0 0 74 74;" xml:space="preserve">
<style type="text/css">
	.st0{fill:#001F44;}
	.st1{fill:none;}
</style>
<g id="Grupo_2119" transform="translate(355 766)">
	<g id="Grupo_2118">
		<g id="Grupo_2109">
			<g id="Grupo_2108">
				<path id="Trazado_1034" class="st0" d="M-305.01-740.64c0.59,0,1.07,0.48,1.07,1.07v15.15c0,1.08-0.87,1.95-1.95,1.95l0,0
					h-24.23c-1.08,0-1.95-0.87-1.95-1.95v-12.51c0-1.08,0.87-1.95,1.95-1.95l0,0h17.34l1.8-1.76H-305.01 M-305.01-742.35h-6.65
					l-0.5,0.48l-1.3,1.27h-16.65c-2.02,0-3.66,1.64-3.66,3.66v12.51c0,2.02,1.64,3.66,3.66,3.66h24.23c2.02,0,3.66-1.64,3.66-3.66
					v-15.15C-302.23-741.11-303.47-742.35-305.01-742.35L-305.01-742.35z"/>
			</g>
		</g>
		<g id="Grupo_2111">
			<g id="Grupo_2110">
				<path id="Trazado_1035" class="st0" d="M-328.8-740.17h-0.86v-3.93c0-1.24,1.01-2.25,2.25-2.25h18.81
					c1.24,0,2.25,1.01,2.25,2.25v2.84h-0.85v-2.84c0-0.77-0.62-1.39-1.39-1.39l0,0h-18.81c-0.77,0-1.39,0.62-1.39,1.39c0,0,0,0,0,0
					V-740.17z"/>
			</g>
		</g>
		<g id="Grupo_2113">
			<g id="Grupo_2112">
				<path id="Trazado_1036" class="st0" d="M-306.35-741.64h-0.85v-4.59c0-0.77-0.62-1.39-1.39-1.39l0,0h-18.81
					c-0.77,0-1.39,0.62-1.39,1.39c0,0,0,0,0,0v0.39h-0.86v-0.39c0-1.24,1.01-2.25,2.25-2.25h18.81c1.24,0,2.25,1.01,2.25,2.25
					V-741.64z"/>
			</g>
		</g>
		<g id="Grupo_2115">
			<g id="Grupo_2114">
				<path id="Trazado_1037" class="st0" d="M-306.35-741.88h-0.85v-6.49c0-0.77-0.62-1.39-1.39-1.39h-18.81
					c-0.77,0-1.39,0.62-1.39,1.39v0.39h-0.86v-0.39c0-1.24,1.01-2.25,2.25-2.25h18.81c1.24,0,2.25,1.01,2.25,2.25V-741.88z"/>
			</g>
		</g>
		<g id="Grupo_2117">
			<g id="Grupo_2116">
				<path id="Trazado_1038" class="st0" d="M-297.17-756.26h-41.65c-4.03,0-7.3,3.27-7.3,7.3v29.46c0.01,4.03,3.27,7.3,7.3,7.3
					h19.29v7.51h-10.25v2.95h23.58v-2.94h-10.25v-7.52h19.29c4.03,0,7.3-3.27,7.31-7.3v-29.46
					C-289.87-752.99-293.14-756.26-297.17-756.26z M-292.78-719.5c0,2.42-1.97,4.38-4.39,4.39h-41.65c-2.42,0-4.38-1.97-4.39-4.39
					v-29.46c0-2.42,1.97-4.38,4.39-4.39h41.65c2.42,0,4.39,1.97,4.39,4.39V-719.5z"/>
			</g>
		</g>
	</g>
	<rect id="Rectángulo_437" x="-355" y="-766" class="st1" width="74" height="74"/>
</g>
</svg>
