<svg version="1.1" xmlns="http://www.w3.org/2000/svg" xmlns:xlink="http://www.w3.org/1999/xlink" width="300.000000pt" height="285.000000pt" viewBox="0,0,256,243.19792"><g fill="#092755" fill-rule="nonzero" stroke="none" stroke-width="1" stroke-linecap="butt" stroke-linejoin="miter" stroke-miterlimit="10" stroke-dasharray="" stroke-dashoffset="0" font-family="none" font-weight="none" font-size="none" text-anchor="none" style="mix-blend-mode: normal"><g transform="translate(0,3.40026) scale(0.85333,0.85333)"><g transform="translate(0,285) scale(0.1,-0.1)"><path d="M2356,2579c-66,-16 -155,-70 -206,-126c-174,-191 -109,-512 125,-620c118,-53 248,-52 358,3l50,26l106,-106c91,-91 111,-106 139,-106c39,0 72,30 72,67c0,20 -26,52 -110,137l-109,111l19,30c33,51 53,147 47,227c-18,243 -252,413 -491,357zM2569,2416c40,-21 88,-71 110,-115c51,-100 31,-205 -54,-288c-57,-55 -99,-73 -174,-73c-68,0 -119,20 -171,67c-77,69 -103,170 -70,267c15,45 80,120 124,143c63,33 170,32 235,-1z"></path><path d="M22,2347l-22,-23v-678v-677l25,-24l24,-25h541h540v-89v-89l-30,-7c-41,-9 -139,-74 -179,-120c-43,-49 -70,-111 -78,-174c-5,-44 -3,-52 20,-75l26,-26h424c420,0 425,0 452,22c26,20 27,25 22,78c-10,113 -96,223 -222,282l-65,30v84v84h539c529,0 539,0 565,21l26,20v250c0,236 -1,250 -20,269c-26,26 -74,26 -100,0c-19,-19 -20,-33 -20,-215v-195h-1170h-1170v580v580h874h875l20,26c26,34 26,54 0,88l-20,26h-928h-928zM1350,844v-75l-32,3l-33,3l-3,73l-3,72h36h35zM1435,615c85,-23 185,-91 185,-127c0,-11 -597,-10 -604,0c-7,12 61,76 104,98c88,44 211,56 315,29z"></path></g></g></g></svg>