<?xml version="1.0" encoding="utf-8"?>
<!-- Generator: Adobe Illustrator 26.3.1, SVG Export Plug-In . SVG Version: 6.00 Build 0)  -->
<svg version="1.1" id="Capa_1" xmlns="http://www.w3.org/2000/svg" xmlns:xlink="http://www.w3.org/1999/xlink" x="0px" y="0px"
	 viewBox="0 0 74 74" style="enable-background:new 0 0 74 74;" xml:space="preserve">
<style type="text/css">
	.st0{fill:#0A2755;}
	.st1{fill:none;}
</style>
<g id="Grupo_484" transform="translate(355 748)">
	<g id="Grupo_481">
		<g id="Grupo_474">
			<g id="Grupo_473">
				<g id="Grupo_472">
					<path id="Trazado_461" class="st0" d="M-300.61-726.07c0.15,0.15,0.21,0.36,0.18,0.57v3.47c0,0.68-0.12,0.5-0.18,0.57h-26.54
						c-0.21,0-0.18-0.26-0.18-0.57v-3.47c0-0.32,0-0.57,0.18-0.57H-300.61 M-300.52-729.07h-26.73c-1.83,0.14-3.21,1.74-3.09,3.57
						v3.47c-0.12,1.84,1.25,3.43,3.09,3.57h26.73c1.83-0.14,3.21-1.74,3.09-3.57v-3.47C-297.3-727.33-298.68-728.92-300.52-729.07z"
						/>
				</g>
			</g>
		</g>
		<g id="Grupo_477">
			<g id="Grupo_476">
				<g id="Grupo_475">
					<path id="Trazado_462" class="st0" d="M-296.51-713.31c0.15,0.15,0.21,0.36,0.18,0.57v3.47c0,0.68-0.12,0.5-0.18,0.57h-26.54
						c-0.21,0-0.18-0.26-0.18-0.57v-3.47c0-0.32,0-0.57,0.18-0.57H-296.51 M-296.41-716.31h-26.73c-1.83,0.14-3.21,1.74-3.09,3.57
						v3.47c-0.12,1.84,1.25,3.43,3.09,3.57h26.73c1.83-0.14,3.21-1.74,3.09-3.57v-3.47C-293.2-714.57-294.58-716.17-296.41-716.31z"
						/>
				</g>
			</g>
		</g>
		<g id="Grupo_480">
			<g id="Grupo_479">
				<g id="Grupo_478">
					<path id="Trazado_463" class="st0" d="M-300.61-700.98c0.15,0.15,0.21,0.36,0.18,0.57v3.47c0,0.68-0.12,0.5-0.18,0.57h-26.54
						c-0.21,0-0.18-0.26-0.18-0.57v-3.47c0-0.32,0-0.57,0.18-0.57L-300.61-700.98 M-300.52-703.97h-26.73
						c-1.83,0.14-3.21,1.74-3.09,3.57v3.47c-0.12,1.84,1.25,3.43,3.09,3.57h26.73c1.83-0.14,3.21-1.74,3.09-3.57v-3.47
						C-297.3-702.24-298.68-703.83-300.52-703.97z"/>
				</g>
			</g>
		</g>
	</g>
	<g id="Grupo_483">
		<g id="Grupo_482">
			<path id="Trazado_464" class="st0" d="M-333.29-710.58l-3.91,10.57l-2.82-2.82l-3.93,3.93l-1.11-1.12l3.93-3.93l-2.58-2.58
				L-333.29-710.58 M-328.61-715.34l-5.67,2.21l-10.42,4.05l-3.91,1.52l2.97,2.97l0.65,0.65l-1.99,1.99l-1.93,1.94l1.93,1.94
				l1.11,1.11l1.94,1.94l1.94-1.94l1.99-1.99l0.88,0.88l3.02,3.02l1.48-4.01l3.91-10.57C-330.73-709.63-328.61-715.34-328.61-715.34
				z"/>
		</g>
	</g>
	<rect id="Rectángulo_107" x="-355" y="-748" class="st1" width="74" height="74"/>
</g>
</svg>
