<?xml version="1.0" encoding="utf-8"?>
<!-- Generator: Adobe Illustrator 26.3.1, SVG Export Plug-In . SVG Version: 6.00 Build 0)  -->
<svg version="1.1" id="Capa_1" xmlns="http://www.w3.org/2000/svg" xmlns:xlink="http://www.w3.org/1999/xlink" x="0px" y="0px"
	 viewBox="0 0 74 74" style="enable-background:new 0 0 74 74;" xml:space="preserve">
<style type="text/css">
	.st0{fill:#0A2755;}
	.st1{fill:none;}
</style>
<g id="Grupo_490" transform="translate(595 748)">
	<g id="Grupo_486">
		<path id="Trazado_465" class="st0" d="M-558.62-684.47c-15,0-27.15-12.16-27.15-27.15c0-15,12.16-27.15,27.15-27.15
			c15,0,27.15,12.16,27.15,27.15c0,0,0,0,0,0C-531.48-696.63-543.63-684.48-558.62-684.47z M-558.62-735.77
			c-13.34,0-24.15,10.81-24.15,24.15c0,13.34,10.81,24.15,24.15,24.15c13.34,0,24.15-10.81,24.15-24.15c0,0,0,0,0,0
			C-534.48-724.95-545.29-735.75-558.62-735.77L-558.62-735.77z"/>
	</g>
	<g id="Grupo_487">
		<path id="Trazado_466" class="st0" d="M-558.62-727.52c8.78,0,15.9,7.12,15.9,15.9c0,8.78-7.12,15.9-15.9,15.9
			c-8.78,0-15.9-7.12-15.9-15.9l0,0C-574.52-720.4-567.4-727.52-558.62-727.52L-558.62-727.52 M-558.62-730.52
			c-10.44,0-18.9,8.46-18.9,18.9c0,10.44,8.46,18.9,18.9,18.9s18.9-8.46,18.9-18.9l0,0C-539.73-722.05-548.19-730.51-558.62-730.52z
			"/>
	</g>
	<g id="Grupo_489">
		<g id="Grupo_488">
			<path id="Trazado_467" class="st0" d="M-553.14-715.71l-3.91,10.57l-2.82-2.82l-3.93,3.93l-1.11-1.11l3.93-3.93l-2.58-2.58
				L-553.14-715.71 M-548.46-720.47l-5.67,2.21l-10.42,4.05l-3.91,1.52l2.96,2.97l0.65,0.65l-1.99,1.99l-1.94,1.94l1.94,1.94
				l1.11,1.11l1.94,1.94l1.94-1.94l1.99-1.99l0.88,0.88l3.02,3.02l1.48-4.01l3.91-10.57C-550.57-714.76-548.46-720.47-548.46-720.47
				z M-553.14-712.97L-553.14-712.97z"/>
		</g>
	</g>
	<rect id="Rectángulo_108" x="-595" y="-748" class="st1" width="74" height="74"/>
</g>
</svg>
