<?xml version="1.0" encoding="utf-8"?>
<!-- Generator: Adobe Illustrator 26.3.1, SVG Export Plug-In . SVG Version: 6.00 Build 0)  -->
<svg version="1.1" id="Capa_1" xmlns="http://www.w3.org/2000/svg" xmlns:xlink="http://www.w3.org/1999/xlink" x="0px" y="0px"
	 viewBox="0 0 74 74" style="enable-background:new 0 0 74 74;" xml:space="preserve">
<style type="text/css">
	.st0{fill:none;}
	.st1{fill:#0A2755;}
</style>
<g id="Grupo_532" transform="translate(1454 746)">
	<rect id="Rect치ngulo_117" x="-1454" y="-746" class="st0" width="74" height="74"/>
	<g id="Grupo_531">
		<g id="Grupo_524">
			<g id="Grupo_523">
				<path id="Trazado_487" class="st1" d="M-1431.67-696.47l-3.91,10.57l-2.82-2.82l-3.93,3.93l-1.11-1.12l3.93-3.93l-2.58-2.58
					L-1431.67-696.47 M-1426.99-701.23l-5.67,2.21l-10.42,4.05l-3.91,1.52l2.97,2.97l0.64,0.65l-1.99,1.99l-1.94,1.94l1.94,1.94
					l1.11,1.11l1.94,1.94l1.94-1.94l1.99-1.99l0.88,0.88l3.02,3.02l1.48-4.01l3.92-10.57L-1426.99-701.23L-1426.99-701.23z
					 M-1431.67-693.73L-1431.67-693.73z"/>
			</g>
		</g>
		<g id="Grupo_525">
			<path id="Trazado_488" class="st1" d="M-1397.68-689.13c-8.59,6.2-20.06,6.67-29.13,1.2l-1.29-0.77l1.55-2.57l1.29,0.77
				c11.11,6.69,25.53,3.1,32.21-8c6.69-11.11,3.1-25.53-8-32.21c-11.11-6.69-25.53-3.1-32.21,8c-3.39,5.63-4.26,12.41-2.41,18.71
				l0.42,1.44l-2.88,0.85l-0.42-1.44c-4.12-14.03,3.92-28.74,17.95-32.86c14.03-4.12,28.74,3.92,32.86,17.95
				C-1384.59-707.3-1388.57-695.7-1397.68-689.13z"/>
		</g>
		<g id="Grupo_530">
			<g id="Grupo_526">
				<path id="Trazado_489" class="st1" d="M-1405.36-696.27h-14.78c-1.49,0-2.69-1.21-2.69-2.69v-21.34c0-1.49,1.21-2.69,2.69-2.69
					h14.78c1.49,0,2.69,1.21,2.69,2.69v21.34C-1402.67-697.48-1403.88-696.27-1405.36-696.27z M-1420.14-721.49
					c-0.66,0-1.19,0.53-1.19,1.19v21.34c0,0.66,0.54,1.19,1.19,1.19h14.78c0.66,0,1.19-0.54,1.19-1.19v-21.34
					c0-0.66-0.54-1.19-1.19-1.19L-1420.14-721.49z"/>
			</g>
			<g id="Grupo_527">
				<rect id="Rect치ngulo_118" x="-1418.2" y="-717.49" class="st1" width="11.11" height="1.5"/>
			</g>
			<g id="Grupo_528">
				<rect id="Rect치ngulo_119" x="-1418.2" y="-710.94" class="st1" width="11.11" height="1.5"/>
			</g>
			<g id="Grupo_529">
				<rect id="Rect치ngulo_120" x="-1418.2" y="-704.38" class="st1" width="11.11" height="1.5"/>
			</g>
		</g>
	</g>
</g>
</svg>
