<?xml version="1.0" encoding="utf-8"?>
<!-- Generator: Adobe Illustrator 26.0.1, SVG Export Plug-In . SVG Version: 6.00 Build 0)  -->
<svg version="1.1" id="Capa_1" xmlns="http://www.w3.org/2000/svg" xmlns:xlink="http://www.w3.org/1999/xlink" x="0px" y="0px"
	 viewBox="0 0 74 74" style="enable-background:new 0 0 74 74;" xml:space="preserve">
<style type="text/css">
	.st0{fill:none;stroke:#092755;stroke-width:3.0525;stroke-linecap:round;stroke-miterlimit:10;}
	.st1{fill:none;stroke:#092755;stroke-width:1.3628;stroke-miterlimit:10;}
</style>
<path class="st0" d="M43.8,63.5h-23c-1.7,0-3.1-1.4-3.1-3.1V25.9c0-1.7,1.4-3.1,3.1-3.1h23c1.7,0,3.1,1.4,3.1,3.1v34.4
	C46.9,62.1,45.5,63.5,43.8,63.5z"/>
<path class="st0" d="M23.6,22.8v-2.5c0-1.6,1.3-2.8,2.8-2.8h23.5c1.6,0,2.8,1.3,2.8,2.8v35c0,1.6-1.3,2.8-2.8,2.8h-3.1"/>
<path class="st0" d="M28.3,17.4v-3c0-1.6,1.3-2.8,2.8-2.8h23.5c1.6,0,2.8,1.3,2.8,2.8v35c0,1.6-1.3,2.8-2.8,2.8h-1.2"/>
<line class="st1" x1="24.2" y1="33.2" x2="40.4" y2="33.2"/>
<line class="st1" x1="24.2" y1="52.6" x2="40.4" y2="52.6"/>
<line class="st1" x1="24.2" y1="43.1" x2="40.4" y2="43.1"/>
</svg>
