<?xml version="1.0" encoding="utf-8"?>
<!-- Generator: Adobe Illustrator 26.3.1, SVG Export Plug-In . SVG Version: 6.00 Build 0)  -->
<svg version="1.1" id="Capa_1" xmlns="http://www.w3.org/2000/svg" xmlns:xlink="http://www.w3.org/1999/xlink" x="0px" y="0px"
	 viewBox="0 0 74 74" style="enable-background:new 0 0 74 74;" xml:space="preserve">
<style type="text/css">
	.st0{fill:none;stroke:#0A2755;stroke-width:33.141;stroke-miterlimit:10;}
	.st1{fill:#0A2755;}
	.st2{fill:none;}
</style>
<g id="Grupo_723" transform="translate(267 747)">
	<g id="Grupo_719">
		<g id="Grupo_706">
			<g id="Grupo_705">
				<path id="Trazado_546" class="st0" d="M-206.38-700.12"/>
			</g>
		</g>
		<g id="Grupo_708">
			<g id="Grupo_707">
				<path id="Trazado_547" class="st1" d="M-213.75-720.39h-5.09c-0.69,0-1.25-0.56-1.25-1.25v-7.26c0-0.69,0.56-1.25,1.25-1.25l0,0
					h5.09c0.69,0,1.25,0.56,1.25,1.25c0,0,0,0,0,0v7.26C-212.5-720.95-213.06-720.39-213.75-720.39L-213.75-720.39z"/>
			</g>
		</g>
		<g id="Grupo_710">
			<g id="Grupo_709">
				<path id="Trazado_548" class="st1" d="M-224.83-720.39h-5.09c-0.69,0-1.25-0.56-1.25-1.25v-7.26c0-0.69,0.56-1.25,1.25-1.25l0,0
					h5.09c0.69,0,1.25,0.56,1.25,1.25c0,0,0,0,0,0v7.26C-223.58-720.95-224.14-720.39-224.83-720.39L-224.83-720.39z"/>
			</g>
		</g>
		<g id="Grupo_712">
			<g id="Grupo_711">
				<path id="Trazado_549" class="st1" d="M-213.75-706.04h-5.09c-0.69,0-1.25-0.56-1.25-1.25v-7.26c0-0.69,0.56-1.25,1.25-1.25
					c0,0,0,0,0,0h5.09c0.69,0,1.25,0.56,1.25,1.25c0,0,0,0,0,0v7.26C-212.5-706.6-213.06-706.04-213.75-706.04L-213.75-706.04z"/>
			</g>
		</g>
		<g id="Grupo_714">
			<g id="Grupo_713">
				<path id="Trazado_550" class="st1" d="M-224.83-706.04h-5.09c-0.69,0-1.25-0.56-1.25-1.25v-7.26c0-0.69,0.56-1.25,1.25-1.25
					c0,0,0,0,0,0h5.09c0.69,0,1.25,0.56,1.25,1.25l0,0v7.26C-223.58-706.6-224.14-706.04-224.83-706.04L-224.83-706.04z"/>
			</g>
		</g>
		<g id="Grupo_716">
			<g id="Grupo_715">
				<path id="Trazado_551" class="st0" d="M-206.38-700.12"/>
			</g>
		</g>
		<g id="Grupo_718">
			<g id="Grupo_717">
				<path id="Trazado_552" class="st1" d="M-208.88-734.93c0.52,0,0.94,0.42,0.94,0.94v32.66c0,0.52-0.42,0.94-0.94,0.94h-22.29
					v2.73h22.29c2.03,0,3.67-1.64,3.68-3.67v-32.66c0-2.03-1.65-3.67-3.68-3.67h-29.59v27.65h2.74v-24.92H-208.88"/>
			</g>
		</g>
	</g>
	<g id="Grupo_722">
		<g id="Grupo_720">
			<path id="Trazado_553" class="st1" d="M-235.02-704.58L-235.02-704.58c-2.34-2.34-6.14-2.35-8.49,0c0,0,0,0,0,0l-4.06,4.06
				c-0.5,0.5-0.9,1.08-1.19,1.72l-0.21,0.46l0.66-0.12c0.49-0.05,0.99-0.08,1.49-0.07h0.14l0.08-0.11c0.13-0.18,0.27-0.35,0.43-0.51
				l4.06-4.05c1.54-1.62,4.11-1.69,5.73-0.14c1.62,1.54,1.69,4.11,0.14,5.73c-0.05,0.05-0.09,0.1-0.14,0.14l-4.06,4.06
				c-0.37,0.37-0.8,0.66-1.29,0.87l0,0l-0.06,0.03c-0.42,0.17-0.87,0.26-1.32,0.29c-0.05,0-0.1,0.01-0.2,0.01
				c-2.01,0-3.71-1.47-4-3.46l-0.04-0.24l-0.24,0.01c-0.25,0.01-0.5,0.04-0.75,0.1c-0.26,0.08-0.5,0.18-0.74,0.3l-0.18,0.09
				l0.03,0.19c0.48,2.71,2.74,4.74,5.48,4.93v0.01l0.35,0.01c0.12,0,0.22,0.01,0.31,0.01c0.14,0,0.28,0,0.41-0.02
				c0.31-0.04,0.62-0.11,0.92-0.19l0.15-0.05c0.95-0.28,1.82-0.8,2.53-1.5l4.06-4.06C-232.68-698.44-232.68-702.24-235.02-704.58z"
				/>
		</g>
		<g id="Grupo_721">
			<path id="Trazado_554" class="st1" d="M-242.64-689.96c-0.4,0.03-0.8,0.03-1.2-0.01l-0.15-0.01l-0.09,0.12
				c-0.13,0.18-0.27,0.35-0.43,0.51l-4.06,4.06c-1.6,1.57-4.17,1.54-5.73-0.06c-1.54-1.58-1.54-4.1,0-5.67l4.05-4.06
				c0.21-0.21,0.44-0.39,0.69-0.55c0.09-0.06,0.18-0.12,0.27-0.17c0.09-0.05,0.22-0.11,0.33-0.15c0.36-0.16,0.75-0.26,1.14-0.3
				c0.07-0.01,0.13-0.01,0.19-0.01h0.07c1.14-0.07,2.24,0.37,3.04,1.18c0.62,0.62,1.02,1.42,1.14,2.28l0.03,0.23h0.23
				c0.24,0,0.48-0.03,0.71-0.08c0.28-0.09,0.55-0.21,0.8-0.37l0.15-0.09l-0.03-0.18c-0.5-2.75-2.83-4.79-5.62-4.91l-0.28-0.01
				c-0.47,0-0.94,0.06-1.4,0.17l-0.36,0.09v0.01c-0.94,0.29-1.79,0.8-2.49,1.49l-4.06,4.06c-2.34,2.34-2.34,6.15,0,8.49
				c2.34,2.34,6.15,2.34,8.49,0l4.06-4.06c0.49-0.49,0.89-1.06,1.18-1.69l0.22-0.47l-0.51,0.1
				C-242.37-689.99-242.5-689.97-242.64-689.96z"/>
		</g>
	</g>
	<rect id="Rectángulo_164" x="-267" y="-747" class="st2" width="74" height="74"/>
</g>
</svg>
