<?xml version="1.0" encoding="utf-8"?>
<!-- Generator: Adobe Illustrator 26.3.1, SVG Export Plug-In . SVG Version: 6.00 Build 0)  -->
<svg version="1.1" id="Capa_1" xmlns="http://www.w3.org/2000/svg" xmlns:xlink="http://www.w3.org/1999/xlink" x="0px" y="0px"
	 viewBox="0 0 74 74" style="enable-background:new 0 0 74 74;" xml:space="preserve">
<style type="text/css">
	.st0{fill:#0A2755;}
	.st1{fill:none;}
</style>
<g id="Grupo_746" transform="translate(559.667 748)">
	<g id="Grupo_743">
		<g id="Grupo_742">
			<g id="Grupo_739">
				<g id="Grupo_738">
					<path id="Trazado_557" class="st0" d="M-522.67-712.22l-20.03-4.63l20.03-5.38l20.03,5.01L-522.67-712.22z"/>
				</g>
			</g>
			<g id="Grupo_741">
				<g id="Grupo_740">
					<path id="Trazado_558" class="st0" d="M-532.68-712.29l10.02,2.63l10.01-2.63v7.51c0,0-2.79,5.2-10.01,5.01
						c-7.14-0.2-10.02-5.01-10.02-5.01V-712.29z"/>
				</g>
			</g>
		</g>
	</g>
	<g id="Grupo_744">
		<path id="Trazado_559" class="st0" d="M-522.67-733.36c12.35,0,22.36,10.01,22.36,22.36c0,12.35-10.01,22.36-22.36,22.36
			c-12.35,0-22.36-10.01-22.36-22.36c0,0,0,0,0,0C-545.01-723.34-535.01-733.35-522.67-733.36 M-522.67-734.86
			c-13.18,0-23.86,10.69-23.85,23.87c0,13.18,10.69,23.86,23.87,23.86c13.18,0,23.85-10.69,23.85-23.86
			C-498.8-724.18-509.48-734.86-522.67-734.86C-522.66-734.86-522.66-734.86-522.67-734.86L-522.67-734.86z"/>
	</g>
	<g id="Grupo_745">
		<path id="Trazado_560" class="st0" d="M-522.67-738.83c15.37,0,27.83,12.46,27.83,27.83c0,15.37-12.46,27.83-27.83,27.83
			c-15.37,0-27.83-12.46-27.83-27.83c0,0,0,0,0,0C-550.48-726.36-538.03-738.82-522.67-738.83 M-522.67-741.83
			c-17.03,0-30.83,13.81-30.83,30.83c0,17.03,13.81,30.83,30.83,30.83c17.03,0,30.83-13.8,30.83-30.83
			C-491.83-728.03-505.64-741.83-522.67-741.83C-522.67-741.83-522.67-741.83-522.67-741.83z"/>
	</g>
	<rect id="Rectángulo_169" x="-559.67" y="-748" class="st1" width="74" height="74"/>
</g>
</svg>
