<?xml version="1.0" encoding="utf-8"?>
<!-- Generator: Adobe Illustrator 26.3.1, SVG Export Plug-In . SVG Version: 6.00 Build 0)  -->
<svg version="1.1" id="Capa_1" xmlns="http://www.w3.org/2000/svg" xmlns:xlink="http://www.w3.org/1999/xlink" x="0px" y="0px"
	 viewBox="0 0 74 74" style="enable-background:new 0 0 74 74;" xml:space="preserve">
<style type="text/css">
	.st0{fill:#0A2755;}
	.st1{fill:none;}
</style>
<g id="Grupo_671" transform="translate(337 751)">
	<path id="Trazado_525" class="st0" d="M-284.49-744.83c-9.4,0.01-17.02,7.63-17.04,17.03v0.51c-3.18-4.59-8.4-7.32-13.98-7.33
		h-12.23v10.7c0,9.39,9.17,17.04,18.56,17.04h7.65v4.54c-6.08,0.4-10.81,5.45-10.82,11.55v7.62h24.68v-7.61
		c0-6.1-4.73-11.15-10.81-11.55v-14.76h7.65c9.39,0,18.57-7.64,18.57-17.04v-10.7H-284.49z M-301.53-709.93h-7.65
		c-7.71,0-15.51-6.27-15.51-13.98v-7.65h9.17c7.72,0.01,13.97,6.26,13.98,13.98V-709.93z M-275.31-734.13
		c0,7.71-7.8,13.98-15.51,13.98h-7.65v-7.65c0.01-7.72,6.27-13.97,13.98-13.98h9.18V-734.13z"/>
	<rect id="Rectángulo_150" x="-337" y="-751" class="st1" width="74" height="74"/>
</g>
</svg>
