<?xml version="1.0" encoding="utf-8"?>
<!-- Generator: Adobe Illustrator 26.3.1, SVG Export Plug-In . SVG Version: 6.00 Build 0)  -->
<svg version="1.1" id="Capa_1" xmlns="http://www.w3.org/2000/svg" xmlns:xlink="http://www.w3.org/1999/xlink" x="0px" y="0px"
	 viewBox="0 0 74 74" style="enable-background:new 0 0 74 74;" xml:space="preserve">
<style type="text/css">
	.st0{fill:#0A2755;}
	.st1{fill:none;}
</style>
<g id="Grupo_702" transform="translate(500.926 751.17)">
	<g id="Grupo_701">
		<g id="Grupo_697">
			<path id="Trazado_542" class="st0" d="M-489.31-710.52c0.68,0.81,1.48,1.5,2.38,2.05c0.71,0.43,1.51,0.66,2.34,0.68
				c0.64,0.03,1.28-0.18,1.78-0.58c0.45-0.36,0.71-0.9,0.7-1.48c0.04-0.57-0.18-1.13-0.6-1.52c-0.83-0.54-1.76-0.91-2.73-1.1
				c-1.53-0.31-2.95-1.01-4.12-2.05c-0.84-0.95-1.28-2.19-1.21-3.46c-0.06-1.75,0.63-3.44,1.9-4.64c1.34-1.23,3.12-1.87,4.94-1.8
				c1.05-0.01,2.1,0.14,3.11,0.44c0.99,0.3,1.93,0.75,2.79,1.33l-1.69,3.89c-0.56-0.49-1.2-0.89-1.89-1.19
				c-0.61-0.26-1.26-0.39-1.92-0.4c-0.57-0.03-1.12,0.14-1.58,0.47c-0.39,0.28-0.62,0.72-0.61,1.2c-0.02,0.46,0.18,0.9,0.54,1.19
				c0.63,0.42,1.33,0.71,2.07,0.85l0.24,0.07c1.59,0.3,3.08,0.97,4.35,1.96c0.48,0.5,0.84,1.1,1.07,1.76
				c0.25,0.73,0.38,1.5,0.37,2.27c0.08,1.91-0.68,3.76-2.07,5.07c-1.52,1.33-3.5,2.02-5.52,1.92c-1.29,0.02-2.57-0.22-3.77-0.7
				c-1.22-0.53-2.33-1.28-3.28-2.21L-489.31-710.52z"/>
		</g>
		<g id="Grupo_698">
			<path id="Trazado_543" class="st0" d="M-473.06-703.73v-19.84h5.46v19.84H-473.06z"/>
		</g>
		<g id="Grupo_699">
			<path id="Trazado_544" class="st0" d="M-463.16-704.11v-19.84h4.13c2.19-0.07,4.38,0.08,6.54,0.43c1.21,0.26,2.35,0.75,3.37,1.45
				c1.23,0.85,2.22,2.01,2.86,3.37c0.67,1.47,1,3.07,0.98,4.68c0.03,1.61-0.3,3.21-0.98,4.68c-0.64,1.35-1.63,2.52-2.86,3.37
				c-0.99,0.68-2.1,1.17-3.28,1.43c-1.89,0.34-3.8,0.48-5.72,0.43H-463.16z M-457.81-708.55h0.91c1.66,0.14,3.31-0.32,4.65-1.31
				c1.07-1.11,1.6-2.62,1.46-4.15c0.13-1.54-0.4-3.06-1.46-4.17c-1.33-1-2.99-1.47-4.65-1.33h-0.91V-708.55z"/>
		</g>
		<g id="Grupo_700">
			<path id="Trazado_545" class="st0" d="M-441.71-704.11v-19.84h5.46v19.84H-441.71z"/>
		</g>
	</g>
	<rect id="Rectángulo_163" x="-500.93" y="-751.17" class="st1" width="74" height="74"/>
</g>
</svg>
