<?xml version="1.0" encoding="utf-8"?>
<!-- Generator: Adobe Illustrator 26.3.1, SVG Export Plug-In . SVG Version: 6.00 Build 0)  -->
<svg version="1.1" id="Capa_1" xmlns="http://www.w3.org/2000/svg" xmlns:xlink="http://www.w3.org/1999/xlink" x="0px" y="0px"
	 viewBox="0 0 74 74" style="enable-background:new 0 0 74 74;" xml:space="preserve">
<style type="text/css">
	.st0{fill:#0A2755;}
	.st1{fill:none;}
</style>
<g id="Grupo_677" transform="translate(791 751)">
	<g id="Grupo_676">
		<path id="Trazado_530" class="st0" d="M-751.24-740.47c-11.11,0.01-21.03,6.95-24.86,17.38c-5.02,1.23-8.09,6.3-6.86,11.32
			c0.82,3.37,3.44,6,6.8,6.85l0.58,1.35c5.76,13.44,21.32,19.67,34.76,13.91s19.67-21.32,13.91-34.76
			C-731.08-734.16-740.65-740.47-751.24-740.47L-751.24-740.47z M-780.23-714c0-3.52,2.85-6.37,6.37-6.37s6.37,2.85,6.37,6.37
			s-2.85,6.37-6.37,6.37C-777.38-707.63-780.23-710.48-780.23-714z M-751.24-690.53c-9.37,0.01-17.84-5.56-21.55-14.16
			c5.14-0.59,8.83-5.23,8.24-10.37c-0.49-4.33-3.91-7.75-8.24-8.24c5.14-11.9,18.95-17.38,30.85-12.24
			c11.9,5.14,17.38,18.95,12.24,30.85C-733.41-696.1-741.88-690.53-751.24-690.53z"/>
		<path id="Trazado_531" class="st0" d="M-742.36-727.08h-14.78c-1.49,0-2.69,1.21-2.69,2.69v21.34c0,1.49,1.21,2.69,2.69,2.69
			h14.78c1.49,0,2.69-1.21,2.69-2.69v-21.34C-739.67-725.88-740.87-727.08-742.36-727.08z M-741.17-703.05
			c0,0.66-0.54,1.19-1.19,1.19h-14.78c-0.66,0-1.19-0.54-1.19-1.19v-21.34c0-0.66,0.54-1.19,1.19-1.19h14.78
			c0.66,0,1.19,0.54,1.19,1.19V-703.05z"/>
		<rect id="Rect치ngulo_152" x="-755.2" y="-721.58" class="st0" width="11.11" height="1.5"/>
		<rect id="Rect치ngulo_153" x="-755.2" y="-715.03" class="st0" width="11.11" height="1.5"/>
		<rect id="Rect치ngulo_154" x="-755.2" y="-708.47" class="st0" width="11.11" height="1.5"/>
		<path id="Trazado_532" class="st0" d="M-773.33-709.97l4.01-4.01l-3.83-3.83l-1.06,1.06l2.02,2.02h-5.62v1.5h5.62l-2.2,2.2
			L-773.33-709.97z"/>
	</g>
	<rect id="Rect치ngulo_155" x="-791" y="-751" class="st1" width="74" height="74"/>
</g>
</svg>
