<?xml version="1.0" encoding="utf-8"?>
<!-- Generator: Adobe Illustrator 26.3.1, SVG Export Plug-In . SVG Version: 6.00 Build 0)  -->
<svg version="1.1" id="Capa_1" xmlns="http://www.w3.org/2000/svg" xmlns:xlink="http://www.w3.org/1999/xlink" x="0px" y="0px"
	 viewBox="0 0 74 74" style="enable-background:new 0 0 74 74;" xml:space="preserve">
<style type="text/css">
	.st0{fill:#0A2755;}
	.st1{fill:none;}
</style>
<g id="Grupo_677-2" transform="translate(1046 825) rotate(180)">
	<g id="Grupo_676-2">
		<path id="Trazado_530-2" class="st0" d="M1011.76,761.53c-11.11,0.01-21.03,6.95-24.86,17.38c-5.02,1.23-8.09,6.3-6.86,11.32
			c0.82,3.37,3.44,6,6.8,6.85l0.58,1.35c5.76,13.44,21.32,19.67,34.76,13.91s19.67-21.32,13.91-34.76
			C1031.92,767.84,1022.35,761.53,1011.76,761.53L1011.76,761.53z M982.77,788c0-3.52,2.85-6.37,6.37-6.37s6.37,2.85,6.37,6.37
			s-2.85,6.37-6.37,6.37C985.62,794.37,982.77,791.52,982.77,788z M1011.76,811.47c-9.37,0.01-17.84-5.56-21.55-14.16
			c5.14-0.59,8.83-5.23,8.24-10.37c-0.49-4.33-3.91-7.75-8.24-8.24c5.14-11.9,18.95-17.38,30.85-12.24
			c11.9,5.14,17.38,18.95,12.24,30.85C1029.59,805.9,1021.12,811.47,1011.76,811.47z"/>
		<path id="Trazado_531-2" class="st0" d="M1020.64,774.92h-14.78c-1.49,0-2.69,1.21-2.69,2.69v21.34c0,1.49,1.21,2.69,2.69,2.69
			h14.78c1.49,0,2.69-1.21,2.69-2.69v-21.34C1023.33,776.12,1022.13,774.92,1020.64,774.92z M1021.83,798.95
			c0,0.66-0.54,1.19-1.19,1.19h-14.78c-0.66,0-1.19-0.54-1.19-1.19v-21.34c0-0.66,0.54-1.19,1.19-1.19h14.78
			c0.66,0,1.19,0.54,1.19,1.19V798.95z"/>
		<rect id="Rect치ngulo_152-2" x="1007.8" y="780.42" class="st0" width="11.11" height="1.5"/>
		<rect id="Rect치ngulo_153-2" x="1007.8" y="786.97" class="st0" width="11.11" height="1.5"/>
		<rect id="Rect치ngulo_154-2" x="1007.8" y="793.53" class="st0" width="11.11" height="1.5"/>
		<path id="Trazado_532-2" class="st0" d="M989.67,792.03l4.01-4.01l-3.83-3.83l-1.06,1.06l2.02,2.02h-5.62v1.5h5.62l-2.2,2.2
			L989.67,792.03z"/>
	</g>
	<rect id="Rect치ngulo_155-2" x="972" y="751" class="st1" width="74" height="74"/>
</g>
</svg>
