<?xml version="1.0" encoding="utf-8"?>
<!-- Generator: Adobe Illustrator 26.3.1, SVG Export Plug-In . SVG Version: 6.00 Build 0)  -->
<svg version="1.1" id="Capa_1" xmlns="http://www.w3.org/2000/svg" xmlns:xlink="http://www.w3.org/1999/xlink" x="0px" y="0px"
	 viewBox="0 0 29 29" style="enable-background:new 0 0 29 29;" xml:space="preserve">
<style type="text/css">
	.st0{fill:#092755;}
</style>
<g id="Grupo_1483" transform="translate(-0.382 0.41)">
	<g id="Grupo_1482" transform="translate(4.896 3.563)">
		<path id="Trazado_801" class="st0" d="M0.31,19.17v-1.19l4.94-0.64l2.43-4.37l1.07,0.6l-2.5,4.44c-0.12,0.22-0.34,0.37-0.59,0.4
			L0.31,19.17z"/>
		<g id="Grupo_1481" transform="translate(3.397 4.649)">
			<path id="Trazado_802" class="st0" d="M11.11,17.17l-1.13-6.24L4.97,7.71C4.7,7.54,4.61,7.2,4.76,6.92l3.32-6.26L3.76,1.47
				L1.33,5.33L0.3,4.68l2.57-4.08c0.09-0.14,0.23-0.24,0.4-0.27l5.81-1.09c0.33-0.06,0.64,0.15,0.7,0.47
				c0.03,0.14,0.01,0.28-0.06,0.4L6.08,6.99l4.78,3.07c0.14,0.09,0.24,0.24,0.27,0.4l1.17,6.5L11.11,17.17z"/>
		</g>
		<path id="Trazado_803" class="st0" d="M15.6,9.54c-0.05,0-0.1,0-0.14-0.01c-0.23-0.04-0.43-0.18-0.55-0.37l-1.73-2.8l0.54-1.3
			l1.92,3.17l3.31-2.5l0.72,0.86l-3.56,2.79C15.96,9.48,15.79,9.54,15.6,9.54z"/>
		<circle id="Elipse_68" class="st0" cx="14.66" cy="1.39" r="2.16"/>
	</g>
</g>
</svg>
