<?xml version="1.0" encoding="utf-8"?>
<!-- Generator: Adobe Illustrator 26.3.1, SVG Export Plug-In . SVG Version: 6.00 Build 0)  -->
<svg version="1.1" id="Capa_1" xmlns="http://www.w3.org/2000/svg" xmlns:xlink="http://www.w3.org/1999/xlink" x="0px" y="0px"
	 viewBox="0 0 29 29" style="enable-background:new 0 0 29 29;" xml:space="preserve">
<style type="text/css">
	.st0{fill:#092755;}
</style>
<g id="Grupo_1390" transform="translate(0.383 0.383)">
	<g id="Grupo_1389" transform="translate(3.101 3.725)">
		<g id="Grupo_1386">
			<path id="Trazado_770" class="st0" d="M18.55,0.54H3.48c-1.46,0-2.64,1.18-2.64,2.64v10.65c0,1.46,1.18,2.64,2.64,2.64h6.97v2.72
				H6.75v1.06h8.52v-1.07h-3.71v-2.72h6.98c1.46,0,2.64-1.18,2.64-2.64V3.18C21.19,1.72,20,0.54,18.55,0.54z M20.13,13.83
				c0,0.88-0.71,1.59-1.59,1.59H3.48c-0.88,0-1.58-0.71-1.59-1.59V3.18c0-0.88,0.71-1.58,1.59-1.59h15.06
				c0.88,0,1.59,0.71,1.59,1.59V13.83z"/>
		</g>
		<g id="Grupo_1387" transform="translate(3.208 5.182)">
			<path id="Trazado_771" class="st0" d="M0.84,2.41l6.97,1.61l6.97-1.74L7.82,0.54L0.84,2.41z"/>
		</g>
		<g id="Grupo_1388" transform="translate(6.695 8.596)">
			<path id="Trazado_772" class="st0" d="M0.85,0.54v2.62C1.65,4.27,2.96,4.92,4.34,4.9C5.73,5,7.07,4.33,7.82,3.15V0.54L4.34,1.45
				L0.85,0.54z"/>
		</g>
	</g>
</g>
</svg>
