<?xml version="1.0" encoding="utf-8"?>
<!-- Generator: Adobe Illustrator 26.3.1, SVG Export Plug-In . SVG Version: 6.00 Build 0)  -->
<svg version="1.1" id="Capa_1" xmlns="http://www.w3.org/2000/svg" xmlns:xlink="http://www.w3.org/1999/xlink" x="0px" y="0px"
	 viewBox="0 0 48 48" style="enable-background:new 0 0 48 48;" xml:space="preserve">
<style type="text/css">
	.st0{fill:#092755;}
	.st1{fill:none;}
</style>
<g id="Grupo_404" transform="translate(-0.093 0.141)">
	<g id="Grupo_403" transform="translate(9.613 7.733)">
		<g id="Grupo_393" transform="translate(7.163 8.317)">
			<rect id="Rect치ngulo_86" x="0" y="0" class="st0" width="14.34" height="0.69"/>
		</g>
		<g id="Grupo_394" transform="translate(7.163 12.111)">
			<rect id="Rect치ngulo_87" x="0" y="0" class="st0" width="14.34" height="0.69"/>
		</g>
		<g id="Grupo_402">
			<g id="Grupo_395" transform="translate(7.163 19.183)">
				<path id="Trazado_433" class="st0" d="M12.11,0H0v0.69h11.42L12.11,0z"/>
			</g>
			<g id="Grupo_396" transform="translate(7.163 22.719)">
				<path id="Trazado_434" class="st0" d="M0,0.7h7.88L8.57,0H0L0,0.7z"/>
			</g>
			<g id="Grupo_397" transform="translate(7.163 15.535)">
				<rect id="Rect치ngulo_88" x="0" y="0" class="st0" width="14.34" height="0.69"/>
			</g>
			<g id="Grupo_400">
				<g id="Grupo_398" transform="translate(12.078 16.482)">
					<path id="Trazado_435" class="st0" d="M2.3,11.49L12.42,1.37l0.08-0.08L11.19,0l-0.08,0.08L8.49,2.7L7.8,3.39L4.95,6.23
						L4.26,6.93l-3.71,3.71l-0.26,0.85L0,12.43l1.87-0.52L2.3,11.49z"/>
				</g>
				<g id="Grupo_399">
					<path id="Trazado_436" class="st0" d="M28.67,1.9c0-1.05-0.85-1.9-1.9-1.9c-1.05,0-1.9,0.85-1.9,1.9c0,0,0,0,0,0l0,0h-4.5l0,0
						c0-1.05-0.85-1.9-1.9-1.9c-1.05,0-1.9,0.85-1.9,1.9l0,0h-4.5l0,0c0-1.05-0.85-1.9-1.9-1.9c-1.05,0-1.9,0.85-1.9,1.9
						c0,0,0,0,0,0l0,0h-4.5l0,0c0-1.05-0.85-1.9-1.9-1.9s-1.9,0.85-1.9,1.9l0,0l0,0v27.07c0,1.87,1.51,3.38,3.37,3.39h21.92
						c1.87-0.01,3.38-1.52,3.37-3.39V1.9l0,0H28.67z M26.9,28.97c0.01,0.89-0.71,1.62-1.61,1.63c0,0,0,0,0,0H3.37
						c-0.89-0.01-1.61-0.73-1.61-1.63c0,0,0,0,0,0v-1C2.19,28.61,2.91,29,3.68,29h7.41l0.31-1.03H3.68
						c-0.88-0.02-1.58-0.75-1.56-1.63V3.8h24.38v22.54c0.02,0.88-0.68,1.61-1.56,1.63h-9.27L14.64,29h10.31
						c0.79,0,1.53-0.41,1.96-1.08V28.97z"/>
				</g>
			</g>
			<g id="Grupo_401" transform="translate(23.844 15.465)">
				<path id="Trazado_437" class="st0" d="M1.37,1.67l0.1-0.1c0.36-0.36,0.36-0.94,0-1.3s-0.94-0.36-1.3,0l-0.1,0.1L0,0.44l1.3,1.3
					L1.37,1.67z"/>
			</g>
		</g>
	</g>
	<rect id="Rect치ngulo_89" x="0.09" y="-0.14" class="st1" width="48" height="48"/>
</g>
</svg>
