<?xml version="1.0" encoding="utf-8"?>
<!-- Generator: Adobe Illustrator 26.3.1, SVG Export Plug-In . SVG Version: 6.00 Build 0)  -->
<svg version="1.1" id="Capa_1" xmlns="http://www.w3.org/2000/svg" xmlns:xlink="http://www.w3.org/1999/xlink" x="0px" y="0px"
	 viewBox="0 0 48 48" style="enable-background:new 0 0 48 48;" xml:space="preserve">
<style type="text/css">
	.st0{fill:#092755;}
</style>
<g id="Grupo_97" transform="translate(-15 -11.018)">
	<g id="Grupo_94" transform="translate(15 11.018)">
		<path id="Trazado_261" class="st0" d="M7.73,7.79v30.72c0,2.12,1.71,3.84,3.83,3.85h24.88c2.12-0.01,3.83-1.73,3.83-3.85V7.79
			H7.73z M10.14,9.94h27.68v25.59c0.02,1-0.77,1.83-1.77,1.85H11.91c-1-0.02-1.79-0.85-1.77-1.85V9.94z M38.27,38.52
			c0.01,1.01-0.81,1.84-1.82,1.85c0,0,0,0,0,0H11.56c-1.01,0-1.83-0.83-1.83-1.84c0,0,0,0,0,0v-1.13c0.49,0.73,1.3,1.16,2.18,1.17
			h24.14c0.9,0,1.73-0.47,2.22-1.22L38.27,38.52z"/>
		<g id="Grupo_93">
			<circle id="Elipse_14" class="st0" cx="9.88" cy="7.79" r="2.15"/>
			<circle id="Elipse_15" class="st0" cx="19.29" cy="7.79" r="2.15"/>
			<circle id="Elipse_16" class="st0" cx="28.71" cy="7.79" r="2.15"/>
			<circle id="Elipse_17" class="st0" cx="38.12" cy="7.79" r="2.15"/>
		</g>
	</g>
	<g id="Grupo_96" transform="translate(28.128 21.312)">
		<g id="Grupo_95" transform="translate(0 0)">
			<path id="Trazado_262" class="st0" d="M7.73,7.31l0.95-1.68h3.56v16.25h-1.81V7.31H7.73z"/>
		</g>
	</g>
</g>
</svg>
