<?xml version="1.0" encoding="utf-8"?>
<!-- Generator: Adobe Illustrator 26.3.1, SVG Export Plug-In . SVG Version: 6.00 Build 0)  -->
<svg version="1.1" id="Capa_1" xmlns="http://www.w3.org/2000/svg" xmlns:xlink="http://www.w3.org/1999/xlink" x="0px" y="0px"
	 viewBox="0 0 63.05 62.82" style="enable-background:new 0 0 63.05 62.82;" xml:space="preserve">
<style type="text/css">
	.st0{fill:#092755;}
</style>
<g id="Grupo_100" transform="translate(70.069 -43.299)">
	<path id="Trazado_264" class="st0" d="M-55.32,68.2h-4.86c0.86-11.28,10.26-20,21.57-20c9.04,0.02,17.13,5.63,20.3,14.1l4.61-1.7
		c-1.86-5.02-5.19-9.36-9.57-12.44c-4.48-3.18-9.84-4.87-15.34-4.86c-7.04-0.02-13.8,2.77-18.77,7.76
		c-4.92,4.89-7.72,11.52-7.77,18.46c-3.04,1.75-4.92,4.99-4.92,8.5v8.34c0.01,5.42,4.41,9.81,9.83,9.82h4.92
		c1.36,0,2.46-1.1,2.46-2.46l0,0V70.66C-52.86,69.3-53.96,68.2-55.32,68.2C-55.32,68.2-55.32,68.2-55.32,68.2z M-57.78,91.26h-2.46
		c-2.71,0-4.91-2.2-4.92-4.91v-8.34c0.01-2.71,2.21-4.91,4.92-4.91h2.46V91.26z"/>
	<path id="Trazado_265" class="st0" d="M-16.85,68.2h-4.92c-1.36,0-2.46,1.1-2.46,2.45l0,0V96.3c0,1.36-1.1,2.45-2.46,2.45h-7.5
		v0.08c-0.87-1.56-2.51-2.53-4.3-2.53c-2.71,0-4.91,2.19-4.92,4.91c0,0,0,0,0,0c0,2.71,2.2,4.91,4.91,4.91c0,0,0,0,0,0
		c1.79,0,3.43-0.97,4.3-2.53v0.08h7.5c4.07,0,7.37-3.29,7.37-7.36v-0.12h2.46c5.42,0,9.82-4.39,9.83-9.82v-8.35
		C-7.03,72.59-11.43,68.2-16.85,68.2z M-11.83,86.19c-0.01,2.74-2.22,4.95-4.96,4.95h-2.48V72.83h2.48c2.73,0,4.95,2.21,4.96,4.95
		L-11.83,86.19z"/>
</g>
</svg>
