<?xml version="1.0" encoding="utf-8"?>
<!-- Generator: Adobe Illustrator 26.3.1, SVG Export Plug-In . SVG Version: 6.00 Build 0)  -->
<svg version="1.1" id="Capa_1" xmlns="http://www.w3.org/2000/svg" xmlns:xlink="http://www.w3.org/1999/xlink" x="0px" y="0px"
	 viewBox="0 0 74 74" style="enable-background:new 0 0 74 74;" xml:space="preserve">
<style type="text/css">
	.st0{fill:none;}
	.st1{fill:#0A2755;}
</style>
<g id="Grupo_316" transform="translate(1452 738)">
	<g id="Grupo_315">
		<g id="Elipse_31" transform="translate(12 12)">
			<g>
				<circle class="st0" cx="-1427" cy="-713" r="25"/>
			</g>
			<g>
				<path class="st1" d="M-1427-688c-13.79,0-25-11.21-25-25s11.21-25,25-25s25,11.21,25,25S-1413.21-688-1427-688z M-1427-735.5
					c-12.41,0-22.5,10.09-22.5,22.5s10.09,22.5,22.5,22.5s22.5-10.09,22.5-22.5S-1414.59-735.5-1427-735.5z"/>
			</g>
		</g>
		<g id="Grupo_314">
			<g id="Trazado_415">
				<path class="st1" d="M-1417.82-699.32c-0.01-0.45,0.16-0.89,0.48-1.22c0.31-0.33,0.74-0.51,1.2-0.5
					c1.15-0.04,2.28-0.31,3.31-0.82c0.95-0.46,1.76-1.18,2.33-2.08c0.59-0.97,0.89-2.09,0.86-3.23c0.03-1.09-0.24-2.17-0.78-3.12
					c-0.5-0.87-1.23-1.58-2.1-2.07c-0.92-0.51-1.95-0.77-3-0.75c-0.99,0-1.97,0.23-2.85,0.67c-0.88,0.43-1.66,1.03-2.31,1.76
					c-0.31,0.28-0.67,0.49-1.07,0.61c-0.45,0.12-0.92,0.02-1.28-0.27c-0.42-0.26-0.69-0.69-0.76-1.17c-0.05-0.48,0.12-0.96,0.46-1.3
					c1.93-2.31,4.79-3.64,7.8-3.65c1.64-0.02,3.26,0.39,4.69,1.2c2.93,1.64,4.7,4.76,4.61,8.11c0.01,1.16-0.21,2.3-0.65,3.37
					c-0.42,1.03-1.04,1.97-1.82,2.77c-0.78,0.8-1.71,1.44-2.73,1.91c-1.06,0.48-2.19,0.76-3.35,0.84c-0.08,0.03-0.08,0.04,0,0.02
					c0.1-0.02,0.18-0.07,0.25-0.15v3.44c0.01,0.45-0.16,0.89-0.48,1.22c-0.65,0.66-1.7,0.67-2.36,0.03
					c-0.01-0.01-0.02-0.02-0.03-0.03c-0.32-0.32-0.48-0.77-0.44-1.22L-1417.82-699.32z M-1416.23-685.53
					c-0.51,0.03-1.01-0.16-1.36-0.52c-0.33-0.39-0.51-0.89-0.48-1.4v-0.84c-0.03-0.51,0.14-1,0.48-1.38
					c0.36-0.35,0.86-0.53,1.36-0.5h0.33c0.51-0.04,1.01,0.14,1.38,0.5c0.33,0.38,0.49,0.88,0.46,1.38v0.84
					c0.03,0.51-0.14,1.01-0.46,1.4c-0.36,0.37-0.87,0.56-1.38,0.52L-1416.23-685.53z"/>
			</g>
		</g>
	</g>
</g>
</svg>
