<?xml version="1.0" encoding="utf-8"?>
<!-- Generator: Adobe Illustrator 26.3.1, SVG Export Plug-In . SVG Version: 6.00 Build 0)  -->
<svg version="1.1" id="Capa_1" xmlns="http://www.w3.org/2000/svg" xmlns:xlink="http://www.w3.org/1999/xlink" x="0px" y="0px"
	 viewBox="0 0 140 140" style="enable-background:new 0 0 140 140;" xml:space="preserve">
<style type="text/css">
	.st0{fill:#0A2755;}
	.st1{fill:none;}
</style>
<g>
	<g id="Grupo_1395" transform="translate(11.877 11.876)">
		<g id="Grupo_1392" transform="translate(34.944 34.944)">
			<g id="Grupo_1391">
				<path id="Trazado_773" class="st0" d="M44.61,18.14h-16.4V1.74c0-1.09-0.88-1.98-1.98-1.98h-6.12c-1.09,0-1.98,0.88-1.98,1.98
					v16.4H1.75c-1.09,0-1.98,0.88-1.98,1.98v6.12c0,1.09,0.89,1.97,1.98,1.97h16.39v16.4c0,1.09,0.88,1.98,1.98,1.98h6.12
					c1.09,0,1.98-0.88,1.98-1.98v-16.4h16.4c1.09,0,1.98-0.88,1.98-1.97v-6.12C46.59,19.03,45.7,18.14,44.61,18.14z"/>
			</g>
		</g>
		<g id="Grupo_1394">
			<g id="Grupo_1393">
				<path id="Trazado_774" class="st0" d="M66.04,116.65H50.38c-3.62,0-6.56-2.94-6.56-6.56v-7.24c-2.4-0.78-4.74-1.75-6.99-2.9
					l-5.12,5.12c-2.56,2.56-6.71,2.56-9.28,0L11.35,93.99c-2.56-2.56-2.56-6.71,0-9.28l5.12-5.12c-1.15-2.25-2.12-4.58-2.9-6.99
					H6.33c-3.62,0-6.56-2.94-6.56-6.56V50.38c0-3.62,2.94-6.56,6.56-6.56h7.24c0.78-2.4,1.75-4.74,2.9-6.99l-5.12-5.12
					c-2.56-2.56-2.56-6.72,0-9.28l11.08-11.07c2.56-2.56,6.71-2.56,9.28,0l5.12,5.12c2.25-1.15,4.58-2.12,6.99-2.9V6.33
					c0-3.62,2.94-6.56,6.56-6.56h15.66c3.62,0,6.56,2.94,6.56,6.56v7.24c2.4,0.78,4.74,1.75,6.99,2.9l5.12-5.12
					c2.56-2.56,6.71-2.56,9.28,0l11.08,11.08c2.56,2.56,2.56,6.72,0,9.28l-5.12,5.12c1.15,2.25,2.12,4.59,2.9,6.99h7.24
					c3.62,0,6.56,2.94,6.56,6.56v15.66c0,3.62-2.94,6.56-6.56,6.56h-7.24c-0.78,2.4-1.75,4.74-2.9,6.99l5.12,5.12
					c2.56,2.56,2.56,6.71,0,9.28l-11.08,11.08c-2.56,2.56-6.71,2.56-9.28,0l-5.12-5.12c-2.25,1.15-4.58,2.12-6.99,2.9v7.24
					C72.6,113.71,69.66,116.64,66.04,116.65z M35.84,92.86l1.9,1.09c3.04,1.75,6.29,3.1,9.68,4.01l2.11,0.57v11.56
					c0,0.47,0.38,0.85,0.85,0.85h15.66c0.47,0,0.85-0.38,0.85-0.85V98.53L69,97.96c3.39-0.92,6.64-2.27,9.68-4.01l1.9-1.09
					l8.18,8.18c0.33,0.33,0.87,0.33,1.2,0l11.08-11.08c0.33-0.33,0.33-0.87,0-1.2l-8.18-8.18l1.09-1.9c1.75-3.04,3.1-6.29,4.02-9.68
					l0.57-2.11h11.56c0.47,0,0.85-0.38,0.85-0.85V50.38c0-0.47-0.38-0.85-0.85-0.85H98.53l-0.57-2.11
					c-0.92-3.39-2.27-6.64-4.02-9.68l-1.09-1.89l8.18-8.17c0.33-0.33,0.33-0.87,0-1.2L89.95,15.39c-0.33-0.33-0.87-0.33-1.2,0
					l-8.18,8.17l-1.9-1.09c-3.04-1.75-6.29-3.1-9.68-4.02l-2.11-0.57V6.33c0-0.47-0.38-0.85-0.85-0.85H50.38
					c-0.47,0-0.85,0.38-0.85,0.85v11.56l-2.11,0.57c-3.39,0.92-6.64,2.27-9.68,4.02l-1.9,1.09l-8.17-8.17
					c-0.33-0.33-0.87-0.33-1.2,0L15.39,26.47c-0.33,0.33-0.33,0.87,0,1.2l8.18,8.18l-1.09,1.9c-1.75,3.04-3.1,6.29-4.02,9.68
					l-0.57,2.11H6.33c-0.47,0-0.85,0.38-0.85,0.85v15.66c0,0.47,0.38,0.85,0.85,0.85h11.55L18.46,69c0.92,3.39,2.27,6.64,4.02,9.68
					l1.09,1.9l-8.17,8.17c-0.33,0.33-0.33,0.87,0,1.2l11.08,11.08c0.33,0.33,0.87,0.33,1.2,0L35.84,92.86z"/>
			</g>
		</g>
	</g>
	<rect id="Rectángulo_288" class="st1" width="140" height="140"/>
</g>
</svg>
