<?xml version="1.0" encoding="utf-8"?>
<!-- Generator: Adobe Illustrator 26.3.1, SVG Export Plug-In . SVG Version: 6.00 Build 0)  -->
<svg version="1.1" id="Capa_1" xmlns="http://www.w3.org/2000/svg" xmlns:xlink="http://www.w3.org/1999/xlink" x="0px" y="0px"
	 viewBox="0 0 74 74" style="enable-background:new 0 0 74 74;" xml:space="preserve">
<style type="text/css">
	.st0{fill:#0A2755;}
	.st1{fill:none;}
</style>
<g id="Grupo_334" transform="translate(405 738)">
	<g id="Grupo_333">
		<g id="Grupo_331">
			<g id="Grupo_319">
				<g id="Grupo_318">
					<g id="Grupo_317">
						<rect id="Rect치ngulo_76" x="-378.53" y="-713.34" class="st0" width="21.07" height="1.02"/>
					</g>
				</g>
			</g>
			<g id="Grupo_322">
				<g id="Grupo_321">
					<g id="Grupo_320">
						<rect id="Rect치ngulo_77" x="-378.53" y="-702.81" class="st0" width="21.07" height="1.02"/>
					</g>
				</g>
			</g>
			<g id="Grupo_325">
				<g id="Grupo_324">
					<g id="Grupo_323">
						<rect id="Rect치ngulo_78" x="-378.53" y="-692.27" class="st0" width="21.07" height="1.02"/>
					</g>
				</g>
			</g>
			<g id="Grupo_330">
				<g id="Grupo_327">
					<g id="Grupo_326">
						<path id="Trazado_416" class="st0" d="M-365.07-678.51l-0.76,2.51l2.61-0.72l14.86-14.85l-1.82-1.82L-365.07-678.51z"/>
					</g>
				</g>
				<g id="Grupo_329">
					<g id="Grupo_328">
						<path id="Trazado_417" class="st0" d="M-347.31-694.44c-0.5-0.5-1.32-0.5-1.82,0l-0.25,0.25l1.82,1.82l0.25-0.25
							C-346.81-693.13-346.81-693.94-347.31-694.44z"/>
					</g>
				</g>
			</g>
		</g>
		<g id="Grupo_332">
			<path id="Trazado_418" class="st0" d="M-349.54-696.93v-24.01c0-1.35-1.1-2.45-2.45-2.45H-384c-1.35,0-2.45,1.1-2.45,2.45v39.88
				c0,1.35,1.1,2.45,2.45,2.45h16.01v2.61H-384c-2.79,0-5.05-2.27-5.06-5.06v-39.88c0-2.79,2.27-5.05,5.06-5.06h32.01
				c2.79,0,5.05,2.27,5.06,5.06v24.01H-349.54z"/>
		</g>
	</g>
	<rect id="Rect치ngulo_79" x="-405" y="-738" class="st1" width="74" height="74"/>
</g>
</svg>
