<?xml version="1.0" encoding="utf-8"?>
<!-- Generator: Adobe Illustrator 26.3.1, SVG Export Plug-In . SVG Version: 6.00 Build 0)  -->
<svg version="1.1" id="Capa_1" xmlns="http://www.w3.org/2000/svg" xmlns:xlink="http://www.w3.org/1999/xlink" x="0px" y="0px"
	 viewBox="0 0 74 74" style="enable-background:new 0 0 74 74;" xml:space="preserve">
<style type="text/css">
	.st0{fill:#0A2755;}
	.st1{fill:none;}
</style>
<g id="Grupo_292" transform="translate(687 738)">
	<g id="Grupo_291">
		<g id="Grupo_279">
			<g id="Grupo_278">
				<path id="Trazado_405" class="st0" d="M-670.64-680.75h-2.44v-10.93h10.9v2.44h-8.46V-680.75z"/>
			</g>
		</g>
		<g id="Grupo_290">
			<g id="Grupo_281">
				<g id="Grupo_280">
					<path id="Trazado_406" class="st0" d="M-672.14-701.11h-2.44c0-13.75,11.15-24.89,24.89-24.89c8.74,0,16.84,4.58,21.34,12.08
						l-2.09,1.26c-6.39-10.63-20.18-14.07-30.81-7.68C-668-716.29-672.13-708.99-672.14-701.11L-672.14-701.11z"/>
				</g>
			</g>
			<g id="Grupo_283">
				<g id="Grupo_282">
					<path id="Trazado_407" class="st0" d="M-649.69-676c-9.16,0-17.58-5.02-21.92-13.09l2.15-1.16c5.88,10.92,19.51,15,30.43,9.12
						c5.7-3.07,9.8-8.45,11.24-14.76l2.38,0.54C-627.96-684-638.06-675.95-649.69-676z"/>
				</g>
			</g>
			<g id="Grupo_285">
				<g id="Grupo_284">
					<path id="Trazado_408" class="st0" d="M-627.34-710.71h-11.32v-2.44h8.88v-8.65h2.44V-710.71z"/>
				</g>
			</g>
			<g id="Grupo_287">
				<g id="Grupo_286">
					<path id="Trazado_409" class="st0" d="M-649.69-700.75l-19.71-4.55l19.7-5.3l19.7,4.93L-649.69-700.75z"/>
				</g>
			</g>
			<g id="Grupo_289">
				<g id="Grupo_288">
					<path id="Trazado_410" class="st0" d="M-659.54-700.82l9.85,2.59l9.85-2.59v7.39c0,0-2.74,5.12-9.85,4.92
						c-7.02-0.19-9.85-4.93-9.85-4.93V-700.82z"/>
				</g>
			</g>
		</g>
	</g>
	<rect id="Rectángulo_67" x="-687" y="-738" class="st1" width="74" height="74"/>
</g>
</svg>
