<?xml version="1.0" encoding="utf-8"?>
<!-- Generator: Adobe Illustrator 26.3.1, SVG Export Plug-In . SVG Version: 6.00 Build 0)  -->
<svg version="1.1" id="Capa_1" xmlns="http://www.w3.org/2000/svg" xmlns:xlink="http://www.w3.org/1999/xlink" x="0px" y="0px"
	 viewBox="0 0 74 74" style="enable-background:new 0 0 74 74;" xml:space="preserve">
<style type="text/css">
	.st0{fill:#0A2755;}
	.st1{fill:none;}
</style>
<g id="Grupo_309" transform="translate(956 738)">
	<g id="Grupo_308">
		<g id="Grupo_294">
			<g id="Grupo_293">
				<path id="Trazado_411" class="st0" d="M-899.9-685.59h-38.2c-3.7,0-6.7-3-6.7-6.7v-27.01c0-3.7,3-6.7,6.7-6.7h38.2
					c3.7,0,6.7,3,6.7,6.7v27.01C-893.2-688.59-896.2-685.6-899.9-685.59z M-938.1-723.33c-2.22,0-4.02,1.8-4.02,4.03v27.01
					c0,2.22,1.8,4.02,4.02,4.02h38.2c2.22,0,4.02-1.8,4.02-4.02v-27.01c0-2.22-1.8-4.02-4.02-4.03H-938.1z"/>
			</g>
		</g>
		<g id="Grupo_296">
			<g id="Grupo_295">
				<rect id="Rectángulo_68" x="-929.81" y="-678.7" class="st0" width="21.62" height="2.7"/>
			</g>
		</g>
		<g id="Grupo_301">
			<g id="Grupo_298">
				<g id="Grupo_297">
					<path id="Rectángulo_69" class="st0" d="M-928.22-706.9L-928.22-706.9c4.6,0,8.34,3.73,8.34,8.34v5.68l0,0h-16.67l0,0v-5.68
						C-936.55-703.16-932.82-706.9-928.22-706.9z"/>
				</g>
			</g>
			<g id="Grupo_300">
				<g id="Grupo_299">
					<circle id="Elipse_30" class="st0" cx="-928.13" cy="-713.72" r="5.45"/>
				</g>
			</g>
		</g>
		<g id="Grupo_303">
			<g id="Grupo_302">
				<rect id="Rectángulo_70" x="-920.41" y="-686.93" class="st0" width="2.82" height="8.27"/>
			</g>
		</g>
		<g id="Grupo_305">
			<g id="Grupo_304">
				<rect id="Rectángulo_71" x="-916.45" y="-706.4" class="st0" width="16.51" height="1.22"/>
			</g>
		</g>
		<g id="Grupo_307">
			<g id="Grupo_306">
				<rect id="Rectángulo_72" x="-908.8" y="-714.05" class="st0" width="1.22" height="16.51"/>
			</g>
		</g>
	</g>
	<rect id="Rectángulo_73" x="-956" y="-738" class="st1" width="74" height="74"/>
</g>
</svg>
