<?xml version="1.0" standalone="no"?>
<!DOCTYPE svg PUBLIC "-//W3C//DTD SVG 20010904//EN"
 "http://www.w3.org/TR/2001/REC-SVG-20010904/DTD/svg10.dtd">
<svg version="1.0" xmlns="http://www.w3.org/2000/svg"
 width="612.000000pt" height="408.000000pt" viewBox="0 0 612.000000 408.000000"
 preserveAspectRatio="xMidYMid meet">

<g transform="translate(0.000000,408.000000) scale(0.100000,-0.100000)"
fill="#000000" stroke="none">
<path d="M2255 2880 c-80 -39 -80 -38 -83 -446 -2 -199 1 -383 5 -410 7 -44
11 -49 36 -52 l27 -3 0 415 0 415 26 20 c26 21 33 21 781 21 l755 0 29 -29 29
-29 0 -207 0 -207 29 24 30 23 0 185 c1 216 -6 240 -79 278 l-44 22 -751 0
c-729 0 -751 -1 -790 -20z"/>
<path d="M4110 2863 c-11 -35 -20 -45 -57 -61 l-44 -19 42 -12 c34 -10 44 -19
57 -53 l16 -41 11 34 c8 25 22 39 53 54 l42 19 -43 21 c-34 16 -44 27 -53 60
l-11 40 -13 -42z"/>
<path d="M3967 2876 c-10 -25 -9 -76 2 -76 13 0 20 37 12 67 -6 23 -8 24 -14
9z"/>
<path d="M3981 2654 c47 -52 59 -78 59 -124 0 -128 -192 -291 -534 -456 -140
-67 -306 -133 -436 -174 -65 -20 -77 -28 -91 -57 -21 -42 -27 -42 175 3 540
120 947 352 1006 572 23 88 -32 178 -144 234 l-61 30 26 -28z"/>
<path d="M2041 2243 c-79 -78 -131 -172 -131 -236 0 -110 102 -188 305 -233
62 -14 125 -18 277 -18 l197 0 6 -33 c3 -18 9 -33 13 -33 4 0 52 37 107 81 67
55 100 88 100 102 0 20 -17 29 -234 122 l-33 15 6 -28 c4 -15 9 -35 12 -44 7
-25 -59 -33 -266 -33 -156 0 -183 3 -250 23 -96 31 -150 80 -150 138 0 48 39
133 87 192 56 68 31 60 -46 -15z"/>
<path d="M3888 2060 c-28 -15 -28 -15 -28 -130 -1 -77 -5 -123 -14 -139 -13
-23 -11 -26 21 -48 18 -13 36 -23 38 -23 11 0 16 78 13 210 l-3 146 -27 -16z"/>
<path d="M2083 2015 c28 -25 47 -32 47 -17 0 5 -17 16 -37 25 l-38 17 28 -25z"/>
<path d="M3510 1770 c-69 -15 -166 -67 -200 -108 -40 -48 -50 -88 -50 -197 0
-115 22 -165 94 -213 74 -49 145 -67 261 -66 142 1 250 45 302 123 21 31 23
45 23 166 0 147 -7 168 -80 227 -74 59 -239 91 -350 68z m271 -77 c74 -34 108
-73 116 -133 10 -72 -52 -137 -165 -175 -84 -27 -229 -18 -305 19 -132 64
-154 187 -46 262 71 49 133 65 239 61 82 -2 104 -7 161 -34z m-302 -357 c114
-33 277 -11 366 49 47 33 58 26 13 -9 -76 -57 -123 -71 -253 -71 -115 0 -123
1 -186 32 -36 18 -74 42 -85 54 -16 18 -10 17 36 -9 30 -17 79 -37 109 -46z
m379 -21 c-107 -98 -393 -100 -504 -3 -44 39 -38 47 13 14 124 -81 383 -77
488 8 44 35 46 20 3 -19z"/>
<path d="M3590 1680 c0 -5 -16 -16 -35 -24 -37 -16 -56 -57 -38 -85 5 -9 36
-25 68 -36 32 -11 60 -26 62 -32 7 -21 -43 -34 -88 -24 -33 7 -41 6 -46 -6 -7
-19 14 -33 50 -33 17 0 27 -5 27 -15 0 -8 7 -15 15 -15 8 0 15 4 15 10 0 5 17
18 38 27 30 15 38 24 40 50 3 27 -2 36 -29 52 -17 11 -46 22 -64 25 -77 15
-37 62 41 50 41 -6 46 -5 42 12 -2 12 -13 20 -31 22 -16 2 -31 10 -34 18 -6
16 -33 19 -33 4z"/>
<path d="M2802 1694 c-93 -74 -121 -80 -136 -28 l-9 32 -201 5 c-111 3 -218
10 -238 15 -36 9 -38 9 -38 -13 0 -13 12 -37 26 -55 50 -59 54 -60 383 -60
204 0 302 -3 306 -11 4 -6 4 -39 0 -75 l-7 -64 -51 -15 c-29 -8 -77 -21 -107
-28 -61 -16 -81 -36 -61 -61 12 -14 50 -16 295 -16 l281 0 -3 45 c-4 40 -7 45
-38 55 -55 18 -64 34 -64 106 l0 64 48 0 c47 0 50 1 67 39 19 44 53 78 105
110 l35 21 -255 0 -255 -1 -83 -65z"/>
</g>
</svg>
