<svg id="Capa_1" data-name="Capa 1" xmlns="http://www.w3.org/2000/svg" viewBox="0 0 74 74"><defs><style>.cls-1{fill:none;}.cls-2{fill:#092755;}</style></defs><g id="Grupo_677-2" data-name="Grupo 677-2"><rect id="Rectángulo_155-2" data-name="Rectángulo 155-2" class="cls-1" width="74" height="74"/></g><path class="cls-1" d="M21.3,36.9A15.6,15.6,0,0,0,33.4,52V21.8A15.5,15.5,0,0,0,21.3,36.9Z" transform="translate(0.2 0.1)"/><path class="cls-1" d="M52.2,36.9a15.4,15.4,0,0,0-12-15.1V52A15.5,15.5,0,0,0,52.2,36.9Z" transform="translate(0.2 0.1)"/><path class="cls-2" d="M21.3,36.9A15.5,15.5,0,0,1,33.4,21.8V14.9a22.3,22.3,0,0,0,0,44V52A15.6,15.6,0,0,1,21.3,36.9Z" transform="translate(0.2 0.1)"/><path class="cls-2" d="M59,36.9a22.2,22.2,0,0,0-18.8-22v6.9a15.4,15.4,0,0,1,12,15.1A15.5,15.5,0,0,1,40.2,52v6.9A22.4,22.4,0,0,0,59,36.9Z" transform="translate(0.2 0.1)"/><rect class="cls-2" x="36.4" y="15" width="0.6" height="44"/><rect class="cls-2" x="29.1" y="28" width="9.3" height="0.61"/><rect class="cls-2" x="29.9" y="31.3" width="7" height="0.61"/><rect class="cls-2" x="32.8" y="34.5" width="8.1" height="0.61"/><rect class="cls-2" x="29.1" y="37.8" width="9.7" height="0.61"/><rect class="cls-2" x="28.3" y="41.1" width="6.5" height="0.61"/><rect class="cls-2" x="35.1" y="44.6" width="3.7" height="0.61"/><rect class="cls-2" x="33.5" y="24.3" width="2" height="0.61"/><rect class="cls-2" x="32.9" y="47.7" width="1.7" height="1.67" transform="translate(-24.2 38.2) rotate(-45)"/></svg>