<?xml version="1.0" encoding="utf-8"?>
<!-- Generator: Adobe Illustrator 26.3.1, SVG Export Plug-In . SVG Version: 6.00 Build 0)  -->
<svg version="1.1" id="Capa_1" xmlns="http://www.w3.org/2000/svg" xmlns:xlink="http://www.w3.org/1999/xlink" x="0px" y="0px"
	 viewBox="0 0 74 74" style="enable-background:new 0 0 74 74;" xml:space="preserve">
<style type="text/css">
	.st0{fill:#0A2755;}
	.st1{fill:none;stroke:#0A2755;stroke-width:3;stroke-linecap:round;stroke-miterlimit:10;}
	.st2{fill:none;}
</style>
<g id="Grupo_498" transform="translate(855 748)">
	<g id="Grupo_492">
		<path id="Trazado_468" class="st0" d="M-828.49-703.69h-4.35l-4.47-7.43h-0.05v7.43h-3.59v-18.42h4.86c3.64,0,6.16,1.61,6.16,5.55
			c0,2.34-1.29,4.69-3.76,5.1L-828.49-703.69z M-837.36-713.64h0.46c1.98,0,3.37-0.59,3.37-2.83c0-2.27-1.44-2.71-3.35-2.71h-0.49
			L-837.36-713.64z"/>
		<path id="Trazado_469" class="st0" d="M-824.66-709.14c0,1.51,0.59,3.22,2.37,3.22c1.03-0.02,1.94-0.67,2.3-1.64l3.15,0.51
			c-0.79,2.32-3.01,3.84-5.45,3.74c-3.71,0-5.98-2.64-5.98-6.28s1.93-6.5,5.81-6.5c3.93,0,5.69,2.91,5.69,6.52v0.42L-824.66-709.14z
			 M-819.99-711.27c-0.04-1.26-1.01-2.3-2.27-2.42c-1.28,0.09-2.28,1.14-2.3,2.42H-819.99z"/>
		<path id="Trazado_470" class="st0" d="M-815.08-722.11h5.13c5.33,0,8.89,3.98,8.89,9.23c0,5.18-3.66,9.19-8.92,9.19h-5.1
			L-815.08-722.11z M-811.49-706.82h0.59c4.42,0,6.13-2.44,6.13-6.08c0-4.01-2.05-6.08-6.13-6.08h-0.59L-811.49-706.82z"/>
		<path id="Trazado_471" class="st0" d="M-795.49-720.72c0,1.12-0.91,2.03-2.03,2.03c-1.12,0-2.03-0.91-2.03-2.03
			c0-1.12,0.91-2.03,2.03-2.03C-796.4-722.75-795.49-721.85-795.49-720.72C-795.49-720.73-795.49-720.72-795.49-720.72z
			 M-795.81-703.69h-3.42v-11.99h3.42V-703.69z"/>
	</g>
	<g id="Grupo_493">
		<path id="Trazado_472" class="st0" d="M-794.28-683.26h-45.82c-5.22-0.01-9.46-4.24-9.47-9.47v-36.54
			c0.01-5.22,4.24-9.46,9.47-9.47h43.61c5.22,0.01,9.46,4.24,9.47,9.47V-711c0,0.83-0.67,1.5-1.5,1.5s-1.5-0.67-1.5-1.5v-18.27
			c0-3.57-2.9-6.46-6.47-6.47h-43.61c-3.57,0-6.46,2.9-6.47,6.47v36.54c0,3.57,2.9,6.46,6.47,6.47h45.82c2.35,0,4.25-1.91,4.26-4.26
			v-0.65c0-0.83,0.67-1.5,1.5-1.5s1.5,0.67,1.5,1.5v0.65C-787.03-686.52-790.28-683.27-794.28-683.26z"/>
	</g>
	<g id="Grupo_494">
		<path id="Trazado_473" class="st1" d="M-788.53-691.17"/>
	</g>
	<g id="Grupo_495">
		<path id="Trazado_474" class="st1" d="M-788.53-711"/>
	</g>
	<g id="Grupo_496">
		<path id="Trazado_475" class="st0" d="M-788.53-697.85c-0.83,0-1.5-0.67-1.5-1.5v-7.28c0-0.83,0.67-1.5,1.5-1.5s1.5,0.67,1.5,1.5
			v7.28C-787.03-698.52-787.7-697.85-788.53-697.85z"/>
	</g>
	<g id="Grupo_497">
		<path id="Trazado_476" class="st0" d="M-788.53-693.86c-0.2,0-0.39-0.03-0.57-0.11c-0.19-0.07-0.35-0.18-0.49-0.33
			c-0.28-0.28-0.44-0.66-0.44-1.05c-0.01-0.82,0.66-1.5,1.48-1.5c0.11,0,0.22,0.01,0.32,0.03c0.1,0.01,0.19,0.04,0.28,0.08
			c0.09,0.04,0.17,0.08,0.25,0.14c0.08,0.05,0.16,0.11,0.23,0.18c0.28,0.28,0.44,0.67,0.44,1.07
			C-787.03-694.53-787.71-693.86-788.53-693.86z"/>
	</g>
	<rect id="Rectángulo_109" x="-855" y="-748" class="st2" width="74" height="74"/>
</g>
</svg>
