<?xml version="1.0" encoding="utf-8"?>
<!-- Generator: Adobe Illustrator 26.3.1, SVG Export Plug-In . SVG Version: 6.00 Build 0)  -->
<svg version="1.1" id="Capa_1" xmlns="http://www.w3.org/2000/svg" xmlns:xlink="http://www.w3.org/1999/xlink" x="0px" y="0px"
	 viewBox="0 0 140 140" style="enable-background:new 0 0 140 140;" xml:space="preserve">
<style type="text/css">
	.st0{fill:#0A2755;}
	.st1{fill:none;}
</style>
<g id="Grupo_2016" transform="translate(240.766 886.766)">
	<g id="Grupo_2015" transform="translate(12.565 19.834)">
		
			<rect id="Rectángulo_406" x="-166.71" y="-880.69" transform="matrix(0.2588 -0.9659 0.9659 0.2588 723.1985 -806.4237)" class="st0" width="5.7" height="12.51"/>
		
			<rect id="Rectángulo_407" x="-153.35" y="-866.38" transform="matrix(0.9659 -0.259 0.259 0.9659 217.6853 -68.3284)" class="st0" width="5.7" height="11.94"/>
		
			<rect id="Rectángulo_408" x="-166.9" y="-841.19" transform="matrix(0.7071 -0.7071 0.7071 0.7071 546.6099 -357.0498)" class="st0" width="18.41" height="5.69"/>
		<path id="Trazado_986" class="st0" d="M-191.62-843.5l-4.49-16.76c-0.26-0.98,0.02-2.03,0.74-2.75l13.26-13.26l4.03,4.03
			l-12.1,12.1l4.06,15.17L-191.62-843.5z"/>
		<path id="Trazado_987" class="st0" d="M-162.72-813.71l-4.14-15.46l-14.79-3.96l1.47-5.5l16.37,4.39
			c0.98,0.26,1.75,1.03,2.01,2.01l4.57,17.05L-162.72-813.71z"/>
		<path id="Trazado_988" class="st0" d="M-175.21-788.81c-0.25,0-0.5-0.03-0.74-0.09l-23-6.16c-0.98-0.26-1.75-1.03-2.01-2.01
			l-4.49-16.75l5.5-1.47l4.06,15.16l19.82,5.31l11.81-11.81l4.03,4.03l-12.97,12.97C-173.73-789.11-174.46-788.81-175.21-788.81z"/>
		
			<rect id="Rectángulo_409" x="-202.69" y="-832.49" transform="matrix(0.7071 -0.7071 0.7071 0.7071 529.3731 -381.2728)" class="st0" width="14.28" height="5.69"/>
		<path id="Trazado_989" class="st0" d="M-153.91-862.52c-4.86-0.01-8.79-3.95-8.79-8.81c0.01-4.86,3.95-8.79,8.81-8.79
			c4.86,0.01,8.79,3.95,8.79,8.81c-0.01,4.26-3.07,7.91-7.26,8.65C-152.87-862.56-153.39-862.52-153.91-862.52z M-153.89-874.4
			c-1.71,0-3.09,1.38-3.1,3.09c0,1.71,1.38,3.09,3.09,3.1s3.09-1.38,3.1-3.09c0-0.18-0.02-0.36-0.05-0.54
			C-151.1-873.33-152.39-874.4-153.89-874.4z"/>
		<path id="Trazado_990" class="st0" d="M-186.3-830.11c-4.86,0-8.8-3.93-8.8-8.79c0-4.86,3.93-8.8,8.79-8.8s8.8,3.93,8.8,8.79
			c0,4.27-3.06,7.92-7.26,8.66l0,0C-185.28-830.15-185.79-830.11-186.3-830.11z M-186.3-841.99c-0.18,0-0.36,0.02-0.54,0.05
			c-1.68,0.3-2.8,1.91-2.51,3.59c0.3,1.68,1.91,2.8,3.59,2.51c1.68-0.3,2.8-1.9,2.51-3.58C-183.52-840.91-184.8-841.99-186.3-841.99
			L-186.3-841.99z"/>
		<path id="Trazado_991" class="st0" d="M-210.88-820.62l-17.95-4.81c-0.95-0.26-1.71-0.99-1.99-1.94l-5.61-18.87l5.46-1.62
			l5.16,17.34l16.41,4.4L-210.88-820.62z"/>
		
			<rect id="Rectángulo_410" x="-205.51" y="-874.45" transform="matrix(0.3531 -0.9356 0.9356 0.3531 677.7145 -748.828)" class="st0" width="5.69" height="19.88"/>
		
			<rect id="Rectángulo_411" x="-149.78" y="-810.62" transform="matrix(0.3393 -0.9407 0.9407 0.3393 659.6694 -669.7449)" class="st0" width="5.7" height="12.31"/>
		<path id="Trazado_992" class="st0" d="M-176.17-869.42c-4.86-0.01-8.78-3.96-8.77-8.81c0.01-4.26,3.07-7.9,7.26-8.64
			c4.77-0.9,9.37,2.23,10.27,7c0.9,4.77-2.23,9.37-7,10.27c-0.07,0.01-0.14,0.03-0.21,0.04
			C-175.13-869.47-175.65-869.42-176.17-869.42z M-176.15-881.31c-0.18,0-0.36,0.02-0.54,0.05c-1.68,0.3-2.79,1.91-2.5,3.59
			c0.29,1.68,1.9,2.8,3.58,2.51c0,0,0,0,0.01,0c1.68-0.3,2.81-1.9,2.51-3.58C-173.36-880.23-174.64-881.31-176.15-881.31
			L-176.15-881.31z"/>
		<path id="Trazado_993" class="st0" d="M-146.98-840.26c-4.85,0-8.78-3.94-8.78-8.79c0-4.85,3.94-8.78,8.79-8.78
			c4.85,0,8.78,3.94,8.78,8.79c0,4.26-3.06,7.91-7.26,8.65l0,0C-145.96-840.3-146.47-840.26-146.98-840.26z M-146.98-852.15
			c-0.18,0-0.37,0.02-0.54,0.05c-1.68,0.3-2.8,1.9-2.51,3.59c0.3,1.68,1.9,2.8,3.59,2.51c1.68-0.3,2.8-1.9,2.51-3.59c0,0,0,0,0,0
			C-144.2-851.06-145.48-852.14-146.98-852.15z"/>
		<path id="Trazado_994" class="st0" d="M-158.05-800.04c-4.86-0.01-8.8-3.95-8.79-8.81c0.01-4.86,3.95-8.8,8.81-8.79
			c4.86,0.01,8.8,3.95,8.79,8.81c0,4.26-3.07,7.91-7.26,8.66l0,0C-157.02-800.09-157.54-800.04-158.05-800.04z M-158.04-811.93
			c-0.18,0-0.36,0.02-0.54,0.05c-1.69,0.28-2.83,1.87-2.55,3.56c0.28,1.69,1.87,2.83,3.56,2.55c0.02,0,0.04-0.01,0.07-0.01l0,0
			c1.68-0.3,2.81-1.9,2.51-3.58C-155.25-810.85-156.53-811.93-158.04-811.93L-158.04-811.93z"/>
		<path id="Trazado_995" class="st0" d="M-135.65-791.33c-0.15,0-0.31-0.01-0.47-0.01l0,0c-4.86-0.24-8.6-4.38-8.35-9.24
			c0.24-4.86,4.38-8.6,9.24-8.35c4.86,0.24,8.6,4.38,8.35,9.24C-127.12-795.02-130.97-791.35-135.65-791.33L-135.65-791.33z
			 M-135.82-797.03c1.71,0.07,3.15-1.26,3.22-2.97c0.07-1.68-1.22-3.1-2.89-3.21c-1.71-0.11-3.18,1.18-3.29,2.89
			s1.18,3.18,2.89,3.29C-135.87-797.04-135.84-797.04-135.82-797.03z"/>
		<path id="Trazado_996" class="st0" d="M-217.54-861.32c-4.86-0.01-8.8-3.95-8.79-8.81s3.95-8.8,8.81-8.79
			c4.86,0.01,8.8,3.95,8.79,8.81c0,4.26-3.07,7.91-7.26,8.66C-216.5-861.37-217.02-861.32-217.54-861.32z M-217.51-873.21
			c-0.18,0-0.37,0.01-0.54,0.05c-1.68,0.32-2.78,1.94-2.45,3.62c0.32,1.64,1.88,2.74,3.53,2.47l0,0c1.68-0.3,2.81-1.9,2.51-3.58
			C-214.73-872.13-216.01-873.21-217.51-873.21L-217.51-873.21z"/>
		<path id="Trazado_997" class="st0" d="M-232.23-842.27c-4.86-0.01-8.79-3.95-8.79-8.81c0.01-4.86,3.95-8.79,8.81-8.79
			c4.86,0.01,8.79,3.95,8.79,8.81c-0.01,4.26-3.07,7.91-7.26,8.65C-231.19-842.32-231.71-842.27-232.23-842.27z M-232.21-854.16
			c-1.71,0-3.09,1.38-3.09,3.09c0,1.01,0.49,1.96,1.32,2.54c1.41,0.97,3.34,0.62,4.31-0.79c0.46-0.67,0.64-1.49,0.51-2.29
			C-229.43-853.08-230.71-854.16-232.21-854.16L-232.21-854.16z"/>
		<path id="Trazado_998" class="st0" d="M-205.31-811.12c-4.88,0-8.83-3.95-8.83-8.82s3.95-8.83,8.82-8.83
			c4.88,0,8.83,3.95,8.83,8.82c0,4.28-3.07,7.94-7.28,8.7C-204.27-811.16-204.79-811.12-205.31-811.12z M-205.28-823
			c-1.71,0.01-3.1,1.4-3.09,3.11c0,1,0.49,1.94,1.31,2.52c0.67,0.48,1.5,0.66,2.31,0.51l0,0c1.68-0.3,2.81-1.9,2.51-3.58
			C-202.5-821.92-203.78-823-205.28-823L-205.28-823z"/>
	</g>
	<rect id="Rectángulo_412" x="-240.77" y="-886.77" class="st1" width="140" height="140"/>
</g>
</svg>
