<?xml version="1.0" encoding="utf-8"?>
<!-- Generator: Adobe Illustrator 26.3.1, SVG Export Plug-In . SVG Version: 6.00 Build 0)  -->
<svg version="1.1" id="Capa_1" xmlns="http://www.w3.org/2000/svg" xmlns:xlink="http://www.w3.org/1999/xlink" x="0px" y="0px"
	 viewBox="0 0 140 140" style="enable-background:new 0 0 140 140;" xml:space="preserve">
<style type="text/css">
	.st0{fill:#0A2755;}
	.st1{fill:none;}
</style>
<g id="Grupo_2017" transform="translate(333.223 887)">
	<path id="Trazado_999" class="st0" d="M-216.56-770.65h-93.33c-1.57,0-2.84-1.27-2.84-2.84v-88.64h5.68v85.8h90.5V-770.65z"/>
	<path id="Trazado_1000" class="st0" d="M-315.93-851.4l-4.46-3.51l8.27-10.51c0.97-1.23,2.75-1.45,3.99-0.48
		c0.19,0.15,0.37,0.33,0.51,0.52l7.92,10.51l-4.53,3.41l-5.7-7.57L-315.93-851.4z"/>
	<path id="Trazado_1001" class="st0" d="M-222.83-763.13l-3.41-4.53l7.57-5.7l-7.61-5.99l3.51-4.46l10.51,8.27
		c1.23,0.97,1.45,2.75,0.48,3.99c-0.15,0.19-0.33,0.37-0.52,0.51L-222.83-763.13z"/>
	<path id="Trazado_1002" class="st0" d="M-255.45-773.49h-2.24c0-17.25-6.91-71.56-22.98-71.56c-12.8,0-18.22,51.19-18.22,71.56
		h-2.24c0-12.14,3.56-73.8,20.46-73.8C-261.75-847.29-255.45-789.11-255.45-773.49z"/>
	<path id="Trazado_1003" class="st0" d="M-232.03-773.49h-1.85c0-13.29-7.13-48.27-23.18-48.27c-14.01,0-18.42,37.62-18.42,48.27
		h-1.84c0-8.24,3.52-50.11,20.26-50.11C-238.28-823.6-232.03-784.1-232.03-773.49z"/>
	<rect id="Rectángulo_413" x="-333.22" y="-887" class="st1" width="140" height="140"/>
</g>
</svg>
