<?xml version="1.0" encoding="utf-8"?>
<!-- Generator: Adobe Illustrator 26.3.1, SVG Export Plug-In . SVG Version: 6.00 Build 0)  -->
<svg version="1.1" id="Capa_1" xmlns="http://www.w3.org/2000/svg" xmlns:xlink="http://www.w3.org/1999/xlink" x="0px" y="0px"
	 viewBox="0 0 140 140" style="enable-background:new 0 0 140 140;" xml:space="preserve">
<style type="text/css">
	.st0{fill:#0A2755;}
	.st1{fill:none;}
</style>
<g id="Grupo_2024" transform="translate(831.363 892.807)">
	<g id="Grupo_2019" transform="translate(4.893 57.927)">
		<g id="Grupo_2018">
			<circle id="Elipse_92" class="st0" cx="-735.26" cy="-878.27" r="14.73"/>
		</g>
	</g>
	<g id="Grupo_2023" transform="translate(-6.706 94.725)">
		<g id="Grupo_2020" transform="translate(22.66 4.139)">
			<path id="Trazado_1004" class="st0" d="M-750-879.35l3.67,4.23l3.67-4.23l-3.67-13.65L-750-879.35z"/>
		</g>
		<g id="Grupo_2021">
			<path id="Trazado_1005" class="st0" d="M-729.77-874.65l0.3-1.13l3.67-13.65l0.96-3.57h-9.07c-8.88,0-16.09,6.97-16.09,15.53
				v6.73h23.62l-2.63-3.03L-729.77-874.65z"/>
		</g>
		<g id="Grupo_2022" transform="translate(27.502)">
			<path id="Trazado_1006" class="st0" d="M-740.93-893H-750l0.96,3.57l3.67,13.65l0.3,1.13l-0.77,0.89l-2.63,3.03h23.63v-6.73
				C-724.83-886.03-732.05-893-740.93-893z"/>
		</g>
	</g>
	<path id="Trazado_1007" class="st0" d="M-761.77-785.38h-44.59c-7.44-0.01-13.47-6.04-13.48-13.48v-63.53
		c0.01-7.44,6.04-13.47,13.48-13.48h70.76c7.44,0.01,13.47,6.04,13.48,13.48v20.96h-5.69v-20.96c-0.01-4.3-3.49-7.78-7.79-7.79
		h-70.75c-4.3,0.01-7.78,3.49-7.79,7.79v63.53c0.01,4.3,3.49,7.78,7.79,7.79h44.59V-785.38z"/>
	<path id="Trazado_1008" class="st0" d="M-780.9-848.28c-3.8-0.01-6.88-3.09-6.88-6.89c0-3.8,3.08-6.88,6.88-6.88
		c3.8,0,6.88,3.08,6.88,6.88C-774.02-851.36-777.1-848.28-780.9-848.28z M-780.9-859.46c-2.37,0-4.3,1.93-4.3,4.3s1.93,4.3,4.3,4.3
		s4.3-1.93,4.3-4.3C-776.6-857.53-778.52-859.46-780.9-859.46C-780.9-859.46-780.9-859.46-780.9-859.46L-780.9-859.46z"/>
	<path id="Trazado_1009" class="st0" d="M-775.69-813.57h-10.09v-12.08h-3v-21.3h16v21.3h-2.91L-775.69-813.57z M-783.19-816.15
		h4.92v-12.08h2.91v-16.13h-10.83v16.13h3L-783.19-816.15z"/>
	<path id="Trazado_1010" class="st0" d="M-760.61-848.28c-3.8,0-6.88-3.08-6.88-6.89c0-3.8,3.08-6.88,6.88-6.88
		c3.8,0.01,6.88,3.08,6.88,6.88C-753.73-851.36-756.81-848.28-760.61-848.28z M-760.61-859.46c-2.37,0-4.3,1.93-4.3,4.3
		s1.93,4.3,4.3,4.3c2.37,0,4.3-1.93,4.3-4.3C-756.31-857.53-758.23-859.46-760.61-859.46
		C-760.61-859.46-760.61-859.46-760.61-859.46L-760.61-859.46z"/>
	<path id="Trazado_1011" class="st0" d="M-750.58-813.57h-19.27l3.99-16.05h-2.64v-17.33h16v17.33H-755L-750.58-813.57z
		 M-766.54-816.15h12.57l-4.43-16.05h3.32v-12.16h-10.83v12.16h3.36L-766.54-816.15z"/>
	<path id="Trazado_1012" class="st0" d="M-798.43-836.99c-2.75,0-4.98-2.23-4.98-4.98c0-2.75,2.23-4.98,4.98-4.98
		c2.75,0,4.98,2.23,4.98,4.98C-793.45-839.22-795.68-836.99-798.43-836.99z M-798.43-844.36c-1.32,0-2.39,1.07-2.39,2.39
		c0,1.32,1.07,2.39,2.39,2.39c1.32,0,2.39-1.07,2.39-2.39C-796.04-843.29-797.11-844.36-798.43-844.36z"/>
	<path id="Trazado_1013" class="st0" d="M-791.23-813.57h-13.85l2.63-10.59h-1.62v-12.31h11.43v12.31h-1.52L-791.23-813.57z
		 M-801.77-816.15h7.15l-2.92-10.59h2.33v-7.14h-6.26v7.14h2.34L-801.77-816.15z"/>
	<rect id="Rectángulo_414" x="-831.36" y="-892.81" class="st1" width="140" height="140"/>
</g>
</svg>
