<?xml version="1.0" encoding="utf-8"?>
<!-- Generator: Adobe Illustrator 26.3.1, SVG Export Plug-In . SVG Version: 6.00 Build 0)  -->
<svg version="1.1" id="Capa_1" xmlns="http://www.w3.org/2000/svg" xmlns:xlink="http://www.w3.org/1999/xlink" x="0px" y="0px"
	 viewBox="0 0 140 140" style="enable-background:new 0 0 140 140;" xml:space="preserve">
<style type="text/css">
	.st0{fill:#0A2755;}
	.st1{fill:none;}
</style>
<g id="Grupo_2026" transform="translate(1009 893)">
	<g id="Grupo_2025" transform="translate(27.463 15.665)">
		<path id="Trazado_1014" class="st0" d="M-954.28-871.47h-45.1c-3.65,0-6.6-2.96-6.61-6.61v-8.32c0.01-3.65,2.96-6.6,6.61-6.6h45.1
			c3.65,0,6.6,2.96,6.61,6.61v8.32C-947.67-874.42-950.63-871.47-954.28-871.47z M-999.38-887.34c-0.52,0-0.94,0.42-0.94,0.94v8.32
			c0,0.52,0.42,0.94,0.94,0.94h45.1c0.52,0,0.94-0.42,0.94-0.94v-8.32c0-0.52-0.42-0.94-0.94-0.94H-999.38z"/>
		<path id="Trazado_1015" class="st0" d="M-945.04-827.19h-5.67v-17.8l-9.37-14.18c-0.31-0.46-0.47-1.01-0.47-1.56v-12.3h5.66v11.45
			l9.37,14.18c0.31,0.46,0.47,1.01,0.47,1.56V-827.19z"/>
		<path id="Trazado_1016" class="st0" d="M-963.06-785.41h-37.53c-4.64-0.01-8.41-3.77-8.41-8.41v-51.46c0-0.55,0.16-1.1,0.47-1.56
			l9.37-14.18v-11.45h5.66v12.3c0,0.55-0.16,1.1-0.47,1.56l-9.37,14.19v50.6c0,1.52,1.23,2.75,2.75,2.75h37.53V-785.41z"/>
		<rect id="Rectángulo_415" x="-981.33" y="-863.75" class="st0" width="23.29" height="2.57"/>
		<rect id="Rectángulo_416" x="-989.93" y="-863.75" class="st0" width="4.93" height="2.57"/>
		<path id="Trazado_1017" class="st0" d="M-964.22-828.29h-9.64v-9.64c0-0.64-0.52-1.16-1.16-1.16h-3.6c-0.64,0-1.16,0.52-1.16,1.16
			v9.64h-9.65c-0.64,0-1.16,0.52-1.16,1.16v3.6c0,0.64,0.52,1.16,1.16,1.16h9.64v9.64c0,0.64,0.52,1.16,1.16,1.17c0,0,0,0,0,0h3.6
			c0.64,0,1.16-0.52,1.16-1.16v-9.64h9.64c0.64,0,1.16-0.52,1.16-1.16v-3.6C-963.06-827.77-963.58-828.29-964.22-828.29z"/>
		<rect id="Rectángulo_417" x="-1006.17" y="-847.04" class="st0" width="58.3" height="2.57"/>
		<rect id="Rectángulo_418" x="-1006.17" y="-806.25" class="st0" width="41.62" height="2.57"/>
		<path id="Trazado_1018" class="st0" d="M-942.72-783.81c-10.68-0.01-19.33-8.68-19.32-19.36c0-4.56,1.62-8.98,4.56-12.46l0.9-1.07
			l27.42,27.42l-1.07,0.9C-933.72-785.43-938.15-783.81-942.72-783.81z M-956.37-812.86c-5.36,7.55-3.59,18.02,3.96,23.38
			c5.81,4.13,13.6,4.13,19.41,0L-956.37-812.86z"/>
		<path id="Trazado_1019" class="st0" d="M-927.28-791.37l-27.2-27.2l1.35-0.86c9.02-5.73,20.98-3.06,26.71,5.96
			c4.02,6.33,4.02,14.41,0,20.75L-927.28-791.37z M-950.34-818.07l22.56,22.56c4.19-8.27,0.89-18.37-7.38-22.56
			C-939.93-820.49-945.57-820.49-950.34-818.07L-950.34-818.07z"/>
	</g>
	<rect id="Rectángulo_419" x="-1009" y="-893" class="st1" width="140" height="140"/>
</g>
</svg>
