<?xml version="1.0" encoding="utf-8"?>
<!-- Generator: Adobe Illustrator 26.3.1, SVG Export Plug-In . SVG Version: 6.00 Build 0)  -->
<svg version="1.1" id="Capa_1" xmlns="http://www.w3.org/2000/svg" xmlns:xlink="http://www.w3.org/1999/xlink" x="0px" y="0px"
	 viewBox="0 0 52 52" style="enable-background:new 0 0 52 52;" xml:space="preserve">
<style type="text/css">
	.st0{fill:#0A2755;}
	.st1{fill:none;stroke:#0A2755;stroke-width:2.108;stroke-linecap:round;stroke-miterlimit:10;}
	.st2{fill:none;}
</style>
<g id="Grupo_179" transform="translate(1850 808)">
	<g id="Grupo_173">
		<g id="Grupo_172">
			<path id="Trazado_340" class="st0" d="M-1813.01-788.8c-0.7,0.3-1.43,0.51-2.18,0.62c0.35-0.06,0.87-0.69,1.07-0.95
				c0.32-0.39,0.57-0.84,0.72-1.32c0.02-0.04,0.03-0.09-0.01-0.11c-0.04-0.02-0.08-0.01-0.12,0.01c-0.82,0.44-1.69,0.77-2.59,0.99
				c-0.06,0.02-0.13,0-0.18-0.05c-0.07-0.08-0.14-0.16-0.23-0.23c-0.37-0.32-0.8-0.58-1.25-0.77c-0.61-0.25-1.27-0.35-1.92-0.31
				c-0.64,0.04-1.26,0.22-1.82,0.52c-0.57,0.3-1.07,0.7-1.47,1.2c-0.42,0.51-0.72,1.12-0.88,1.76c-0.14,0.61-0.15,1.24-0.05,1.86
				c0.01,0.1,0.01,0.12-0.09,0.1c-3.42-0.35-6.59-1.96-8.89-4.52c-0.1-0.12-0.16-0.12-0.24,0.01c-0.95,1.75-0.64,3.91,0.77,5.32
				c0.17,0.16,0.35,0.33,0.55,0.48c-0.6-0.04-1.18-0.21-1.71-0.48c-0.1-0.07-0.16-0.03-0.17,0.09c-0.01,0.17,0,0.34,0.03,0.51
				c0.21,1.63,1.29,3.02,2.81,3.63c0.18,0.08,0.37,0.14,0.57,0.17c-0.55,0.11-1.12,0.13-1.68,0.05c-0.12-0.02-0.17,0.04-0.12,0.16
				c0.59,1.53,1.92,2.65,3.53,2.96c0.16,0.03,0.32,0.03,0.48,0.07c-0.01,0.01-0.02,0.01-0.03,0.03c-0.69,0.62-1.52,1.06-2.41,1.28
				c-1.17,0.42-2.42,0.58-3.67,0.47c-0.2-0.03-0.24-0.03-0.29,0c-0.05,0.03-0.01,0.08,0.06,0.13c0.25,0.17,0.5,0.31,0.76,0.45
				c0.78,0.42,1.6,0.74,2.45,0.98c4.45,1.34,9.27,0.21,12.67-2.96c2.6-2.58,3.5-6.14,3.5-9.7c0-0.14,0.17-0.22,0.26-0.29
				c0.66-0.51,1.24-1.11,1.72-1.79c0.08-0.1,0.12-0.22,0.11-0.34v-0.01C-1812.92-788.86-1812.93-788.84-1813.01-788.8z"/>
		</g>
	</g>
	<g id="Grupo_174">
		<path id="Trazado_341" class="st0" d="M-1809.66-762.51h-27.07c-3.67,0-6.65-2.98-6.65-6.65v-25.68c0-3.67,2.98-6.65,6.65-6.65
			h25.52c3.67,0,6.65,2.98,6.65,6.65V-782c-0.02,0.58-0.5,1.04-1.09,1.02c-0.56-0.02-1.01-0.46-1.02-1.02v-12.84
			c0-2.51-2.04-4.54-4.54-4.54h-25.52c-2.51,0-4.54,2.03-4.54,4.54v25.68c0,2.51,2.04,4.54,4.54,4.54h27.07
			c1.65,0,2.99-1.34,2.99-2.99v-0.45c0.02-0.58,0.5-1.04,1.09-1.02c0.56,0.02,1,0.46,1.02,1.02v0.45
			C-1804.56-764.79-1806.84-762.51-1809.66-762.51z"/>
	</g>
	<g id="Grupo_175">
		<path id="Trazado_342" class="st1" d="M-1805.61-768.06"/>
	</g>
	<g id="Grupo_176">
		<path id="Trazado_343" class="st1" d="M-1805.61-782"/>
	</g>
	<g id="Grupo_177">
		<path id="Trazado_344" class="st0" d="M-1805.61-772.76c-0.58,0-1.05-0.47-1.06-1.05c0,0,0,0,0,0v-5.11
			c0.02-0.58,0.5-1.04,1.09-1.02c0.56,0.02,1,0.46,1.02,1.02v5.11C-1804.56-773.23-1805.03-772.76-1805.61-772.76L-1805.61-772.76z"
			/>
	</g>
	<g id="Grupo_178">
		<path id="Trazado_345" class="st0" d="M-1805.61-769.95c-0.28,0-0.55-0.11-0.74-0.32c-0.19-0.2-0.3-0.46-0.31-0.73
			c0-0.14,0.03-0.28,0.08-0.41c0.03-0.06,0.06-0.13,0.1-0.18c0.04-0.06,0.08-0.11,0.13-0.16c0.42-0.39,1.07-0.39,1.49,0
			c0.05,0.05,0.09,0.1,0.13,0.16c0.04,0.06,0.07,0.12,0.1,0.18c0.03,0.06,0.04,0.13,0.06,0.2c0.01,0.07,0.02,0.14,0.02,0.21
			c0,0.14-0.03,0.27-0.08,0.4c-0.05,0.13-0.13,0.24-0.23,0.34c-0.09,0.1-0.21,0.18-0.34,0.23
			C-1805.34-769.97-1805.47-769.95-1805.61-769.95z"/>
	</g>
	<rect id="Rectángulo_56" x="-1850" y="-808" class="st2" width="52" height="52"/>
</g>
</svg>
