<?xml version="1.0" encoding="utf-8"?>
<!-- Generator: Adobe Illustrator 26.3.1, SVG Export Plug-In . SVG Version: 6.00 Build 0)  -->
<svg version="1.1" id="Capa_1" xmlns="http://www.w3.org/2000/svg" xmlns:xlink="http://www.w3.org/1999/xlink" x="0px" y="0px"
	 viewBox="0 0 52 52" style="enable-background:new 0 0 52 52;" xml:space="preserve">
<style type="text/css">
	.st0{fill:none;stroke:#0A2755;stroke-width:2.108;stroke-linecap:round;stroke-miterlimit:10;}
	.st1{fill:#0A2755;}
	.st2{fill:none;}
</style>
<g id="Grupo_197" transform="translate(1850 912)">
	<g id="Grupo_188">
		<path id="Trazado_352" class="st0" d="M-1805.61-872.06"/>
	</g>
	<g id="Grupo_189">
		<path id="Trazado_353" class="st1" d="M-1805.61-873.95c-0.28,0-0.55-0.11-0.74-0.31c-0.2-0.2-0.31-0.46-0.31-0.74
			c0-0.28,0.11-0.55,0.31-0.75c0.05-0.05,0.1-0.09,0.15-0.13c0.06-0.04,0.12-0.07,0.18-0.1c0.06-0.03,0.13-0.05,0.2-0.06
			c0.35-0.06,0.7,0.05,0.96,0.29c0.41,0.41,0.41,1.08,0,1.5C-1805.06-874.06-1805.33-873.95-1805.61-873.95L-1805.61-873.95z"/>
	</g>
	<g id="Grupo_196">
		<g id="Grupo_192">
			<g id="Grupo_190">
				<path id="Trazado_354" class="st1" d="M-1832.47-890.05h3.85v12.35h-3.85V-890.05z M-1830.54-896.19c1.23,0,2.23,1,2.23,2.24
					c0,0.28-0.05,0.56-0.16,0.82c-0.22,0.59-0.69,1.05-1.28,1.26c-1.15,0.44-2.44-0.14-2.88-1.29c-0.44-1.15,0.14-2.44,1.29-2.88
					C-1831.08-896.14-1830.81-896.19-1830.54-896.19"/>
			</g>
			<g id="Grupo_191">
				<path id="Trazado_355" class="st1" d="M-1826.21-890.05h3.68v1.69h0.05c0.75-1.28,2.15-2.05,3.64-1.99c3.89,0,4.6,2.56,4.6,5.88
					v6.77h-3.83v-6c0-1.43-0.03-3.27-1.99-3.27c-2,0-2.3,1.56-2.3,3.17v6.1h-3.84V-890.05z"/>
			</g>
		</g>
		<g id="Grupo_193">
			<path id="Trazado_356" class="st1" d="M-1809.66-866.51h-27.07c-3.67,0-6.65-2.98-6.65-6.65v-25.68c0-3.67,2.98-6.65,6.65-6.65
				h25.52c3.67,0,6.65,2.98,6.65,6.65V-886c0,0.58-0.47,1.05-1.05,1.05c-0.58,0-1.05-0.47-1.05-1.05v-12.84
				c0-2.51-2.04-4.54-4.54-4.54h-25.52c-2.51,0-4.54,2.04-4.54,4.54v25.68c0,2.51,2.04,4.54,4.54,4.54h27.07
				c1.65,0,2.99-1.34,2.99-2.99v-0.45c0-0.58,0.47-1.05,1.05-1.05c0.58,0,1.05,0.47,1.05,1.05v0.45
				C-1804.56-868.79-1806.84-866.51-1809.66-866.51z"/>
		</g>
		<g id="Grupo_194">
			<path id="Trazado_357" class="st0" d="M-1805.61-886"/>
		</g>
		<g id="Grupo_195">
			<path id="Trazado_358" class="st1" d="M-1805.61-876.76c-0.58,0-1.05-0.47-1.05-1.05l0,0v-5.11c0-0.58,0.47-1.05,1.05-1.05
				c0.58,0,1.05,0.47,1.05,1.05v5.11C-1804.56-877.23-1805.03-876.76-1805.61-876.76C-1805.61-876.76-1805.61-876.76-1805.61-876.76
				z"/>
		</g>
		<rect id="Rectángulo_58" x="-1850" y="-912" class="st2" width="52" height="52"/>
	</g>
</g>
</svg>
