<?xml version="1.0" encoding="utf-8"?>
<!-- Generator: Adobe Illustrator 26.3.1, SVG Export Plug-In . SVG Version: 6.00 Build 0)  -->
<svg version="1.1" id="Capa_1" xmlns="http://www.w3.org/2000/svg" xmlns:xlink="http://www.w3.org/1999/xlink" x="0px" y="0px"
	 viewBox="0 0 52 52" style="enable-background:new 0 0 52 52;" xml:space="preserve">
<style type="text/css">
	.st0{fill:none;stroke:#0A2755;stroke-width:2.108;stroke-linecap:round;stroke-miterlimit:10;}
	.st1{fill:#0A2755;}
	.st2{fill:none;}
</style>
<g id="Grupo_207" transform="translate(1850 964)">
	<g id="Grupo_198">
		<path id="Trazado_359" class="st0" d="M-1805.61-924.06"/>
	</g>
	<g id="Grupo_199">
		<path id="Trazado_360" class="st0" d="M-1805.61-938"/>
	</g>
	<g id="Grupo_200">
		<path id="Trazado_361" class="st1" d="M-1810.11-918.51h-26.17c-3.92-0.01-7.1-3.18-7.1-7.1v-24.77c0.01-3.92,3.18-7.09,7.1-7.1
			h26.17c3.07,0,5.55,2.49,5.55,5.55V-938c0,0.58-0.47,1.05-1.05,1.05c-0.58,0-1.05-0.47-1.05-1.05v-13.94
			c0-1.9-1.54-3.44-3.44-3.45h-26.17c-2.76,0-5,2.24-5,5v24.77c0,2.76,2.24,5,5,5h26.17c1.9,0,3.44-1.54,3.44-3.45
			c0-0.58,0.47-1.05,1.05-1.05c0.58,0,1.05,0.47,1.05,1.05C-1804.57-920.99-1807.05-918.51-1810.11-918.51z"/>
	</g>
	<g id="Grupo_204">
		<g id="Grupo_201">
			<path id="Trazado_362" class="st1" d="M-1817.56-945.83c-0.79,0-1.43,0.64-1.43,1.43c0,0.79,0.64,1.43,1.43,1.43
				s1.43-0.64,1.43-1.43C-1816.13-945.19-1816.77-945.83-1817.56-945.83C-1817.56-945.83-1817.56-945.83-1817.56-945.83z"/>
		</g>
		<g id="Grupo_202">
			<path id="Trazado_363" class="st1" d="M-1823.9-944c-3.31,0-6,2.69-6,6s2.69,6,6,6s6-2.69,6-6S-1820.59-944-1823.9-944z
				 M-1823.9-934.16c-2.12,0-3.84-1.72-3.84-3.84c0-2.12,1.72-3.84,3.84-3.84c2.12,0,3.84,1.72,3.84,3.84c0,0,0,0,0,0.01
				C-1820.06-935.88-1821.78-934.16-1823.9-934.16L-1823.9-934.16z"/>
		</g>
		<g id="Grupo_203">
			<path id="Trazado_364" class="st1" d="M-1819.14-925.83h-9.72c-4.04,0-7.31-3.28-7.31-7.31v-9.72c0-4.04,3.28-7.31,7.31-7.31
				h9.72c4.04,0,7.31,3.28,7.31,7.31v9.72C-1811.83-929.1-1815.1-925.83-1819.14-925.83z M-1828.86-947.88
				c-2.77,0-5.02,2.25-5.02,5.02v9.72c0,2.77,2.25,5.02,5.02,5.02h9.72c2.77,0,5.02-2.25,5.02-5.02v-9.72
				c0-2.77-2.25-5.02-5.02-5.02H-1828.86z"/>
		</g>
	</g>
	<g id="Grupo_205">
		<path id="Trazado_365" class="st1" d="M-1805.61-928.76c-0.58,0-1.05-0.47-1.05-1.05l0,0v-5.11c0-0.58,0.47-1.05,1.05-1.05
			c0.58,0,1.05,0.47,1.05,1.05v5.11C-1804.56-929.23-1805.03-928.76-1805.61-928.76C-1805.61-928.76-1805.61-928.76-1805.61-928.76z
			"/>
	</g>
	<g id="Grupo_206">
		<path id="Trazado_366" class="st1" d="M-1805.61-925.95c-0.14,0-0.28-0.03-0.41-0.08c-0.13-0.05-0.24-0.13-0.34-0.23
			c-0.25-0.25-0.36-0.6-0.29-0.95c0.01-0.07,0.03-0.14,0.06-0.2c0.03-0.06,0.06-0.12,0.1-0.18c0.04-0.06,0.08-0.11,0.13-0.16
			c0.25-0.24,0.61-0.35,0.95-0.28c0.07,0.01,0.14,0.03,0.2,0.06c0.06,0.03,0.13,0.06,0.18,0.1c0.06,0.04,0.11,0.08,0.16,0.13
			c0.05,0.05,0.09,0.1,0.13,0.16c0.04,0.06,0.07,0.12,0.1,0.18c0.03,0.06,0.05,0.13,0.06,0.2c0.01,0.07,0.02,0.14,0.02,0.21
			c0,0.28-0.11,0.54-0.31,0.74c-0.1,0.1-0.21,0.18-0.34,0.23C-1805.33-925.98-1805.47-925.95-1805.61-925.95z"/>
	</g>
	<rect id="Rectángulo_59" x="-1850" y="-964" class="st2" width="52" height="52"/>
</g>
</svg>
