<?xml version="1.0" encoding="utf-8"?>
<!-- Generator: Adobe Illustrator 26.3.1, SVG Export Plug-In . SVG Version: 6.00 Build 0)  -->
<svg version="1.1" id="Capa_1" xmlns="http://www.w3.org/2000/svg" xmlns:xlink="http://www.w3.org/1999/xlink" x="0px" y="0px"
	 viewBox="0 0 52 52" style="enable-background:new 0 0 52 52;" xml:space="preserve">
<style type="text/css">
	.st0{fill:#0A2755;}
	.st1{fill:none;stroke:#0A2755;stroke-width:2.108;stroke-linecap:round;stroke-miterlimit:10;}
	.st2{fill:none;}
</style>
<g id="Grupo_214" transform="translate(1850 1016)">
	<g id="Grupo_208">
		<path id="Trazado_367" class="st0" d="M-1809.66-970.51h-27.07c-3.67,0-6.65-2.98-6.65-6.65v-25.68c0-3.67,2.98-6.65,6.65-6.65
			h25.52c3.67,0,6.65,2.98,6.65,6.65V-990c-0.02,0.58-0.5,1.04-1.09,1.02c-0.56-0.02-1.01-0.46-1.02-1.02v-12.84
			c0-2.51-2.04-4.54-4.54-4.54h-25.52c-2.51,0-4.54,2.03-4.54,4.54v25.68c0,2.51,2.04,4.54,4.54,4.54h27.07
			c1.65,0,2.99-1.34,2.99-2.99v-0.45c0.02-0.58,0.5-1.04,1.09-1.02c0.56,0.02,1,0.46,1.02,1.02v0.45
			C-1804.56-972.79-1806.84-970.51-1809.66-970.51z"/>
	</g>
	<g id="Grupo_209">
		<path id="Trazado_368" class="st1" d="M-1805.61-976.06"/>
	</g>
	<g id="Grupo_210">
		<path id="Trazado_369" class="st1" d="M-1805.61-990"/>
	</g>
	<g id="Grupo_211">
		<path id="Trazado_370" class="st0" d="M-1814.98-992.07c-0.18,0.02-0.36,0.03-0.53,0.03c-1.96,0-3.79-0.99-4.86-2.63v8.95
			c0,3.65-2.96,6.62-6.61,6.62c-3.65,0-6.62-2.96-6.62-6.62c0-3.65,2.96-6.62,6.61-6.62l0,0c0.14,0,0.27,0.01,0.41,0.02v3.26
			c-0.14-0.02-0.27-0.04-0.41-0.04c-1.86,0-3.38,1.51-3.38,3.38s1.51,3.38,3.38,3.38c1.88,0.03,3.44-1.45,3.51-3.33l0.03-15.2h3.12
			c0.29,2.8,2.55,4.98,5.35,5.19V-992.07"/>
	</g>
	<g id="Grupo_212">
		<path id="Trazado_371" class="st0" d="M-1805.61-980.76c-0.58,0-1.05-0.47-1.06-1.05c0,0,0,0,0,0v-5.11
			c0.02-0.58,0.5-1.04,1.09-1.02c0.56,0.02,1,0.46,1.02,1.02v5.11C-1804.56-981.23-1805.03-980.76-1805.61-980.76L-1805.61-980.76z"
			/>
	</g>
	<g id="Grupo_213">
		<path id="Trazado_372" class="st0" d="M-1805.61-977.95c-0.14,0-0.27-0.03-0.4-0.08c-0.13-0.05-0.25-0.13-0.34-0.22
			c-0.41-0.41-0.41-1.09,0-1.5c0.05-0.05,0.11-0.09,0.16-0.13c0.06-0.04,0.12-0.07,0.18-0.1c0.06-0.03,0.13-0.05,0.2-0.06
			c0.35-0.06,0.7,0.05,0.96,0.29c0.19,0.2,0.3,0.47,0.3,0.75c0,0.28-0.11,0.55-0.3,0.74c-0.1,0.1-0.22,0.17-0.34,0.23
			C-1805.33-977.98-1805.47-977.95-1805.61-977.95z"/>
	</g>
	<rect id="Rectángulo_60" x="-1850" y="-1016" class="st2" width="52" height="52"/>
</g>
</svg>
