<?xml version="1.0" encoding="utf-8"?>
<!-- Generator: Adobe Illustrator 26.3.1, SVG Export Plug-In . SVG Version: 6.00 Build 0)  -->
<svg version="1.1" id="Capa_1" xmlns="http://www.w3.org/2000/svg" xmlns:xlink="http://www.w3.org/1999/xlink" x="0px" y="0px"
	 viewBox="0 0 74 74" style="enable-background:new 0 0 74 74;" xml:space="preserve">
<style type="text/css">
	.st0{fill:#0A2755;}
	.st1{fill:none;}
</style>
<g id="Grupo_583" transform="translate(355 753)">
	<g id="Grupo_582">
		<g id="Grupo_577">
			<path id="Trazado_502" class="st0" d="M-318.25-729.92c7.55,0,13.67,6.12,13.67,13.67s-6.12,13.67-13.67,13.67
				c-7.55,0-13.67-6.12-13.67-13.67C-331.91-723.79-325.79-729.91-318.25-729.92 M-318.25-731.42c-8.38,0-15.17,6.79-15.17,15.17
				s6.79,15.17,15.17,15.17s15.17-6.79,15.17-15.17l0,0C-303.08-724.63-309.87-731.42-318.25-731.42z"/>
		</g>
		<g id="Grupo_581">
			<g id="Grupo_578">
				<path id="Trazado_503" class="st0" d="M-318-689.11c-14.85,0-26.89-12.04-26.89-26.89s12.04-26.89,26.89-26.89v3
					c-13.19,0.01-23.87,10.7-23.86,23.89s10.7,23.87,23.89,23.86c13.19-0.01,23.87-10.7,23.86-23.89
					c-0.01-8.48-4.51-16.33-11.84-20.6l1.52-2.59c12.82,7.5,17.14,23.97,9.64,36.79C-299.61-694.18-308.45-689.11-318-689.11z"/>
			</g>
			<g id="Grupo_580">
				<g id="Grupo_579">
					<path id="Trazado_504" class="st0" d="M-305.9-732.52l-6.08-8.15l10.1-1.19L-305.9-732.52z"/>
				</g>
			</g>
		</g>
	</g>
	<rect id="Rectángulo_129" x="-355" y="-753" class="st1" width="74" height="74"/>
</g>
</svg>
