<?xml version="1.0" encoding="utf-8"?>
<!-- Generator: Adobe Illustrator 26.3.1, SVG Export Plug-In . SVG Version: 6.00 Build 0)  -->
<svg version="1.1" id="Capa_1" xmlns="http://www.w3.org/2000/svg" xmlns:xlink="http://www.w3.org/1999/xlink" x="0px" y="0px"
	 viewBox="0 0 74 74" style="enable-background:new 0 0 74 74;" xml:space="preserve">
<style type="text/css">
	.st0{fill:#0A2755;}
	.st1{fill:none;}
</style>
<g id="Grupo_653" transform="translate(799 746)">
	<g id="Grupo_652">
		<g id="Grupo_650">
			<path id="Trazado_521" class="st0" d="M-753.38-725.39c3.8,0,6.89,3.08,6.89,6.89s-3.08,6.89-6.89,6.89
				c-3.8,0-6.89-3.08-6.89-6.88C-760.26-722.3-757.18-725.38-753.38-725.39 M-753.38-728.39c-5.46,0-9.89,4.43-9.89,9.89
				s4.43,9.89,9.89,9.89s9.89-4.43,9.89-9.89l0,0C-743.49-723.96-747.91-728.39-753.38-728.39z"/>
		</g>
		<g id="Grupo_651">
			<path id="Trazado_522" class="st0" d="M-753.44-732.41c7.99-0.01,14.47,6.46,14.48,14.45c0.01,7.99-6.46,14.47-14.45,14.48
				c-3.58,0-7.03-1.32-9.69-3.71l-4.3,4.3l2.6,2.6l-3.67,3.67l-2.6-2.6l-5.49,5.49l2.6,2.6l-5.52,5.53l-3.68-3.67l0,0l-1.86-1.86
				l19.26-19.25c-4.18-6.81-2.05-15.71,4.76-19.89C-758.74-731.67-756.11-732.41-753.44-732.41 M-753.44-735.41
				c-9.65,0-17.46,7.82-17.46,17.47c0,2.41,0.5,4.79,1.46,6.99l-17.7,17.7c-1.17,1.17-1.17,3.07,0,4.24l1.86,1.86l3.68,3.67
				c1.17,1.17,3.07,1.17,4.24,0c0,0,0,0,0,0l5.53-5.53c1.17-1.17,1.17-3.07,0-4.24l-0.48-0.48l1.25-1.25l0.48,0.48
				c1.17,1.17,3.07,1.17,4.24,0c0,0,0,0,0,0l3.67-3.67c1.17-1.17,1.17-3.07,0-4.24c0,0,0,0,0,0l-0.48-0.48l0.33-0.33
				c8.13,5.18,18.93,2.79,24.11-5.34c5.18-8.13,2.79-18.93-5.34-24.11C-746.86-734.46-750.11-735.41-753.44-735.41L-753.44-735.41z"
				/>
		</g>
	</g>
	<rect id="Rectángulo_143" x="-799" y="-746" class="st1" width="74" height="74"/>
</g>
</svg>
