<?xml version="1.0" encoding="utf-8"?>
<!-- Generator: Adobe Illustrator 26.3.1, SVG Export Plug-In . SVG Version: 6.00 Build 0)  -->
<svg version="1.1" id="Capa_1" xmlns="http://www.w3.org/2000/svg" xmlns:xlink="http://www.w3.org/1999/xlink" x="0px" y="0px"
	 viewBox="0 0 74 74" style="enable-background:new 0 0 74 74;" xml:space="preserve">
<style type="text/css">
	.st0{fill:#001F44;}
	.st1{fill:none;}
</style>
<g id="Grupo_2093" transform="translate(1319 751.126)">
	<g id="Grupo_2092">
		<g id="Grupo_2091">
			<path id="Trazado_1032" class="st0" d="M-1268.28-692.01c-5.98,0-10.83-4.86-10.83-10.84s4.86-10.83,10.84-10.83
				c5.98,0,10.83,4.85,10.83,10.84C-1257.44-696.87-1262.29-692.02-1268.28-692.01z M-1268.28-712.56c-5.36,0-9.71,4.35-9.71,9.71
				c0,5.36,4.35,9.71,9.71,9.71c5.36,0,9.71-4.35,9.71-9.71c0,0,0,0,0,0C-1258.57-708.21-1262.92-712.56-1268.28-712.56
				L-1268.28-712.56z"/>
			<circle id="Elipse_97" class="st0" cx="-1268.27" cy="-702.85" r="1.45"/>
			<circle id="Elipse_98" class="st0" cx="-1273.41" cy="-702.85" r="1.45"/>
			<circle id="Elipse_99" class="st0" cx="-1263.18" cy="-702.85" r="1.45"/>
		</g>
		<path id="Trazado_1033" class="st0" d="M-1279.58-695.76c-1.14,0.79-2.07,1.4-2.64,1.76c-3.48-2.21-19.87-13.17-21.48-24.26
			c-0.85-5.9,1.01-9.68,2.72-11.81c1.88-2.42,4.68-3.96,7.73-4.26c6.65-0.49,9.72,6.77,9.85,7.08c0.19,0.47,0.66,0.79,1.17,0.79l0,0
			c0.51,0,0.97-0.31,1.17-0.78c0.13-0.31,3.18-7.57,9.85-7.08c3.05,0.29,5.85,1.83,7.73,4.26c1.71,2.13,3.57,5.92,2.72,11.81
			c-0.17,1.12-0.47,2.21-0.89,3.26c0.76,0.39,1.48,0.86,2.15,1.39c0.59-1.37,1-2.81,1.23-4.29c0.98-6.79-1.23-11.23-3.25-13.75
			c-2.32-2.97-5.76-4.85-9.52-5.19c-5.91-0.46-9.51,3.73-11.21,6.44c-1.7-2.71-5.3-6.89-11.21-6.44c-3.75,0.35-7.19,2.23-9.51,5.19
			c-2.03,2.52-4.23,6.96-3.25,13.75c1.95,13.53,22.45,25.95,23.32,26.47c0.4,0.24,0.9,0.24,1.3,0c0.1-0.06,1.46-0.88,3.5-2.3
			C-1278.63-694.36-1279.14-695.04-1279.58-695.76z"/>
	</g>
	<rect id="Rectángulo_436" x="-1318.94" y="-751.06" class="st1" width="73.87" height="73.87"/>
</g>
</svg>
