<?xml version="1.0" encoding="utf-8"?>
<!-- Generator: Adobe Illustrator 26.3.1, SVG Export Plug-In . SVG Version: 6.00 Build 0)  -->
<svg version="1.1" id="Capa_1" xmlns="http://www.w3.org/2000/svg" xmlns:xlink="http://www.w3.org/1999/xlink" x="0px" y="0px"
	 viewBox="0 0 74 74" style="enable-background:new 0 0 74 74;" xml:space="preserve">
<style type="text/css">
	.st0{fill:#0A2755;}
	.st1{fill:none;}
</style>
<g id="Grupo_218" transform="translate(423 767)">
	<g id="Grupo_217">
		<path id="Trazado_373" class="st0" d="M-359.18-755h-31.33v50h31.33c2.11-0.01,3.81-1.73,3.81-3.84v-42.32
			C-355.37-753.27-357.07-754.99-359.18-755z M-357.57-708.84c0,0.89-0.72,1.62-1.61,1.62h-29.13v-45.56h29.13
			c0.89,0,1.61,0.73,1.62,1.62V-708.84z"/>
		<g id="Grupo_69">
			<path id="Trazado_221" class="st0" d="M-379.83-735.46h-5.09c-0.69,0-1.25-0.56-1.25-1.24v-7.26c0-0.69,0.56-1.25,1.25-1.25l0,0
				h5.09c0.69,0,1.25,0.56,1.25,1.25c0,0,0,0,0,0v7.26C-378.59-736.01-379.15-735.46-379.83-735.46z"/>
		</g>
		<g id="Grupo_70">
			<path id="Trazado_222" class="st0" d="M-370.55-735.46h-5.08c-0.69,0-1.25-0.56-1.25-1.24v-7.26c0-0.69,0.56-1.25,1.25-1.25l0,0
				h5.08c0.69,0,1.25,0.56,1.25,1.25c0,0,0,0,0,0v7.26C-369.3-736.01-369.86-735.46-370.55-735.46z"/>
		</g>
		<g id="Grupo_71">
			<path id="Trazado_223" class="st0" d="M-361.23-735.46h-5.08c-0.69,0-1.25-0.56-1.25-1.24v-7.26c0-0.69,0.56-1.25,1.25-1.25l0,0
				h5.08c0.69,0,1.25,0.56,1.25,1.25v7.26C-359.98-736.01-360.54-735.46-361.23-735.46z"/>
		</g>
		<g id="Grupo_72">
			<path id="Trazado_224" class="st0" d="M-379.83-723.41h-5.09c-0.69,0-1.25-0.56-1.25-1.25v-7.26c0-0.69,0.56-1.25,1.25-1.25h5.09
				c0.69,0,1.25,0.56,1.25,1.25v7.26C-378.59-723.97-379.14-723.41-379.83-723.41z"/>
		</g>
		<g id="Grupo_73">
			<path id="Trazado_225" class="st0" d="M-370.55-723.41h-5.08c-0.69,0-1.25-0.56-1.25-1.25v-7.26c0-0.69,0.56-1.25,1.25-1.25h5.08
				c0.69,0,1.25,0.56,1.25,1.25v7.26C-369.3-723.97-369.86-723.41-370.55-723.41z"/>
		</g>
		<g id="Grupo_74">
			<path id="Trazado_226" class="st0" d="M-361.23-723.41h-5.08c-0.69,0-1.25-0.56-1.25-1.25v-7.26c0-0.69,0.56-1.25,1.25-1.25h5.08
				c0.69,0,1.25,0.56,1.25,1.25l0,0v7.26C-359.98-723.97-360.54-723.42-361.23-723.41z"/>
		</g>
		<g id="Grupo_75">
			<path id="Trazado_227" class="st0" d="M-379.83-711.32h-5.09c-0.69,0-1.25-0.56-1.25-1.25v-7.26c0-0.69,0.56-1.25,1.25-1.25l0,0
				h5.09c0.69,0,1.25,0.56,1.25,1.25l0,0v7.26C-378.59-711.88-379.14-711.32-379.83-711.32z"/>
		</g>
		<g id="Grupo_76">
			<path id="Trazado_228" class="st0" d="M-370.55-711.32h-5.08c-0.69,0-1.25-0.56-1.25-1.25v-7.26c0-0.69,0.56-1.25,1.25-1.25l0,0
				h5.08c0.69,0,1.25,0.56,1.25,1.25l0,0v7.26C-369.3-711.88-369.86-711.32-370.55-711.32z"/>
		</g>
		<g id="Grupo_77">
			<path id="Trazado_229" class="st0" d="M-361.23-711.32h-5.08c-0.69,0-1.25-0.56-1.25-1.25v-7.26c0-0.69,0.56-1.25,1.25-1.25l0,0
				h5.08c0.69,0,1.25,0.56,1.25,1.25v7.26C-359.98-711.88-360.54-711.32-361.23-711.32z"/>
		</g>
		<rect id="Rectángulo_35" x="-405.22" y="-743.74" class="st0" width="1.37" height="38.67"/>
		<rect id="Rectángulo_36" x="-412.26" y="-706.43" class="st0" width="15.27" height="1.37"/>
		<g id="Grupo_78">
			<path id="Trazado_230" class="st0" d="M-398.87-726.87c-0.65,0-1.17-0.52-1.17-1.17v-1.71c-0.01-2.19,1.18-4.21,3.11-5.26
				c1.16-0.54,1.92-1.68,1.97-2.95c0.12-1.53-0.71-2.35-2.11-3.51c-1.07-0.72-1.89-1.75-2.35-2.96c-0.73-2.62-1.73-5.18-5.19-5.18
				h-0.25c-3.26,0-4.11,2.15-4.89,4.97c-0.44,1.29-1.29,2.4-2.42,3.16c-1.39,1.17-2.23,1.98-2.11,3.37
				c0.02,1.32,0.78,2.52,1.98,3.09c1.95,1.07,3.15,3.13,3.1,5.36v1.62c0,0.65-0.52,1.17-1.17,1.17s-1.17-0.52-1.17-1.17l0,0v-1.71
				c0-1.36-0.76-2.62-1.97-3.25c-1.83-0.93-3.01-2.77-3.1-4.82c-0.22-2.79,1.6-4.32,2.94-5.44c0.68-0.45,1.23-1.07,1.6-1.79
				c0.7-2.54,1.9-6.89,7.2-6.89h0.25c5.53,0,6.87,4.83,7.45,6.89c0.37,0.72,0.92,1.34,1.6,1.79c1.33,1.12,3.16,2.65,2.94,5.35
				c-0.06,2.08-1.24,3.96-3.09,4.91c-1.19,0.62-1.94,1.83-1.98,3.17v1.8C-397.7-727.38-398.23-726.86-398.87-726.87L-398.87-726.87z
				"/>
		</g>
	</g>
	<rect id="Rectángulo_61" x="-423" y="-767" class="st1" width="74" height="74"/>
</g>
</svg>
