<?xml version="1.0" encoding="utf-8"?>
<!-- Generator: Adobe Illustrator 26.3.1, SVG Export Plug-In . SVG Version: 6.00 Build 0)  -->
<svg version="1.1" id="Capa_1" xmlns="http://www.w3.org/2000/svg" xmlns:xlink="http://www.w3.org/1999/xlink" x="0px" y="0px"
	 viewBox="0 0 74 74" style="enable-background:new 0 0 74 74;" xml:space="preserve">
<style type="text/css">
	.st0{fill:#0A2755;}
	.st1{fill:none;}
</style>
<g id="Grupo_250" transform="translate(936 767)">
	<g id="Grupo_249">
		<g id="Grupo_240">
			<g id="Grupo_239">
				<path id="Trazado_392" class="st0" d="M-879.16-714.44h-26.83c-1.99,0.01-3.68-1.43-4.02-3.38l-5.82-34.08h-11.28V-755h13.89
					l2.13,12.49h36.03c2.25,0,4.07,1.82,4.07,4.07c0,0.3-0.03,0.6-0.1,0.89l-4.11,19.93v0.02
					C-875.6-715.75-877.25-714.43-879.16-714.44z M-910.55-739.42l3.6,21.07c0.08,0.47,0.49,0.82,0.97,0.82h26.83
					c0.45,0,0.85-0.31,0.95-0.75l4.11-19.92v-0.02c0.12-0.53-0.21-1.05-0.73-1.17c-0.07-0.02-0.15-0.02-0.22-0.02L-910.55-739.42z"
					/>
			</g>
		</g>
		<g id="Grupo_243">
			<g id="Grupo_242">
				<g id="Grupo_241">
					<path id="Trazado_393" class="st0" d="M-908.37-714.4c1.74,0,3.15,1.41,3.15,3.15c0,1.74-1.41,3.15-3.15,3.15
						c-1.74,0-3.15-1.41-3.15-3.15l0,0C-911.52-712.99-910.11-714.4-908.37-714.4 M-908.37-717.49c-3.45,0-6.24,2.8-6.24,6.24
						c0,3.45,2.8,6.24,6.24,6.24c3.45,0,6.24-2.8,6.24-6.24C-902.12-714.69-904.92-717.49-908.37-717.49z"/>
				</g>
			</g>
		</g>
		<g id="Grupo_246">
			<g id="Grupo_245">
				<g id="Grupo_244">
					<path id="Trazado_394" class="st0" d="M-877.15-714.4c1.74,0,3.15,1.41,3.15,3.16c0,1.74-1.41,3.15-3.15,3.15
						c-1.74,0-3.15-1.41-3.15-3.15C-880.3-712.99-878.89-714.4-877.15-714.4 M-877.15-717.49c-3.45,0-6.24,2.8-6.24,6.24
						s2.8,6.24,6.24,6.24c3.45,0,6.24-2.79,6.24-6.24C-870.9-714.69-873.69-717.49-877.15-717.49
						C-877.14-717.49-877.14-717.49-877.15-717.49L-877.15-717.49z"/>
				</g>
			</g>
		</g>
		<g id="Grupo_248">
			<g id="Grupo_247">
				<rect id="Rectángulo_63" x="-911.42" y="-735.73" class="st0" width="38.15" height="1.4"/>
			</g>
		</g>
	</g>
	<rect id="Rectángulo_64" x="-936" y="-767" class="st1" width="74" height="74"/>
</g>
</svg>
