<?xml version="1.0" encoding="utf-8"?>
<!-- Generator: Adobe Illustrator 26.3.1, SVG Export Plug-In . SVG Version: 6.00 Build 0)  -->
<svg version="1.1" id="Capa_1" xmlns="http://www.w3.org/2000/svg" xmlns:xlink="http://www.w3.org/1999/xlink" x="0px" y="0px"
	 viewBox="0 0 74 74" style="enable-background:new 0 0 74 74;" xml:space="preserve">
<style type="text/css">
	.st0{fill:#0A2755;}
	.st1{fill:none;}
</style>
<g id="Grupo_269" transform="translate(1324 767)">
	<g id="Grupo_268">
		<g id="Grupo_251">
			<path id="Trazado_395" class="st0" d="M-1286.76-712.59c-9.82,0-17.77-7.96-17.77-17.77c0-9.82,7.96-17.77,17.77-17.77
				s17.77,7.96,17.77,17.77C-1268.99-720.55-1276.94-712.6-1286.76-712.59z M-1286.76-746.02c-8.65,0-15.66,7.01-15.66,15.66
				c0,8.65,7.01,15.66,15.66,15.66c8.65,0,15.66-7.01,15.66-15.66C-1271.1-739.01-1278.11-746.01-1286.76-746.02z"/>
		</g>
		<g id="Grupo_252">
			<path id="Trazado_396" class="st0" d="M-1277.17-743.73c-0.58,0-1.05-0.48-1.05-1.06c0-0.28,0.11-0.54,0.31-0.74l8.87-8.87
				c0.41-0.41,1.08-0.41,1.49,0c0.41,0.41,0.41,1.08,0,1.49l0,0l-8.87,8.87C-1276.62-743.84-1276.89-743.73-1277.17-743.73z"/>
		</g>
		<g id="Grupo_253">
			<path id="Trazado_397" class="st0" d="M-1304.16-706.01c-0.58,0-1.05-0.48-1.05-1.06c0-0.28,0.11-0.54,0.31-0.74l8.87-8.87
				c0.41-0.41,1.08-0.41,1.49,0c0.41,0.41,0.41,1.08,0,1.49l0,0l-8.87,8.87C-1303.61-706.12-1303.88-706.01-1304.16-706.01z"/>
		</g>
		<g id="Grupo_254">
			<path id="Trazado_398" class="st0" d="M-1270.53-713.07c-0.28,0-0.55-0.11-0.75-0.31l-4.41-4.41c-0.41-0.41-0.41-1.08,0-1.49
				c0.41-0.41,1.08-0.41,1.49,0l4.41,4.41c0.41,0.41,0.41,1.08-0.01,1.49C-1269.98-713.19-1270.25-713.08-1270.53-713.07
				L-1270.53-713.07z"/>
		</g>
		<g id="Grupo_255">
			<path id="Trazado_399" class="st0" d="M-1298.6-741.47c-0.27,0-0.54-0.11-0.73-0.3l-10.59-10.26c-0.43-0.4-0.45-1.07-0.05-1.49
				s1.07-0.45,1.49-0.05c0.01,0.01,0.02,0.02,0.03,0.03l10.58,10.27c0.42,0.41,0.43,1.07,0.02,1.49
				C-1298.04-741.59-1298.32-741.47-1298.6-741.47z"/>
		</g>
		<g id="Grupo_256">
			<circle id="Elipse_22" class="st0" cx="-1307.7" cy="-751.29" r="3.1"/>
		</g>
		<g id="Grupo_257">
			<circle id="Elipse_23" class="st0" cx="-1304.53" cy="-706.71" r="3.1"/>
		</g>
		<g id="Grupo_258">
			<circle id="Elipse_24" class="st0" cx="-1310.75" cy="-730.89" r="3.1"/>
		</g>
		<g id="Grupo_259">
			<circle id="Elipse_25" class="st0" cx="-1263.25" cy="-730.36" r="3.1"/>
		</g>
		<g id="Grupo_260">
			<circle id="Elipse_26" class="st0" cx="-1270.53" cy="-713.64" r="3.1"/>
		</g>
		<g id="Grupo_261">
			<circle id="Elipse_27" class="st0" cx="-1268.98" cy="-753.29" r="3.1"/>
		</g>
		<g id="Grupo_262">
			<circle id="Elipse_28" class="st0" cx="-1292.49" cy="-736.05" r="3.1"/>
		</g>
		<g id="Grupo_263">
			<path id="Trazado_400" class="st0" d="M-1280.86-734.23c-2.04,0-3.7-1.66-3.7-3.7s1.66-3.7,3.7-3.7c2.04,0,3.7,1.66,3.7,3.7
				S-1278.81-734.23-1280.86-734.23L-1280.86-734.23z M-1280.86-740.43c-1.38,0-2.5,1.12-2.5,2.5c0,1.38,1.12,2.5,2.5,2.5
				c1.38,0,2.5-1.12,2.5-2.5C-1278.36-739.31-1279.48-740.42-1280.86-740.43L-1280.86-740.43z"/>
		</g>
		<g id="Grupo_264">
			<circle id="Elipse_29" class="st0" cx="-1280.86" cy="-726.65" r="3.1"/>
		</g>
		<g id="Grupo_265">
			<path id="Trazado_401" class="st0" d="M-1291.73-719.85c-2.04,0-3.7-1.66-3.7-3.7s1.66-3.7,3.7-3.7s3.7,1.66,3.7,3.7
				S-1289.69-719.85-1291.73-719.85L-1291.73-719.85z M-1291.73-726.05c-1.38,0-2.5,1.12-2.5,2.5c0,1.38,1.12,2.5,2.5,2.5
				s2.5-1.12,2.5-2.5C-1289.23-724.93-1290.35-726.05-1291.73-726.05L-1291.73-726.05z"/>
		</g>
		<g id="Grupo_266">
			<path id="Trazado_402" class="st0" d="M-1303.47-729.31h-7.27c-0.58-0.02-1.04-0.51-1.02-1.09c0.02-0.56,0.47-1.01,1.02-1.02
				h7.27c0.58-0.02,1.07,0.44,1.09,1.02s-0.44,1.07-1.02,1.09C-1303.43-729.31-1303.45-729.31-1303.47-729.31z"/>
		</g>
		<g id="Grupo_267">
			<path id="Trazado_403" class="st0" d="M-1263.25-729.31h-6.79c-0.58,0.02-1.07-0.44-1.09-1.02c-0.02-0.58,0.44-1.07,1.02-1.09
				c0.02,0,0.04,0,0.06,0h6.79c0.58,0.02,1.04,0.51,1.02,1.09C-1262.25-729.77-1262.69-729.32-1263.25-729.31z"/>
		</g>
	</g>
	<rect id="Rectángulo_65" x="-1324" y="-767" class="st1" width="74" height="74"/>
</g>
</svg>
