<?xml version="1.0" encoding="utf-8"?>
<!-- Generator: Adobe Illustrator 26.3.1, SVG Export Plug-In . SVG Version: 6.00 Build 0)  -->
<svg version="1.1" id="Capa_1" xmlns="http://www.w3.org/2000/svg" xmlns:xlink="http://www.w3.org/1999/xlink" x="0px" y="0px"
	 viewBox="0 0 74 74" style="enable-background:new 0 0 74 74;" xml:space="preserve">
<style type="text/css">
	.st0{fill:#0A2755;}
	.st1{fill:none;}
</style>
<g id="Grupo_271" transform="translate(2785.221 -33)">
	<g id="Grupo_270">
		<path id="Trazado_404" class="st0" d="M-2747.09,95c-11.15,0-18.41-8.75-18.5-8.86c-6.82-8.17-8.01-19.64-3.03-29.04
			c1.03-1.97,2.47-3.7,4.24-5.04c2.02-1.42,3.92-1.8,5.19-1.03c0.82,0.49,1.42,1.3,1.65,2.23c0.21,1.22-0.05,2.48-0.71,3.52
			c-1.87,3.45-1.87,9.41-0.61,12.33l14.99-11.15c-1.91-3.5-5.86-5.36-9.77-4.6c-1.18,0.33-2.44,0.17-3.49-0.45
			c-0.74-0.5-1.24-1.27-1.41-2.14c-0.23-1.15,0.26-3.42,3.55-4.62c2.47-0.86,5.09-1.24,7.7-1.11c3.6,0.1,7.14,0.95,10.4,2.47
			c5.16,2.6,8.65,6.01,8.89,8.7c0.12,0.85-0.23,1.69-0.91,2.22l-25.14,18.94c3.1,3.82,8.07,5.59,12.88,4.59
			c5.23-1.06,9.89-3.99,13.1-8.24c0.45-0.58,1.21-0.83,1.91-0.63c0.71,0.2,1.23,0.81,1.3,1.55c0.36,3.53-0.12,12.37-12.25,18.05
			C-2740.22,94.17-2743.63,94.97-2747.09,95z M-2760.69,52.8c-0.9,0.1-1.75,0.46-2.44,1.03c-1.47,1.14-2.67,2.59-3.54,4.23
			c-4.59,8.64-3.5,19.2,2.77,26.71c0.11,0.13,10.78,13,25.87,5.93c3.4-1.59,10.96-6.05,11.08-14.23c0-0.14-0.12-0.26-0.26-0.26
			c-0.07,0-0.14,0.03-0.19,0.09c-3.46,4.02-8.17,6.75-13.37,7.77c-6.03,1.16-12.19-1.33-15.7-6.37l-0.52-0.84l26.79-20.18
			c0.06-0.05,0.06-0.2,0.05-0.29c-0.11-1.24-2.3-4.23-7.7-6.95c-2.98-1.38-6.21-2.14-9.5-2.24c-2.34-0.11-4.67,0.22-6.88,0.98
			c-1.99,0.73-2.24,1.8-2.17,2.16c0.05,0.3,0.22,0.58,0.48,0.76c0.59,0.28,1.27,0.32,1.89,0.13c8.99-1.55,12.54,6.56,12.57,6.64
			l0.34,0.8l-18.57,13.72l-0.59-1.06c-2.27-3.47-2.32-11.28,0.19-15.68c0.38-0.54,0.54-1.21,0.46-1.87
			c-0.09-0.37-0.33-0.69-0.66-0.88C-2760.42,52.82-2760.55,52.79-2760.69,52.8z"/>
	</g>
	<rect id="Rectángulo_66" x="-2785.22" y="33" class="st1" width="74" height="74"/>
</g>
</svg>
