<?xml version="1.0" encoding="utf-8"?>
<!-- Generator: Adobe Illustrator 26.0.1, SVG Export Plug-In . SVG Version: 6.00 Build 0)  -->
<svg version="1.1" id="Capa_1" xmlns="http://www.w3.org/2000/svg" xmlns:xlink="http://www.w3.org/1999/xlink" x="0px" y="0px"
	 viewBox="0 0 74 74" style="enable-background:new 0 0 74 74;" xml:space="preserve">
<style type="text/css">
	.st0{fill:#092755;}
</style>
<g>
	<g>
		<g>
			<path class="st0" d="M39.2,33.1c1.3,0,2.5,0.5,3.4,1.4c0.9,0.9,1.4,2.1,1.4,3.4s-0.5,2.5-1.4,3.4c-0.9,0.9-2.1,1.4-3.4,1.4
				c-1.3,0-2.5-0.5-3.4-1.4c-0.9-0.9-1.4-2.1-1.4-3.4s0.5-2.5,1.4-3.4C36.7,33.6,37.9,33.1,39.2,33.1"/>
		</g>
	</g>
	<g>
		<g>
			<path class="st0" d="M39.2,28.3c2.2,0,4.2,0.5,6,1.5c1.4,0.8,2.7,1.9,3.7,3.3c1.5,1.9,2.1,4,2.4,4.7c-0.2,0.8-0.9,2.7-2.4,4.6
				c-1.1,1.4-2.3,2.5-3.7,3.3c-1.7,1-3.8,1.5-6,1.5c-2.2,0-4.2-0.5-6-1.5c-1.4-0.8-2.7-1.9-3.7-3.3c-1.5-2-2.1-3.8-2.4-4.6
				c0.2-0.8,0.9-2.8,2.4-4.8c1.1-1.4,2.3-2.5,3.7-3.3C34.9,28.8,36.9,28.3,39.2,28.3 M39.2,27.1c-10.8,0-13.5,10.8-13.5,10.8
				s2.7,10.8,13.5,10.8s13.5-10.8,13.5-10.8S50,27.1,39.2,27.1L39.2,27.1z"/>
		</g>
	</g>
	<g>
		<g>
			<path class="st0" d="M50.7,35.6c0,0-1.1-1.3-3.1-2.7c-1.8-1.2-4.8-2.6-8.5-2.6c-3.7,0-6.6,1.4-8.4,2.6c-2,1.3-3.1,2.6-3.1,2.7
				l-0.5-0.4c0-0.1,1.2-1.4,3.2-2.8c1.2-0.8,2.5-1.4,3.8-1.9c1.6-0.6,3.3-0.9,5-0.9c1.7,0,3.4,0.3,5,0.9c1.3,0.5,2.6,1.1,3.8,1.9
				c2.1,1.4,3.2,2.7,3.3,2.8L50.7,35.6l0.2-0.2L50.7,35.6z"/>
		</g>
	</g>
</g>
<g>
	<g>
		<g>
			<polygon class="st0" points="18,57.3 15.6,57.3 15.6,46.4 26.4,46.4 26.4,48.9 18,48.9 			"/>
		</g>
	</g>
	<g>
		<g>
			<g>
				<path class="st0" d="M16.5,37.1h-2.4c0-13.6,11.1-24.7,24.7-24.7c8.7,0,16.7,4.5,21.2,12l-2.1,1.2c-4.1-6.8-11.2-10.8-19.1-10.8
					C26.5,14.8,16.5,24.8,16.5,37.1z"/>
			</g>
		</g>
		<g>
			<g>
				<path class="st0" d="M38.8,62c-9.1,0-17.4-5-21.7-13l2.1-1.1c3.9,7.2,11.4,11.7,19.6,11.7c10.5,0,19.4-7.1,21.7-17.3l2.4,0.5
					C60.3,54.1,50.4,62,38.8,62z"/>
			</g>
		</g>
		<g>
			<g>
				<polygon class="st0" points="61,27.6 49.7,27.6 49.7,25.2 58.5,25.2 58.5,16.6 61,16.6 				"/>
			</g>
		</g>
	</g>
</g>
</svg>
