<?xml version="1.0" encoding="utf-8"?>
<!-- Generator: Adobe Illustrator 26.3.1, SVG Export Plug-In . SVG Version: 6.00 Build 0)  -->
<svg version="1.1" id="Capa_1" xmlns="http://www.w3.org/2000/svg" xmlns:xlink="http://www.w3.org/1999/xlink" x="0px" y="0px"
	 viewBox="0 0 24 24" style="enable-background:new 0 0 24 24;" xml:space="preserve">
<style type="text/css">
	.st0{fill:none;}
	.st1{fill:#FFFFFF;}
</style>
<g>
	<path id="Trazado_210_00000008863927112612239270000008473621996433921415_" class="st0" d="M0,0h24v24H0V0z"/>
	<path id="Trazado_211_00000083063943117848272200000006225253937183302065_" class="st1" d="M6.62,10.79
		c1.45,2.83,3.76,5.14,6.59,6.59l2.2-2.2c0.27-0.27,0.66-0.36,1.02-0.24c1.15,0.38,2.36,0.57,3.57,0.57c0.55,0,1,0.45,1,1l0,0V20
		c0,0.55-0.45,1-1,1C10.61,21,3,13.39,3,4c0-0.55,0.45-1,1-1h3.5c0.55,0,1,0.45,1,1c0,1.21,0.19,2.42,0.57,3.57
		c0.12,0.36,0.02,0.75-0.25,1.02L6.62,10.79z"/>
</g>
</svg>
