<?xml version="1.0" encoding="utf-8"?>
<!-- Generator: Adobe Illustrator 26.3.1, SVG Export Plug-In . SVG Version: 6.00 Build 0)  -->
<svg version="1.1" id="Capa_1" xmlns="http://www.w3.org/2000/svg" xmlns:xlink="http://www.w3.org/1999/xlink" x="0px" y="0px"
	 viewBox="0 0 24 24" style="enable-background:new 0 0 24 24;" xml:space="preserve">
<style type="text/css">
	.st0{fill:none;}
	.st1{fill:#FFFFFF;}
</style>
<g>
	<rect id="Rectángulo_29" class="st0" width="24" height="24"/>
	<path id="Trazado_212" class="st1" d="M11.71,17.99C8.4,17.83,5.85,15.02,6,11.71S8.97,5.85,12.28,6c3.09,0.15,5.56,2.62,5.71,5.71
		l-2.1-0.63c-0.51-2.15-2.66-3.48-4.81-2.98S7.6,10.76,8.1,12.91c0.35,1.48,1.5,2.63,2.98,2.98L11.71,17.99z M22,12
		c0,0.3-0.01,0.6-0.04,0.9l-1.97-0.59C20,12.21,20,12.1,20,12c0-4.42-3.58-8-8-8s-8,3.58-8,8s3.58,8,8,8c0.1,0,0.21,0,0.31-0.01
		l0.59,1.97C12.6,21.99,12.3,22,12,22C6.48,22,2,17.52,2,12S6.48,2,12,2S22,6.48,22,12L22,12z M18.23,16.26L22,15l-10-3l3,10
		l1.26-3.77l4.27,4.27l1.98-1.98L18.23,16.26z"/>
</g>
</svg>
