<?xml version="1.0" encoding="utf-8"?>
<!-- Generator: Adobe Illustrator 26.3.1, SVG Export Plug-In . SVG Version: 6.00 Build 0)  -->
<svg version="1.1" id="Capa_1" xmlns="http://www.w3.org/2000/svg" xmlns:xlink="http://www.w3.org/1999/xlink" x="0px" y="0px"
	 viewBox="0 0 74 74" style="enable-background:new 0 0 74 74;" xml:space="preserve">
<style type="text/css">
	.st0{fill:none;stroke:#0A2755;stroke-width:1.5;stroke-miterlimit:10;}
	.st1{fill:#0A2755;}
	.st2{fill:none;}
</style>
<g id="Grupo_596" transform="translate(624 753)">
	<g id="Grupo_585">
		<path id="Trazado_505" class="st0" d="M-587.21-715.53"/>
	</g>
	<g id="Grupo_589">
		<g id="Grupo_586">
			<path id="Trazado_506" class="st1" d="M-567.4-689.02H-607c-3.71,0-6.71-3.01-6.72-6.72v-39.6c0-3.71,3.01-6.71,6.72-6.72h19.73
				v3h-19.73c-2.05,0-3.71,1.66-3.72,3.72v39.6c0,2.05,1.66,3.71,3.72,3.72h39.61c2.05,0,3.71-1.66,3.72-3.72v-39.6
				c0-2.05-1.66-3.71-3.72-3.72h-6.55v-3h6.55c3.71,0,6.71,3.01,6.72,6.72v39.6C-560.69-692.03-563.69-689.02-567.4-689.02z"/>
		</g>
		<g id="Grupo_588">
			<g id="Grupo_587">
				<path id="Trazado_507" class="st1" d="M-572.47-735.47l-8.81-5.09l8.81-5.09V-735.47z"/>
			</g>
		</g>
	</g>
	<g id="Grupo_590">
		<path id="Trazado_508" class="st1" d="M-577.43-731.1c1.02,0,1.85,0.83,1.85,1.85v27.43c0,1.02-0.83,1.85-1.85,1.85h-19.55
			c-1.02,0-1.85-0.83-1.85-1.85v-27.42c0-1.02,0.83-1.85,1.85-1.85H-577.43 M-577.43-732.81h-19.55c-1.96,0-3.56,1.59-3.56,3.56
			v27.43c0,1.96,1.59,3.55,3.55,3.55c0,0,0,0,0,0h19.55c1.96,0,3.56-1.59,3.56-3.55c0,0,0,0,0,0v-27.42
			C-573.87-731.21-575.47-732.8-577.43-732.81L-577.43-732.81z"/>
	</g>
	<g id="Grupo_591">
		<rect id="Rectángulo_130" x="-594.65" y="-726.53" class="st1" width="14.89" height="1.5"/>
	</g>
	<g id="Grupo_592">
		<rect id="Rectángulo_131" x="-594.65" y="-721.41" class="st1" width="14.89" height="1.5"/>
	</g>
	<g id="Grupo_593">
		<rect id="Rectángulo_132" x="-594.65" y="-716.28" class="st1" width="14.89" height="1.5"/>
	</g>
	<g id="Grupo_594">
		<rect id="Rectángulo_133" x="-594.65" y="-711.16" class="st1" width="14.89" height="1.5"/>
	</g>
	<g id="Grupo_595">
		<rect id="Rectángulo_134" x="-594.65" y="-706.04" class="st1" width="14.89" height="1.5"/>
	</g>
	<rect id="Rectángulo_135" x="-624" y="-753" class="st2" width="74" height="74"/>
</g>
</svg>
