<?xml version="1.0" encoding="utf-8"?>
<!-- Generator: Adobe Illustrator 26.3.1, SVG Export Plug-In . SVG Version: 6.00 Build 0)  -->
<svg version="1.1" id="Capa_1" xmlns="http://www.w3.org/2000/svg" xmlns:xlink="http://www.w3.org/1999/xlink" x="0px" y="0px"
	 viewBox="0 0 74 74" style="enable-background:new 0 0 74 74;" xml:space="preserve">
<style type="text/css">
	.st0{fill:#0A2755;}
	.st1{fill:none;}
</style>
<g id="Grupo_613" transform="translate(780.333 753)">
	<g id="Grupo_612">
		<g id="Grupo_598">
			<path id="Trazado_509" class="st0" d="M-721.35-740.72h-43.9c-3.19,0-5.77,2.58-5.77,5.77v28.59c0,3.19,2.58,5.77,5.77,5.77h1.07
				v-2.72h-1.07c-1.68,0-3.04-1.37-3.05-3.05v-1.32l0,0v-27.28c0-1.68,1.36-3.04,3.04-3.05h43.9c1.68,0,3.04,1.36,3.05,3.05v28.59
				c0,1.68-1.37,3.04-3.05,3.05h-1.07v2.72h1.07c3.19,0,5.77-2.58,5.77-5.77v-28.59C-715.59-738.13-718.17-740.71-721.35-740.72z"/>
		</g>
		<g id="Grupo_611">
			<g id="Grupo_600">
				<g id="Grupo_599">
					<path id="Trazado_510" class="st0" d="M-764.88-694.04v-1.66c0.05-2.16,1.84-3.88,4-3.84h5.09c2.16-0.04,3.95,1.68,4,3.84v1.66
						L-764.88-694.04z"/>
				</g>
			</g>
			<g id="Grupo_602">
				<g id="Grupo_601">
					<circle id="Elipse_42" class="st0" cx="-758.33" cy="-705.03" r="3.66"/>
				</g>
			</g>
			<g id="Grupo_604">
				<g id="Grupo_603">
					<path id="Trazado_511" class="st0" d="M-749.88-694.04v-1.66c0.05-2.16,1.84-3.88,4-3.84h5.09c2.16-0.04,3.95,1.68,4,3.84v1.66
						L-749.88-694.04z"/>
				</g>
			</g>
			<g id="Grupo_606">
				<g id="Grupo_605">
					<circle id="Elipse_43" class="st0" cx="-743.34" cy="-705.03" r="3.66"/>
				</g>
			</g>
			<g id="Grupo_608">
				<g id="Grupo_607">
					<path id="Trazado_512" class="st0" d="M-734.88-694.04v-1.66c0.05-2.16,1.84-3.88,4-3.84h5.09c2.16-0.04,3.95,1.68,4,3.84v1.66
						L-734.88-694.04z"/>
				</g>
			</g>
			<g id="Grupo_610">
				<g id="Grupo_609">
					<circle id="Elipse_44" class="st0" cx="-728.34" cy="-705.03" r="3.66"/>
				</g>
			</g>
		</g>
	</g>
	<rect id="Rectángulo_136" x="-780.33" y="-753" class="st1" width="74" height="74"/>
</g>
</svg>
