<?xml version="1.0" encoding="utf-8"?>
<!-- Generator: Adobe Illustrator 26.3.1, SVG Export Plug-In . SVG Version: 6.00 Build 0)  -->
<svg version="1.1" id="Capa_1" xmlns="http://www.w3.org/2000/svg" xmlns:xlink="http://www.w3.org/1999/xlink" x="0px" y="0px"
	 viewBox="0 0 38.8 45.63" style="enable-background:new 0 0 38.8 45.63;" xml:space="preserve">
<style type="text/css">
	.st0{fill:#FFFFFF;}
</style>
<g id="Grupo_1378" transform="translate(-30.015 -31)">
	<g id="Grupo_892" transform="translate(30.015 31)">
		<g id="Grupo_891" transform="translate(9.368 7.167)">
			<g id="Grupo_889" transform="translate(9.703 11.244)">
				<g id="Grupo_877">
					<g id="Grupo_876">
						<g id="Grupo_875">
							<rect id="Rectángulo_209" x="-9.37" y="-7.17" class="st0" width="19.41" height="0.94"/>
						</g>
					</g>
				</g>
				<g id="Grupo_880" transform="translate(0 9.704)">
					<g id="Grupo_879">
						<g id="Grupo_878">
							<rect id="Rectángulo_210" x="-9.37" y="-7.17" class="st0" width="19.41" height="0.94"/>
						</g>
					</g>
				</g>
				<g id="Grupo_883" transform="translate(0 19.408)">
					<g id="Grupo_882">
						<g id="Grupo_881">
							<rect id="Rectángulo_211" x="-9.37" y="-7.17" class="st0" width="19.41" height="0.94"/>
						</g>
					</g>
				</g>
				<g id="Grupo_888" transform="translate(11.689 17.06)">
					<g id="Grupo_885" transform="translate(0 1.31)">
						<g id="Grupo_884">
							<path id="Trazado_615" class="st0" d="M-8.66,6.54l-0.7,2.31l2.4-0.67L6.72-5.49L5.05-7.17L-8.66,6.54z"/>
						</g>
					</g>
					<g id="Grupo_887" transform="translate(15.157)">
						<g id="Grupo_886">
							<path id="Trazado_616" class="st0" d="M-7.47-6.82c-0.46-0.46-1.21-0.46-1.67,0l-0.23,0.23l1.67,1.67l0.23-0.23
								C-7-5.61-7-6.36-7.47-6.82z"/>
						</g>
					</g>
				</g>
			</g>
			<g id="Grupo_890">
				<path id="Trazado_617" class="st0" d="M27.03,19.36V-2.55c-0.01-1.24-1.02-2.24-2.26-2.24H-4.71c-1.24,0-2.25,1-2.26,2.24v36.4
					c0.01,1.24,1.02,2.24,2.26,2.24h14.75v2.38H-4.71c-2.56,0.01-4.65-2.06-4.66-4.62v-36.4c0.01-2.56,2.1-4.63,4.66-4.62h29.48
					c2.56-0.01,4.64,2.06,4.66,4.62v21.91H27.03z"/>
			</g>
		</g>
	</g>
</g>
</svg>
