<?xml version="1.0" encoding="utf-8"?>
<!-- Generator: Adobe Illustrator 26.3.1, SVG Export Plug-In . SVG Version: 6.00 Build 0)  -->
<svg version="1.1" id="Capa_1" xmlns="http://www.w3.org/2000/svg" xmlns:xlink="http://www.w3.org/1999/xlink" x="0px" y="0px"
	 viewBox="0 0 32.46 44.25" style="enable-background:new 0 0 32.46 44.25;" xml:space="preserve">
<style type="text/css">
	.st0{fill:#FFFFFF;}
</style>
<g id="Grupo_2367" transform="translate(-0.056 0.194)">
	<g>
		<g id="Grupo_2366" transform="translate(0 -0.194)">
			<path id="Trazado_1195" class="st0" d="M31.5,13.66c-0.29-0.41-0.53-0.85-0.69-1.33c-0.1-0.51-0.12-1.04-0.07-1.56
				c0.12-0.91-0.02-1.83-0.4-2.66c-0.53-0.75-1.27-1.34-2.13-1.69c-0.47-0.21-0.91-0.49-1.3-0.82c-0.34-0.39-0.61-0.83-0.83-1.3
				c-0.35-0.86-0.94-1.59-1.69-2.13c-0.83-0.38-1.75-0.52-2.66-0.4c-0.52,0.05-1.05,0.03-1.56-0.07C19.7,1.53,19.25,1.3,18.84,1
				c-0.74-0.57-1.63-0.92-2.56-1c-0.93,0.08-1.83,0.43-2.57,1.01c-0.41,0.29-0.85,0.53-1.33,0.69c-0.51,0.1-1.04,0.12-1.56,0.07
				C9.92,1.65,9,1.79,8.17,2.17C7.41,2.71,6.83,3.44,6.48,4.3C6.26,4.77,5.99,5.21,5.65,5.6c-0.39,0.34-0.83,0.61-1.3,0.82
				C3.5,6.77,2.76,7.36,2.23,8.11c-0.38,0.83-0.52,1.75-0.4,2.66c0.05,0.52,0.03,1.05-0.07,1.56c-0.17,0.47-0.4,0.92-0.69,1.33
				c-0.57,0.74-0.92,1.63-1.01,2.57c0.08,0.93,0.43,1.83,1.01,2.57c0.29,0.41,0.53,0.85,0.69,1.33c0.1,0.51,0.12,1.04,0.07,1.56
				c-0.12,0.91,0.02,1.83,0.4,2.66c0.53,0.75,1.27,1.34,2.13,1.69c0.47,0.21,0.91,0.49,1.3,0.83c0.33,0.39,0.61,0.83,0.82,1.3
				c0.21,0.42,0.45,0.83,0.72,1.21L3.05,40.74c-0.14,0.38,0.06,0.81,0.44,0.95c0.16,0.06,0.33,0.06,0.49,0.01l3.92-1.32l2.15,3.53
				c0.13,0.22,0.37,0.35,0.63,0.35c0.02,0,0.05,0,0.07,0c0.28-0.03,0.52-0.22,0.62-0.48l4.16-11.42c0.5,0.14,1.02,0.14,1.52,0
				l4.16,11.42c0.1,0.27,0.34,0.45,0.62,0.48c0.02,0,0.05,0,0.07,0c0.26,0,0.5-0.13,0.63-0.35l2.15-3.53l3.91,1.32
				c0.39,0.13,0.8-0.08,0.93-0.46c0.05-0.16,0.05-0.33-0.01-0.49l-4.14-11.38c0.27-0.38,0.51-0.79,0.72-1.21
				c0.21-0.47,0.49-0.91,0.83-1.3c0.39-0.34,0.83-0.61,1.3-0.83c0.86-0.35,1.59-0.94,2.13-1.69c0.38-0.83,0.52-1.75,0.4-2.66
				c-0.05-0.52-0.03-1.05,0.07-1.56c0.17-0.47,0.4-0.92,0.69-1.33c0.57-0.74,0.92-1.63,1.01-2.57C32.43,15.29,32.08,14.4,31.5,13.66
				 M10.51,41.82L8.85,39.1c-0.18-0.3-0.54-0.43-0.87-0.31L4.96,39.8l3.43-9.41c0.78,0.29,1.62,0.39,2.44,0.29
				c0.52-0.05,1.05-0.03,1.56,0.07c0.47,0.17,0.92,0.4,1.33,0.69c0.15,0.1,0.3,0.19,0.46,0.29L10.51,41.82z M24.58,38.78
				c-0.33-0.11-0.69,0.02-0.87,0.31l-1.66,2.72l-3.67-10.09c0.16-0.1,0.31-0.19,0.46-0.29c0.41-0.29,0.85-0.53,1.33-0.69
				c0.51-0.1,1.04-0.12,1.56-0.07c0.83,0.1,1.66,0,2.44-0.29l3.43,9.41L24.58,38.78z M30.26,18c-0.38,0.53-0.67,1.12-0.87,1.74
				c-0.14,0.66-0.18,1.33-0.12,2c0.09,0.63,0.02,1.27-0.2,1.86c-0.41,0.5-0.93,0.89-1.53,1.12c-0.6,0.28-1.16,0.64-1.66,1.09
				c-0.45,0.49-0.81,1.05-1.09,1.66c-0.24,0.6-0.62,1.13-1.12,1.53c-0.59,0.22-1.24,0.29-1.86,0.2c-0.67-0.06-1.34-0.02-2,0.12
				c-0.62,0.2-1.2,0.5-1.74,0.88c-0.51,0.41-1.12,0.68-1.77,0.78c-0.65-0.1-1.26-0.37-1.77-0.78c-0.53-0.38-1.12-0.67-1.74-0.87
				c-0.41-0.1-0.84-0.15-1.27-0.14c-0.25,0-0.49,0.01-0.73,0.02C10.14,29.3,9.5,29.23,8.9,29c-0.5-0.41-0.89-0.93-1.12-1.53
				c-0.28-0.6-0.64-1.16-1.09-1.66C6.2,25.37,5.64,25,5.04,24.72c-0.6-0.24-1.13-0.62-1.53-1.12c-0.23-0.59-0.29-1.24-0.2-1.86
				c0.06-0.67,0.02-1.34-0.12-2c-0.2-0.62-0.5-1.2-0.88-1.74c-0.41-0.51-0.68-1.12-0.78-1.77c0.1-0.65,0.37-1.26,0.78-1.77
				c0.38-0.53,0.67-1.12,0.87-1.74c0.14-0.66,0.18-1.33,0.12-2c-0.09-0.63-0.03-1.27,0.2-1.86c0.41-0.5,0.94-0.89,1.54-1.12
				c0.6-0.28,1.16-0.64,1.66-1.09c0.45-0.49,0.81-1.05,1.09-1.66c0.24-0.6,0.62-1.13,1.12-1.53c0.59-0.22,1.24-0.29,1.86-0.2
				c0.67,0.06,1.34,0.02,2-0.12c0.62-0.2,1.21-0.5,1.74-0.87c0.51-0.41,1.12-0.68,1.77-0.78c0.65,0.1,1.26,0.36,1.77,0.77
				c0.53,0.38,1.12,0.67,1.74,0.87c0.66,0.14,1.33,0.18,2,0.12c0.63-0.09,1.27-0.03,1.86,0.2c0.5,0.41,0.89,0.93,1.12,1.53
				c0.28,0.6,0.64,1.16,1.09,1.66c0.49,0.45,1.05,0.81,1.66,1.09c0.6,0.24,1.13,0.62,1.53,1.12c0.23,0.59,0.29,1.24,0.2,1.86
				c-0.06,0.67-0.02,1.34,0.12,2c0.2,0.62,0.5,1.21,0.87,1.74c0.41,0.51,0.68,1.12,0.78,1.77C30.93,16.88,30.66,17.49,30.26,18"/>
			<path id="Trazado_1196" class="st0" d="M16.28,4.43c-6.52,0-11.8,5.28-11.8,11.8s5.28,11.8,11.8,11.8s11.8-5.28,11.8-11.8l0,0
				C28.08,9.71,22.8,4.43,16.28,4.43 M16.28,26.55c-5.7,0-10.33-4.62-10.33-10.33S10.58,5.9,16.28,5.9s10.33,4.62,10.33,10.33l0,0
				C26.61,21.93,21.98,26.55,16.28,26.55"/>
			<path id="Trazado_1197" class="st0" d="M18.93,12.55l-1.99-4.02c-0.21-0.37-0.68-0.49-1.05-0.27c-0.11,0.07-0.21,0.16-0.27,0.27
				l-1.99,4.02L9.2,13.19c-0.4,0.06-0.68,0.43-0.62,0.83c0.02,0.16,0.1,0.31,0.22,0.42L12,17.58L11.24,22
				c-0.07,0.4,0.2,0.78,0.6,0.85c0.16,0.03,0.32,0,0.47-0.07l3.97-2.09l3.97,2.09c0.36,0.19,0.81,0.05,1-0.31
				c0.07-0.14,0.1-0.31,0.07-0.47l-0.76-4.42l3.21-3.13c0.29-0.28,0.3-0.75,0.02-1.04c-0.11-0.12-0.26-0.19-0.43-0.22L18.93,12.55z
				 M19.26,16.8c-0.17,0.17-0.25,0.41-0.21,0.65l0.57,3.33l-2.99-1.57c-0.21-0.11-0.47-0.11-0.69,0l-2.99,1.57l0.57-3.33
				c0.04-0.24-0.04-0.48-0.21-0.65l-2.42-2.36l3.34-0.49c0.24-0.03,0.45-0.18,0.56-0.4l1.5-3.03l1.5,3.03
				c0.11,0.22,0.32,0.37,0.56,0.4l3.34,0.49L19.26,16.8z"/>
		</g>
	</g>
</g>
</svg>
