<?xml version="1.0" encoding="utf-8"?>
<!-- Generator: Adobe Illustrator 26.3.1, SVG Export Plug-In . SVG Version: 6.00 Build 0)  -->
<svg version="1.1" id="Capa_1" xmlns="http://www.w3.org/2000/svg" xmlns:xlink="http://www.w3.org/1999/xlink" x="0px" y="0px"
	 viewBox="0 0 52 52" style="enable-background:new 0 0 52 52;" xml:space="preserve">
<style type="text/css">
	.st0{fill:none;}
	.st1{fill:#0A2755;}
	.st2{fill:none;stroke:#0A2755;stroke-width:2.108;stroke-linecap:round;stroke-miterlimit:10;}
</style>
<g id="Grupo_171" transform="translate(1850 756)">
	<rect id="Rectángulo_55" x="-1850" y="-756" class="st0" width="52" height="52"/>
	<g id="Grupo_170">
		<g id="Grupo_163">
			<path id="Trazado_334" class="st1" d="M-1810.11-710.51h-26.17c-3.92-0.01-7.1-3.18-7.1-7.1v-24.77c0.01-3.92,3.18-7.09,7.1-7.1
				h26.17c3.07,0,5.55,2.49,5.55,5.55V-730c0,0.58-0.47,1.05-1.05,1.05c-0.58,0-1.05-0.47-1.05-1.05v-13.94
				c0-1.9-1.54-3.44-3.44-3.45h-26.17c-2.76,0-5,2.24-5,5v24.77c0,2.76,2.24,5,5,5h26.17c1.9,0,3.44-1.54,3.44-3.45
				c0-0.58,0.47-1.05,1.05-1.05c0.58,0,1.05,0.47,1.05,1.05C-1804.57-712.99-1807.05-710.51-1810.11-710.51z"/>
		</g>
		<g id="Grupo_164">
			<path id="Trazado_335" class="st2" d="M-1805.61-716.06"/>
		</g>
		<g id="Grupo_165">
			<path id="Trazado_336" class="st2" d="M-1805.61-730"/>
		</g>
		<g id="Grupo_167">
			<g id="Grupo_166">
				<path id="Trazado_337" class="st1" d="M-1816.71-724.93l0.81-5.29h-5.07v-3.43c-0.13-1.45,0.94-2.74,2.4-2.87
					c0.19-0.02,0.39-0.01,0.58,0.01h2.31v-4.5c-1.35-0.22-2.72-0.34-4.09-0.36c-4.18,0-6.91,2.53-6.91,7.11v4.03h-4.64v5.29h4.64
					v12.4h5.71v-12.4L-1816.71-724.93z"/>
			</g>
		</g>
		<g id="Grupo_168">
			<path id="Trazado_338" class="st1" d="M-1805.61-720.76c-0.58,0-1.05-0.47-1.05-1.05l0,0v-5.11c0-0.58,0.47-1.05,1.05-1.05
				c0.58,0,1.05,0.47,1.05,1.05v5.11C-1804.56-721.23-1805.03-720.76-1805.61-720.76C-1805.61-720.76-1805.61-720.76-1805.61-720.76
				z"/>
		</g>
		<g id="Grupo_169">
			<path id="Trazado_339" class="st1" d="M-1805.61-717.95c-0.28,0-0.55-0.11-0.74-0.32c-0.25-0.25-0.36-0.6-0.29-0.95
				c0.01-0.07,0.03-0.14,0.06-0.2c0.03-0.06,0.06-0.12,0.1-0.18c0.04-0.06,0.08-0.11,0.13-0.16c0.25-0.24,0.61-0.35,0.95-0.28
				c0.07,0.01,0.14,0.03,0.2,0.06c0.06,0.03,0.13,0.06,0.18,0.1c0.06,0.04,0.11,0.08,0.16,0.13c0.05,0.05,0.09,0.1,0.13,0.16
				c0.04,0.06,0.07,0.12,0.1,0.18c0.03,0.06,0.05,0.13,0.06,0.2c0.01,0.07,0.02,0.14,0.02,0.21c0,0.28-0.11,0.54-0.31,0.74
				c-0.1,0.1-0.21,0.18-0.34,0.23C-1805.33-717.98-1805.47-717.95-1805.61-717.95z"/>
		</g>
	</g>
</g>
</svg>
