<?xml version="1.0" encoding="utf-8"?>
<!-- Generator: Adobe Illustrator 26.3.1, SVG Export Plug-In . SVG Version: 6.00 Build 0)  -->
<svg version="1.1" id="Capa_1" xmlns="http://www.w3.org/2000/svg" xmlns:xlink="http://www.w3.org/1999/xlink" x="0px" y="0px"
	 viewBox="0 0 41.01 41.01" style="enable-background:new 0 0 41.01 41.01;" xml:space="preserve">
<style type="text/css">
	.st0{fill:#FFFFFF;}
	.st1{fill:#002758;}
</style>
<g>
	<path class="st0" d="M36.01,41.01H5c-2.76,0-5-2.24-5-5V5c0-2.76,2.24-5,5-5h31.01c2.76,0,5,2.24,5,5v31.01
		C41.01,38.77,38.77,41.01,36.01,41.01z"/>
	<g>
		<path class="st1" d="M22.86,27.91h-9l-1.81,4.81c-0.33,0.81-1.11,1.3-1.93,1.3c-0.26,0-0.48-0.04-0.7-0.11
			c-1.07-0.41-1.59-1.59-1.22-2.67l8.18-21.81c0.33-0.81,1.15-1.33,1.96-1.3c0.85-0.04,1.63,0.48,1.96,1.3l8.18,21.81
			c0.37,1.07-0.15,2.26-1.22,2.67c-0.19,0.07-0.44,0.11-0.7,0.11c-0.81,0-1.59-0.48-1.89-1.3L22.86,27.91z M21.34,23.84l-3-7.96
			l-3,7.96H21.34z"/>
	</g>
	<g>
		<path class="st1" d="M33.99,9.63h-8.44c-0.83,0-1.5-0.67-1.5-1.5s0.67-1.5,1.5-1.5h8.44c0.83,0,1.5,0.67,1.5,1.5
			S34.82,9.63,33.99,9.63z"/>
	</g>
</g>
</svg>
