<?xml version="1.0" encoding="utf-8"?>
<!-- Generator: Adobe Illustrator 26.3.1, SVG Export Plug-In . SVG Version: 6.00 Build 0)  -->
<svg version="1.1" id="Capa_1" xmlns="http://www.w3.org/2000/svg" xmlns:xlink="http://www.w3.org/1999/xlink" x="0px" y="0px"
	 viewBox="0 0 48 48" style="enable-background:new 0 0 48 48;" xml:space="preserve">
<style type="text/css">
	.st0{fill:#092755;}
</style>
<g id="Grupo_99" transform="translate(-21.556 -21.554)">
	<g id="Grupo_98" transform="translate(21.556 21.554)">
		<path id="Trazado_263" class="st0" d="M10,8.87c0.18,0,0.35,0.04,0.51,0.12l28,14c0.56,0.28,0.79,0.96,0.51,1.52
			c-0.11,0.22-0.29,0.4-0.51,0.51l-28,14c-0.16,0.08-0.33,0.12-0.51,0.12c-0.63,0-1.14-0.51-1.14-1.14V10
			C8.86,9.37,9.37,8.86,10,8.87 M10,6c-2.21,0-4,1.79-4,4v28c0,2.21,1.79,4,4,4c0.62,0,1.23-0.14,1.79-0.42l28-14
			c1.98-0.99,2.78-3.39,1.79-5.37c-0.39-0.77-1.01-1.4-1.79-1.79l-28-14C11.23,6.15,10.62,6,10,6L10,6z"/>
	</g>
</g>
</svg>
