<?xml version="1.0" encoding="utf-8"?>
<!-- Generator: Adobe Illustrator 26.3.1, SVG Export Plug-In . SVG Version: 6.00 Build 0)  -->
<svg version="1.1" id="Capa_1" xmlns="http://www.w3.org/2000/svg" xmlns:xlink="http://www.w3.org/1999/xlink" x="0px" y="0px"
	 viewBox="0 0 52 52" style="enable-background:new 0 0 52 52;" xml:space="preserve">
<style type="text/css">
	.st0{fill:#0A2755;}
	.st1{fill:none;stroke:#0A2755;stroke-width:2.108;stroke-linecap:round;stroke-miterlimit:10;}
	.st2{fill:none;}
</style>
<g id="Grupo_187" transform="translate(1850 860)">
	<g id="Grupo_181">
		<g id="Grupo_180">
			<path id="Trazado_346" class="st0" d="M-1813.08-837.34c0-2.62-2.13-4.75-4.75-4.75l0,0h-12.14c-2.62,0-4.75,2.13-4.75,4.75l0,0
				v5.65c0,2.62,2.13,4.75,4.75,4.75l0,0h12.14c2.62,0,4.75-2.13,4.75-4.75l0,0V-837.34z M-1820.22-834.1l-5.45,2.7
				c-0.21,0.12-0.94-0.04-0.94-0.28v-5.53c0-0.25,0.73-0.4,0.94-0.28l5.21,2.84C-1820.23-834.53-1820-834.22-1820.22-834.1z"/>
		</g>
	</g>
	<g id="Grupo_182">
		<path id="Trazado_347" class="st0" d="M-1809.66-814.51h-27.07c-3.67,0-6.65-2.98-6.65-6.65v-25.68c0-3.67,2.98-6.65,6.65-6.65
			h25.52c3.67,0,6.65,2.98,6.65,6.65V-834c0,0.58-0.47,1.05-1.05,1.05c-0.58,0-1.05-0.47-1.05-1.05v-12.84
			c0-2.51-2.04-4.54-4.54-4.54h-25.52c-2.51,0-4.54,2.04-4.54,4.54v25.68c0,2.51,2.04,4.54,4.54,4.54h27.07
			c1.65,0,2.99-1.34,2.99-2.99v-0.45c0-0.58,0.47-1.05,1.05-1.05c0.58,0,1.05,0.47,1.05,1.05v0.45
			C-1804.56-816.79-1806.84-814.51-1809.66-814.51z"/>
	</g>
	<g id="Grupo_183">
		<path id="Trazado_348" class="st1" d="M-1805.61-820.06"/>
	</g>
	<g id="Grupo_184">
		<path id="Trazado_349" class="st1" d="M-1805.61-834"/>
	</g>
	<g id="Grupo_185">
		<path id="Trazado_350" class="st0" d="M-1805.61-824.76c-0.58,0-1.05-0.47-1.05-1.05l0,0v-5.11c0-0.58,0.47-1.05,1.05-1.05
			c0.58,0,1.05,0.47,1.05,1.05v5.11C-1804.56-825.23-1805.03-824.76-1805.61-824.76C-1805.61-824.76-1805.61-824.76-1805.61-824.76z
			"/>
	</g>
	<g id="Grupo_186">
		<path id="Trazado_351" class="st0" d="M-1805.61-821.95c-0.14,0-0.28-0.03-0.41-0.08c-0.13-0.05-0.24-0.13-0.34-0.22
			c-0.2-0.2-0.31-0.46-0.31-0.74c0-0.07,0.01-0.14,0.02-0.21c0.01-0.07,0.03-0.14,0.06-0.2c0.03-0.06,0.06-0.12,0.1-0.18
			c0.04-0.06,0.08-0.11,0.13-0.16c0.05-0.05,0.1-0.09,0.15-0.13c0.06-0.04,0.12-0.07,0.18-0.1c0.06-0.03,0.13-0.05,0.2-0.06
			c0.35-0.06,0.7,0.05,0.96,0.29c0.41,0.41,0.41,1.08,0,1.5C-1805.06-822.06-1805.33-821.95-1805.61-821.95L-1805.61-821.95z"/>
	</g>
	<rect id="Rectángulo_57" x="-1850" y="-860" class="st2" width="52" height="52"/>
</g>
</svg>
