<?xml version="1.0" encoding="utf-8"?>
<!-- Generator: Adobe Illustrator 26.3.1, SVG Export Plug-In . SVG Version: 6.00 Build 0)  -->
<svg version="1.1" id="Capa_1" xmlns="http://www.w3.org/2000/svg" xmlns:xlink="http://www.w3.org/1999/xlink" x="0px" y="0px"
	 viewBox="0 0 41.01 41.01" style="enable-background:new 0 0 41.01 41.01;" xml:space="preserve">
<style type="text/css">
	.st0{fill:#FFFFFF;}
	.st1{fill:#002758;}
</style>
<g>
	<path class="st0" d="M36.01,41.14H5c-2.76,0-5-2.24-5-5V5.14c0-2.76,2.24-5,5-5h31.01c2.76,0,5,2.24,5,5v31.01
		C41.01,38.9,38.77,41.14,36.01,41.14z"/>
	<path class="st1" d="M35.06,16.06c-0.3-0.97-0.69-1.89-1.17-2.77s-1.03-1.7-1.66-2.46c-0.63-0.76-1.33-1.46-2.09-2.09
		c-2.67-2.2-6.09-3.53-9.82-3.53l0,0h0l0,0c-8.53,0-15.44,6.91-15.44,15.44c0,8.53,6.91,15.44,15.44,15.44l0,0h0l0,0
		c3.73,0,7.15-1.32,9.82-3.53c0.76-0.63,1.46-1.33,2.09-2.09c0.63-0.76,1.19-1.59,1.66-2.46c0.48-0.88,0.87-1.8,1.17-2.77
		c0.45-1.45,0.69-2.99,0.69-4.59S35.51,17.51,35.06,16.06z M8.94,20.65c0-6.28,5.09-11.36,11.36-11.36c0,4.92,0,17.81,0,22.73
		C14.03,32.01,8.94,26.93,8.94,20.65z"/>
</g>
</svg>
