<?xml version="1.0" encoding="utf-8"?>
<!-- Generator: Adobe Illustrator 26.3.1, SVG Export Plug-In . SVG Version: 6.00 Build 0)  -->
<svg version="1.1" id="Capa_1" xmlns="http://www.w3.org/2000/svg" xmlns:xlink="http://www.w3.org/1999/xlink" x="0px" y="0px"
	 viewBox="0 0 41.01 41.01" style="enable-background:new 0 0 41.01 41.01;" xml:space="preserve">
<style type="text/css">
	.st0{fill:#FFFFFF;}
	.st1{fill:#002758;}
</style>
<g>
	<path class="st0" d="M36.01,41.01H5c-2.76,0-5-2.24-5-5V5c0-2.76,2.24-5,5-5h31.01c2.76,0,5,2.24,5,5v31.01
		C41.01,38.77,38.77,41.01,36.01,41.01z"/>
	<g>
		<path class="st1" d="M23.44,26.07c-0.49-0.08-1.81-0.05-2.51,0.3c-0.7,0.35-2.05,1.41-2.54,1.51c-0.49,0.11-1.24,0.32-1.88-0.54
			c-0.64-0.87-0.47-2.43-0.5-2.81c-0.03-0.38,0.43-1.87,0.7-2.54c0.27-0.68,1.14-3.11,1.32-3.79c0.19-0.68,0.97-3.43,1.11-4.06
			c0.14-0.62,0.49-2.38,0.51-2.97c0.03-0.59-0.43-1.41-1-1.6c-0.57-0.19-1.16,0-1.41,0.43c-0.24,0.43-0.62,1.87-0.74,2.76
			c-0.12,0.89-0.42,1.92-0.77,2.76c-0.35,0.84-1.27,2.38-1.57,2.97c-0.3,0.59-0.68,1.19-0.68,1.19l-0.58-0.06l0.76-1.36l-1.37,0.8
			c0,0,0.35-2.46,0.49-3.14c0.14-0.68,0.7-4.22,0.76-5.03c0.05-0.81,0.05-1.84-0.84-1.89c-0.89-0.05-1.05,0.57-1.27,1.22
			c-0.22,0.65-1.43,5.08-1.6,5.6c-0.16,0.51-1.24,3.46-1.41,3.62c0,0-1.11-2.65-1.43-3.3c-0.32-0.65-1.08-2.85-1.92-3.46
			c-0.47-0.34-0.97-0.38-1.27-0.14c-0.24,0.19-0.4,0.8-0.2,1.45c0.21,0.65,1.09,3.5,1.22,4.25c0.14,0.76,1.14,3.7,1.3,4.95
			c0.16,1.24,0.38,3.62,0.38,4.76c0,1.14,0.03,3.92,0,4.57c-0.03,0.65,0.08,1.35,0.73,1.78c0.65,0.43,1.24,1.27,4.14,1.27
			c2.89,0,3.51-0.81,4.38-1.32c0.87-0.51,2.92-1.92,3.65-2.46c0.73-0.54,1.22-1.3,1.97-1.87c0.76-0.57,1.46-1.3,2.11-1.65
			c0.65-0.35,1.16-0.76,1.05-1.22C24.44,26.61,23.92,26.15,23.44,26.07z"/>
		<path class="st1" d="M17.93,20.17c0,0,2.5-0.56,2.86-0.76c0.36-0.2,0.87-0.52,0.69-1.34c-0.18-0.81-0.61-0.74-0.85-0.74
			s-1.92,0.29-1.92,0.29L17.93,20.17z"/>
		<path class="st1" d="M38.78,19.9c-0.31-0.33-0.8-0.45-1.36-0.27c-0.56,0.18-1.59,0.99-1.77,1.41c-0.18,0.42-0.13,0.87-0.13,0.99
			c0,0.13-0.3,0.29-0.42,0.05c-0.09-0.17-0.25-1.41,0.99-2.18c0,0-0.22-4.52-0.24-5.22s-0.33-6.04-0.34-6.47
			c-0.02-0.43,0-1.37-0.51-1.57c-0.51-0.2-1.16,0-1.41,0.36c-0.25,0.36-0.56,0.76-0.6,1.57c-0.04,0.81,0.04,3.15,0,3.67
			c-0.04,0.52-0.38,3.4-0.47,3.71c-0.09,0.31-0.02,1.1-0.38,1.16c-0.36,0.05-0.74-0.36-1.03-0.58c-0.29-0.22-0.29-0.34-1.01-0.31
			c-0.72,0.04-5.43,0.72-5.9,0.71c-0.47-0.02-1.27,0.02-1.46,0.71c-0.2,0.69,0.45,1.32,1.01,1.43c0.56,0.11,1.79,0,2.5-0.11
			s2.89-0.47,2.89-0.47l0.34,0.34l-3.96,0.66c0,0,0.31,1.25,0.35,2.05c0.04,0.8,0.09,2.8,0.56,3.89c0.47,1.09,1.65,3.13,2.82,3.69
			c1.18,0.56,2.35,1.27,4.29,0.43c1.5-0.65,1.86-1.25,2.64-1.9c0.78-0.65,0.94-1.32,1.03-1.99c0.09-0.67,0.29-2.37,0.52-2.97
			s0.78-1.61,1.14-2.1C38.87,20.6,39.09,20.22,38.78,19.9z"/>
		<path class="st1" d="M23.71,14.44c0.18,0.51,0.85,2.03,0.85,2.03l1.92-0.22c0,0-1.92-4.77-2.03-4.96
			c-0.11-0.18-0.31-1.12-0.81-0.89c-0.51,0.24-0.74,0.71-0.71,1.32C22.97,12.35,23.53,13.94,23.71,14.44z"/>
		<path class="st1" d="M26.92,16.23l2.8-0.38c0,0-1.72-3.24-2.06-4.68c-0.34-1.45-0.39-2.44-0.65-2.8
			c-0.46-0.65-1.16-0.37-1.32-0.26c-0.16,0.11-0.66,0.55-0.46,1.83C25.43,11.22,26.92,16.23,26.92,16.23z"/>
	</g>
</g>
</svg>
