<?xml version="1.0" encoding="utf-8"?>
<!-- Generator: Adobe Illustrator 26.3.1, SVG Export Plug-In . SVG Version: 6.00 Build 0)  -->
<svg version="1.1" id="Capa_1" xmlns="http://www.w3.org/2000/svg" xmlns:xlink="http://www.w3.org/1999/xlink" x="0px" y="0px"
	 viewBox="0 0 74 74" style="enable-background:new 0 0 74 74;" xml:space="preserve">
<style type="text/css">
	.st0{fill:#001F44;}
	.st1{fill:none;}
</style>
<g id="Grupo_2179" transform="translate(329 826)">
	<g id="Grupo_2178">
		<g id="Grupo_2170">
			<g id="Grupo_2162">
				<g id="Grupo_2161">
					<path id="Trazado_1054" class="st0" d="M-317.61-763.87h-3.03v-13.57h13.52v3.02h-10.49V-763.87z"/>
				</g>
			</g>
			<g id="Grupo_2169">
				<g id="Grupo_2164">
					<g id="Grupo_2163">
						<path id="Trazado_1055" class="st0" d="M-319.48-789.14h-3.02c0-17.06,13.83-30.89,30.89-30.89c10.85,0,20.9,5.69,26.48,14.99
							l-2.59,1.56c-7.92-13.19-25.04-17.46-38.23-9.54C-314.34-807.98-319.47-798.92-319.48-789.14z"/>
					</g>
				</g>
				<g id="Grupo_2166">
					<g id="Grupo_2165">
						<path id="Trazado_1056" class="st0" d="M-291.62-757.98c-11.37,0.01-21.81-6.23-27.2-16.24l2.66-1.43
							c7.3,13.55,24.2,18.61,37.75,11.31c7.07-3.81,12.16-10.49,13.95-18.32l2.95,0.67C-264.65-767.91-277.18-757.91-291.62-757.98z
							"/>
					</g>
				</g>
				<g id="Grupo_2168">
					<g id="Grupo_2167">
						<path id="Trazado_1057" class="st0" d="M-263.88-801.04h-14.04v-3.02h11.02v-10.74h3.02L-263.88-801.04z"/>
					</g>
				</g>
			</g>
		</g>
		<g id="Grupo_2177">
			<g id="Grupo_2171">
				<path id="Trazado_1058" class="st0" d="M-295.07-789.21c-0.68-2.41-2.89-4.08-5.39-4.08l0,0c-3.1,0-5.61,2.51-5.61,5.61v4.01
					h7.21C-298.65-786.05-297.21-788.15-295.07-789.21z"/>
			</g>
			<g id="Grupo_2172">
				<circle id="Elipse_100" class="st0" cx="-300.46" cy="-797.72" r="2.85"/>
			</g>
			<g id="Grupo_2173">
				<path id="Trazado_1059" class="st0" d="M-283.54-793.29c-2.51,0-4.71,1.67-5.39,4.08c2.14,1.06,3.58,3.16,3.8,5.54h7.21v-4.01
					C-277.92-790.78-280.44-793.29-283.54-793.29z"/>
			</g>
			<g id="Grupo_2174">
				<circle id="Elipse_101" class="st0" cx="-283.54" cy="-797.72" r="2.85"/>
			</g>
			<g id="Grupo_2175">
				<path id="Trazado_1060" class="st0" d="M-289.14-787.86c-2.66-1.58-6.11-0.7-7.69,1.96c-0.4,0.68-0.66,1.44-0.75,2.23
					c-0.02,0.21-0.04,0.42-0.04,0.63v5.61h11.22v-5.61C-286.39-785.02-287.44-786.85-289.14-787.86z"/>
			</g>
			<g id="Grupo_2176">
				<circle id="Elipse_102" class="st0" cx="-292" cy="-793.08" r="2.85"/>
			</g>
		</g>
	</g>
	<rect id="Rectángulo_452" x="-329" y="-826" class="st1" width="74" height="74"/>
</g>
</svg>
