<?xml version="1.0" encoding="utf-8"?>
<!-- Generator: Adobe Illustrator 26.3.1, SVG Export Plug-In . SVG Version: 6.00 Build 0)  -->
<svg version="1.1" id="Capa_1" xmlns="http://www.w3.org/2000/svg" xmlns:xlink="http://www.w3.org/1999/xlink" x="0px" y="0px"
	 viewBox="0 0 74 74" style="enable-background:new 0 0 74 74;" xml:space="preserve">
<style type="text/css">
	.st0{fill:#001F44;}
	.st1{fill:none;}
</style>
<g id="Grupo_2305" transform="translate(812 826)">
	<g id="Grupo_2304">
		<g id="Grupo_2296">
			<g id="Grupo_2291">
				<g id="Grupo_2290">
					<path id="Trazado_1163_00000083798208163484576580000007601011443876814745_" class="st0" d="M-793.93-786.45
						c-1.68,0-3.04-1.37-3.05-3.05v-20.24c0-1.68,1.37-3.04,3.05-3.04h37.86c1.68,0,3.04,1.36,3.05,3.04v18.93h2.72v-18.93
						c0-3.19-2.58-5.77-5.77-5.77h-37.86c-3.19,0-5.77,2.58-5.77,5.77v20.24c0,3.19,2.58,5.77,5.77,5.77V-786.45z"/>
				</g>
			</g>
			<g id="Grupo_2293">
				<g id="Grupo_2292">
					<path id="Trazado_1164" class="st0" d="M-787.37-783.73h-2.72v-6c0-2.05,1.67-3.71,3.72-3.72h10.91l9.19-9.19l1.92,1.92
						l-10.6,10.04l-11.42-0.05c-0.55,0-1,0.45-1,1L-787.37-783.73z"/>
				</g>
			</g>
			<g id="Grupo_2295">
				<g id="Grupo_2294">
					<circle id="Elipse_107" class="st0" cx="-787.45" cy="-802.21" r="5.47"/>
				</g>
			</g>
		</g>
		<g id="Grupo_2303">
			<g id="Grupo_2297">
				<path id="Trazado_1165" class="st0" d="M-772.73-774.18c-0.68-2.39-2.87-4.05-5.35-4.05l0,0c-3.08,0-5.57,2.49-5.57,5.57v3.98
					h7.16C-776.28-771.04-774.86-773.12-772.73-774.18z"/>
			</g>
			<g id="Grupo_2298">
				<circle id="Elipse_108" class="st0" cx="-778.09" cy="-782.62" r="2.83"/>
			</g>
			<g id="Grupo_2299">
				<path id="Trazado_1166" class="st0" d="M-761.28-778.23c-2.49,0-4.67,1.65-5.35,4.05c2.12,1.06,3.55,3.14,3.77,5.5h7.15v-3.98
					C-755.71-775.73-758.21-778.23-761.28-778.23C-761.28-778.23-761.28-778.23-761.28-778.23z"/>
			</g>
			<g id="Grupo_2300">
				<circle id="Elipse_109" class="st0" cx="-761.28" cy="-782.62" r="2.83"/>
			</g>
			<g id="Grupo_2301">
				<path id="Trazado_1167" class="st0" d="M-766.84-772.84c-2.65-1.56-6.07-0.68-7.64,1.97c-0.5,0.85-0.77,1.82-0.77,2.81v5.57
					h11.14v-5.57C-764.12-770.02-765.16-771.84-766.84-772.84z"/>
			</g>
			<g id="Grupo_2302">
				<circle id="Elipse_110" class="st0" cx="-769.68" cy="-778.02" r="2.83"/>
			</g>
		</g>
	</g>
	<rect id="Rectángulo_473" x="-812" y="-826" class="st1" width="74" height="74"/>
</g>
</svg>
