<?xml version="1.0" encoding="utf-8"?>
<!-- Generator: Adobe Illustrator 26.3.1, SVG Export Plug-In . SVG Version: 6.00 Build 0)  -->
<svg version="1.1" id="Capa_1" xmlns="http://www.w3.org/2000/svg" xmlns:xlink="http://www.w3.org/1999/xlink" x="0px" y="0px"
	 viewBox="0 0 74 74" style="enable-background:new 0 0 74 74;" xml:space="preserve">
<style type="text/css">
	.st0{fill:#001F44;}
</style>
<g>
	<path class="st0" d="M21.8,42.83c0.88-0.92,0.86-2.37-0.06-3.26c-0.92-0.88-2.37-0.86-3.26,0.06l-2.31,2.39
		c-0.88,0.92-0.86,2.37,0.06,3.26c0.92,0.88,2.37,0.86,3.26-0.06L21.8,42.83z"/>
	<path class="st0" d="M29.42,40.7c-0.92-0.88-2.38-0.85-3.26,0.07l-6.14,5.54c-0.88,0.92-0.86,2.38,0.06,3.26
		c0.92,0.88,2.38,0.85,3.26-0.07l6.14-5.54C30.36,43.04,30.33,41.58,29.42,40.7z"/>
	<path class="st0" d="M31.84,46.35c-0.9-0.9-2.36-0.9-3.26,0l-4.08,4.08c-0.9,0.9-0.9,2.36,0,3.26c0.9,0.9,2.36,0.9,3.26,0
		l4.08-4.08C32.74,48.7,32.74,47.24,31.84,46.35z"/>
	<path class="st0" d="M31.14,52.28l-2.32,2.41c-0.88,0.92-0.85,2.38,0.06,3.26s2.38,0.85,3.26-0.06l2.32-2.41
		c0.88-0.92,0.85-2.38-0.06-3.26S32.02,51.36,31.14,52.28z"/>
	<path class="st0" d="M54.38,45.09c0.16,0.16,0.24,0.38,0.22,0.61c-0.02,0.32-0.16,0.61-0.38,0.84L54,46.77
		c-0.35,0.45-0.99,0.54-1.45,0.21l-1.66,1.72c0,0,0,0,0,0l0,0c0.15,0.31,0.19,0.66,0.12,1c-0.05,0.53-0.26,1.03-0.59,1.44
		c-0.47,0.39-1.07,0.59-1.67,0.57c-0.22,0.01-0.44-0.06-0.61-0.2l-0.05,0.04c-0.01-0.01-0.02-0.02-0.03-0.03l-0.13,0.16L46.26,53
		c0.1,0.12,0.22,0.21,0.33,0.31l-0.05,0.06c0.13,0.13,0.2,0.31,0.2,0.49c0.01,0.42-0.15,0.82-0.43,1.12
		c-0.24,0.26-0.58,0.43-0.93,0.46c-0.27,0.03-0.53-0.06-0.73-0.24l-1.66,1.72c0,0,0,0,0,0l-0.46,0.48c0.18,0.19,0.28,0.45,0.26,0.71
		c-0.02,0.36-0.17,0.7-0.43,0.95c-0.42,0.52-1.18,0.6-1.7,0.19l-3.74-3.24l-1.57,1.81l3.69,3.2c0.62,0.59,1.44,0.91,2.29,0.9l0,0
		c2.06-0.04,3.73-1.66,3.84-3.71c0.01-0.13-0.01-0.26-0.02-0.4c0.04,0,0.08,0.01,0.12,0.01c0.09,0,0.19,0,0.28-0.01
		c0.94-0.08,1.82-0.5,2.47-1.19c0.67-0.69,1.03-1.61,1.08-2.56c1.13-0.05,2.21-0.49,3.03-1.28c0.69-0.78,1.12-1.76,1.24-2.8
		c0.03-0.16,0.03-0.31,0.04-0.47c0.87-0.09,1.7-0.47,2.3-1.11l0.22-0.23c0.63-0.64,1-1.5,1.05-2.4c0.05-0.91-0.3-1.8-0.95-2.43
		L54.38,45.09z"/>
	<path class="st0" d="M66.25,25.78L53.8,13.32c-1.67-1.66-4.37-1.66-6.04,0l-2.26,2.26c0,0,0,0,0,0c-1.34,1.34-1.58,3.35-0.76,4.96
		l-3.78,4.09h-6.33l-5.02-4.48c0.37-1.42,0.02-2.99-1.09-4.11l-2.26-2.26c-1.67-1.67-4.37-1.67-6.04,0L7.75,26.24
		c-1.67,1.67-1.67,4.37,0,6.04l2.26,2.26c0.8,0.8,1.89,1.26,3.02,1.25c0.47,0,0.92-0.09,1.36-0.24l2.51,2.56l2.1-2.06l-3.18-3.24
		l11.07-11.15l5.45,4.86l-5,4.73c-1,1.14-1,2.84-0.01,3.98c1.16,1.01,2.86,1.12,4.14,0.26l5.71-5.22l10.81,11.43
		c1.2,1.24,3.17,1.28,4.42,0.09c0.02-0.02,0.04-0.04,0.06-0.06l6.7-6.83c0.56,0.26,1.18,0.42,1.81,0.42c1.13,0,2.22-0.45,3.02-1.25
		l2.26-2.26C67.92,30.15,67.92,27.45,66.25,25.78z M9.68,30.35c-0.6-0.6-0.6-1.58,0-2.18l12.46-12.46c0.61-0.58,1.57-0.58,2.18,0
		l2.26,2.26c0.44,0.44,0.55,1.09,0.34,1.64L13.83,32.8c-0.6,0.35-1.36,0.31-1.88-0.19L9.68,30.35z M64.32,29.89l-2.26,2.26
		c-0.6,0.6-1.58,0.6-2.18,0l-0.02,0.02L47.27,19.46c-0.41-0.6-0.38-1.41,0.15-1.95l2.26-2.26c0.6-0.6,1.58-0.6,2.18,0l12.46,12.46
		C64.92,28.31,64.92,29.29,64.32,29.89z"/>
</g>
</svg>
