<?xml version="1.0" encoding="utf-8"?>
<!-- Generator: Adobe Illustrator 26.0.1, SVG Export Plug-In . SVG Version: 6.00 Build 0)  -->
<svg version="1.1" id="Capa_1" xmlns="http://www.w3.org/2000/svg" xmlns:xlink="http://www.w3.org/1999/xlink" x="0px" y="0px"
	 viewBox="0 0 74 74" style="enable-background:new 0 0 74 74;" xml:space="preserve">
<style type="text/css">
	.st0{fill:none;stroke:#092755;stroke-width:3;stroke-miterlimit:10;}
	.st1{fill:none;stroke:#092755;stroke-width:4.527;stroke-miterlimit:10;}
	.st2{fill:#092755;}
</style>
<g>
	<circle class="st0" cx="11.4" cy="23.1" r="6.5"/>
	<circle class="st0" cx="23.4" cy="12.9" r="4.3"/>
	<circle class="st0" cx="11.2" cy="38.4" r="4.3"/>
	<line class="st1" x1="20.4" y1="15.9" x2="16.5" y2="19.1"/>
	<line class="st1" x1="11.4" y1="29.6" x2="11.4" y2="34.1"/>
</g>
<g>
	<g>
		<g>
			<path class="st2" d="M63.8,43.8l-2.6-0.3c0.1-0.5,0.1-1,0.1-1.5c0-6.6-5.4-12.1-12.1-12.1c-0.4,0-0.9,0-1.3,0.1l-0.3-2.6
				c0.5-0.1,1.1-0.1,1.6-0.1c8.1,0,14.7,6.6,14.7,14.7C64,42.6,63.9,43.2,63.8,43.8z"/>
		</g>
	</g>
	<g>
		<g>
			<path class="st2" d="M65.8,65.4H23.7c-1.8,0-3.3-1.5-3.3-3.3v-4.2c0-1.8,1.5-3.3,3.3-3.3h14.8v-1.1c0-8,6.6-14.6,14.7-14.6
				c3.8,0,7.4,1.4,10.2,4.1c2.9,2.8,4.5,6.5,4.5,10.5v1.8c0.7,0.6,1.2,1.5,1.2,2.5v4.2C69.1,64,67.6,65.4,65.8,65.4z M23.7,57.3
				c-0.4,0-0.7,0.3-0.7,0.7v4.2c0,0.4,0.3,0.7,0.7,0.7h42.1c0.4,0,0.7-0.3,0.7-0.7v-4.2c0-0.3-0.2-0.5-0.4-0.6L65.3,57v-3.4
				c0-3.3-1.3-6.3-3.7-8.6c-2.3-2.2-5.2-3.3-8.4-3.3c-6.7,0-12.1,5.4-12.1,12v3.7H23.7z"/>
		</g>
	</g>
	<g>
		<g>
			<path class="st2" d="M34.1,45.5c-0.6,0-1.2-0.2-1.7-0.7L24.6,37c-0.4-0.4-0.7-1-0.7-1.7c0-0.6,0.2-1.2,0.7-1.7l3.5-3.5
				c0.6-0.6,1.5-0.8,2.3-0.6l16-16c0.7-0.7,1.6-1.1,2.6-1.1c1,0,1.9,0.4,2.6,1.1l4.1,4.1l0,0c0.7,0.7,1.1,1.6,1.1,2.6
				s-0.4,1.9-1.1,2.6L39.8,38.8c0.3,0.8,0.2,1.9-0.5,2.5l-3.5,3.5C35.3,45.3,34.7,45.5,34.1,45.5z M26.4,35.4l7.6,7.6l3.3-3.3
				l-0.1-0.1c-0.5-0.5-0.5-1.3,0-1.8l16.6-16.6c0.5-0.5,0.5-1.2,0-1.7l-4.1-4.1c-0.4-0.4-1.2-0.4-1.7,0L31.5,32
				c-0.2,0.2-0.6,0.4-0.9,0.4c0,0,0,0,0,0c-0.3,0-0.6-0.1-0.8-0.3L26.4,35.4z"/>
		</g>
	</g>
	<g>
		<g>
			
				<rect x="33.3" y="29.5" transform="matrix(0.7076 -0.7066 0.7066 0.7076 -15.1819 34.3497)" class="st2" width="1.1" height="12.1"/>
		</g>
	</g>
	<g>
		<g>
			<rect x="39.6" y="56.2" class="st2" width="27.3" height="1.1"/>
		</g>
	</g>
</g>
</svg>
