<?xml version="1.0" encoding="utf-8"?>
<!-- Generator: Adobe Illustrator 26.3.1, SVG Export Plug-In . SVG Version: 6.00 Build 0)  -->
<svg version="1.1" id="Capa_1" xmlns="http://www.w3.org/2000/svg" xmlns:xlink="http://www.w3.org/1999/xlink" x="0px" y="0px"
	 viewBox="0 0 74 74" style="enable-background:new 0 0 74 74;" xml:space="preserve">
<style type="text/css">
	.st0{fill:#0A2755;}
	.st1{fill:none;}
</style>
<g id="Grupo_692" transform="translate(1384 751)">
	<g id="Grupo_691">
		<g id="Grupo_685">
			<g id="Grupo_684">
				<g id="Grupo_683">
					<path id="Trazado_535" class="st0" d="M-1331.15-722.86c1.36-2.11,0.75-4.93-1.37-6.28c-0.12-0.08-0.25-0.15-0.37-0.22
						c-0.49-0.26-0.79-0.77-0.77-1.33c0.12-2.51-1.82-4.64-4.33-4.76c-0.14-0.01-0.28-0.01-0.42,0c-0.55,0.03-1.07-0.27-1.33-0.77
						c-1.15-2.23-3.9-3.11-6.13-1.95c-0.13,0.06-0.25,0.14-0.37,0.21c-0.47,0.3-1.07,0.3-1.54,0c-2.11-1.36-4.93-0.75-6.28,1.37
						c-0.08,0.12-0.15,0.25-0.22,0.37c-0.26,0.49-0.77,0.79-1.33,0.77c-2.51-0.12-4.64,1.82-4.76,4.33c-0.01,0.14-0.01,0.28,0,0.42
						c0.03,0.55-0.27,1.07-0.77,1.33c-1.14,0.59-1.97,1.63-2.31,2.86c-0.22,0.63-0.2,1.33,0.08,1.95c0.22,0.48,0.38,0.98,0.47,1.5
						c0.13,0.57,0.1,1.16-0.09,1.71c-0.35,0.83-0.54,1.72-0.56,2.62c-0.06,0.6,0.1,1.2,0.45,1.69c0.28,0.3,0.6,0.57,0.94,0.81
						c0.49,0.42,0.9,0.92,1.23,1.47c0.33,0.48,0.53,1.05,0.56,1.63c0.03,0.47,0.11,0.93,0.26,1.37c0.11,0.32,0.27,0.63,0.45,0.91
						c0.09,0.14,0.61,0.63,0.61,0.76c0.91,0.9,2.15,1.39,3.43,1.33c0.55-0.02,1.07,0.27,1.33,0.77c0.19,0.36,0.42,0.69,0.7,0.99
						v16.09c0,0.86,0.69,1.57,1.56,1.57c0.42,0,0.82-0.16,1.11-0.46l3.9-3.88l3.9,3.88c0.61,0.61,1.6,0.6,2.21-0.01
						c0.29-0.29,0.45-0.69,0.45-1.1v-16.09c0.28-0.3,0.51-0.63,0.7-0.99c0.26-0.49,0.77-0.79,1.33-0.77
						c2.51,0.11,4.64-1.83,4.75-4.34c0.01-0.14,0.01-0.28,0-0.42c-0.02-0.55,0.27-1.07,0.77-1.33c2.23-1.15,3.11-3.9,1.96-6.13
						c-0.07-0.13-0.14-0.25-0.21-0.37C-1331.45-721.8-1331.45-722.39-1331.15-722.86z M-1343.56-694.66l-2.34-2.32
						c-0.61-0.6-1.59-0.6-2.2,0l-2.34,2.33v-10.87c0.94,0.04,1.88-0.2,2.67-0.71c0.47-0.3,1.07-0.3,1.54,0
						c0.73,0.47,1.59,0.72,2.46,0.72c0.07,0,0.14,0,0.21-0.01L-1343.56-694.66z M-1333.61-718.5c-0.1,0.39-0.36,0.71-0.72,0.9
						c-1.58,0.82-2.53,2.48-2.45,4.25c0.04,0.78-0.57,1.45-1.35,1.49c-0.04,0-0.09,0-0.13,0c-1.77-0.08-3.43,0.88-4.25,2.46
						c-0.36,0.7-1.22,0.97-1.92,0.61c-0.04-0.02-0.08-0.04-0.11-0.07c-1.5-0.96-3.41-0.96-4.91,0c-0.66,0.42-1.54,0.23-1.96-0.43
						c-0.02-0.04-0.05-0.07-0.07-0.11c-0.82-1.58-2.48-2.54-4.25-2.46c-0.78,0.04-1.45-0.57-1.49-1.35c0-0.04,0-0.09,0-0.13
						c0.05-1.23-0.39-2.43-1.24-3.33c-0.03-0.03-0.05-0.05-0.08-0.08c-0.33-0.34-0.72-0.62-1.14-0.84c-0.7-0.36-0.97-1.22-0.61-1.92
						c0.02-0.04,0.04-0.08,0.07-0.11c0.96-1.5,0.96-3.41,0-4.91c-0.42-0.66-0.23-1.54,0.43-1.96c0.04-0.02,0.07-0.05,0.11-0.07
						c1.58-0.82,2.53-2.48,2.45-4.25c-0.04-0.78,0.57-1.45,1.35-1.49c0.04,0,0.09,0,0.13,0c1.77,0.08,3.43-0.88,4.25-2.46
						c0.36-0.7,1.22-0.97,1.91-0.61c0.04,0.02,0.08,0.04,0.12,0.07c1.5,0.96,3.41,0.96,4.91,0c0.66-0.42,1.54-0.23,1.96,0.43
						c0.02,0.04,0.05,0.08,0.07,0.12c0.82,1.58,2.48,2.53,4.25,2.46c0.78-0.04,1.45,0.57,1.49,1.35c0,0.04,0,0.09,0,0.13
						c-0.08,1.77,0.88,3.43,2.45,4.25c0.7,0.36,0.97,1.22,0.61,1.92c-0.02,0.04-0.04,0.08-0.07,0.11c-0.96,1.5-0.96,3.41,0,4.91
						C-1333.56-719.3-1333.5-718.89-1333.61-718.5z"/>
				</g>
			</g>
		</g>
		<g id="Grupo_690">
			<g id="Grupo_687">
				<g id="Grupo_686">
					<rect id="Rectángulo_160" x="-1347.7" y="-729.83" class="st0" width="1.39" height="14.08"/>
				</g>
			</g>
			<g id="Grupo_689">
				<g id="Grupo_688">
					<path id="Trazado_536" class="st0" d="M-1352.87-719.82l0.98-0.98l4.89,4.9l4.9-4.9l0.98,0.98l-5.88,5.88L-1352.87-719.82z"/>
				</g>
			</g>
		</g>
	</g>
	<rect id="Rectángulo_161" x="-1384" y="-751" class="st1" width="74" height="74"/>
</g>
</svg>
