<?xml version="1.0" standalone="no"?>
<!DOCTYPE svg PUBLIC "-//W3C//DTD SVG 20010904//EN"
 "http://www.w3.org/TR/2001/REC-SVG-20010904/DTD/svg10.dtd">
<svg version="1.0" xmlns="http://www.w3.org/2000/svg"
 width="74.000000pt" height="74.000000pt" viewBox="0 0 74.000000 74.000000"
 preserveAspectRatio="xMidYMid meet">

<g transform="translate(0.000000,74.000000) scale(0.100000,-0.100000)"
fill="#000000" stroke="none">
<path d="M150 620 c-19 -19 -20 -33 -20 -275 0 -315 -9 -297 142 -293 70 2
103 7 106 16 3 9 -21 12 -95 12 -64 0 -103 4 -111 12 -19 19 -17 491 2 507 9
8 74 11 212 9 l199 -3 3 -142 c2 -118 5 -143 17 -143 13 0 15 24 15 143 0 127
-2 146 -18 160 -16 15 -47 17 -225 17 -194 0 -208 -1 -227 -20z"/>
<path d="M260 470 c-7 -13 -16 -17 -28 -13 -15 6 -15 5 -3 -11 14 -17 16 -16
33 6 17 22 23 38 13 38 -2 0 -9 -9 -15 -20z"/>
<path d="M363 483 c26 -2 68 -2 95 0 26 2 4 3 -48 3 -52 0 -74 -1 -47 -3z"/>
<path d="M260 375 c-7 -9 -19 -14 -27 -11 -11 4 -11 1 -3 -15 11 -20 12 -20
32 6 22 28 20 46 -2 20z"/>
<path d="M373 363 c26 -2 67 -2 90 0 23 2 2 3 -48 3 -49 0 -68 -1 -42 -3z"/>
<path d="M490 294 c0 -12 -7 -14 -28 -9 -36 7 -57 -14 -48 -50 5 -18 2 -25 -9
-25 -8 0 -15 -4 -15 -9 0 -5 9 -7 21 -4 17 5 20 11 15 34 -6 31 14 55 31 38
13 -13 43 -1 43 17 0 8 9 14 20 14 11 0 20 -6 20 -14 0 -17 27 -29 36 -15 11
19 34 -12 28 -38 -5 -19 -2 -25 15 -30 27 -7 27 -39 0 -46 -17 -5 -20 -11 -15
-30 6 -26 -17 -57 -28 -38 -9 14 -36 2 -36 -15 0 -8 -9 -14 -20 -14 -11 0 -20
6 -20 14 0 18 -29 29 -45 16 -18 -15 -35 9 -28 41 5 26 3 29 -18 28 -18 -1
-20 -2 -6 -6 14 -4 17 -11 12 -32 -7 -35 13 -54 49 -45 20 5 26 2 26 -10 0
-11 9 -16 30 -16 21 0 30 5 30 16 0 11 6 14 21 9 30 -10 62 21 48 47 -9 16 -7
20 10 25 30 8 29 59 -1 66 -18 5 -19 8 -8 22 19 23 -14 57 -46 49 -18 -5 -24
-2 -24 10 0 11 -9 16 -30 16 -21 0 -30 -5 -30 -16z"/>
<path d="M262 270 c-8 -13 -18 -17 -29 -13 -16 6 -16 5 -4 -10 17 -22 16 -22
41 13 12 17 18 30 13 30 -4 0 -14 -9 -21 -20z"/>
<path d="M333 233 c9 -2 25 -2 35 0 9 3 1 5 -18 5 -19 0 -27 -2 -17 -5z"/>
<path d="M507 210 c-3 -12 -14 -20 -26 -20 -12 0 -21 -4 -21 -10 0 -5 9 -10
21 -10 12 0 23 -8 26 -20 7 -26 23 -26 23 0 0 13 7 20 20 20 11 0 20 5 20 10
0 6 -9 10 -20 10 -13 0 -20 7 -20 20 0 11 -4 20 -9 20 -5 0 -11 -9 -14 -20z"/>
</g>
</svg>
