<?xml version="1.0" encoding="utf-8"?>
<!-- Generator: Adobe Illustrator 26.3.1, SVG Export Plug-In . SVG Version: 6.00 Build 0)  -->
<svg version="1.1" id="Capa_1" xmlns="http://www.w3.org/2000/svg" xmlns:xlink="http://www.w3.org/1999/xlink" x="0px" y="0px"
	 viewBox="0 0 29 29" style="enable-background:new 0 0 29 29;" xml:space="preserve">
<style type="text/css">
	.st0{fill:#092755;}
	.st1{fill:none;}
</style>
<g id="Grupo_1396" transform="translate(-0.356 -0.485)">
	<g id="Grupo_1395" transform="translate(2.517 2.516)">
		<g id="Grupo_1392" transform="translate(7.551 7.551)">
			<g id="Grupo_1391">
				<path id="Trazado_773" class="st0" d="M9.69,3.97H6.15V0.43C6.15,0.19,5.96,0,5.72,0l0,0H4.4C4.16,0,3.97,0.19,3.97,0.43l0,0
					v3.54H0.43C0.19,3.97,0,4.16,0,4.4l0,0v1.32c0,0.24,0.19,0.43,0.43,0.43l0,0h3.54v3.54c0,0.24,0.19,0.43,0.43,0.43l0,0h1.32
					c0.24,0,0.43-0.19,0.43-0.43l0,0V6.15h3.54c0.24,0,0.43-0.19,0.43-0.43l0,0V4.4C10.11,4.16,9.92,3.97,9.69,3.97z"/>
			</g>
		</g>
		<g id="Grupo_1394">
			<g id="Grupo_1393">
				<path id="Trazado_774" class="st0" d="M14.32,25.26h-3.39c-0.78,0-1.42-0.64-1.42-1.42v-1.56C9,22.11,8.49,21.9,8.01,21.65
					L6.9,22.76c-0.55,0.55-1.45,0.55-2,0l-2.4-2.39c-0.55-0.55-0.55-1.45,0-2l1.11-1.11c-0.25-0.49-0.46-0.99-0.63-1.51H1.42
					C0.63,15.74,0,15.11,0,14.32c0,0,0,0,0,0v-3.39c0-0.78,0.64-1.41,1.42-1.42h1.56C3.15,9,3.36,8.5,3.61,8.01L2.5,6.9
					c-0.55-0.55-0.55-1.45,0-2L4.89,2.5c0.55-0.55,1.45-0.55,2,0L8,3.61c0.49-0.25,0.99-0.46,1.51-0.63V1.42
					C9.51,0.64,10.15,0,10.93,0h3.39c0.78,0,1.42,0.64,1.42,1.42v1.56c0.52,0.17,1.02,0.38,1.51,0.63l1.11-1.11
					c0.55-0.55,1.45-0.55,2,0l2.39,2.39c0.55,0.55,0.55,1.45,0,2l-1.11,1.11C21.89,8.5,22.1,9,22.28,9.52h1.56
					c0.78,0,1.42,0.64,1.42,1.42v3.38c0,0.78-0.64,1.42-1.42,1.42h-1.56c-0.17,0.52-0.38,1.02-0.63,1.51l1.11,1.11
					c0.55,0.55,0.55,1.45,0,2l-2.39,2.39c-0.55,0.55-1.45,0.55-2,0l-1.11-1.11c-0.49,0.25-0.99,0.46-1.51,0.63v1.56
					c0,0.78-0.63,1.42-1.41,1.42C14.33,25.26,14.32,25.26,14.32,25.26z M7.79,20.12l0.41,0.24c0.66,0.38,1.36,0.67,2.09,0.87
					l0.46,0.12v2.5c0,0.1,0.08,0.18,0.18,0.18h3.39c0.1,0,0.18-0.08,0.18-0.18v-2.5l0.46-0.12c0.73-0.2,1.43-0.49,2.09-0.87
					l0.41-0.24l1.77,1.77c0.07,0.07,0.19,0.07,0.26,0c0,0,0,0,0,0l2.39-2.39c0.07-0.07,0.07-0.19,0-0.26l-1.77-1.77l0.24-0.41
					c0.38-0.66,0.67-1.36,0.87-2.09l0.12-0.46h2.5c0.1,0,0.18-0.08,0.18-0.18v-3.39c0-0.1-0.08-0.18-0.18-0.18h-2.5l-0.12-0.46
					c-0.2-0.73-0.49-1.43-0.87-2.09l-0.24-0.41l1.77-1.77c0.07-0.07,0.07-0.19,0-0.26l-2.39-2.39c-0.07-0.07-0.19-0.07-0.26,0
					c0,0,0,0,0,0l-1.77,1.77l-0.41-0.24c-0.66-0.38-1.36-0.67-2.09-0.87l-0.46-0.12v-2.5c0-0.1-0.08-0.18-0.18-0.18h-3.39
					c-0.1,0-0.18,0.08-0.18,0.18v2.5l-0.46,0.12C9.56,4.24,8.86,4.53,8.2,4.91L7.79,5.14L6.03,3.37c-0.07-0.07-0.19-0.07-0.26,0
					c0,0,0,0,0,0l-2.39,2.4c-0.07,0.07-0.07,0.19,0,0.26L5.14,7.8L4.91,8.21C4.53,8.86,4.24,9.57,4.04,10.3l-0.12,0.46h-2.5
					c-0.1,0-0.18,0.08-0.18,0.18v3.38c0,0.1,0.08,0.18,0.18,0.18h2.5l0.12,0.46c0.2,0.73,0.49,1.43,0.87,2.09l0.24,0.41l-1.77,1.77
					c-0.07,0.07-0.07,0.19,0,0.26l2.39,2.39c0.07,0.07,0.19,0.07,0.26,0c0,0,0,0,0,0L7.79,20.12z"/>
			</g>
		</g>
	</g>
	<rect id="Rectángulo_288" x="0.36" y="0.49" class="st1" width="29" height="29"/>
</g>
</svg>
