<?xml version="1.0" encoding="utf-8"?>
<!-- Generator: Adobe Illustrator 26.3.1, SVG Export Plug-In . SVG Version: 6.00 Build 0)  -->
<svg version="1.1" id="Capa_1" xmlns="http://www.w3.org/2000/svg" xmlns:xlink="http://www.w3.org/1999/xlink" x="0px" y="0px"
	 viewBox="0 0 29 29" style="enable-background:new 0 0 29 29;" xml:space="preserve">
<style type="text/css">
	.st0{fill:#092755;}
</style>
<g id="Grupo_1454" transform="translate(-0.408 0.066)">
	<g id="Grupo_1453" transform="translate(2.24 2.226)">
		<g id="Grupo_1443" transform="translate(10.489 9.839)">
			<g id="Grupo_1440" transform="translate(8.442)">
				<g id="Grupo_1439">
					<path id="Trazado_792" class="st0" d="M3.21,5.7c-1.3,0-2.46-0.83-2.88-2.06l0,0C0.08,2.89,0.14,2.07,0.5,1.37
						c0.36-0.72,1-1.26,1.76-1.5c1.58-0.51,3.28,0.34,3.81,1.91c0.25,0.75,0.19,1.57-0.17,2.27c-0.36,0.72-1,1.26-1.76,1.5
						C3.84,5.65,3.52,5.7,3.21,5.7z M1.51,3.25c0.32,0.93,1.33,1.43,2.26,1.12c0.45-0.14,0.83-0.46,1.04-0.89
						c0.21-0.41,0.25-0.89,0.1-1.33C4.59,1.23,3.58,0.73,2.65,1.04C2.2,1.18,1.82,1.5,1.61,1.93C1.4,2.34,1.36,2.81,1.51,3.25
						L1.51,3.25z"/>
				</g>
			</g>
			<g id="Grupo_1442" transform="translate(0 0.577)">
				<g id="Grupo_1441" transform="translate(0 0)">
					
						<rect id="Rectángulo_298" x="4.97" y="-3.26" transform="matrix(0.3627 -0.9319 0.9319 0.3627 1.4093 6.6785)" class="st0" width="1.24" height="11.13"/>
				</g>
			</g>
		</g>
		<g id="Grupo_1448" transform="translate(0 1.633)">
			<g id="Grupo_1445" transform="translate(9.63 17.369)">
				<g id="Grupo_1444">
					<path id="Trazado_793" class="st0" d="M3.2,5.7c-0.33,0-0.65-0.05-0.97-0.16c-0.76-0.25-1.39-0.8-1.75-1.52
						C0.13,3.31,0.08,2.49,0.34,1.74c0.55-1.57,2.26-2.4,3.83-1.87c0.76,0.25,1.39,0.8,1.75,1.52c0.35,0.71,0.4,1.53,0.14,2.28
						C5.64,4.89,4.49,5.7,3.2,5.7z M3.2,0.95C2.44,0.95,1.75,1.43,1.5,2.15C1.35,2.58,1.38,3.06,1.58,3.47
						c0.21,0.43,0.58,0.75,1.03,0.9c0.93,0.31,1.94-0.17,2.27-1.1C5.04,2.84,5.01,2.36,4.8,1.95C4.6,1.52,4.22,1.19,3.77,1.05
						C3.59,0.99,3.4,0.95,3.2,0.95L3.2,0.95z"/>
				</g>
			</g>
			<g id="Grupo_1447">
				<g id="Grupo_1446">
					<path id="Trazado_794" class="st0" d="M14.57,19.63L10.38,9.46L0.97,1.98L0.18,0.22L1.3-0.28l0.67,1.49l5.97,4.65l3.46,2.84
						l4.31,10.47L14.57,19.63z"/>
				</g>
			</g>
		</g>
		<g id="Grupo_1450" transform="translate(1.691)">
			<g id="Grupo_1449">
				<path id="Trazado_795" class="st0" d="M8.75,10.96l-6.97-9.5l-1.6-0.58L0.6-0.29l1.95,0.71l7.21,9.91L8.75,10.96z"/>
			</g>
		</g>
		<g id="Grupo_1452" transform="translate(12.873 13.159)">
			<g id="Grupo_1451" transform="translate(0 0)">
				
					<rect id="Rectángulo_299" x="-0.42" y="1.52" transform="matrix(0.701 -0.7132 0.7132 0.701 -0.6141 2.1251)" class="st0" width="5.29" height="0.55"/>
			</g>
		</g>
	</g>
</g>
</svg>
