<?xml version="1.0" encoding="utf-8"?>
<!-- Generator: Adobe Illustrator 26.3.1, SVG Export Plug-In . SVG Version: 6.00 Build 0)  -->
<svg version="1.1" id="Capa_1" xmlns="http://www.w3.org/2000/svg" xmlns:xlink="http://www.w3.org/1999/xlink" x="0px" y="0px"
	 viewBox="0 0 29 29" style="enable-background:new 0 0 29 29;" xml:space="preserve">
<style type="text/css">
	.st0{fill:#092755;}
</style>
<g id="Grupo_1436" transform="translate(0.246 -0.538)">
	<g id="Grupo_1435" transform="translate(2.67 2.143)">
		<g id="Grupo_1432" transform="translate(6.696 6.999)">
			<g id="Grupo_1431">
				<path id="Trazado_787" class="st0" d="M9.16,5.48H5.89V2.21c0-0.22-0.18-0.39-0.39-0.39H4.28c-0.22,0-0.39,0.18-0.39,0.39v3.27
					H0.62c-0.22,0-0.39,0.18-0.39,0.39v1.22c0,0.22,0.18,0.39,0.39,0.39h3.27v3.27c0,0.22,0.18,0.39,0.39,0.39H5.5
					c0.22,0,0.39-0.18,0.39-0.39V7.48h3.27c0.22,0,0.39-0.18,0.39-0.39V5.87C9.55,5.65,9.38,5.48,9.16,5.48
					C9.16,5.48,9.16,5.48,9.16,5.48z"/>
			</g>
		</g>
		<g id="Grupo_1434">
			<g id="Grupo_1433">
				<path id="Trazado_788" class="st0" d="M15.33,23.98H7.91c-2.07,0.05-3.9-1.33-4.43-3.33L0.32,6.85
					c-0.26-1.17,0.03-2.4,0.79-3.34C2,2.42,3.34,1.79,4.75,1.81h13.68c1.4-0.02,2.74,0.6,3.63,1.69c0.76,0.93,1.05,2.15,0.8,3.32
					l-3.09,13.8C19.25,22.64,17.41,24.03,15.33,23.98z M4.75,2.97C3.69,2.95,2.68,3.41,2.01,4.23C1.46,4.89,1.26,5.76,1.44,6.59
					l3.17,13.8c0.41,1.47,1.77,2.48,3.3,2.43h7.42c1.54,0.05,2.9-0.96,3.31-2.44l3.09-13.8c0.18-0.83-0.03-1.7-0.57-2.35
					c-0.67-0.81-1.68-1.27-2.73-1.26L4.75,2.97z"/>
			</g>
		</g>
	</g>
</g>
</svg>
