<?xml version="1.0" encoding="utf-8"?>
<!-- Generator: Adobe Illustrator 26.3.1, SVG Export Plug-In . SVG Version: 6.00 Build 0)  -->
<svg version="1.1" id="Capa_1" xmlns="http://www.w3.org/2000/svg" xmlns:xlink="http://www.w3.org/1999/xlink" x="0px" y="0px"
	 viewBox="0 0 29 29" style="enable-background:new 0 0 29 29;" xml:space="preserve">
<style type="text/css">
	.st0{fill:#092755;}
</style>
<path class="st0" d="M24.06,22.23l-7.45-7.41c0.48-0.56,0.88-1.2,1.16-1.89c0.33-0.82,0.5-1.7,0.5-2.59c0-0.89-0.17-1.77-0.5-2.59
	c-0.35-0.85-0.86-1.63-1.51-2.28l-2.03-2.03c0,0,0,0,0,0s0,0,0,0l-0.04-0.04c-0.06-0.06-0.12-0.09-0.19-0.12
	c-0.44-0.26-1.01-0.22-1.39,0.15c-0.45,0.45-0.45,1.17,0,1.62c0.45,0.45,1.17,0.45,1.62,0c0,0,0-0.01,0.01-0.01l1.59,1.59
	c1.98,1.98,1.62,5.77-0.37,7.76l-0.04,0.04c-1.99,1.98-5.73,2.31-7.72,0.33l-1.4-1.4c0,0,0.01,0,0.01-0.01
	c0.45-0.45,0.45-1.17,0-1.62s-1.17-0.45-1.62,0c-0.27,0.27-0.36,0.64-0.3,0.99c-0.02,0.18,0.04,0.37,0.18,0.51l0.12,0.12
	c0,0,0,0,0,0s0,0,0,0l1.84,1.84c0.65,0.65,1.42,1.17,2.28,1.51c0.82,0.33,1.7,0.5,2.59,0.5c0.89,0,1.77-0.17,2.59-0.5
	c0.67-0.27,1.28-0.64,1.83-1.11l7.45,7.41c0.26,0.28,0.32,0.69,0.16,1.04c-0.13,0.37-0.46,0.63-0.84,0.67H12.7
	c-0.6,0-1.08-0.49-1.08-1.08v-0.15c0.95-0.27,1.66-1.14,1.66-2.18c0-1.25-1.01-2.27-2.27-2.27c0,0,0,0,0,0
	c-1.25,0-2.27,1.01-2.27,2.27c0,0,0,0,0,0c0,1.07,0.75,1.97,1.75,2.2v0.12c0,1.23,0.99,2.22,2.22,2.22h9.87
	c0.85-0.03,1.59-0.57,1.89-1.37C24.81,23.74,24.65,22.83,24.06,22.23z M9.86,21.33c0-0.63,0.51-1.14,1.15-1.15l0,0
	c0.63,0,1.14,0.51,1.15,1.15c0,0.63-0.51,1.14-1.15,1.15C10.37,22.48,9.86,21.96,9.86,21.33z"/>
</svg>
