<?xml version="1.0" encoding="utf-8"?>
<!-- Generator: Adobe Illustrator 26.3.1, SVG Export Plug-In . SVG Version: 6.00 Build 0)  -->
<svg version="1.1" id="Capa_1" xmlns="http://www.w3.org/2000/svg" xmlns:xlink="http://www.w3.org/1999/xlink" x="0px" y="0px"
	 viewBox="0 0 29 29" style="enable-background:new 0 0 29 29;" xml:space="preserve">
<style type="text/css">
	.st0{fill:#092755;}
</style>
<path class="st0" d="M27.07,23.44v-1c0.01-2.03-0.79-3.98-2.19-5.44c0.03-0.3,0.06-0.59,0.06-0.89c0-4.06-3.04-7.39-6.96-7.89
	l2.45-2.46c0.37-0.37,0.58-0.87,0.58-1.4c0-0.53-0.21-1.03-0.58-1.4l-2.24-2.24c-0.37-0.37-0.87-0.58-1.4-0.58
	c-0.53,0-1.03,0.21-1.4,0.58L6.72,9.39C6.27,9.27,5.8,9.4,5.47,9.72l-1.91,1.91c-0.24,0.24-0.38,0.57-0.38,0.91
	c0,0.34,0.13,0.67,0.38,0.91l4.24,4.24c0.24,0.24,0.57,0.38,0.91,0.38c0.34,0,0.66-0.14,0.9-0.38l1.91-1.91
	c0.36-0.36,0.47-0.9,0.28-1.38l4.79-4.8c0.12-0.01,0.24-0.02,0.37-0.02c3.52,0,6.38,2.79,6.53,6.27c-1.3-0.85-2.82-1.32-4.4-1.32
	c-4.39-0.01-7.95,3.53-7.98,7.91v0.58H3.08c-0.98,0-1.78,0.8-1.78,1.78v2.28c0,0.98,0.8,1.78,1.78,1.78h22.85
	c0.98,0,1.77-0.79,1.78-1.77V24.8C27.7,24.28,27.47,23.78,27.07,23.44z M8.71,16.68l-4.14-4.14l1.77-1.77l4.14,4.15L8.71,16.68z
	 M16.1,8.2l-5.65,5.65c-0.03,0.03-0.05,0.07-0.07,0.11l-3.17-3.18c0.03-0.02,0.07-0.04,0.1-0.07l9.03-9.03
	c0.25-0.24,0.65-0.24,0.9,0l2.24,2.24c0,0,0,0,0,0c0.25,0.25,0.25,0.65,0,0.9L16.1,8.2z M12.54,22.44c0.02-3.6,2.95-6.51,6.55-6.5
	c1.69,0,3.32,0.65,4.54,1.83c1.29,1.21,2.01,2.91,2.01,4.67v1.38h-13.1V22.44z M26.28,27.08c0,0.2-0.16,0.35-0.35,0.35H3.08
	c-0.2,0-0.35-0.16-0.35-0.35V24.8c0-0.2,0.16-0.35,0.35-0.35h9.47v0h13.45l0.08,0.03c0.13,0.06,0.21,0.18,0.21,0.32V27.08z"/>
</svg>
