<?xml version="1.0" encoding="utf-8"?>
<!-- Generator: Adobe Illustrator 26.3.1, SVG Export Plug-In . SVG Version: 6.00 Build 0)  -->
<svg version="1.1" id="Capa_1" xmlns="http://www.w3.org/2000/svg" xmlns:xlink="http://www.w3.org/1999/xlink" x="0px" y="0px"
	 viewBox="0 0 29 29" style="enable-background:new 0 0 29 29;" xml:space="preserve">
<style type="text/css">
	.st0{fill:#092755;}
</style>
<path class="st0" d="M25.09,3.78c-1.44,0-2.6,1.16-2.6,2.6v2.19c0,3.04-2.47,5.51-5.51,5.51h-1.82V2.46h2.31V1.14h-5.95v1.33h2.31
	v11.61h-1.82c-3.04,0-5.51-2.47-5.51-5.51V6.38c0-1.44-1.16-2.6-2.6-2.6H2.45V5.1H3.9c0.7,0,1.28,0.57,1.28,1.27v2.19
	c0,3.77,3.06,6.83,6.84,6.84h1.82v11.13H9.15v1.33h10.71v-1.33h-4.69V15.4h1.82c3.77,0,6.83-3.06,6.84-6.84V6.38
	c0-0.7,0.57-1.27,1.27-1.27h1.45V3.78H25.09z"/>
</svg>
