<?xml version="1.0" encoding="utf-8"?>
<!-- Generator: Adobe Illustrator 26.3.1, SVG Export Plug-In . SVG Version: 6.00 Build 0)  -->
<svg version="1.1" id="Capa_1" xmlns="http://www.w3.org/2000/svg" xmlns:xlink="http://www.w3.org/1999/xlink" x="0px" y="0px"
	 viewBox="0 0 74 74" style="enable-background:new 0 0 74 74;" xml:space="preserve">
<style type="text/css">
	.st0{fill:#0A2755;}
	.st1{fill:none;}
</style>
<g id="Grupo_345" transform="translate(355 748)">
	<g id="Grupo_344">
		<g id="Grupo_341">
			<path id="Trazado_419" class="st0" d="M-318.1-733.1c4.67-0.03,8.48,3.73,8.51,8.4c0.03,4.67-3.73,8.48-8.4,8.51
				c-4.67,0.03-8.48-3.73-8.51-8.4C-326.53-729.26-322.77-733.06-318.1-733.1 M-317.98-736c-6.21-0.03-11.27,4.98-11.29,11.19
				c-0.03,6.21,4.98,11.26,11.19,11.29c6.21,0.03,11.27-4.98,11.29-11.19c0,0,0,0,0,0C-306.77-730.91-311.78-735.96-317.98-736
				L-317.98-736z"/>
		</g>
		<g id="Grupo_342">
			<path id="Trazado_420" class="st0" d="M-293.37-713.75v3.82c-1.87,0.62-3.08,2.43-2.95,4.4v3.11c-0.11,1.86,1.14,3.53,2.95,3.94
				v4.21c-7.19,0.11-14.25,1.9-20.63,5.21v-19.05c6.13-3.64,13.12-5.59,20.25-5.64 M-293.75-716.7h-0.09
				c-7.54,0.06-14.93,2.17-21.37,6.1c-1.05,0.61-1.69,1.74-1.69,2.95v18.23c0,1.89,1.53,3.42,3.42,3.42c0.55,0,1.1-0.13,1.59-0.39
				c5.6-3.07,11.86-4.73,18.24-4.83c1.78-0.01,3.22-1.45,3.21-3.23c0-0.02,0-0.04,0-0.07v-3.4c0.05-1.49-0.85-2.84-2.25-3.37
				c-0.55-0.13-0.95-0.59-1.02-1.14v-3.11c0.07-0.56,0.48-1.01,1.02-1.14c1.37-0.42,2.29-1.7,2.24-3.13v-3.35
				c0.04-0.94-0.29-1.86-0.92-2.57C-292.01-716.36-292.87-716.7-293.75-716.7L-293.75-716.7z"/>
		</g>
		<g id="Grupo_343">
			<path id="Trazado_421" class="st0" d="M-342.24-713.75c7.13,0.05,14.12,2,20.24,5.64v19.05c-6.38-3.32-13.44-5.11-20.63-5.22
				v-4.21c1.81-0.42,3.06-2.08,2.95-3.94v-3.11c0.13-1.97-1.08-3.78-2.95-4.4v-3.81 M-342.25-716.7c-0.89,0-1.75,0.35-2.39,0.97
				c-0.63,0.7-0.96,1.62-0.92,2.57v3.35c-0.04,1.43,0.88,2.72,2.25,3.13c0.55,0.13,0.95,0.59,1.02,1.14v3.11
				c-0.07,0.56-0.48,1.01-1.02,1.14c-1.4,0.52-2.3,1.88-2.25,3.36v3.4c-0.04,1.78,1.37,3.26,3.15,3.3c0.02,0,0.04,0,0.07,0
				c6.38,0.1,12.64,1.76,18.24,4.83c1.67,0.88,3.74,0.23,4.62-1.44c0.26-0.49,0.39-1.04,0.39-1.59v-18.23
				c0-1.22-0.64-2.34-1.69-2.95c-3.11-1.87-6.45-3.35-9.92-4.4c-3.73-1.07-7.57-1.64-11.45-1.7L-342.25-716.7L-342.25-716.7z"/>
		</g>
	</g>
	<rect id="Rectángulo_80" x="-355" y="-748" class="st1" width="74" height="74"/>
</g>
</svg>
