<?xml version="1.0" encoding="utf-8"?>
<!-- Generator: Adobe Illustrator 26.3.1, SVG Export Plug-In . SVG Version: 6.00 Build 0)  -->
<svg version="1.1" id="Capa_1" xmlns="http://www.w3.org/2000/svg" xmlns:xlink="http://www.w3.org/1999/xlink" x="0px" y="0px"
	 viewBox="0 0 74 74" style="enable-background:new 0 0 74 74;" xml:space="preserve">
<style type="text/css">
	.st0{fill:#0A2755;}
	.st1{fill:none;}
</style>
<g id="Grupo_1499" transform="translate(1120.333 580.222)">
	<g id="Grupo_1498">
		<g id="Grupo_1489">
			<g id="Grupo_1488">
				<path id="Trazado_804" class="st0" d="M-1077.24-563.79c0.05,0,0.09,0.05,0.09,0.09v40.96c0,0.05-0.04,0.09-0.09,0.09
					c-0.01,0-0.02,0-0.03-0.01l-30.95-9.71c-1.7-0.52-2.86-2.1-2.85-3.88v-13.92c-0.01-1.78,1.15-3.35,2.85-3.88l30.95-9.76
					C-1077.26-563.79-1077.25-563.79-1077.24-563.79 M-1077.24-566.86c-0.32,0-0.64,0.05-0.95,0.15l-30.95,9.76
					c-2.97,0.93-5,3.68-5,6.8v13.92c0,3.12,2.03,5.87,5.01,6.8l30.95,9.71c0.31,0.1,0.62,0.14,0.94,0.14c1.74,0,3.15-1.42,3.15-3.16
					v-40.95C-1074.09-565.44-1075.5-566.85-1077.24-566.86L-1077.24-566.86z"/>
			</g>
		</g>
		<g id="Grupo_1491">
			<g id="Grupo_1490">
				<rect id="Rectángulo_310" x="-1084.03" y="-563.16" class="st0" width="1.39" height="38.82"/>
			</g>
		</g>
		<g id="Grupo_1493">
			<g id="Grupo_1492">
				<path id="Trazado_805" class="st0" d="M-1061.55-521.44c1.66-1.69,3.13-3.55,4.4-5.54c3.04-4.88,4.65-10.52,4.62-16.27
					c0.06-5.94-1.65-11.76-4.91-16.72c-1.18-1.82-2.56-3.51-4.11-5.03l-2.17,2.17c1.43,1.3,2.68,2.78,3.72,4.41
					c2.95,4.5,4.48,9.79,4.41,15.17c0.03,5.16-1.4,10.21-4.12,14.59c-1.16,1.82-2.5,3.51-4,5.05L-1061.55-521.44z"/>
			</g>
		</g>
		<g id="Grupo_1495">
			<g id="Grupo_1494">
				<path id="Trazado_806" class="st0" d="M-1070.35-530.24l-2.11-2.09c2.91-2.91,4.54-6.85,4.54-10.96
					c-0.04-4.06-1.66-7.94-4.52-10.82l1.99-1.99c0.23,0.22,5.59,5.26,5.59,12.81C-1064.87-535.77-1070.13-530.46-1070.35-530.24z"/>
			</g>
		</g>
		<g id="Grupo_1497">
			<g id="Grupo_1496">
				<path id="Trazado_807" class="st0" d="M-1068.2-528.09c1.12-0.99,2.12-2.12,2.96-3.35c2.33-3.41,3.55-7.45,3.49-11.58
					c0.04-4.19-1.1-8.31-3.3-11.87c-0.82-1.34-1.8-2.58-2.93-3.68l2.17-2.17c1.25,1.24,2.36,2.61,3.29,4.11
					c2.54,4.08,3.87,8.8,3.84,13.61c0.05,4.8-1.39,9.49-4.12,13.44c-0.93,1.34-2.01,2.57-3.23,3.66L-1068.2-528.09z"/>
			</g>
		</g>
	</g>
	<rect id="Rectángulo_311" x="-1120.33" y="-580.22" class="st1" width="74" height="74"/>
</g>
</svg>
