<?xml version="1.0" encoding="utf-8"?>
<!-- Generator: Adobe Illustrator 26.3.1, SVG Export Plug-In . SVG Version: 6.00 Build 0)  -->
<svg version="1.1" id="Capa_1" xmlns="http://www.w3.org/2000/svg" xmlns:xlink="http://www.w3.org/1999/xlink" x="0px" y="0px"
	 viewBox="0 0 74 74" style="enable-background:new 0 0 74 74;" xml:space="preserve">
<style type="text/css">
	.st0{fill:#0A2755;}
	.st1{fill:none;}
</style>
<g id="Grupo_378" transform="translate(1202 738)">
	<g id="Grupo_377">
		<g id="Grupo_370">
			<g id="Grupo_366">
				<g id="Grupo_365">
					<path id="Trazado_427" class="st0" d="M-1165.66-698.28c-8.21,0-14.86-6.66-14.86-14.86c0-8.21,6.66-14.86,14.86-14.86
						c8.21,0,14.86,6.65,14.86,14.86C-1150.81-704.93-1157.46-698.29-1165.66-698.28z M-1165.66-725.33
						c-6.73,0-12.19,5.46-12.19,12.19c0,6.73,5.46,12.19,12.19,12.19c6.73,0,12.19-5.46,12.19-12.19
						C-1153.48-719.87-1158.93-725.32-1165.66-725.33z"/>
				</g>
			</g>
			<g id="Grupo_369">
				<g id="Grupo_368">
					<g id="Grupo_367">
						<path id="Trazado_428" class="st0" d="M-1166.16-705.65c-2.1-0.03-4.04-1.13-5.13-2.92l2.13-1.7
							c0.66,1.25,1.94,2.06,3.35,2.12c1.16,0.12,2.2-0.72,2.32-1.88c0-0.04,0.01-0.07,0.01-0.11c0-1.38-1.7-1.82-3.4-2.49
							c-1.7-0.67-3.41-1.54-3.41-3.81c0-2.19,1.54-3.81,4.12-4.2v-1.84h1.75v1.86c1.44,0.07,2.8,0.68,3.81,1.7l-1.61,1.87
							c-0.68-0.75-1.65-1.18-2.66-1.2c-1.05,0-2.04,0.65-2.04,1.56c0,1.2,1.73,1.62,3.43,2.31c1.73,0.69,3.43,1.66,3.43,4.01
							c0,2.25-1.61,4.18-4.36,4.64v1.97h-1.75V-705.65z"/>
					</g>
				</g>
			</g>
		</g>
		<g id="Grupo_372">
			<g id="Grupo_371">
				<rect id="Rectángulo_83" x="-1192.65" y="-689.45" class="st0" width="16.2" height="15.45"/>
			</g>
		</g>
		<g id="Grupo_374">
			<g id="Grupo_373">
				<path id="Trazado_429" class="st0" d="M-1176.67-684.94l-1.61-2.13l7.43-5.63c1.34-0.99,2.95-1.53,4.61-1.53h6.69
					c3.8,0,5.78,2.19,5.78,4.35s-1.99,4.34-5.78,4.34h-6.05v-2.67h6.05c2.04,0,3.11-0.84,3.11-1.66c0-0.83-1.07-1.68-3.11-1.68
					h-6.68c-1.08,0-2.14,0.35-3.01,1L-1176.67-684.94z"/>
			</g>
		</g>
		<g id="Grupo_376">
			<g id="Grupo_375">
				<path id="Trazado_430" class="st0" d="M-1156.36-675.5h-20.08v-2.67h20.08c0.7,0,1.37-0.22,1.94-0.64l13.19-10.24
					c0.62-0.49,1.04-1.18,1.21-1.95c0.05-0.39-0.07-0.78-0.32-1.07c-0.2-0.28-0.51-0.46-0.84-0.5c-0.74-0.01-1.45,0.24-2.03,0.71
					l-11.18,8.51h-11.23v-2.67h10.33l10.44-7.94c1.12-0.91,2.54-1.36,3.97-1.26c1.05,0.12,2,0.66,2.64,1.5
					c0.69,0.86,1.01,1.96,0.88,3.05c-0.25,1.48-1.04,2.81-2.23,3.73l-13.22,10.26C-1153.84-675.92-1155.09-675.51-1156.36-675.5z"/>
			</g>
		</g>
	</g>
	<rect id="Rectángulo_84" x="-1202" y="-738" class="st1" width="74" height="74"/>
</g>
</svg>
