<?xml version="1.0" encoding="utf-8"?>
<!-- Generator: Adobe Illustrator 26.0.1, SVG Export Plug-In . SVG Version: 6.00 Build 0)  -->
<svg version="1.1" id="Capa_1" xmlns="http://www.w3.org/2000/svg" xmlns:xlink="http://www.w3.org/1999/xlink" x="0px" y="0px"
	 viewBox="0 0 74 74" style="enable-background:new 0 0 74 74;" xml:space="preserve">
<style type="text/css">
	.st0{fill:none;stroke:#092755;stroke-width:1.5;stroke-miterlimit:10;}
</style>
<g>
	<path class="st0" d="M21.7,62.5c0.3-0.7,0.5-1.4,0.8-2c1.1-2.3,2.2-4.7,3.3-7c1.7-3.6,3.4-7.2,5.1-10.8c0.2-0.4,0.3-0.9,0.3-1.4
		c0-2.4,0-4.9,0-7.3c0-0.4-0.1-0.6-0.4-0.8c-3.7-2.8-7.4-5.6-11.1-8.3c-0.7-0.5-1.5-1.1-2.2-1.7c-1.5-1.2-1.9-3.4-0.8-4.9
		c1.2-1.7,3.4-2.1,5.1-0.9c2.3,1.7,4.6,3.5,7,5.2c1.7,1.2,3.3,2.5,5.1,3.7c2.6,1.7,5.2,1.5,7.7-0.2c3-2.1,5.9-4.4,8.9-6.6
		c0.9-0.6,1.7-1.3,2.6-1.9c2.4-1.7,5.5-0.4,5.8,2.5c0.2,1.3-0.4,2.4-1.5,3.2c-2,1.5-4,3-6,4.6c-2.3,1.7-4.6,3.5-6.9,5.2
		c-0.3,0.3-0.5,0.5-0.5,0.9c0,2.5,0,4.9,0,7.4c0,0.4,0.1,0.7,0.3,1.1c2.4,5.2,4.9,10.3,7.3,15.5c0.5,1,1,2.1,1.5,3.1
		c0.8,1.7,0.3,3.6-1,4.7c-1.4,1.1-3.3,1.2-4.9,0.1C46.2,65,45.9,64,45.4,63c-2-4.2-4-8.4-6-12.6c-0.4-0.8-0.7-1.5-1.1-2.3
		c-0.1-0.3-0.5-0.5-0.7-0.6c-0.2,0-0.6,0.3-0.7,0.5c-1.6,3.3-3.2,6.7-4.8,10c-0.9,2-1.9,4-2.8,6c-0.7,1.5-1.9,2.3-3.5,2.3
		c-1.5,0-2.8-0.6-3.5-2C22.1,64,22,63.3,21.7,62.5z M23.1,62.6c0.1,1.3,0.9,2.3,2,2.6c1.2,0.3,2.4-0.3,2.9-1.4
		c2.6-5.4,5.1-10.8,7.7-16.2c0.4-0.8,1-1.2,1.8-1.3c0.9,0,1.5,0.4,1.9,1.2c0.2,0.4,0.4,0.9,0.6,1.3c1.8,3.7,3.5,7.4,5.3,11.2
		c0.6,1.3,1.2,2.7,1.9,4c0.7,1.3,2.2,1.7,3.5,1c1.2-0.6,1.7-2.1,1.1-3.4c-0.9-1.9-1.8-3.8-2.7-5.7c-2-4.2-4-8.4-6-12.6
		c-0.3-0.6-0.5-1.3-0.5-2c0-2.6,0.1-5.3,0-7.9c0-0.5,0.2-0.8,0.6-1.1c1.5-1.1,3-2.2,4.5-3.3c2.9-2.2,5.8-4.4,8.7-6.6
		c0.4-0.3,0.8-0.8,0.9-1.2c0.4-1,0-2-0.9-2.6c-0.9-0.6-1.9-0.5-2.8,0.2c-3.8,2.8-7.6,5.7-11.4,8.5c-2.8,2.1-6.8,2.2-9.6,0.1
		c-3.8-2.8-7.6-5.7-11.4-8.6c-1.1-0.8-2.5-0.7-3.3,0.3c-0.8,1.1-0.6,2.4,0.5,3.3c1.2,0.9,2.3,1.7,3.5,2.6c3.5,2.6,6.9,5.2,10.4,7.8
		c0.1,0.1,0.3,0.3,0.3,0.5c0,3,0,6,0,9c0,0.2,0,0.4-0.1,0.5c-0.5,1-0.9,1.9-1.4,2.9c-2.5,5.2-5,10.4-7.4,15.6
		C23.4,61.6,23.3,62.1,23.1,62.6z"/>
	<path class="st0" d="M37.5,9.7c3.6,0,6.5,2.9,6.5,6.6c0,3.6-3,6.5-6.6,6.5c-3.6,0-6.5-3-6.5-6.6C30.9,12.6,33.8,9.7,37.5,9.7z
		 M42.7,16.3c0-2.9-2.4-5.3-5.2-5.3c-2.9,0-5.3,2.4-5.3,5.3c0,2.9,2.3,5.3,5.2,5.3C40.3,21.5,42.7,19.2,42.7,16.3z"/>
</g>
</svg>
