<?xml version="1.0" encoding="utf-8"?>
<!-- Generator: Adobe Illustrator 26.0.1, SVG Export Plug-In . SVG Version: 6.00 Build 0)  -->
<svg version="1.1" id="Capa_1" xmlns="http://www.w3.org/2000/svg" xmlns:xlink="http://www.w3.org/1999/xlink" x="0px" y="0px"
	 viewBox="0 0 74 74" style="enable-background:new 0 0 74 74;" xml:space="preserve">
<style type="text/css">
	.st0{fill:#092755;}
	.st1{fill:none;}
</style>
<g>
	<g>
		<g>
			<rect x="12.3" y="48.3" class="st0" width="14.9" height="14.2"/>
		</g>
	</g>
	<g>
		<g>
			<path class="st0" d="M27.1,52.5l-1.5-2l6.9-5.2c1.2-0.9,2.7-1.4,4.3-1.4h6.2c3.5,0,5.3,2,5.3,4c0,2-1.8,4-5.3,4h-5.6v-2.5h5.6
				c1.9,0,2.9-0.8,2.9-1.5c0-0.8-1-1.6-2.9-1.6h-6.2c-1,0-2,0.3-2.8,0.9L27.1,52.5z"/>
		</g>
	</g>
	<g>
		<g>
			<path class="st0" d="M45.8,61.2H27.3v-2.5h18.5c0.6,0,1.3-0.2,1.8-0.6l12.2-9.4c0.4-0.3,1-1,1.1-1.8c0-0.4,0-0.7-0.3-1
				c-0.2-0.3-0.5-0.4-0.8-0.5c-0.6-0.1-1.4,0.3-1.9,0.7L47.6,54H37.3v-2.5h9.5l9.6-7.3c0.8-0.7,2.2-1.3,3.7-1.2
				c1,0.1,1.8,0.6,2.4,1.4c0.7,0.8,0.9,1.8,0.8,2.8c-0.2,1.5-1.2,2.8-2,3.4l-12.2,9.5C48.1,60.8,47,61.2,45.8,61.2z"/>
		</g>
	</g>
</g>
<g>
	<g>
		<path class="st1" d="M32.7,37.6c0,0,0.1,0,0.1,0.1c0.1,0,0.2,0.1,0.3,0.1c0.1,0,0.2,0.1,0.3,0.1c0.1,0,0.2,0.1,0.3,0.1
			c0.1,0,0.2,0.1,0.4,0.1c0.1,0,0.2,0.1,0.3,0.1c0,0,0.1,0,0.1,0c-0.5-0.5-1-1.1-1.5-1.7l-0.2,0.5L32.7,37.6z"/>
	</g>
	<g>
		<path class="st1" d="M34.5,12.5c0,0-0.1,0-0.1,0c-0.1,0-0.2,0.1-0.3,0.1c-0.1,0-0.2,0.1-0.4,0.1c-0.1,0-0.2,0.1-0.3,0.1
			c-0.1,0-0.2,0.1-0.3,0.1c-0.1,0-0.2,0.1-0.3,0.1c-0.1,0-0.2,0.1-0.3,0.1c-0.1,0-0.2,0.1-0.3,0.1c-0.1,0.1-0.2,0.1-0.3,0.2
			c-0.1,0-0.2,0.1-0.3,0.1c-0.1,0.1-0.2,0.1-0.3,0.2c-0.1,0.1-0.2,0.1-0.3,0.2c-0.1,0.1-0.2,0.1-0.3,0.2c-0.1,0.1-0.2,0.1-0.3,0.2
			c-0.1,0.1-0.2,0.1-0.3,0.2c-0.1,0.1-0.2,0.1-0.3,0.2c-0.1,0.1-0.2,0.1-0.3,0.2c-0.1,0.1-0.2,0.1-0.3,0.2c-0.1,0.1-0.2,0.2-0.3,0.2
			c-0.1,0.1-0.2,0.1-0.2,0.2c-0.1,0.1-0.2,0.2-0.3,0.3c-0.1,0.1-0.2,0.2-0.2,0.2c0,0,0,0,0,0c1,0.5,2.1,1,3.3,1.3
			C32.1,15.6,33.1,13.9,34.5,12.5z"/>
	</g>
	<g>
		<path class="st1" d="M36.6,27.1l-1.3,3.5l-0.4,1.2c0.8-0.1,1.7-0.2,2.5-0.2v-5.7h-6.2c0,1.1,0.1,2.2,0.3,3.2l1.7-0.6L36.6,27.1z"
			/>
	</g>
	<g>
		<path class="st1" d="M30.5,29.4c-0.2-1.2-0.3-2.4-0.3-3.6h-5.7c0.1,1.9,0.5,3.7,1.4,5.4l0.8-0.3L30.5,29.4z"/>
	</g>
	<g>
		<path class="st1" d="M32.5,33.3l0.1-0.2c0,0-0.1,0-0.1,0C32.4,33.2,32.5,33.2,32.5,33.3z"/>
	</g>
	<g>
		<path class="st1" d="M37.4,38.7v-6.1c-1,0-1.9,0.1-2.9,0.2l-1,2.7C34.5,37.3,35.9,38.4,37.4,38.7z"/>
	</g>
	<g>
		<path class="st1" d="M27.6,16.9c-1.9,2.3-2.9,5.1-3.1,8h5.7c0-2.2,0.3-4.4,1-6.6C29.9,18,28.7,17.5,27.6,16.9z"/>
	</g>
	<g>
		<path class="st1" d="M38.3,12.1v6.1c1.7,0,3.3-0.2,4.9-0.6C42.1,14.5,40.3,12.4,38.3,12.1z"/>
	</g>
	<g>
		<path class="st1" d="M45.4,24.9h5.7c-0.1-2.9-1.2-5.8-3.1-8c-1.1,0.6-2.4,1.1-3.6,1.4C45.1,20.5,45.4,22.7,45.4,24.9z"/>
	</g>
	<g>
		<path class="st1" d="M38.3,32.5v6.1c2-0.3,3.8-2.4,4.9-5.5C41.6,32.7,40,32.5,38.3,32.5z"/>
	</g>
	<g>
		<path class="st1" d="M41.1,38.3c0,0,0.1,0,0.1,0c0.1,0,0.2-0.1,0.3-0.1c0.1,0,0.2-0.1,0.4-0.1c0.1,0,0.2-0.1,0.3-0.1
			c0.1,0,0.2-0.1,0.3-0.1c0.1,0,0.2-0.1,0.3-0.1c0.1,0,0.2-0.1,0.3-0.1c0.1,0,0.2-0.1,0.3-0.1c0.1-0.1,0.2-0.1,0.3-0.2
			c0.1,0,0.2-0.1,0.3-0.1c0.1-0.1,0.2-0.1,0.3-0.2c0.1-0.1,0.2-0.1,0.3-0.2c0.1-0.1,0.2-0.1,0.3-0.2c0.1-0.1,0.2-0.1,0.3-0.2
			c0.1-0.1,0.2-0.1,0.3-0.2c0.1-0.1,0.2-0.1,0.3-0.2c0.1-0.1,0.2-0.1,0.3-0.2c0.1-0.1,0.2-0.1,0.3-0.2c0.1-0.1,0.2-0.2,0.3-0.2
			c0.1-0.1,0.2-0.1,0.2-0.2c0.1-0.1,0.2-0.2,0.3-0.3c0.1-0.1,0.2-0.2,0.2-0.2c0,0,0,0,0,0c-1-0.5-2.1-1-3.3-1.3
			C43.6,35.2,42.5,36.9,41.1,38.3z"/>
	</g>
	<g>
		<path class="st1" d="M44.5,25.9h-6.2v5.7c1.8,0,3.5,0.2,5.2,0.6C44.1,30.1,44.5,28,44.5,25.9z"/>
	</g>
	<g>
		<path class="st1" d="M47.4,16.2C47.4,16.2,47.4,16.1,47.4,16.2c-0.1-0.1-0.2-0.2-0.3-0.3c-0.1-0.1-0.2-0.2-0.3-0.3
			c-0.1-0.1-0.2-0.1-0.2-0.2c-0.1-0.1-0.2-0.2-0.3-0.2c-0.1-0.1-0.2-0.1-0.3-0.2c-0.1-0.1-0.2-0.2-0.3-0.2c-0.1-0.1-0.2-0.1-0.3-0.2
			c-0.1-0.1-0.2-0.1-0.3-0.2c-0.1-0.1-0.2-0.1-0.3-0.2c-0.1-0.1-0.2-0.1-0.3-0.2c-0.1-0.1-0.2-0.1-0.3-0.2c-0.1-0.1-0.2-0.1-0.3-0.2
			c-0.1-0.1-0.2-0.1-0.3-0.1c-0.1-0.1-0.2-0.1-0.3-0.2c-0.1,0-0.2-0.1-0.3-0.1c-0.1,0-0.2-0.1-0.3-0.1c-0.1,0-0.2-0.1-0.3-0.1
			c-0.1,0-0.2-0.1-0.3-0.1c-0.1,0-0.2-0.1-0.3-0.1c-0.1,0-0.2-0.1-0.4-0.1c-0.1,0-0.2-0.1-0.3-0.1c0,0-0.1,0-0.1,0
			c1.4,1.4,2.5,3.1,3,4.9C45.3,17.1,46.4,16.7,47.4,16.2z"/>
	</g>
	<g>
		<path class="st1" d="M43.5,18.6c-1.7,0.4-3.5,0.6-5.2,0.6v5.7h6.2C44.5,22.8,44.1,20.6,43.5,18.6z"/>
	</g>
	<g>
		<path class="st1" d="M31.2,24.9h6.2v-5.7c-1.8,0-3.5-0.2-5.2-0.6C31.5,20.6,31.2,22.8,31.2,24.9z"/>
	</g>
	<g>
		<path class="st1" d="M32.4,17.6c1.6,0.4,3.3,0.6,4.9,0.6v-6.1C35.3,12.4,33.5,14.5,32.4,17.6z"/>
	</g>
	<g>
		<path class="st1" d="M44.5,32.4c1.3,0.3,2.5,0.8,3.6,1.4c1.9-2.3,2.9-5.1,3.1-8h-5.7C45.4,28.1,45.1,30.3,44.5,32.4z"/>
	</g>
	<g>
		<path class="st0" d="M37.8,11.1c-0.5,0-1,0-1.5,0.1c-0.5,0-0.9,0.1-1.4,0.2c-0.1,0-0.2,0-0.3,0.1c-2.7,0.6-5.1,2-7,3.9
			c-0.2,0.2-0.4,0.4-0.5,0.6c-3.9,4.4-4.5,10.6-2.1,15.6l-0.7,0.3l1.8,1.8l0.4,0.4l-1.2,1.2l-1.2,1.2l1.2,1.2l0.7,0.7l1.2,1.2
			l1.2-1.2l1.2-1.2l0.5,0.5l1.9,1.9l0.4-1c5.2,2.2,11.5,1.1,15.7-3.1c0.2-0.2,0.4-0.4,0.5-0.6c2.3-2.6,3.5-5.9,3.5-9.4
			C52.1,17.5,45.7,11.1,37.8,11.1z M28.3,16.1c0.1-0.1,0.2-0.2,0.2-0.2c0.1-0.1,0.2-0.2,0.3-0.3c0.1-0.1,0.2-0.1,0.2-0.2
			c0.1-0.1,0.2-0.2,0.3-0.2c0.1-0.1,0.2-0.1,0.3-0.2c0.1-0.1,0.2-0.2,0.3-0.2c0.1-0.1,0.2-0.1,0.3-0.2c0.1-0.1,0.2-0.1,0.3-0.2
			c0.1-0.1,0.2-0.1,0.3-0.2c0.1-0.1,0.2-0.1,0.3-0.2c0.1-0.1,0.2-0.1,0.3-0.2c0.1-0.1,0.2-0.1,0.3-0.2c0.1-0.1,0.2-0.1,0.3-0.1
			c0.1-0.1,0.2-0.1,0.3-0.2c0.1,0,0.2-0.1,0.3-0.1c0.1,0,0.2-0.1,0.3-0.1c0.1,0,0.2-0.1,0.3-0.1c0.1,0,0.2-0.1,0.3-0.1
			c0.1,0,0.2-0.1,0.3-0.1c0.1,0,0.2-0.1,0.4-0.1c0.1,0,0.2-0.1,0.3-0.1c0,0,0.1,0,0.1,0c-1.4,1.4-2.5,3.1-3,4.9
			C30.3,17.1,29.3,16.7,28.3,16.1C28.2,16.2,28.2,16.1,28.3,16.1z M27.6,16.9c1.1,0.6,2.4,1.1,3.6,1.4c-0.6,2.1-0.9,4.4-1,6.6h-5.7
			C24.6,22,25.7,19.1,27.6,16.9z M25.9,31.2c-0.8-1.7-1.3-3.5-1.4-5.4h5.7c0,1.2,0.1,2.4,0.3,3.6l-3.8,1.5L25.9,31.2z M32.4,35.1
			l-0.9,2.4l-2-2l-2.2,2.2l-1.4-1.4l2.2-2.2l-0.5-0.5l-1.3-1.3l4.7-1.8l1.2-0.5l2.6-1l-1,2.7l-0.5,1.4l-0.1,0.3L32.4,35.1z
			 M34.4,38.2c-0.1,0-0.2-0.1-0.3-0.1c-0.1,0-0.2-0.1-0.4-0.1c-0.1,0-0.2-0.1-0.3-0.1c-0.1,0-0.2-0.1-0.3-0.1
			c-0.1,0-0.2-0.1-0.3-0.1c0,0-0.1,0-0.1-0.1l0.2-0.6l0.2-0.5c0.4,0.6,0.9,1.2,1.5,1.7C34.5,38.3,34.4,38.2,34.4,38.2z M37.4,38.7
			c-1.5-0.2-2.8-1.4-3.9-3.2l1-2.7c1-0.1,1.9-0.2,2.9-0.2V38.7z M37.4,31.6c-0.8,0-1.7,0.1-2.5,0.2l0.4-1.2l1.3-3.5l-3.5,1.4
			l-1.7,0.6c-0.2-1.1-0.2-2.1-0.3-3.2h6.2V31.6z M37.4,24.9h-6.2c0-2.1,0.3-4.3,0.9-6.3c1.7,0.4,3.5,0.6,5.2,0.6V24.9z M37.4,18.2
			c-1.7,0-3.3-0.2-4.9-0.6c1.1-3.1,2.9-5.3,4.9-5.5V18.2z M48.1,16.9c1.9,2.3,2.9,5.1,3.1,8h-5.7c0-2.2-0.3-4.4-1-6.6
			C45.7,18,46.9,17.5,48.1,16.9z M41.3,12.5c0.1,0,0.2,0.1,0.3,0.1c0.1,0,0.2,0.1,0.4,0.1c0.1,0,0.2,0.1,0.3,0.1
			c0.1,0,0.2,0.1,0.3,0.1c0.1,0,0.2,0.1,0.3,0.1c0.1,0,0.2,0.1,0.3,0.1c0.1,0,0.2,0.1,0.3,0.1c0.1,0.1,0.2,0.1,0.3,0.2
			c0.1,0,0.2,0.1,0.3,0.1c0.1,0.1,0.2,0.1,0.3,0.2c0.1,0.1,0.2,0.1,0.3,0.2c0.1,0.1,0.2,0.1,0.3,0.2c0.1,0.1,0.2,0.1,0.3,0.2
			c0.1,0.1,0.2,0.1,0.3,0.2c0.1,0.1,0.2,0.1,0.3,0.2c0.1,0.1,0.2,0.2,0.3,0.2c0.1,0.1,0.2,0.1,0.3,0.2c0.1,0.1,0.2,0.2,0.3,0.2
			c0.1,0.1,0.2,0.1,0.2,0.2c0.1,0.1,0.2,0.2,0.3,0.3c0.1,0.1,0.2,0.2,0.2,0.2c0,0,0,0,0,0c-1,0.5-2.1,1-3.3,1.3
			c-0.6-1.9-1.6-3.6-3-4.9C41.2,12.5,41.2,12.5,41.3,12.5z M38.3,12.1c2,0.3,3.8,2.4,4.9,5.5c-1.6,0.4-3.3,0.6-4.9,0.6V12.1z
			 M38.3,19.2c1.8,0,3.5-0.2,5.2-0.6c0.6,2.1,0.9,4.2,0.9,6.3h-6.2V19.2z M38.3,25.9h6.2c0,2.1-0.3,4.3-0.9,6.3
			c-1.7-0.4-3.5-0.6-5.2-0.6V25.9z M38.3,38.7v-6.1c1.7,0,3.3,0.2,4.9,0.6C42.1,36.2,40.3,38.4,38.3,38.7z M47.4,34.6
			c-0.1,0.1-0.2,0.2-0.2,0.2c-0.1,0.1-0.2,0.2-0.3,0.3c-0.1,0.1-0.2,0.1-0.2,0.2c-0.1,0.1-0.2,0.2-0.3,0.2c-0.1,0.1-0.2,0.1-0.3,0.2
			c-0.1,0.1-0.2,0.2-0.3,0.2c-0.1,0.1-0.2,0.1-0.3,0.2c-0.1,0.1-0.2,0.1-0.3,0.2c-0.1,0.1-0.2,0.1-0.3,0.2c-0.1,0.1-0.2,0.1-0.3,0.2
			c-0.1,0.1-0.2,0.1-0.3,0.2c-0.1,0.1-0.2,0.1-0.3,0.2c-0.1,0.1-0.2,0.1-0.3,0.1c-0.1,0.1-0.2,0.1-0.3,0.2c-0.1,0-0.2,0.1-0.3,0.1
			c-0.1,0-0.2,0.1-0.3,0.1c-0.1,0-0.2,0.1-0.3,0.1c-0.1,0-0.2,0.1-0.3,0.1C42.1,38,42,38,41.9,38c-0.1,0-0.2,0.1-0.4,0.1
			c-0.1,0-0.2,0.1-0.3,0.1c0,0-0.1,0-0.1,0c1.4-1.4,2.5-3.1,3-4.9C45.3,33.6,46.4,34,47.4,34.6C47.4,34.6,47.4,34.6,47.4,34.6z
			 M48.1,33.9c-1.1-0.6-2.4-1.1-3.6-1.4c0.6-2.1,0.9-4.4,1-6.6h5.7C51,28.8,50,31.6,48.1,33.9z"/>
	</g>
</g>
</svg>
