<?xml version="1.0" encoding="utf-8"?>
<!-- Generator: Adobe Illustrator 26.0.1, SVG Export Plug-In . SVG Version: 6.00 Build 0)  -->
<svg version="1.1" id="Capa_1" xmlns="http://www.w3.org/2000/svg" xmlns:xlink="http://www.w3.org/1999/xlink" x="0px" y="0px"
	 viewBox="0 0 74 74" style="enable-background:new 0 0 74 74;" xml:space="preserve">
<style type="text/css">
	.st0{fill:none;stroke:#092755;stroke-width:1.3628;stroke-miterlimit:10;}
	.st1{fill:#092755;}
</style>
<line class="st0" x1="28.5" y1="23" x2="46.4" y2="23"/>
<line class="st0" x1="28.5" y1="30.7" x2="46.4" y2="30.7"/>
<line class="st0" x1="28.5" y1="39.3" x2="35.8" y2="39.3"/>
<circle class="st0" cx="42.1" cy="40.7" r="6.3"/>
<line class="st0" x1="51.4" y1="50.2" x2="46.4" y2="45.3"/>
<g>
	<g>
		<path class="st1" d="M58,10.2H16.9c-4,0-7.2,3.2-7.2,7.2v31.1c0,4,3.2,7.2,7.2,7.2h19v7.4H25.8V66h23.3v-2.9H39v-7.4h19
			c4,0,7.2-3.2,7.2-7.2V17.4C65.2,13.4,62,10.2,58,10.2z M62.3,48.5c0,2.4-1.9,4.3-4.3,4.3H16.9c-2.4,0-4.3-1.9-4.3-4.3V17.4
			c0-2.4,1.9-4.3,4.3-4.3H58c2.4,0,4.3,1.9,4.3,4.3V48.5z"/>
	</g>
</g>
<path class="st0" d="M36.2,48.2h-8.6c-2,0-3.7-1.6-3.7-3.7V20.8c0-2,1.6-3.7,3.7-3.7h19.6c2,0,3.7,1.6,3.7,3.7v21.7"/>
</svg>
