<svg xmlns="http://www.w3.org/2000/svg" viewBox="0 0 1694.05 411.29" role="img" aria-labelledby="logo-hiberus"><title id="logo-hiberus">Hiberus, consultora tecnológica</title><g id="Capa_1-2"><path class="cls-1" d="M170,220.17c0-17.48-4.85-31.07-14.55-40.78-9.7-9.71-23.48-14.55-41.35-14.54-20.16,0-38.6,6.84-55.33,20.53v196.21c.19,7.91-2.91,15.55-8.55,21.1-5.37,5.57-12.8,8.67-20.54,8.56C13.54,411.5,.25,398.61,0,382.46V29.67C-.25,13.54,12.63,.25,28.76,0h.9c7.73-.11,15.17,2.99,20.54,8.55,5.64,5.56,8.73,13.2,8.55,21.11V125.48c9.35-4.4,19.09-7.94,29.09-10.55,9.85-2.74,20.01-4.18,30.23-4.28,17.11,0,31.94,2.47,44.49,7.42,12.55,4.95,24.14,12.74,34.79,23.39,10.37,10.43,18.35,22.98,23.39,36.79,5.44,14.89,8.15,30.64,8,46.49v156.85c.24,16.12-12.62,29.39-28.74,29.66h-.88c-8.38,0-15.32-2.85-20.82-8.56-5.49-5.63-8.47-13.24-8.27-21.1l-.03-161.42Z"></path><path class="cls-1" d="M364.47,33.09c0,18.27-14.81,33.08-33.08,33.08-18.27,0-33.08-14.81-33.08-33.08S313.12,.02,331.39,.01c8.77,0,17.19,3.48,23.39,9.69,6.32,6.13,9.82,14.59,9.69,23.39Zm-62.74,107.23c-.17-7.97,3.04-15.63,8.84-21.1,5.5-5.55,13.01-8.64,20.82-8.56,8.36,0,15.3,2.85,20.82,8.56,5.49,5.63,8.47,13.24,8.27,21.1v241.27c.2,7.86-2.78,15.47-8.27,21.1-5.52,5.71-12.46,8.56-20.82,8.56-7.81,.08-15.32-3.01-20.82-8.56-5.8-5.47-9.01-13.13-8.84-21.1V140.32Z"></path><path class="cls-1" d="M665.06,296.6c0,33.85-10.65,61.42-31.95,82.71-20.53,21.33-48.09,31.98-82.7,31.94-30.28,.02-60.36-4.99-89-14.83-7.33-2.46-13.71-7.16-18.25-13.42-4.54-6.2-6.94-13.71-6.85-21.39V29.61C436.09,13.48,448.98,.23,465.11,0h.89c7.73-.11,15.17,2.99,20.54,8.55,5.64,5.56,8.73,13.2,8.55,21.11V125.48c9.35-4.4,19.09-7.94,29.09-10.55,9.85-2.74,20.01-4.18,30.23-4.28,32.67,0,59.09,10.27,79.28,30.8,10.37,10.43,18.35,22.98,23.39,36.79,5.44,14.89,8.15,30.64,8,46.49l-.02,71.87Zm-58.71-76.43c0-17.48-4.85-31.07-14.55-40.78-9.7-9.71-23.48-14.55-41.35-14.54-20.16,0-38.6,6.84-55.33,20.53v164.84c18.09,4.54,36.68,6.84,55.33,6.84,17.87,0,31.66-4.75,41.35-14.26,9.69-9.51,14.54-23.19,14.55-41.06v-81.57Z"></path><path class="cls-1" d="M778,288.62c0,11.79,.95,21.58,2.85,29.37,1.57,7.05,4.47,13.73,8.55,19.68,9.89,12.93,24.53,19.4,43.92,19.39,10.71,.05,21.37-1.39,31.68-4.27,10.19-2.9,20.19-6.42,29.94-10.56,3.78-1.72,7.85-2.68,12-2.85,7.21,0,14.15,2.75,19.4,7.7,5.54,4.79,8.67,11.79,8.55,19.11,.03,5.14-1.15,10.21-3.45,14.81-2.51,4.79-6.53,8.61-11.44,10.86-27.06,12.94-56.71,19.57-86.7,19.39-33.85,0-61.41-10.65-82.7-31.94-20.92-20.91-31.38-48.48-31.37-82.71v-71.86c0-33.84,10.46-61.22,31.37-82.14,21.29-21.29,48.85-31.93,82.7-31.94,34.6,0,62.17,10.65,82.71,31.94,10.3,10.32,18.35,22.65,23.67,36.22,5.55,13.89,8.32,29.2,8.32,45.92v26.8c.04,20.43-16.49,37.04-36.92,37.08h-133.08Zm111.22-54.19c0-46.39-18.63-69.59-55.9-69.58-18.25,0-32.03,5.61-41.35,16.82-9.32,11.21-13.99,28.8-14,52.76h111.25Z"></path><path class="cls-1" d="M1009.56,195.65c-.13-11.55,2.11-23,6.56-33.66,8.46-20.23,24.54-36.31,44.77-44.77,10.65-4.45,22.1-6.68,33.65-6.56,14.37,.12,28.7,1.64,42.78,4.56,6.57,1.37,12.49,4.89,16.83,10,9.16,10.94,8.67,27-1.14,37.36-5.14,5.33-11.89,8-20.25,8h-4.56c-1.76-.12-3.49-.51-5.14-1.14-4.56-1.14-9.31-2.19-14.26-3.14-4.7-.92-9.47-1.4-14.26-1.42-14.45,.04-26.15,11.75-26.19,26.2v190.51c.18,7.91-2.92,15.55-8.56,21.1-5.37,5.57-12.8,8.66-20.53,8.56-16.13,.24-29.41-12.64-29.66-28.77v-.89l-.04-185.94Z"></path><path class="cls-1" d="M1376.88,140.32c-.2-7.86,2.78-15.47,8.27-21.1,5.5-5.71,12.44-8.56,20.82-8.56,16.15-.23,29.42,12.66,29.66,28.81v222.16c.09,7.68-2.31,15.19-6.85,21.39-4.54,6.26-10.92,10.94-18.25,13.4-28.8,9.93-59.07,14.94-89.53,14.83-15.8,.15-31.52-2.36-46.49-7.42-14.08-4.82-26.87-12.82-37.36-23.38-10.31-10.36-18.1-22.95-22.78-36.79-4.95-14.26-7.42-29.95-7.42-47.06V140.32c-.23-16.15,12.66-29.42,28.81-29.66h.85c7.74-.11,15.17,2.99,20.54,8.56,5.64,5.55,8.73,13.19,8.55,21.1v160.85c0,17.87,4.85,31.56,14.55,41.06,9.7,9.5,23.28,14.25,40.75,14.26,18.85,.07,37.63-2.23,55.9-6.84l-.02-209.33Z"></path><path class="cls-1" d="M1550.27,274.93c-15.19-5.42-28.67-14.76-39.07-27.09-10.46-12.36-15.69-29.38-15.69-51.05-.14-11.91,2.4-23.71,7.42-34.51,4.91-10.43,11.9-19.74,20.53-27.38,9.07-8,19.64-14.12,31.09-18,12.76-4.31,26.17-6.44,39.64-6.28,19.39,0,34.79,1.33,46.2,4,10.75,2.45,21.25,5.89,31.37,10.27,5.49,2.12,10.25,5.78,13.69,10.55,8.86,12.41,5.97,29.66-6.44,38.51-4.55,3.24-9.97,5.03-15.56,5.13h-.24c-4.71-.03-9.36-1-13.69-2.86-8.48-3.79-17.38-6.55-26.52-8.22-9.85-2.02-19.88-3.07-29.94-3.13-11.79,0-21.2,2.67-28.24,8-7.04,5.33-10.56,12.94-10.55,22.82,0,7.61,2.38,13.7,7.13,18.25,4.58,4.47,10.15,7.79,16.26,9.7l55.89,18.25c19.01,6.47,33.84,16.17,44.49,29.09,10.65,12.92,15.98,29.84,16,50.76,.1,12.09-2.43,24.06-7.41,35.08-4.9,10.77-11.87,20.46-20.53,28.52-9.24,8.47-20.11,14.97-31.95,19.11-12.54,4.56-26.42,6.84-41.63,6.84-17.12,0-32.43-1.43-45.92-4.28-12.48-2.51-24.64-6.43-36.24-11.68-5.12-2.48-9.53-6.21-12.83-10.84-3.21-4.49-4.91-9.88-4.85-15.4-.06-7.51,2.92-14.73,8.27-20,5.24-5.59,12.59-8.7,20.25-8.56,2.23,.06,4.44,.44,6.56,1.14,2.47,.77,4.65,1.53,6.56,2.29,8.18,4.4,16.93,7.66,26,9.69,10.96,2.41,22.15,3.56,33.37,3.42,27.75,0,41.63-9.89,41.64-29.66,0-10.67-3.71-18.27-11.13-22.81-8.61-5.12-17.72-9.35-27.2-12.6l-46.73-17.07Z"></path></g></svg>
