<?xml version="1.0" encoding="utf-8"?>
<!-- Generator: Adobe Illustrator 26.3.1, SVG Export Plug-In . SVG Version: 6.00 Build 0)  -->
<svg version="1.1" id="Capa_1" xmlns="http://www.w3.org/2000/svg" xmlns:xlink="http://www.w3.org/1999/xlink" x="0px" y="0px"
	 viewBox="0 0 74 74" style="enable-background:new 0 0 74 74;" xml:space="preserve">
<style type="text/css">
	.st0{fill:#001F44;}
	.st1{fill:none;}
</style>
<g id="Grupo_2201" transform="translate(581 826)">
	<g id="Grupo_2200">
		<g id="Grupo_2196">
			<path id="Trazado_1072" class="st0" d="M-544-819.5c-16.84,0-30.5,13.66-30.5,30.5s13.66,30.5,30.5,30.5s30.5-13.66,30.5-30.5
				S-527.16-819.5-544-819.5z M-544-760.55c-15.71,0-28.45-12.74-28.45-28.45s12.74-28.45,28.45-28.45s28.45,12.74,28.45,28.45
				S-528.29-760.55-544-760.55L-544-760.55z"/>
			<rect id="Rectángulo_466" x="-545.02" y="-818.98" class="st0" width="2.04" height="59.96"/>
			<rect id="Rectángulo_467" x="-573.98" y="-790.02" class="st0" width="59.96" height="2.04"/>
			<path id="Trazado_1073" class="st0" d="M-544-819.5c-8.93,0-16.17,13.66-16.17,30.5s7.24,30.5,16.17,30.5s16.17-13.66,16.17-30.5
				S-535.07-819.5-544-819.5z M-544-760.54c-7.86,0-14.24-12.74-14.24-28.46c0-15.72,6.38-28.46,14.24-28.46
				s14.24,12.74,14.24,28.46S-536.14-760.54-544-760.54L-544-760.54z"/>
			<path id="Trazado_1074" class="st0" d="M-543.51-804.26c-10.14,0-17.14-2.24-22.93-5.39c-2.76,2.65,8.58,7.45,22.44,7.45
				c13.59,0,26.3-4.45,21.85-7.33C-527.65-806.38-534.24-804.26-543.51-804.26z"/>
			<path id="Trazado_1075" class="st0" d="M-544.54-773.6c10.14,0,17.14,2.24,22.93,5.39c2.76-2.65-8.58-7.44-22.44-7.44
				c-13.6,0-26.3,4.45-21.85,7.33C-560.41-771.49-553.82-773.6-544.54-773.6z"/>
		</g>
		<g id="Grupo_2197">
			<circle id="Elipse_103" class="st0" cx="-556.23" cy="-804.29" r="3.94"/>
		</g>
		<g id="Grupo_2198">
			<circle id="Elipse_104" class="st0" cx="-528.32" cy="-790.02" r="3.94"/>
		</g>
		<g id="Grupo_2199">
			<circle id="Elipse_105" class="st0" cx="-544" cy="-775.14" r="3.94"/>
		</g>
	</g>
	<rect id="Rectángulo_468" x="-581" y="-826" class="st1" width="74" height="74"/>
</g>
</svg>
