<?xml version="1.0" encoding="utf-8"?>
<!-- Generator: Adobe Illustrator 26.3.1, SVG Export Plug-In . SVG Version: 6.00 Build 0)  -->
<svg version="1.1" id="Capa_1" xmlns="http://www.w3.org/2000/svg" xmlns:xlink="http://www.w3.org/1999/xlink" x="0px" y="0px"
	 viewBox="0 0 74 74" style="enable-background:new 0 0 74 74;" xml:space="preserve">
<style type="text/css">
	.st0{fill:#001F44;}
	.st1{fill:none;}
</style>
<g id="Grupo_2323" transform="translate(1024 826)">
	<g id="Grupo_2322">
		<g id="Grupo_2314">
			<g id="Grupo_2309">
				<g id="Grupo_2308">
					<path id="Trazado_1168" class="st0" d="M-959.17-789c0-15.67-12.49-28.42-27.83-28.42s-27.83,12.75-27.83,28.42
						s12.49,28.42,27.83,28.42c9.69-0.04,18.65-5.14,23.64-13.44h3.49c-5.28,10.11-15.72,16.46-27.13,16.51
						c-17.03,0-30.83-14.1-30.83-31.48s13.8-31.48,30.83-31.48s30.83,14.1,30.83,31.48H-959.17z"/>
				</g>
			</g>
			<g id="Grupo_2313">
				<g id="Grupo_2312">
					<g id="Grupo_2311">
						<g id="Grupo_2310">
							<path id="Trazado_1169" class="st0" d="M-959.25-776.41v12.59h-3v-9.53h-9.33v-3.07H-959.25z"/>
						</g>
					</g>
				</g>
			</g>
		</g>
		<g id="Grupo_2321">
			<g id="Grupo_2316">
				<g id="Grupo_2315">
					<path id="Trazado_1170_00000164500501242601321120000007145604317594949253_" class="st0" d="M-1002.07-778.51
						c-1.34,0-2.42-1.09-2.43-2.43v-16.12c0-1.34,1.09-2.42,2.42-2.43h30.15c1.34,0,2.42,1.09,2.43,2.43v15.07h2.17v-15.07
						c0-2.54-2.06-4.59-4.59-4.6h-30.15c-2.54,0-4.6,2.06-4.6,4.6v16.12c0,2.54,2.06,4.6,4.6,4.6V-778.51z"/>
				</g>
			</g>
			<g id="Grupo_2318">
				<g id="Grupo_2317">
					<path id="Trazado_1171" class="st0" d="M-996.85-776.34h-2.16v-4.78c0-1.63,1.33-2.96,2.96-2.96h8.68l7.32-7.32l1.53,1.53
						l-8.44,8l-9.09-0.04c-0.44,0-0.8,0.36-0.8,0.8L-996.85-776.34z"/>
				</g>
			</g>
			<g id="Grupo_2320">
				<g id="Grupo_2319">
					<circle id="Elipse_111" class="st0" cx="-996.91" cy="-791.07" r="4.36"/>
				</g>
			</g>
		</g>
	</g>
	<rect id="Rectángulo_474" x="-1024" y="-826" class="st1" width="74" height="74"/>
</g>
</svg>
