<?xml version="1.0" encoding="utf-8"?>
<!-- Generator: Adobe Illustrator 26.3.1, SVG Export Plug-In . SVG Version: 6.00 Build 0)  -->
<svg version="1.1" id="Capa_1" xmlns="http://www.w3.org/2000/svg" xmlns:xlink="http://www.w3.org/1999/xlink" x="0px" y="0px"
	 viewBox="0 0 74 74" style="enable-background:new 0 0 74 74;" xml:space="preserve">
<style type="text/css">
	.st0{fill:#001F44;}
	.st1{fill:none;}
</style>
<g id="Grupo_2194" transform="translate(1299 826)">
	<g id="Grupo_2193">
		<g id="Grupo_2184">
			<path id="Trazado_1069" class="st0" d="M-1267.03-763.53c-14.07,0-25.47-11.41-25.47-25.48c0-14.07,11.41-25.47,25.48-25.47
				c10.19,0,19.4,6.08,23.41,15.44l0.57,1.33l-2.83,0.72l-0.39-0.91c-4.91-11.47-18.19-16.78-29.66-11.87
				c-11.47,4.91-16.78,18.19-11.87,29.66c4.91,11.47,18.19,16.78,29.66,11.87c5.81-2.49,10.31-7.3,12.41-13.26l0.49-0.75l2.71,0.35
				l-0.48,1.36C-1246.59-770.35-1256.22-763.53-1267.03-763.53z"/>
		</g>
		<g id="Grupo_2185">
			<path id="Trazado_1070" class="st0" d="M-1262.27-776.23h-14.22c-1.43,0-2.59-1.16-2.59-2.59v-20.53c0-1.43,1.16-2.59,2.59-2.59
				h14.22c1.43,0,2.59,1.16,2.59,2.59v20.53C-1259.68-777.39-1260.84-776.23-1262.27-776.23z M-1276.49-800.5
				c-0.63,0-1.15,0.51-1.15,1.15v20.53c0,0.63,0.52,1.15,1.15,1.15h14.22c0.63,0,1.15-0.51,1.15-1.15v-20.53
				c0-0.63-0.52-1.15-1.15-1.15H-1276.49z"/>
		</g>
		<g id="Grupo_2186">
			<rect id="Rectángulo_461" x="-1274.83" y="-782.97" class="st0" width="10.69" height="1.44"/>
		</g>
		<g id="Grupo_2187">
			<rect id="Rectángulo_462" x="-1274.83" y="-789.27" class="st0" width="10.69" height="1.44"/>
		</g>
		<g id="Grupo_2188">
			<rect id="Rectángulo_463" x="-1274.83" y="-795.58" class="st0" width="10.69" height="1.44"/>
		</g>
		<g id="Grupo_2190">
			<g id="Grupo_2189">
				<path id="Trazado_1071" class="st0" d="M-1244.77-780.96c-4.74-0.09-8.51-4.01-8.42-8.75c0.09-4.74,4.01-8.51,8.75-8.42
					c4.68,0.09,8.42,3.91,8.42,8.58C-1236.07-784.76-1239.99-780.92-1244.77-780.96z M-1244.77-796.55
					c-3.87,0.09-6.93,3.3-6.84,7.17c0.09,3.87,3.3,6.93,7.17,6.84c3.81-0.09,6.85-3.2,6.85-7.01
					C-1237.65-793.45-1240.86-796.59-1244.77-796.55z"/>
			</g>
		</g>
		<g id="Grupo_2192">
			<g id="Grupo_2191">
				
					<rect id="Rectángulo_464" x="-1236.35" y="-785.24" transform="matrix(0.7071 -0.7071 0.7071 0.7071 189.8715 -1102.1627)" class="st0" width="1.58" height="9.9"/>
			</g>
		</g>
	</g>
	<rect id="Rectángulo_465" x="-1299" y="-826" class="st1" width="74" height="74"/>
</g>
</svg>
