<?xml version="1.0" encoding="utf-8"?>
<!-- Generator: Adobe Illustrator 26.3.1, SVG Export Plug-In . SVG Version: 6.00 Build 0)  -->
<svg version="1.1" id="Capa_1" xmlns="http://www.w3.org/2000/svg" xmlns:xlink="http://www.w3.org/1999/xlink" x="0px" y="0px"
	 viewBox="0 0 140 140" style="enable-background:new 0 0 140 140;" xml:space="preserve">
<style type="text/css">
	.st0{fill:#0A2755;}
	.st1{fill:none;}
</style>
<g id="Grupo_1418" transform="translate(18912.875 6280.817)">
	<g id="Grupo_1417" transform="translate(17.268 17.252)">
		<g id="Grupo_1398" transform="translate(16.991 37.087)">
			<g id="Grupo_1397">
				<path id="Trazado_775" class="st0" d="M-18882.18-6268.58h-11.27v-11.03c-0.01-0.74-0.62-1.34-1.36-1.33h-4.21
					c-0.74-0.01-1.35,0.58-1.36,1.32c0,0,0,0,0,0v11.03h-11.27c-0.74-0.01-1.35,0.59-1.36,1.33c0,0,0,0,0,0v4.12
					c0.01,0.74,0.62,1.34,1.36,1.33c0,0,0,0,0,0h11.27v11.03c0.01,0.74,0.62,1.34,1.36,1.33c0,0,0,0,0,0h4.21
					c0.74,0.01,1.35-0.59,1.36-1.33v-11.03h11.28c0.74,0.01,1.35-0.59,1.36-1.33v-4.12
					C-18880.83-6267.99-18881.43-6268.59-18882.18-6268.58z"/>
			</g>
		</g>
		<g id="Grupo_1400" transform="translate(39.924)">
			<g id="Grupo_1399">
				<rect id="Rect치ngulo_289" x="-18913" y="-6280.94" class="st0" width="2.43" height="5.28"/>
			</g>
		</g>
		<g id="Grupo_1402" transform="translate(27.743 2.977)">
			<g id="Grupo_1401">
				<path id="Trazado_776" class="st0" d="M-18910.13-6275.2l-2.87-4.47l2.06-1.27l2.87,4.47L-18910.13-6275.2z"/>
			</g>
		</g>
		<g id="Grupo_1404" transform="translate(22.69 13.019)">
			<g id="Grupo_1403">
				<rect id="Rect치ngulo_290" x="-18913" y="-6280.94" class="st0" width="5.4" height="2.38"/>
			</g>
		</g>
		<g id="Grupo_1406" transform="translate(53.839 13.019)">
			<g id="Grupo_1405">
				<rect id="Rect치ngulo_291" x="-18913" y="-6280.94" class="st0" width="5.4" height="2.38"/>
			</g>
		</g>
		<g id="Grupo_1408" transform="translate(47.764 2.103)">
			<g id="Grupo_1407">
				<path id="Trazado_777" class="st0" d="M-18910.83-6275.15l-2.17-1.08l2.44-4.71l2.17,1.08L-18910.83-6275.15z"/>
			</g>
		</g>
		<g id="Grupo_1414" transform="translate(0 7.606)">
			<g id="Grupo_1409" transform="translate(35.654 5.231)">
				<path id="Trazado_778" class="st1" d="M-18902.03-6275.57c-0.06-3.03-2.56-5.44-5.59-5.38c-2.95,0.06-5.32,2.43-5.38,5.38v6.38
					h10.97V-6275.57z"/>
			</g>
			<g id="Grupo_1410" transform="translate(25.935 77.783)">
				<path id="Trazado_779" class="st1" d="M-18899.44-6276.66c-1.56-3.6-5.74-5.25-9.34-3.7c-1.66,0.72-2.98,2.04-3.7,3.7
					c-0.71,1.67-0.71,3.56,0,5.23c1.56,3.6,5.74,5.25,9.34,3.69c1.65-0.72,2.97-2.04,3.69-3.69
					C-18898.73-6273.1-18898.73-6274.99-18899.44-6276.66L-18899.44-6276.66z"/>
			</g>
			<g id="Grupo_1411" transform="translate(70.566 77.783)">
				<path id="Trazado_780" class="st1" d="M-18899.44-6276.66c-1.56-3.6-5.74-5.25-9.34-3.69c-1.66,0.72-2.98,2.04-3.69,3.69
					c-0.71,1.67-0.71,3.56,0,5.23c1.56,3.6,5.74,5.25,9.34,3.69c1.65-0.72,2.97-2.04,3.69-3.69
					C-18898.73-6273.1-18898.73-6274.99-18899.44-6276.66z"/>
			</g>
			<g id="Grupo_1412" transform="translate(5.345 19.406)">
				<path id="Trazado_781" class="st1" d="M-18814.81-6234.19c-3.67,0-10.42-2.8-10.42-7.38v-1.58c-0.08-6.88-5.72-12.4-12.6-12.33
					h-9.9v-19.92c-0.04-3.1-2.57-5.58-5.67-5.55h-53.93c-3.1-0.03-5.63,2.45-5.67,5.55v51.57c0.04,3.1,2.57,5.58,5.67,5.55h9.02
					c1.64-7.15,8.76-11.62,15.91-9.99c4.97,1.14,8.85,5.02,9.99,9.99h18.73c1.64-7.15,8.76-11.62,15.91-9.99
					c4.97,1.14,8.85,5.02,9.99,9.99h8.22c3.88,0.04,7.05-3.07,7.1-6.95v-6.65C-18812.48-6233.17-18813.53-6234.2-18814.81-6234.19z"
					/>
			</g>
			<g id="Grupo_1413">
				<path id="Trazado_782" class="st0" d="M-18809.47-6220.01c-1.81,0-4.76-1.43-5.07-2.15v-1.58c-0.12-9.8-8.14-17.66-17.95-17.57
					h-4.55v-14.68c-0.07-6.01-5-10.84-11.01-10.78h-12.98v-3.57c-0.13-5.98-5.08-10.73-11.06-10.6c-5.8,0.12-10.47,4.8-10.6,10.6
					v3.57h-19.3c-6.01-0.05-10.94,4.77-11.01,10.78v51.56c0.07,6.01,5,10.84,11.01,10.78h9.02c1.64,7.15,8.77,11.62,15.92,9.98
					c4.97-1.14,8.84-5.02,9.98-9.98h18.73c1.64,7.15,8.77,11.62,15.92,9.98c4.96-1.14,8.84-5.02,9.98-9.98h8.22
					c6.8,0.06,12.36-5.38,12.44-12.18v-6.65C-18801.83-6216.68-18805.27-6220.05-18809.47-6220.01z M-18877.35-6270.34
					c0.06-3.03,2.56-5.44,5.59-5.38c2.95,0.06,5.33,2.43,5.38,5.38v6.38h-10.97V-6270.34z M-18880.02-6189.36
					c-2.84,0.01-5.4-1.67-6.51-4.28c-0.71-1.67-0.71-3.56,0-5.23c1.56-3.6,5.74-5.25,9.34-3.7c1.66,0.72,2.98,2.04,3.7,3.7
					c0.71,1.67,0.71,3.56,0,5.23C-18874.61-6191.04-18877.18-6189.35-18880.02-6189.36L-18880.02-6189.36z M-18835.38-6189.36
					c-2.83,0.01-5.4-1.67-6.52-4.28c-0.71-1.67-0.71-3.56,0-5.23c1.56-3.6,5.74-5.25,9.34-3.69c1.65,0.72,2.97,2.04,3.69,3.69
					c0.71,1.67,0.71,3.56,0,5.23C-18829.98-6191.04-18832.55-6189.35-18835.38-6189.36L-18835.38-6189.36z M-18807.12-6205.82
					c-0.05,3.88-3.22,6.98-7.1,6.95h-8.22c-1.64-7.15-8.76-11.62-15.91-9.99c-4.97,1.14-8.85,5.02-9.99,9.99h-18.73
					c-1.64-7.15-8.76-11.62-15.91-9.99c-4.97,1.14-8.85,5.02-9.99,9.99h-9.02c-3.1,0.03-5.63-2.45-5.67-5.55v-51.56
					c0.04-3.1,2.57-5.58,5.67-5.55h53.93c3.1-0.03,5.63,2.45,5.67,5.55v19.92h9.9c6.88-0.06,12.52,5.45,12.6,12.33v1.58
					c0,4.57,6.74,7.38,10.42,7.38c1.29-0.01,2.34,1.02,2.35,2.3V-6205.82z"/>
			</g>
		</g>
		<g id="Grupo_1416" transform="translate(70.792 55.718)">
			<g id="Grupo_1415">
				<path id="Trazado_783" class="st0" d="M-18896.48-6266.2h-16.52v-14.75h4.98c6.3-0.06,11.46,4.99,11.54,11.29V-6266.2z
					 M-18910.57-6268.57h11.66v-1.07c-0.06-4.98-4.13-8.96-9.11-8.92h-2.55V-6268.57z"/>
			</g>
		</g>
	</g>
	<rect id="Rect치ngulo_292" x="-18912.88" y="-6280.82" class="st1" width="140" height="140"/>
</g>
</svg>
