<?xml version="1.0" encoding="utf-8"?>
<!-- Generator: Adobe Illustrator 26.3.1, SVG Export Plug-In . SVG Version: 6.00 Build 0)  -->
<svg version="1.1" id="Capa_1" xmlns="http://www.w3.org/2000/svg" xmlns:xlink="http://www.w3.org/1999/xlink" x="0px" y="0px"
	 viewBox="0 0 140 140" style="enable-background:new 0 0 140 140;" xml:space="preserve">
<style type="text/css">
	.st0{fill:#0A2755;}
	.st1{fill:none;}
</style>
<g id="Grupo_1430" transform="translate(19323.805 6280.747)">
	<g id="Grupo_1429" transform="translate(19.136 11.7)">
		<g id="Grupo_1420" transform="translate(60.351 32.654)">
			<g id="Grupo_1419">
				<path id="Trazado_784" class="st0" d="M-19288.24-6244.36l-5.76-0.73c0.14-1.12,0.21-2.25,0.21-3.38
					c-0.02-14.72-11.95-26.65-26.67-26.67c-0.97,0-1.94,0.05-2.91,0.16l-0.63-5.77c1.18-0.13,2.36-0.19,3.54-0.19
					c17.93,0.02,32.45,14.55,32.47,32.47C-19287.98-6247.1-19288.07-6245.72-19288.24-6244.36z"/>
			</g>
		</g>
		<g id="Grupo_1422" transform="translate(0 58.649)">
			<g id="Grupo_1421">
				<path id="Trazado_785" class="st0" d="M-19223.57-6222.5h-93.19c-4-0.01-7.24-3.25-7.25-7.25v-9.31c0-4,3.24-7.24,7.25-7.25
					h32.8v-2.37c0.09-17.88,14.64-32.32,32.52-32.27c8.4-0.02,16.47,3.21,22.54,9.01c6.4,6.04,10.01,14.46,9.98,23.27v4.07
					c1.64,1.38,2.58,3.41,2.59,5.54v9.31C-19216.33-6225.74-19219.57-6222.5-19223.57-6222.5z M-19316.75-6240.5
					c-0.79,0-1.44,0.65-1.44,1.44v9.31c0,0.8,0.65,1.44,1.44,1.44h93.19c0.79,0,1.44-0.65,1.44-1.44v-9.31
					c0-0.57-0.34-1.08-0.86-1.31l-1.72-0.77v-7.54c0.02-7.21-2.94-14.11-8.19-19.07c-4.99-4.77-11.63-7.42-18.53-7.4
					c-14.68-0.05-26.63,11.79-26.72,26.47v8.17L-19316.75-6240.5z"/>
			</g>
		</g>
		<g id="Grupo_1424" transform="translate(7.665)">
			<g id="Grupo_1423">
				<path id="Trazado_786" class="st0" d="M-19301.47-6207.86c-1.39,0-2.72-0.55-3.7-1.53l-17.3-17.29
					c-0.99-0.98-1.54-2.31-1.53-3.7c0-1.39,0.55-2.72,1.53-3.7l7.79-7.79c1.34-1.31,3.27-1.83,5.09-1.35l35.35-35.34
					c1.52-1.52,3.58-2.38,5.73-2.37c2.15-0.01,4.21,0.85,5.73,2.37l9.13,9.13l0,0c1.53,1.52,2.38,3.58,2.37,5.73
					c0.01,2.15-0.85,4.21-2.37,5.73l-35.17,35.17c0.77,1.94,0.31,4.15-1.16,5.63l-7.79,7.79
					C-19298.75-6208.41-19300.08-6207.86-19301.47-6207.86z M-19318.37-6230.39l16.89,16.9l7.39-7.39l-0.28-0.29
					c-1.08-1.07-1.08-2.82,0-3.9c0,0,0,0,0,0l36.82-36.82c1.01-1.01,1.01-2.65,0-3.66l-9.13-9.13c-1.02-0.98-2.63-0.98-3.66,0
					l-36.81,36.81c-0.52,0.52-1.22,0.81-1.95,0.81h-0.01c-0.69,0-1.36-0.26-1.87-0.73L-19318.37-6230.39z"/>
			</g>
		</g>
		<g id="Grupo_1426" transform="translate(19.583 40.604)">
			<g id="Grupo_1425" transform="translate(0 0)">
				
					<rect id="Rectángulo_293" x="-19314.94" y="-6283.96" transform="matrix(0.7076 -0.7066 0.7066 0.7076 -1216.0951 -15480.2012)" class="st0" width="2.51" height="26.67"/>
			</g>
		</g>
		<g id="Grupo_1428" transform="translate(42.563 96.586)">
			<g id="Grupo_1427">
				<rect id="Rectángulo_294" x="-19324" y="-6280.94" class="st0" width="60.41" height="2.51"/>
			</g>
		</g>
	</g>
	<rect id="Rectángulo_295" x="-19323.8" y="-6280.75" class="st1" width="140" height="140"/>
</g>
</svg>
