<?xml version="1.0" encoding="utf-8"?>
<!-- Generator: Adobe Illustrator 26.3.1, SVG Export Plug-In . SVG Version: 6.00 Build 0)  -->
<svg version="1.1" id="Capa_1" xmlns="http://www.w3.org/2000/svg" xmlns:xlink="http://www.w3.org/1999/xlink" x="0px" y="0px"
	 viewBox="0 0 74 74" style="enable-background:new 0 0 74 74;" xml:space="preserve">
<style type="text/css">
	.st0{fill:#0A2755;}
	.st1{fill:none;}
</style>
<g id="Grupo_780" transform="translate(804 988)">
	<g id="Grupo_779">
		<g id="Grupo_776">
			<path id="Trazado_566" class="st0" d="M-747.15-962.82l-0.87-0.85l-17.5,16.93c-0.82,0.78-2.12,0.78-2.95,0l-17.5-16.93
				l-0.87,0.84l12.28,11.88l-12.29,11.88l0.87,0.84l12.28-11.88l4.34,4.2c1.31,1.25,3.38,1.25,4.69,0l4.34-4.2l12.28,11.88
				l0.87-0.84l-12.29-11.88L-747.15-962.82z"/>
		</g>
		<g id="Grupo_778">
			<g id="Grupo_777">
				<path id="Trazado_567" class="st0" d="M-744.78-966.7c1.33-0.02,2.42,1.04,2.45,2.37v26.4c-0.02,1.33-1.12,2.39-2.45,2.37
					l-44.54,0.27c-1.33,0.02-2.42-1.04-2.45-2.37v-26.4c0.02-1.33,1.12-2.39,2.45-2.37L-744.78-966.7 M-744.41-969.51h-45.17
					c-2.8-0.04-5.11,2.19-5.16,4.99v27.04c0.05,2.8,2.36,5.04,5.16,4.99h45.17c2.8,0.04,5.11-2.19,5.16-4.99v-27.04
					C-739.3-967.32-741.61-969.56-744.41-969.51L-744.41-969.51z"/>
			</g>
		</g>
	</g>
	<rect id="Rectángulo_174" x="-804" y="-988" class="st1" width="74" height="74"/>
</g>
</svg>
