<?xml version="1.0" encoding="utf-8"?>
<!-- Generator: Adobe Illustrator 26.3.1, SVG Export Plug-In . SVG Version: 6.00 Build 0)  -->
<svg version="1.1" id="Capa_1" xmlns="http://www.w3.org/2000/svg" xmlns:xlink="http://www.w3.org/1999/xlink" x="0px" y="0px"
	 viewBox="0 0 74 74" style="enable-background:new 0 0 74 74;" xml:space="preserve">
<style type="text/css">
	.st0{fill:none;}
	.st1{fill:#0A2755;}
</style>
<g id="Grupo_238" transform="translate(667 767)">
	<g id="Grupo_237">
		<g id="Grupo_219">
			<path id="Trazado_374" class="st0" d="M-639.1-708.44l0.25,0.1c0.17,0.07,0.34,0.14,0.52,0.21c0.2,0.08,0.41,0.15,0.61,0.22
				c0.17,0.06,0.35,0.12,0.52,0.18c0.21,0.07,0.42,0.13,0.63,0.19c0.17,0.05,0.35,0.11,0.52,0.15c0.07,0.02,0.14,0.03,0.2,0.05
				c-0.94-0.92-1.8-1.92-2.55-3l-0.33,0.89L-639.1-708.44z"/>
		</g>
		<g id="Grupo_220">
			<path id="Trazado_375" class="st0" d="M-635.84-752.59l-0.2,0.05c-0.18,0.05-0.35,0.1-0.53,0.15c-0.21,0.06-0.42,0.12-0.63,0.19
				c-0.18,0.06-0.35,0.12-0.53,0.18c-0.2,0.07-0.41,0.14-0.61,0.22c-0.17,0.07-0.35,0.14-0.52,0.21l-0.59,0.25
				c-0.17,0.08-0.35,0.15-0.51,0.23c-0.19,0.09-0.38,0.18-0.58,0.28c-0.17,0.09-0.33,0.17-0.5,0.26c-0.19,0.1-0.37,0.2-0.56,0.31
				c-0.17,0.09-0.33,0.19-0.49,0.29c-0.18,0.11-0.36,0.22-0.54,0.33c-0.16,0.1-0.32,0.21-0.48,0.31c-0.18,0.12-0.35,0.24-0.52,0.37
				c-0.16,0.11-0.31,0.22-0.46,0.33c-0.17,0.13-0.34,0.26-0.5,0.39c-0.15,0.12-0.3,0.24-0.44,0.36c-0.17,0.14-0.33,0.28-0.49,0.42
				c-0.14,0.13-0.29,0.25-0.43,0.38c-0.16,0.15-0.31,0.3-0.47,0.45c-0.13,0.13-0.27,0.26-0.4,0.4c-0.02,0.03-0.05,0.05-0.08,0.08
				c1.82,0.94,3.74,1.68,5.72,2.2C-640.14-747.21-638.31-750.19-635.84-752.59z"/>
		</g>
		<g id="Grupo_221">
			<path id="Trazado_376" class="st0" d="M-632.24-727l-2.28,6.15l-0.75,2.04c1.46-0.17,2.93-0.26,4.4-0.28v-10.04h-10.83
				c0.02,1.89,0.17,3.77,0.45,5.64l2.9-1.13L-632.24-727z"/>
		</g>
		<g id="Grupo_222">
			<path id="Trazado_377" class="st0" d="M-642.85-722.87c-0.32-2.07-0.5-4.16-0.52-6.26h-10c0.12,3.28,0.93,6.49,2.37,9.43
				l1.42-0.55L-642.85-722.87z"/>
		</g>
		<g id="Grupo_223">
			<path id="Trazado_378" class="st0" d="M-639.42-716.1l0.13-0.36c-0.08,0.02-0.17,0.03-0.25,0.05
				C-639.5-716.3-639.46-716.2-639.42-716.1z"/>
		</g>
		<g id="Grupo_224">
			<path id="Trazado_379" class="st0" d="M-630.86-706.67v-10.76c-1.69,0.03-3.38,0.16-5.06,0.39l-1.75,4.72
				C-635.82-709.11-633.46-707.04-630.86-706.67z"/>
		</g>
		<g id="Grupo_225">
			<path id="Trazado_380" class="st0" d="M-648.02-744.87c-3.29,3.97-5.18,8.91-5.36,14.07h10c0.04-3.91,0.6-7.79,1.68-11.54
				C-643.89-742.93-646.02-743.78-648.02-744.87z"/>
		</g>
		<g id="Grupo_226">
			<path id="Trazado_381" class="st0" d="M-629.2-753.27v10.76c2.92-0.04,5.82-0.38,8.67-1.02
				C-622.49-749.03-625.62-752.76-629.2-753.27z"/>
		</g>
		<g id="Grupo_227">
			<path id="Trazado_382" class="st0" d="M-616.69-730.8h10.01c-0.18-5.15-2.07-10.1-5.36-14.07c-2,1.09-4.13,1.93-6.33,2.52
				C-617.29-738.59-616.73-734.71-616.69-730.8z"/>
		</g>
		<g id="Grupo_228">
			<path id="Trazado_383" class="st0" d="M-629.2-717.43v10.76c3.57-0.51,6.7-4.23,8.67-9.74
				C-623.37-717.04-626.28-717.39-629.2-717.43z"/>
		</g>
		<g id="Grupo_229">
			<path id="Trazado_384" class="st0" d="M-624.22-707.35l0.2-0.05c0.18-0.05,0.35-0.1,0.53-0.15c0.21-0.06,0.42-0.12,0.63-0.19
				c0.18-0.06,0.35-0.12,0.52-0.18c0.2-0.07,0.41-0.14,0.61-0.22c0.17-0.07,0.35-0.14,0.52-0.21c0.2-0.08,0.4-0.17,0.59-0.25
				c0.17-0.08,0.34-0.15,0.51-0.23c0.19-0.09,0.39-0.18,0.58-0.28c0.17-0.08,0.33-0.17,0.5-0.26c0.19-0.1,0.37-0.2,0.56-0.31
				c0.16-0.09,0.32-0.19,0.49-0.29c0.17-0.1,0.36-0.22,0.54-0.33c0.16-0.1,0.32-0.21,0.48-0.31c0.18-0.11,0.35-0.24,0.52-0.36
				c0.16-0.11,0.31-0.22,0.46-0.33c0.17-0.13,0.34-0.26,0.51-0.4c0.15-0.12,0.3-0.24,0.44-0.36c0.17-0.14,0.33-0.28,0.49-0.42
				c0.14-0.13,0.28-0.25,0.42-0.38c0.16-0.15,0.31-0.3,0.47-0.46c0.13-0.13,0.27-0.26,0.4-0.4c0.02-0.02,0.05-0.05,0.08-0.08
				c-1.82-0.94-3.74-1.68-5.72-2.2C-619.92-712.73-621.75-709.75-624.22-707.35z"/>
		</g>
		<g id="Grupo_230">
			<path id="Trazado_385" class="st0" d="M-618.36-729.13h-10.84v10.03c3.1,0.04,6.18,0.41,9.2,1.1
				C-618.95-721.62-618.4-725.36-618.36-729.13z"/>
		</g>
		<g id="Grupo_231">
			<path id="Trazado_386" class="st0" d="M-613.16-746.13c-0.02-0.02-0.05-0.05-0.07-0.08c-0.13-0.14-0.27-0.27-0.4-0.4
				c-0.16-0.15-0.31-0.31-0.47-0.46c-0.14-0.13-0.28-0.25-0.42-0.38c-0.16-0.14-0.32-0.29-0.49-0.43c-0.14-0.12-0.29-0.24-0.44-0.36
				c-0.17-0.14-0.34-0.27-0.51-0.4c-0.15-0.11-0.3-0.22-0.46-0.33c-0.17-0.12-0.35-0.25-0.53-0.37c-0.16-0.11-0.32-0.21-0.47-0.31
				c-0.18-0.12-0.36-0.23-0.54-0.34c-0.16-0.1-0.32-0.19-0.49-0.28c-0.19-0.11-0.37-0.21-0.56-0.31c-0.17-0.09-0.33-0.17-0.5-0.26
				c-0.2-0.1-0.39-0.19-0.58-0.28c-0.17-0.08-0.34-0.16-0.51-0.23l-0.6-0.25c-0.17-0.07-0.34-0.14-0.52-0.2
				c-0.2-0.08-0.41-0.15-0.61-0.22c-0.17-0.06-0.35-0.12-0.52-0.18c-0.21-0.07-0.42-0.13-0.63-0.19c-0.17-0.05-0.35-0.11-0.52-0.15
				c-0.07-0.02-0.14-0.03-0.2-0.05c2.47,2.4,4.31,5.37,5.34,8.66C-616.9-744.45-614.98-745.19-613.16-746.13z"/>
		</g>
		<g id="Grupo_232">
			<path id="Trazado_387" class="st0" d="M-620-741.93c-3.02,0.69-6.1,1.06-9.19,1.1v10.04h10.84
				C-618.4-734.57-618.95-738.31-620-741.93z"/>
		</g>
		<g id="Grupo_233">
			<path id="Trazado_388" class="st0" d="M-641.7-730.8h10.84v-10.04c-3.09-0.04-6.18-0.41-9.19-1.1
				C-641.11-738.32-641.66-734.57-641.7-730.8z"/>
		</g>
		<g id="Grupo_234">
			<path id="Trazado_389" class="st0" d="M-639.53-743.53c2.85,0.64,5.75,0.98,8.67,1.02v-10.76
				C-634.43-752.76-637.57-749.03-639.53-743.53z"/>
		</g>
		<g id="Grupo_235">
			<path id="Trazado_390" class="st0" d="M-618.37-717.59c2.2,0.59,4.33,1.43,6.33,2.52c3.29-3.97,5.17-8.91,5.36-14.06h-10.01
				C-616.73-725.23-617.29-721.34-618.37-717.59z"/>
		</g>
		<g id="Grupo_236">
			<path id="Trazado_391" class="st1" d="M-630.03-755c-0.9,0-1.79,0.05-2.68,0.14c-0.81,0.09-1.62,0.22-2.42,0.39
				c-0.15,0.03-0.31,0.07-0.46,0.1c-4.69,1.07-8.97,3.47-12.34,6.91c-0.31,0.32-0.62,0.65-0.92,0.99
				c-6.59,7.56-8.03,18.33-3.66,27.35l-1.3,0.51l3.2,3.2l0.7,0.7l-2.15,2.15l-2.09,2.08l2.09,2.09l1.2,1.2l2.09,2.09l2.09-2.09
				l2.15-2.15l0.95,0.95l3.26,3.26l0.67-1.81c9.44,3.96,20.35,1.77,27.53-5.53c0.31-0.32,0.62-0.65,0.92-0.99
				c9.12-10.39,8.08-26.21-2.31-35.33C-618.08-752.79-623.95-755-630.03-755z M-646.82-746.21c0.13-0.14,0.27-0.27,0.4-0.4
				c0.16-0.15,0.31-0.31,0.47-0.45c0.14-0.13,0.28-0.26,0.43-0.38c0.16-0.14,0.32-0.28,0.49-0.42c0.14-0.12,0.29-0.24,0.44-0.36
				c0.17-0.13,0.33-0.27,0.5-0.4c0.15-0.11,0.31-0.23,0.46-0.33c0.17-0.12,0.35-0.25,0.52-0.37c0.16-0.11,0.32-0.21,0.48-0.31
				c0.18-0.12,0.36-0.23,0.54-0.33c0.16-0.1,0.33-0.19,0.49-0.29c0.18-0.1,0.37-0.21,0.56-0.31c0.17-0.09,0.33-0.18,0.5-0.26
				c0.19-0.1,0.38-0.19,0.58-0.28c0.17-0.08,0.34-0.16,0.51-0.23l0.59-0.25c0.17-0.07,0.34-0.14,0.52-0.21
				c0.2-0.08,0.41-0.15,0.61-0.22c0.17-0.06,0.35-0.12,0.53-0.18c0.21-0.07,0.42-0.13,0.63-0.19c0.18-0.05,0.35-0.1,0.53-0.15
				l0.2-0.05c-2.47,2.4-4.3,5.37-5.33,8.66c-1.98-0.52-3.9-1.26-5.72-2.2C-646.86-746.16-646.84-746.18-646.82-746.21z
				 M-648.02-744.87c2,1.09,4.13,1.93,6.33,2.52c-1.08,3.76-1.65,7.64-1.68,11.55h-10C-653.19-735.95-651.31-740.9-648.02-744.87z
				 M-651-719.7c-1.44-2.94-2.25-6.16-2.37-9.43h10c0.02,2.1,0.2,4.19,0.52,6.26l-6.74,2.62L-651-719.7z M-639.53-712.85l-1.57,4.24
				l-3.44-3.44l-3.8,3.79l-2.54-2.54l3.8-3.79l-0.89-0.89l-2.35-2.34l8.18-3.18l2.07-0.81l4.49-1.74l-1.74,4.7l-0.89,2.41
				l-0.17,0.47L-639.53-712.85z M-636.05-707.39c-0.17-0.04-0.34-0.1-0.52-0.15c-0.21-0.06-0.42-0.12-0.63-0.19
				c-0.18-0.06-0.35-0.12-0.52-0.18c-0.21-0.07-0.41-0.14-0.61-0.22c-0.17-0.07-0.34-0.14-0.52-0.21l-0.25-0.1l0.37-1.01l0.33-0.89
				c0.75,1.08,1.61,2.08,2.55,3C-635.91-707.36-635.98-707.38-636.05-707.39L-636.05-707.39z M-630.86-706.67
				c-2.59-0.37-4.95-2.44-6.8-5.65l1.75-4.72c1.68-0.23,3.37-0.36,5.06-0.39L-630.86-706.67z M-630.86-719.09
				c-1.47,0.02-2.94,0.12-4.4,0.28l0.75-2.04l2.27-6.15l-6.12,2.38l-2.9,1.13c-0.28-1.87-0.43-3.75-0.45-5.64h10.84L-630.86-719.09z
				 M-630.86-730.8h-10.84c0.04-3.77,0.6-7.51,1.64-11.13c3.02,0.69,6.1,1.06,9.19,1.1L-630.86-730.8z M-630.86-742.51
				c-2.92-0.04-5.82-0.38-8.67-1.02c1.97-5.5,5.1-9.23,8.67-9.74V-742.51z M-612.04-744.87c3.29,3.97,5.17,8.91,5.35,14.07h-10.01
				c-0.04-3.91-0.6-7.79-1.68-11.54C-616.17-742.93-614.05-743.78-612.04-744.87L-612.04-744.87z M-624.02-752.54
				c0.18,0.04,0.35,0.1,0.52,0.15c0.21,0.06,0.42,0.12,0.63,0.19c0.18,0.06,0.35,0.12,0.52,0.18c0.21,0.07,0.41,0.14,0.61,0.22
				c0.17,0.07,0.34,0.14,0.52,0.2l0.6,0.25c0.17,0.08,0.34,0.15,0.51,0.23c0.19,0.09,0.39,0.18,0.58,0.28
				c0.17,0.08,0.33,0.17,0.5,0.26c0.19,0.1,0.38,0.2,0.56,0.31c0.17,0.09,0.33,0.19,0.49,0.28c0.18,0.11,0.36,0.22,0.54,0.34
				c0.16,0.1,0.32,0.2,0.47,0.31c0.18,0.12,0.35,0.24,0.53,0.37c0.15,0.11,0.31,0.22,0.46,0.33c0.17,0.13,0.34,0.26,0.51,0.4
				c0.15,0.12,0.29,0.23,0.44,0.35c0.17,0.14,0.33,0.28,0.49,0.43c0.14,0.13,0.28,0.25,0.42,0.38c0.16,0.15,0.31,0.3,0.47,0.45
				c0.14,0.13,0.27,0.26,0.4,0.4c0.02,0.03,0.05,0.05,0.07,0.08c-1.82,0.94-3.74,1.68-5.72,2.2c-1.03-3.29-2.87-6.26-5.34-8.66
				C-624.15-752.57-624.08-752.56-624.02-752.54z M-629.2-753.27c3.57,0.51,6.7,4.23,8.67,9.74c-2.85,0.64-5.75,0.98-8.67,1.02
				V-753.27z M-629.2-740.84c3.1-0.04,6.18-0.41,9.2-1.1c1.05,3.62,1.6,7.37,1.64,11.14h-10.84V-740.84z M-629.2-729.13h10.84
				c-0.04,3.77-0.59,7.51-1.64,11.13c-3.02-0.69-6.1-1.06-9.19-1.1L-629.2-729.13z M-629.2-706.67v-10.76
				c2.92,0.04,5.82,0.38,8.67,1.02C-622.49-710.9-625.62-707.17-629.2-706.67z M-613.24-713.72c-0.13,0.14-0.27,0.27-0.4,0.4
				c-0.16,0.15-0.31,0.31-0.47,0.45c-0.14,0.13-0.28,0.25-0.42,0.38c-0.16,0.14-0.32,0.29-0.49,0.43c-0.15,0.12-0.3,0.24-0.44,0.36
				c-0.17,0.13-0.33,0.27-0.51,0.4c-0.15,0.11-0.31,0.23-0.46,0.33c-0.17,0.12-0.35,0.25-0.52,0.36c-0.16,0.11-0.32,0.21-0.48,0.31
				c-0.18,0.11-0.36,0.23-0.54,0.33c-0.18,0.11-0.33,0.19-0.49,0.29c-0.18,0.1-0.37,0.21-0.56,0.31c-0.17,0.09-0.33,0.18-0.5,0.26
				c-0.19,0.1-0.38,0.19-0.58,0.28c-0.17,0.08-0.34,0.16-0.51,0.23c-0.2,0.08-0.4,0.17-0.59,0.25c-0.17,0.07-0.34,0.14-0.52,0.21
				c-0.2,0.08-0.41,0.15-0.61,0.22c-0.17,0.06-0.35,0.12-0.52,0.18c-0.21,0.07-0.42,0.13-0.63,0.19c-0.18,0.05-0.35,0.1-0.53,0.15
				l-0.2,0.05c2.47-2.4,4.3-5.37,5.33-8.66c1.98,0.52,3.9,1.26,5.72,2.2C-613.19-713.78-613.22-713.75-613.24-713.72z
				 M-612.04-715.07c-2-1.09-4.13-1.93-6.33-2.52c1.08-3.75,1.65-7.64,1.69-11.54h10C-606.87-723.98-608.75-719.04-612.04-715.07z"
				/>
		</g>
	</g>
	<rect id="Rectángulo_62" x="-667" y="-767" class="st0" width="74" height="74"/>
</g>
</svg>
