<?xml version="1.0" encoding="utf-8"?>
<!-- Generator: Adobe Illustrator 26.3.1, SVG Export Plug-In . SVG Version: 6.00 Build 0)  -->
<svg version="1.1" id="Capa_1" xmlns="http://www.w3.org/2000/svg" xmlns:xlink="http://www.w3.org/1999/xlink" x="0px" y="0px"
	 viewBox="0 0 55 55" style="enable-background:new 0 0 55 55;" xml:space="preserve">
<style type="text/css">
	.st0{fill:#0A2755;}
	.st1{fill:none;}
</style>
<g id="Grupo_805" transform="translate(6.854 8.109)">
	<g id="Grupo_804">
		<path id="Trazado_577" class="st0" d="M36.24,0H5.67C2.71,0,0.31,2.4,0.31,5.36v21.62c0,2.96,2.4,5.36,5.36,5.36h14.16v5.51H12.3
			v2.16h17.3v-2.16h-7.52v-5.51h14.16c2.96,0,5.36-2.4,5.36-5.36V5.36C41.6,2.4,39.2,0,36.24,0z M39.46,26.98
			c0,1.78-1.44,3.22-3.22,3.22H5.67c-1.78,0-3.22-1.44-3.22-3.22V5.36c0-1.78,1.44-3.22,3.22-3.22h30.57c1.78,0,3.22,1.44,3.22,3.22
			V26.98z"/>
	</g>
</g>
<g id="Grupo_807" transform="translate(10.601 28.422)">
	<g id="Grupo_806">
		<path id="Trazado_578" class="st0" d="M6.57,1.91L5.01,6.14L3.88,5.01L2.3,6.58L1.86,6.14l1.57-1.58L2.4,3.53L6.57,1.91 M8.44,0
			L6.17,0.88L2,2.51L0.43,3.12L1.62,4.3l0.26,0.26l-0.8,0.8L0.3,6.14l0.77,0.78l0.45,0.45L2.3,8.14l0.78-0.78l0.8-0.8l0.35,0.35
			l1.21,1.21l0.59-1.6L7.6,2.29C7.6,2.29,8.44,0,8.44,0z M6.57,3L6.57,3z"/>
	</g>
</g>
<g id="Grupo_812" transform="translate(20.627 13.439)">
	<g id="Grupo_809" transform="translate(0 10.122)">
		<g id="Grupo_808">
			<path id="Rectángulo_181" class="st0" d="M7.18,0L7.18,0c3.8,0,6.87,3.08,6.87,6.87v4.68l0,0H0.31l0,0V6.87
				C0.31,3.08,3.38,0,7.18,0z"/>
		</g>
	</g>
	<g id="Grupo_811" transform="translate(2.449)">
		<g id="Grupo_810">
			<circle id="Elipse_53" class="st0" cx="4.8" cy="4.49" r="4.49"/>
		</g>
	</g>
</g>
<rect id="Rectángulo_182" x="0.31" class="st1" width="55" height="55"/>
</svg>
