<?xml version="1.0" encoding="utf-8"?>
<!-- Generator: Adobe Illustrator 26.3.1, SVG Export Plug-In . SVG Version: 6.00 Build 0)  -->
<svg version="1.1" id="Capa_1" xmlns="http://www.w3.org/2000/svg" xmlns:xlink="http://www.w3.org/1999/xlink" x="0px" y="0px"
	 viewBox="0 0 74 74" style="enable-background:new 0 0 74 74;" xml:space="preserve">
<style type="text/css">
	.st0{fill:none;stroke:#0A2755;stroke-width:3;stroke-linecap:round;stroke-miterlimit:10;}
	.st1{fill:#0A2755;}
</style>
<g id="Grupo_414" transform="translate(1474.778 768.945)">
	<g id="Grupo_405" transform="translate(62.39 35.139)">
		<path id="Trazado_438" class="st0" d="M-1473.58-767.85"/>
	</g>
	<g id="Grupo_406" transform="translate(22.117 21.812)">
		<path id="Trazado_439" class="st1" d="M-1457.31-742.97h-13.76c-1.38,0-2.51-1.12-2.51-2.51v-19.86c0-1.38,1.12-2.51,2.51-2.51
			h13.76c1.38,0,2.5,1.12,2.51,2.51v19.86C-1454.81-744.1-1455.93-742.98-1457.31-742.97z M-1471.07-766.46
			c-0.61,0-1.11,0.5-1.11,1.11v19.86c0,0.61,0.5,1.11,1.11,1.11h13.76c0.61,0,1.11-0.5,1.11-1.11v-19.86c0-0.61-0.5-1.11-1.11-1.11
			L-1471.07-766.46z"/>
	</g>
	<g id="Grupo_407" transform="translate(25.62 18.866)">
		<path id="Trazado_440" class="st1" d="M-1473.59-763.75v-1.59c0-1.39,1.13-2.51,2.51-2.51h13.76c1.38,0,2.51,1.12,2.51,2.51v19.86
			c0,1.38-1.12,2.51-2.51,2.51h-1.73v-1.4h1.73c0.61,0,1.11-0.5,1.11-1.11v-19.86c0-0.61-0.5-1.11-1.11-1.11h-13.76
			c-0.61,0-1.11,0.49-1.11,1.11v1.8L-1473.59-763.75z"/>
	</g>
	<g id="Grupo_408" transform="translate(28.943 15.584)">
		<path id="Trazado_441" class="st1" d="M-1473.58-763.75v-1.59c0-1.39,1.13-2.51,2.51-2.51h13.76c1.38,0,2.51,1.12,2.51,2.51v19.86
			c0,1.38-1.12,2.51-2.51,2.51h-1.73v-1.4h1.73c0.61,0,1.11-0.5,1.11-1.11v-19.86c0-0.61-0.5-1.11-1.11-1.11h-13.76
			c-0.61,0-1.11,0.5-1.11,1.11v1.8L-1473.58-763.75z"/>
	</g>
	<g id="Grupo_409" transform="translate(26.227 40.153)">
		<rect id="Rectángulo_90" x="-1473.58" y="-767.85" class="st1" width="10.35" height="1.4"/>
	</g>
	<g id="Grupo_410" transform="translate(26.227 34.065)">
		<rect id="Rectángulo_91" x="-1473.58" y="-767.85" class="st1" width="10.35" height="1.4"/>
	</g>
	<g id="Grupo_411" transform="translate(26.227 27.979)">
		<rect id="Rectángulo_92" x="-1473.58" y="-767.85" class="st1" width="10.35" height="1.4"/>
	</g>
	<g id="Grupo_413" transform="translate(9.222 10.91)">
		<g id="Grupo_412">
			<path id="Trazado_442" class="st1" d="M-1428.69-767.85h-38.19c-3.7,0-6.7,3-6.7,6.7v27.01c0,3.7,3,6.7,6.7,6.7h17.69v6.89h-9.4
				v2.7h21.62v-2.7h-9.4v-6.89h17.69c3.7,0,6.7-3,6.7-6.7v-27.01C-1422-764.85-1424.99-767.85-1428.69-767.85z M-1424.67-734.15
				c0,2.22-1.8,4.02-4.02,4.02h-38.19c-2.22,0-4.02-1.8-4.02-4.02v-27.01c0-2.22,1.8-4.02,4.02-4.02h38.19
				c2.22,0,4.02,1.8,4.02,4.02V-734.15z"/>
		</g>
	</g>
</g>
</svg>
