<?xml version="1.0" encoding="utf-8"?>
<!-- Generator: Adobe Illustrator 26.3.1, SVG Export Plug-In . SVG Version: 6.00 Build 0)  -->
<svg version="1.1" id="Capa_1" xmlns="http://www.w3.org/2000/svg" xmlns:xlink="http://www.w3.org/1999/xlink" x="0px" y="0px"
	 viewBox="0 0 74 74" style="enable-background:new 0 0 74 74;" xml:space="preserve">
<style type="text/css">
	.st0{fill:#0A2755;}
	.st1{fill:none;}
</style>
<g id="Grupo_639" transform="translate(355 746)">
	<g id="Grupo_636">
		<g id="Grupo_635">
			<path id="Trazado_516" class="st0" d="M-308.78-736.83c2.01,0,3.35,1.36,4.02,4.07c-0.61,5.98-3.27,12.52-7.98,19.6
				c-4.49,6.11-7.16,9.6-8.03,10.47c-1.59,0.92-2.38,2.73-2.38,5.43v1.33c0,5.63,2.85,9.4,8.56,11.3c0.6,0.12,1.21,0.19,1.83,0.19
				h0.44c3.49,0,5.99-3.34,7.5-10.02v-0.58c0-0.2-0.21-0.3-0.64-0.3h-2.77c-2.8,0.18-5.42-1.4-6.56-3.96
				c-0.02-0.34-0.06-0.67-0.11-1c0-2.58,2.04-4.27,6.12-5.07l1.08-0.11c2.39-0.13,4.63,1.16,5.7,3.3c0.23,0.7,0.52,1.37,0.86,2.02
				c1.51,0,4.23-1.58,8.14-4.74l1-0.14c1.16,0,1.74,0.53,1.75,1.58c0,1.48-3.04,3.65-9.11,6.54c-1.38,0.28-2.07,1.33-2.08,3.16
				c-0.35,2.71-1.22,5.34-2.55,7.73c-1.79,3.08-5.11,4.95-8.67,4.87h-0.44c-4.32,0-8.33-2.58-12.02-7.75
				c-1.09-2.22-1.63-5.36-1.63-9.44c0-3.56,1.01-8.99,3.02-16.28c1.6-4.53,3.69-8.87,6.23-12.94c0.61-1.79,2.35-4.22,5.23-7.28
				C-310.86-736.17-309.7-736.83-308.78-736.83z M-322.15-705.79v0.17c0-0.24-0.2-0.42-0.43-0.42c-0.01,0-0.02,0-0.04,0h0.33
				c0.22,0,1-0.98,2.33-2.93c6-7.87,9.66-14.6,10.97-20.19c0.5-1.02,0.9-2.09,1.19-3.18c-0.05-0.45-0.3-0.85-0.66-1.11h-0.08
				c-1.07,0.39-2.5,1.98-4.29,4.79c-2.26,3.37-4.24,6.92-5.93,10.61C-321.03-711.65-322.15-707.56-322.15-705.79z M-311.41-700.25
				c0,0.74,0.73,1.25,2.19,1.52c0.51,0.07,1.03,0.1,1.55,0.11c1.9,0,2.85-0.25,2.85-0.75v-0.77c0-1.26-0.96-1.98-2.88-2.19h-0.08
				c-1.45-0.1-2.84,0.6-3.63,1.83V-700.25z"/>
		</g>
	</g>
	<g id="Grupo_638">
		<g id="Grupo_637">
			<path id="Trazado_517" class="st0" d="M-330.34-713.56l-3.91,10.56l-2.82-2.81l-3.93,3.93l-1.11-1.12l3.93-3.93l-2.58-2.58
				L-330.34-713.56 M-325.67-718.32l-5.67,2.21l-10.42,4.05l-3.91,1.52l2.97,2.97l0.65,0.65l-1.99,1.99l-1.94,1.93l1.94,1.94
				l1.11,1.12l1.93,1.94l1.94-1.94l1.99-1.99l0.88,0.88l3.02,3.02l1.48-4.01l3.91-10.57L-325.67-718.32L-325.67-718.32z"/>
		</g>
	</g>
	<rect id="Rectángulo_141" x="-355" y="-746" class="st1" width="74" height="74"/>
</g>
</svg>
