<?xml version="1.0" encoding="utf-8"?>
<!-- Generator: Adobe Illustrator 26.3.1, SVG Export Plug-In . SVG Version: 6.00 Build 0)  -->
<svg version="1.1" id="Capa_1" xmlns="http://www.w3.org/2000/svg" xmlns:xlink="http://www.w3.org/1999/xlink" x="0px" y="0px"
	 viewBox="0 0 74 74" style="enable-background:new 0 0 74 74;" xml:space="preserve">
<style type="text/css">
	.st0{fill:#0A2755;}
	.st1{fill:none;}
</style>
<g id="Grupo_669" transform="translate(1160 746)">
	<g id="Grupo_668">
		<path id="Trazado_524" class="st0" d="M-1095.83-713.27v-14.8c-0.01-5.72-4.65-10.36-10.37-10.36h-33.6
			c-5.72,0-10.36,4.64-10.37,10.36v14.8c-1.13,1.3-1.75,2.97-1.75,4.7v12.04c0,2.77,1.59,5.29,4.09,6.49v4.17
			c0,3.48,2.83,6.31,6.31,6.31s6.31-2.83,6.31-6.31l0,0v-3.45h24.16v3.45c0,3.48,2.82,6.31,6.31,6.31s6.31-2.82,6.31-6.31v-4.05
			c2.64-1.14,4.34-3.74,4.35-6.61v-12.04C-1094.08-710.3-1094.7-711.97-1095.83-713.27z M-1147.17-728.08
			c0.01-4.07,3.3-7.36,7.37-7.36h33.6c4.06,0,7.36,3.3,7.36,7.36v12.29h-6.71v-10.33c0-2.34-1.9-4.24-4.24-4.24h-26.76
			c-2.34,0-4.24,1.9-4.24,4.24v10.33h-6.38V-728.08z M-1107.05-715.78h-32.24v-10.33c0-1.51,1.23-2.74,2.74-2.74h26.76
			c1.51,0,2.74,1.23,2.74,2.74V-715.78z M-1138.58-685.87c0,1.62-1.32,2.94-2.94,2.94c-1.62,0-2.94-1.32-2.94-2.94c0,0,0,0,0,0
			v-3.45h5.88V-685.87z M-1104.74-682.93c-1.62,0-2.94-1.32-2.94-2.94v-3.45h5.88v3.45
			C-1101.8-684.25-1103.12-682.93-1104.74-682.93z M-1097.08-696.53c0,2.32-1.89,4.21-4.21,4.21h-43.42c-2.32,0-4.21-1.89-4.21-4.21
			v-12.04c0-2.32,1.89-4.21,4.21-4.21h43.42c2.32,0,4.21,1.89,4.21,4.21V-696.53z"/>
		<rect id="Rect치ngulo_145" x="-1135.5" y="-705.16" class="st0" width="24.67" height="1.5"/>
		<rect id="Rect치ngulo_146" x="-1135.5" y="-701.33" class="st0" width="24.67" height="1.5"/>
		<rect id="Rect치ngulo_147" x="-1135.5" y="-697.49" class="st0" width="24.67" height="1.5"/>
	</g>
	<rect id="Rect치ngulo_148" x="-1160" y="-746" class="st1" width="74" height="74"/>
</g>
</svg>
