<?xml version="1.0" encoding="utf-8"?>
<!-- Generator: Adobe Illustrator 26.3.1, SVG Export Plug-In . SVG Version: 6.00 Build 0)  -->
<svg version="1.1" id="Capa_1" xmlns="http://www.w3.org/2000/svg" xmlns:xlink="http://www.w3.org/1999/xlink" x="0px" y="0px"
	 viewBox="0 0 74 74" style="enable-background:new 0 0 74 74;" xml:space="preserve">
<style type="text/css">
	.st0{fill:#0A2755;}
	.st1{fill:none;}
</style>
<g id="Grupo_1516" transform="translate(1264 751)">
	<g id="Grupo_1515">
		<g id="Grupo_1507">
			<g id="Grupo_1506">
				<g id="Grupo_1505">
					<path id="Trazado_808" class="st0" d="M-1208.3-689.2c-0.34,0-0.67-0.12-0.93-0.33l-20.96-16.73h-4.04
						c-5.46,0-9.69,5.8-9.69,10.79v4.77c0,0.83-0.67,1.5-1.5,1.5c-0.83,0-1.5-0.67-1.5-1.5v-4.77c0-6.51,5.43-13.79,12.69-13.79
						h4.31c0.04,0,0.08,0,0.12,0s0.08,0,0.12,0h10.18c7.26,0,12.69,7.28,12.69,13.79v4.77
						C-1206.8-689.87-1207.47-689.2-1208.3-689.2z M-1225.39-706.25l15.59,12.44v-1.65c0-4.99-4.23-10.79-9.69-10.79H-1225.39z"/>
				</g>
			</g>
		</g>
		<g id="Grupo_1510">
			<g id="Grupo_1509">
				<g id="Grupo_1508">
					<path id="Trazado_809" class="st0" d="M-1227-713.82c-6.86,0.14-12.53-5.3-12.68-12.16c-0.14-6.86,5.3-12.53,12.16-12.68
						c6.86-0.14,12.53,5.3,12.68,12.16c0,0.09,0,0.17,0,0.26C-1214.78-719.45-1220.22-713.9-1227-713.82z M-1227-735.66
						c-5.2-0.14-9.53,3.96-9.68,9.16c-0.14,5.2,3.96,9.53,9.16,9.68c5.2,0.14,9.53-3.96,9.68-9.16c0-0.09,0-0.17,0-0.26
						C-1217.78-731.37-1221.87-735.58-1227-735.66z"/>
				</g>
			</g>
		</g>
		<g id="Grupo_1512">
			<g id="Grupo_1511">
				<path id="Trazado_810" class="st0" d="M-1221.38-689.2h-9.83c-3.01,0-5.44-2.44-5.44-5.44s2.44-5.44,5.44-5.44h3.6l-3.41-7.01
					c-0.36-0.75-0.05-1.64,0.7-2.01s1.64-0.05,2.01,0.7l8.29,17.05c0.36,0.74,0.05,1.64-0.69,2.01
					C-1220.93-689.25-1221.15-689.2-1221.38-689.2z M-1231.21-697.09c-1.35,0-2.44,1.09-2.44,2.44c0,1.35,1.09,2.44,2.44,2.44h7.43
					l-2.52-5.18c-0.26,0.2-0.58,0.3-0.9,0.3L-1231.21-697.09z"/>
			</g>
		</g>
		<g id="Grupo_1514">
			<g id="Grupo_1513">
				<path id="Trazado_811" class="st0" d="M-1208.3-689.2h-13.94c-0.83,0-1.5-0.67-1.5-1.5s0.67-1.5,1.5-1.5h13.94
					c0.83,0,1.5,0.67,1.5,1.5S-1207.47-689.2-1208.3-689.2z"/>
			</g>
		</g>
	</g>
	<rect id="Rectángulo_312" x="-1264" y="-751" class="st1" width="74" height="74"/>
</g>
</svg>
