<?xml version="1.0" encoding="utf-8"?>
<!-- Generator: Adobe Illustrator 26.3.1, SVG Export Plug-In . SVG Version: 6.00 Build 0)  -->
<svg version="1.1" id="Capa_1" xmlns="http://www.w3.org/2000/svg" xmlns:xlink="http://www.w3.org/1999/xlink" x="0px" y="0px"
	 viewBox="0 0 74 74" style="enable-background:new 0 0 74 74;" xml:space="preserve">
<style type="text/css">
	.st0{fill:#0A2755;}
	.st1{fill:none;}
</style>
<g id="Grupo_648" transform="translate(721 746)">
	<g id="Grupo_647">
		<g id="Grupo_641">
			<path id="Trazado_518" class="st0" d="M-690.14-707.62c-1.35-4.77-5.71-8.06-10.66-8.06l0,0c-6.13,0-11.09,4.97-11.09,11.09
				c0,0,0,0,0,0v7.92h14.25C-697.21-701.37-694.37-705.52-690.14-707.62z"/>
		</g>
		<g id="Grupo_642">
			<circle id="Elipse_45" class="st0" cx="-700.81" cy="-724.43" r="5.64"/>
		</g>
		<g id="Grupo_643">
			<path id="Trazado_519" class="st0" d="M-667.34-715.68c-4.96,0-9.31,3.29-10.66,8.06c4.23,2.11,7.07,6.25,7.51,10.96h14.25v-7.92
				C-656.25-710.72-661.22-715.68-667.34-715.68z"/>
		</g>
		<g id="Grupo_644">
			<circle id="Elipse_46" class="st0" cx="-667.34" cy="-724.43" r="5.64"/>
		</g>
		<g id="Grupo_645">
			<path id="Trazado_520" class="st0" d="M-678.42-704.96c-5.27-3.12-12.07-1.38-15.2,3.89c-0.8,1.35-1.3,2.85-1.48,4.4
				c-0.05,0.41-0.07,0.83-0.07,1.24v11.09h22.19v-11.09c0-0.41-0.03-0.83-0.07-1.24C-673.44-700.12-675.43-703.19-678.42-704.96z"/>
		</g>
		<g id="Grupo_646">
			<circle id="Elipse_47" class="st0" cx="-684.07" cy="-715.27" r="5.64"/>
		</g>
	</g>
	<rect id="Rectángulo_142" x="-721" y="-746" class="st1" width="74" height="74"/>
</g>
</svg>
