<?xml version="1.0" standalone="no"?>
<!DOCTYPE svg PUBLIC "-//W3C//DTD SVG 20010904//EN"
 "http://www.w3.org/TR/2001/REC-SVG-20010904/DTD/svg10.dtd">
<svg version="1.0" xmlns="http://www.w3.org/2000/svg"
 width="321.000000pt" height="286.000000pt" viewBox="0 0 321.000000 286.000000"
 preserveAspectRatio="xMidYMid meet">

<g transform="translate(0.000000,286.000000) scale(0.100000,-0.100000)"
fill="#000000" stroke="none">
<path d="M447 2326 c-91 -33 -164 -109 -187 -198 -7 -23 -10 -302 -8 -765 l3
-728 23 -42 c30 -58 86 -111 141 -137 38 -17 72 -21 200 -26 l154 -5 13 -37
c30 -86 99 -159 192 -201 71 -32 198 -30 272 4 93 44 162 116 189 202 l13 37
241 0 242 0 18 -49 c55 -154 251 -253 413 -207 66 19 149 71 181 114 28 37 63
108 63 126 0 11 29 15 153 18 144 4 155 5 210 33 70 35 120 88 155 164 24 51
26 67 27 191 0 156 -4 177 -47 225 -40 46 -89 71 -155 78 -28 3 -70 15 -92 27
-41 20 -41 20 -41 79 0 203 -160 392 -367 436 -37 8 -100 15 -139 15 l-72 0
-4 218 c-5 255 -14 290 -99 366 -88 79 -47 76 -898 76 -610 -1 -763 -3 -794
-14z m1561 -140 c15 -8 38 -26 52 -41 l25 -27 3 -289 3 -289 142 0 c206 0 287
-26 366 -116 47 -53 73 -117 78 -193 2 -36 6 -76 9 -88 13 -65 135 -145 240
-159 82 -10 86 -19 82 -172 -3 -124 -4 -130 -32 -166 -46 -61 -91 -76 -234
-76 l-122 0 -11 27 c-39 103 -98 170 -187 211 -49 23 -70 27 -147 27 -78 -1
-98 -4 -147 -28 -71 -35 -151 -120 -175 -188 l-18 -49 -240 0 -241 0 -18 50
c-20 56 -82 131 -136 165 -179 113 -437 33 -508 -158 l-20 -52 -133 -3 c-160
-3 -190 8 -227 79 l-22 44 2 705 c3 681 4 706 23 734 10 16 33 37 50 47 28 18
67 19 773 19 619 0 748 -2 770 -14z m-830 -1521 c75 -32 112 -86 112 -165 0
-85 -49 -148 -132 -171 -111 -29 -229 59 -228 172 1 125 132 212 248 164z
m1202 -19 c43 -28 80 -96 80 -146 0 -45 -33 -111 -69 -138 -123 -90 -293 -10
-293 138 0 143 161 226 282 146z"/>
<path d="M2100 1266 l0 -196 216 0 216 0 -4 88 c-7 131 -55 210 -163 263 -54
26 -78 32 -164 36 l-101 6 0 -197z m201 112 c50 -14 114 -69 139 -119 11 -21
20 -58 20 -84 l0 -46 -147 3 -148 3 -3 128 -3 127 52 0 c28 0 69 -5 90 -12z"/>
</g>
</svg>
