<?xml version="1.0" encoding="utf-8"?>
<!-- Generator: Adobe Illustrator 26.3.1, SVG Export Plug-In . SVG Version: 6.00 Build 0)  -->
<svg version="1.1" id="Capa_1" xmlns="http://www.w3.org/2000/svg" xmlns:xlink="http://www.w3.org/1999/xlink" x="0px" y="0px"
	 viewBox="0 0 74 74" style="enable-background:new 0 0 74 74;" xml:space="preserve">
<style type="text/css">
	.st0{fill:none;stroke:#0A2755;stroke-width:33;stroke-miterlimit:10;}
	.st1{fill:#0A2755;}
	.st2{fill:none;}
</style>
<g id="Grupo_363" transform="translate(595 748)">
	<g id="Grupo_347">
		<g id="Grupo_346">
			<path id="Trazado_422" class="st0" d="M-572.53-689.25"/>
		</g>
	</g>
	<g id="Grupo_362">
		<g id="Grupo_349">
			<g id="Grupo_348">
				<path id="Trazado_423_00000085954036971727640100000012170964993139226261_" class="st1" d="M-578.28-704.87
					c-1.8,0-3.26-1.46-3.26-3.26v-21.69c0.01-1.8,1.46-3.26,3.26-3.26h40.56c1.8,0,3.26,1.46,3.26,3.26v20.28h2.92v-20.28
					c0-3.41-2.77-6.18-6.18-6.18h-40.56c-3.41,0-6.18,2.77-6.18,6.18v21.69c0,3.41,2.77,6.18,6.18,6.18V-704.87z"/>
			</g>
		</g>
		<g id="Grupo_351">
			<g id="Grupo_350">
				<path id="Trazado_424" class="st1" d="M-571.13-686v-1.78c0.05-2.32,1.97-4.16,4.28-4.12h5.45c2.32-0.05,4.24,1.8,4.29,4.12
					v1.78H-571.13z"/>
			</g>
		</g>
		<g id="Grupo_353">
			<g id="Grupo_352">
				<path id="Trazado_425" class="st1" d="M-571.25-701.95h-2.91v-6.43c0-2.2,1.78-3.98,3.98-3.98h11.68l9.85-9.85l2.05,2.06
					l-11.35,10.76l-12.23-0.06c-0.59,0-1.07,0.48-1.07,1.07V-701.95z"/>
			</g>
		</g>
		<g id="Grupo_355">
			<g id="Grupo_354">
				<circle id="Elipse_32" class="st1" cx="-571.34" cy="-721.75" r="5.86"/>
			</g>
		</g>
		<g id="Grupo_357">
			<g id="Grupo_356">
				<circle id="Elipse_33" class="st1" cx="-564.11" cy="-697.77" r="3.92"/>
			</g>
		</g>
		<g id="Grupo_359">
			<g id="Grupo_358">
				<path id="Trazado_426" class="st1" d="M-551.97-686v-1.78c0.05-2.32,1.97-4.16,4.28-4.12h5.45c2.32-0.04,4.23,1.8,4.28,4.11
					v1.79H-551.97z"/>
			</g>
		</g>
		<g id="Grupo_361">
			<g id="Grupo_360">
				<circle id="Elipse_34" class="st1" cx="-544.96" cy="-697.77" r="3.92"/>
			</g>
		</g>
	</g>
	<rect id="Rectángulo_81" x="-595" y="-748" class="st2" width="74" height="74"/>
</g>
</svg>
