<?xml version="1.0" encoding="utf-8"?>
<!-- Generator: Adobe Illustrator 26.3.1, SVG Export Plug-In . SVG Version: 6.00 Build 0)  -->
<svg version="1.1" id="Capa_1" xmlns="http://www.w3.org/2000/svg" xmlns:xlink="http://www.w3.org/1999/xlink" x="0px" y="0px"
	 viewBox="0 0 74 74" style="enable-background:new 0 0 74 74;" xml:space="preserve">
<style type="text/css">
	.st0{fill:#0A2755;}
	.st1{fill:none;}
</style>
<g id="Grupo_392" transform="translate(1422 747)">
	<g id="Grupo_391">
		<g id="Grupo_386">
			<g id="Grupo_380">
				<g id="Grupo_379">
					<path id="Trazado_431" class="st0" d="M-1407.15-732.06v41.82c-0.01,2.88,2.33,5.23,5.21,5.24h33.87
						c2.88-0.01,5.22-2.36,5.21-5.24v-41.82H-1407.15z M-1403.86-729.14h37.68v34.84c0.03,1.36-1.05,2.49-2.41,2.52h-32.85
						c-1.36-0.03-2.44-1.16-2.41-2.52V-729.14z M-1365.58-690.24c0.01,1.38-1.1,2.51-2.48,2.52c0,0,0,0,0,0h-33.87
						c-1.38-0.01-2.49-1.13-2.48-2.51c0,0,0,0,0,0v-1.54c0.66,0.99,1.77,1.59,2.97,1.59h32.85c1.22-0.01,2.36-0.63,3.02-1.67
						V-690.24z"/>
				</g>
			</g>
			<g id="Grupo_385">
				<g id="Grupo_381">
					<circle id="Elipse_35" class="st0" cx="-1404.21" cy="-732.07" r="2.93"/>
				</g>
				<g id="Grupo_382">
					<circle id="Elipse_36" class="st0" cx="-1391.41" cy="-732.07" r="2.93"/>
				</g>
				<g id="Grupo_383">
					<circle id="Elipse_37" class="st0" cx="-1378.59" cy="-732.07" r="2.93"/>
				</g>
				<g id="Grupo_384">
					<circle id="Elipse_38" class="st0" cx="-1365.79" cy="-732.07" r="2.93"/>
				</g>
			</g>
		</g>
		<g id="Grupo_390">
			<g id="Grupo_389">
				<g id="Grupo_388">
					<g id="Grupo_387">
						<path id="Trazado_432" class="st0" d="M-1389.28-718.7l1.29-2.29h4.84v22.12h-2.46v-19.84H-1389.28z"/>
					</g>
				</g>
			</g>
		</g>
	</g>
	<rect id="Rectángulo_85" x="-1422" y="-747" class="st1" width="74" height="74"/>
</g>
</svg>
