<?xml version="1.0" encoding="utf-8"?>
<!-- Generator: Adobe Illustrator 26.3.1, SVG Export Plug-In . SVG Version: 6.00 Build 0)  -->
<svg version="1.1" id="Capa_1" xmlns="http://www.w3.org/2000/svg" xmlns:xlink="http://www.w3.org/1999/xlink" x="0px" y="0px"
	 viewBox="0 0 74 74" style="enable-background:new 0 0 74 74;" xml:space="preserve">
<style type="text/css">
	.st0{fill:#0A2755;}
	.st1{fill:none;}
</style>
<g id="Grupo_736" transform="translate(498 747)">
	<g id="Grupo_735">
		<g id="Grupo_726">
			<g id="Grupo_725">
				<path id="Trazado_555" class="st0" d="M-461.4-693.32c-9.24-0.18-16.58-7.81-16.41-17.05c0.18-9.24,7.81-16.58,17.05-16.41
					c9.11,0.17,16.41,7.61,16.41,16.73C-444.45-700.72-452.08-693.24-461.4-693.32z M-461.4-723.7
					c-7.54,0.18-13.51,6.43-13.33,13.97c0.18,7.54,6.43,13.51,13.97,13.33c7.42-0.17,13.34-6.23,13.34-13.65
					C-447.52-717.67-453.77-723.78-461.4-723.7L-461.4-723.7z"/>
			</g>
		</g>
		<g id="Grupo_728">
			<g id="Grupo_727">
				
					<rect id="Rect치ngulo_165" x="-444.99" y="-701.66" transform="matrix(0.7071 -0.7071 0.7071 0.7071 359.437 -516.2244)" class="st0" width="3.07" height="19.3"/>
			</g>
		</g>
		<g id="Grupo_730">
			<g id="Grupo_729">
				<path id="Trazado_556" class="st0" d="M-441.36-679.17h-40.88c-2.33,0-4.22-1.89-4.22-4.22v-53.23c0-2.33,1.89-4.22,4.22-4.22
					h40.88c2.33,0,4.22,1.89,4.22,4.22v41.76h-2.92v-41.76c0-0.72-0.58-1.3-1.3-1.3h-40.88c-0.72,0-1.3,0.58-1.3,1.3l0,0v53.23
					c0,0.72,0.58,1.3,1.3,1.3c0,0,0,0,0,0h40.88V-679.17z"/>
			</g>
		</g>
		<g id="Grupo_732">
			<g id="Grupo_731">
				<rect id="Rect치ngulo_166" x="-479.11" y="-730.58" class="st0" width="33.22" height="1.33"/>
			</g>
		</g>
		<g id="Grupo_734">
			<g id="Grupo_733">
				<rect id="Rect치ngulo_167" x="-479.11" y="-688.86" class="st0" width="33.22" height="1.33"/>
			</g>
		</g>
	</g>
	<rect id="Rect치ngulo_168" x="-498" y="-747" class="st1" width="74" height="74"/>
</g>
</svg>
