<?xml version="1.0" encoding="utf-8"?>
<!-- Generator: Adobe Illustrator 26.3.1, SVG Export Plug-In . SVG Version: 6.00 Build 0)  -->
<svg version="1.1" id="Capa_1" xmlns="http://www.w3.org/2000/svg" xmlns:xlink="http://www.w3.org/1999/xlink" x="0px" y="0px"
	 viewBox="0 0 140 140" style="enable-background:new 0 0 140 140;" xml:space="preserve">
<style type="text/css">
	.st0{fill:#0A2755;}
	.st1{fill:none;}
</style>
<g id="Grupo_1810" transform="translate(241 2220.105)">
	<g id="Grupo_1795" transform="translate(33.382 25.713)">
		<g id="Grupo_1794">
			<path id="Trazado_869" class="st0" d="M-212.74-2138.73l-23.88-4.38l-4.38-23.88l53.11-53.11l28.26,28.26L-212.74-2138.73z
				 M-231.61-2148.12l16.91,3.1l46.83-46.82l-20.02-20.02l-46.83,46.82L-231.61-2148.12z"/>
		</g>
	</g>
	<g id="Grupo_1797" transform="translate(73.627 17.643)">
		<g id="Grupo_1796" transform="translate(0 0)">
			
				<rect id="Rectángulo_360" x="-219" y="-2227.51" transform="matrix(0.7071 -0.7071 0.7071 0.7071 1488.9431 -795.7488)" class="st0" width="5.83" height="64.65"/>
		</g>
	</g>
	<g id="Grupo_1799" transform="translate(89.606 16.962)">
		<g id="Grupo_1798">
			<path id="Trazado_870" class="st0" d="M-227.87-2186.2l-13.13-13.13l20.78-20.78l13.13,13.13L-227.87-2186.2z M-232.76-2199.33
				l4.88,4.89l12.54-12.54l-4.88-4.88L-232.76-2199.33z"/>
		</g>
	</g>
	<g id="Grupo_1801" transform="translate(100.021 10.725)">
		<g id="Grupo_1800">
			
				<rect id="Rectángulo_361" x="-229.42" y="-2223.2" transform="matrix(0.7071 -0.7071 0.7071 0.7071 1493.259 -806.1684)" class="st0" width="5.83" height="35.18"/>
		</g>
	</g>
	<g id="Grupo_1803" transform="translate(19.268 97.713)">
		<g id="Grupo_1802" transform="translate(0 0)">
			
				<rect id="Rectángulo_362" x="-243" y="-2211.2" transform="matrix(0.7041 -0.7101 0.7101 0.7041 1500.2695 -816.2184)" class="st0" width="27.51" height="5.83"/>
		</g>
	</g>
	<g id="Grupo_1805" transform="translate(57.461 57.105)">
		<g id="Grupo_1804" transform="translate(0 0)">
			
				<rect id="Rectángulo_363" x="-235.3" y="-2221.7" transform="matrix(0.7071 -0.7071 0.7071 0.7071 1496.4152 -813.7306)" class="st0" width="2.6" height="17.19"/>
		</g>
	</g>
	<g id="Grupo_1807" transform="translate(46.824 68.088)">
		<g id="Grupo_1806" transform="translate(0 0)">
			
				<rect id="Rectángulo_364" x="-235.31" y="-2221.7" transform="matrix(0.7071 -0.7071 0.7071 0.7071 1496.3663 -813.6713)" class="st0" width="2.6" height="17.18"/>
		</g>
	</g>
	<g id="Grupo_1809" transform="translate(69.042 45.771)">
		<g id="Grupo_1808" transform="translate(0 0)">
			
				<rect id="Rectángulo_365" x="-235.3" y="-2221.7" transform="matrix(0.7071 -0.7071 0.7071 0.7071 1496.366 -813.6699)" class="st0" width="2.6" height="17.19"/>
		</g>
	</g>
	<rect id="Rectángulo_366" x="-241" y="-2220.1" class="st1" width="140" height="140"/>
</g>
</svg>
