<?xml version="1.0" encoding="utf-8"?>
<!-- Generator: Adobe Illustrator 26.3.1, SVG Export Plug-In . SVG Version: 6.00 Build 0)  -->
<svg version="1.1" id="Capa_1" xmlns="http://www.w3.org/2000/svg" xmlns:xlink="http://www.w3.org/1999/xlink" x="0px" y="0px"
	 viewBox="0 0 140 140" style="enable-background:new 0 0 140 140;" xml:space="preserve">
<style type="text/css">
	.st0{fill:#0A2755;}
	.st1{fill:none;}
</style>
<g id="Grupo_1824" transform="translate(496.686 2217.685)">
	<g id="Grupo_1823" transform="translate(16.103 19.68)">
		<g id="Grupo_1812" transform="translate(5.394 95.379)">
			<g id="Grupo_1811">
				<rect id="Rectángulo_367" x="-497" y="-2218" class="st0" width="103.03" height="5.89"/>
			</g>
		</g>
		<g id="Grupo_1814">
			<g id="Grupo_1813">
				<path id="Trazado_871" class="st0" d="M-491.8-2120.57c-0.87,0-1.74-0.04-2.61-0.13c-1.59-0.16-2.74-1.58-2.58-3.17
					c0.07-0.68,0.37-1.31,0.86-1.78l94.48-91.54c1.09-1.06,2.81-1.09,3.94-0.08l7.71,6.87c1.19,1.06,1.3,2.88,0.24,4.07
					c-0.05,0.05-0.09,0.1-0.14,0.15l-56.92,55.63l3.54,3.53c1.13,1.12,1.13,2.95,0.01,4.07c-0.08,0.08-0.17,0.16-0.26,0.24
					C-444.73-2141.77-471.99-2120.57-491.8-2120.57z M-399.55-2211.17l-87.05,84.34c13.78-2.5,30.52-13.85,36.88-18.47l-3.24-3.24
					c-1.13-1.12-1.13-2.95-0.01-4.07c0.01-0.01,0.02-0.02,0.03-0.03l56.8-55.51L-399.55-2211.17z"/>
			</g>
		</g>
		<g id="Grupo_1816" transform="translate(42.66 52.226)">
			<g id="Grupo_1815" transform="translate(0 0)">
				
					<rect id="Rectángulo_368" x="-493.82" y="-2218.61" transform="matrix(0.6809 -0.7324 0.7324 0.6809 1464.1177 -1067.1261)" class="st0" width="2.63" height="9.82"/>
			</g>
		</g>
		<g id="Grupo_1818" transform="translate(59.803 37.426)">
			<g id="Grupo_1817" transform="translate(0 0)">
				
					<rect id="Rectángulo_369" x="-495.44" y="-2217.86" transform="matrix(0.7299 -0.6836 0.6836 0.7299 1380.6677 -936.0767)" class="st0" width="2.63" height="5.62"/>
			</g>
		</g>
		<g id="Grupo_1820" transform="translate(68.177 27.531)">
			<g id="Grupo_1819" transform="translate(0 0)">
				
					<rect id="Rectángulo_370" x="-495.16" y="-2217.96" transform="matrix(0.7389 -0.6739 0.6739 0.7389 1363.4595 -911.1545)" class="st0" width="2.63" height="6.47"/>
			</g>
		</g>
		<g id="Grupo_1822" transform="translate(77.634 19.425)">
			<g id="Grupo_1821" transform="translate(0 0)">
				
					<rect id="Rectángulo_371" x="-495.46" y="-2217.83" transform="matrix(0.759 -0.651 0.651 0.759 1322.9702 -855.4219)" class="st0" width="2.63" height="5.69"/>
			</g>
		</g>
	</g>
	<rect id="Rectángulo_372" x="-496.69" y="-2217.69" class="st1" width="140" height="140"/>
</g>
</svg>
