<?xml version="1.0" encoding="utf-8"?>
<!-- Generator: Adobe Illustrator 26.3.1, SVG Export Plug-In . SVG Version: 6.00 Build 0)  -->
<svg version="1.1" id="Capa_1" xmlns="http://www.w3.org/2000/svg" xmlns:xlink="http://www.w3.org/1999/xlink" x="0px" y="0px"
	 viewBox="0 0 140 140" style="enable-background:new 0 0 140 140;" xml:space="preserve">
<style type="text/css">
	.st0{fill:#0A2755;}
	.st1{fill:none;}
</style>
<g id="Grupo_1868" transform="translate(1006.281 2234.281)">
	<g id="Grupo_1867" transform="translate(11.2 13.228)">
		<g id="Grupo_1848" transform="translate(0.164 54.113)">
			<g id="Grupo_1847">
				<path id="Trazado_880" class="st0" d="M-947.84-2173.39c-14.08,0-25.54-10.99-25.54-24.5c0-8.73,3.75-15.56,10.86-19.85v-11.72
					H-1006v-4.55h48.03v18.95l-1.2,0.64c-6.41,3.43-9.66,8.99-9.66,16.52c0,11,9.42,19.96,20.99,19.96
					c11.58,0,20.99-8.95,20.99-19.96c0-8.88-6.07-13.81-11.16-16.38l-1.25-0.63v-19.1h49.58v4.55h-45.03v11.79
					c8.01,4.49,12.41,11.46,12.41,19.78C-922.3-2184.38-933.76-2173.39-947.84-2173.39z"/>
			</g>
		</g>
		<g id="Grupo_1850" transform="translate(44.092)">
			<g id="Grupo_1849">
				<path id="Trazado_881" class="st0" d="M-991.76-2127.97c-7.86,0-14.23-6.36-14.24-14.22c0-4.96,2.58-9.56,6.81-12.15l5.16-77.55
					c0.08-1.19,1.07-2.12,2.27-2.12h0.02c1.2,0.01,2.19,0.96,2.25,2.16l3.88,76.81c7.09,3.39,10.09,11.88,6.7,18.97
					C-981.29-2131.11-986.28-2127.96-991.76-2127.97L-991.76-2127.97z M-992.08-2192.79l-2.66,40c-0.05,0.81-0.54,1.53-1.27,1.89
					c-4.81,2.34-6.81,8.14-4.46,12.95c2.34,4.81,8.14,6.81,12.95,4.46s6.81-8.14,4.46-12.95c-1.12-2.3-3.1-4.06-5.51-4.9
					c-0.87-0.31-1.47-1.11-1.52-2.03L-992.08-2192.79z"/>
			</g>
		</g>
		<g id="Grupo_1852" transform="translate(70.126 63.763)">
			<g id="Grupo_1851">
				<path id="Trazado_882" class="st0" d="M-961.36-2220.15c-4.66,0-7-3.08-8.87-5.55c-1.82-2.4-2.96-3.76-5.25-3.76
					s-3.43,1.36-5.25,3.76c-1.88,2.47-4.21,5.55-8.87,5.55c-4.66,0-6.99-3.08-8.87-5.55c-1.82-2.4-2.96-3.75-5.24-3.75
					c-1.26,0-2.27-1.02-2.27-2.27s1.02-2.27,2.27-2.27l0,0c4.66,0,6.99,3.08,8.87,5.55c1.82,2.4,2.96,3.75,5.24,3.75
					c2.29,0,3.43-1.36,5.25-3.75c1.88-2.47,4.21-5.55,8.87-5.55c4.66,0,7,3.08,8.88,5.55c1.82,2.4,2.96,3.75,5.25,3.75
					c1.26,0,2.27,1.02,2.27,2.27S-960.1-2220.15-961.36-2220.15z"/>
			</g>
		</g>
		<g id="Grupo_1854" transform="translate(0 63.763)">
			<g id="Grupo_1853">
				<path id="Trazado_883" class="st0" d="M-975.48-2220.15c-4.66,0-7-3.08-8.87-5.55c-1.82-2.4-2.96-3.76-5.25-3.76
					s-3.43,1.36-5.25,3.76c-1.88,2.47-4.21,5.55-8.87,5.55c-1.26,0-2.27-1.02-2.27-2.27s1.02-2.27,2.27-2.27
					c2.29,0,3.43-1.36,5.25-3.75c1.88-2.47,4.21-5.55,8.87-5.55c4.66,0,7,3.08,8.87,5.55c1.82,2.4,2.96,3.75,5.25,3.75
					s3.43-1.36,5.24-3.75c1.88-2.48,4.21-5.55,8.87-5.55c1.26,0,2.27,1.02,2.27,2.27s-1.02,2.27-2.27,2.27
					c-2.29,0-3.43,1.36-5.25,3.75C-968.48-2223.23-970.82-2220.15-975.48-2220.15z"/>
			</g>
		</g>
		<g id="Grupo_1856" transform="translate(12.773 82.938)">
			<g id="Grupo_1855">
				<circle id="Elipse_81" class="st0" cx="-1003.47" cy="-2231.47" r="2.53"/>
			</g>
		</g>
		<g id="Grupo_1858" transform="translate(1.4 94.298)">
			<g id="Grupo_1857">
				<circle id="Elipse_82" class="st0" cx="-1003.47" cy="-2231.47" r="2.53"/>
			</g>
		</g>
		<g id="Grupo_1860" transform="translate(21.849 94.298)">
			<g id="Grupo_1859">
				<circle id="Elipse_83" class="st0" cx="-1003.47" cy="-2231.47" r="2.53"/>
			</g>
		</g>
		<g id="Grupo_1862" transform="translate(100.632 82.938)">
			<g id="Grupo_1861">
				<circle id="Elipse_84" class="st0" cx="-1003.47" cy="-2231.47" r="2.53"/>
			</g>
		</g>
		<g id="Grupo_1864" transform="translate(89.258 94.298)">
			<g id="Grupo_1863">
				<circle id="Elipse_85" class="st0" cx="-1003.47" cy="-2231.47" r="2.53"/>
			</g>
		</g>
		<g id="Grupo_1866" transform="translate(109.708 94.298)">
			<g id="Grupo_1865">
				<circle id="Elipse_86" class="st0" cx="-1003.47" cy="-2231.47" r="2.53"/>
			</g>
		</g>
	</g>
	<rect id="Rectángulo_374" x="-1006.28" y="-2234.28" class="st1" width="140" height="140"/>
</g>
</svg>
