<?xml version="1.0" encoding="utf-8"?>
<!-- Generator: Adobe Illustrator 26.3.1, SVG Export Plug-In . SVG Version: 6.00 Build 0)  -->
<svg version="1.1" id="Capa_1" xmlns="http://www.w3.org/2000/svg" xmlns:xlink="http://www.w3.org/1999/xlink" x="0px" y="0px"
	 viewBox="0 0 140 140" style="enable-background:new 0 0 140 140;" xml:space="preserve">
<style type="text/css">
	.st0{fill:#0A2755;}
	.st1{fill:none;}
</style>
<g id="Grupo_1876" transform="translate(1258.156 2248.775)">
	<g id="Grupo_1875" transform="translate(40.121 11.127)">
		<g id="Grupo_1870" transform="translate(16.78)">
			<g id="Grupo_1869">
				<path id="Trazado_884" class="st0" d="M-1247.31-2227.12c-5.9,0-10.69-4.79-10.69-10.69c0-5.9,4.79-10.69,10.69-10.69
					c5.9,0,10.69,4.79,10.69,10.69C-1236.62-2231.91-1241.41-2227.12-1247.31-2227.12z M-1247.31-2243.27
					c-3.02,0-5.46,2.45-5.46,5.47c0,3.02,2.45,5.46,5.46,5.46s5.46-2.45,5.46-5.46l0,0
					C-1241.85-2240.83-1244.29-2243.27-1247.31-2243.27z"/>
			</g>
		</g>
		<g id="Grupo_1872" transform="translate(31.158 48.632)">
			<g id="Grupo_1871">
				<path id="Trazado_885" class="st0" d="M-1249.2-2231.97c0,0,7.99-4.78,8.71-9.8c0.6-4.13-2.03-6.53-4.45-6.71
					c-1.67-0.17-3.31,0.59-4.26,1.97c-0.96-1.38-2.59-2.14-4.26-1.97c-2.42,0.18-5.05,2.59-4.45,6.71
					C-1257.19-2236.75-1249.2-2231.97-1249.2-2231.97z"/>
			</g>
		</g>
		<g id="Grupo_1874" transform="translate(0 21.839)">
			<g id="Grupo_1873">
				<path id="Trazado_886" class="st0" d="M-1228.62-2152.99c-4.54,0-8.23-3.11-8.23-6.94l-0.13-28.5l-5.28,0.07
					c-1.59,0.02-2.9-1.26-2.92-2.85c0-0.18,0.01-0.35,0.04-0.53l3.42-19.73l-2.89,5.98c-1.47,3.83-5.68,4.95-8.97,3.79
					c-3.35-1.05-5.2-4.62-4.15-7.96c0.04-0.13,0.09-0.26,0.13-0.39c0.83-2.4,3.48-8.24,6.29-14.43c2.13-4.71,4.15-9.15,5.05-11.39
					c1.32-3.31,4.84-12.11,15.26-12.62c11.2-0.51,15.39,12.38,16.42,16.45c10.08,1.47,17.07,10.83,15.6,20.91
					c-0.89,6.1-4.77,11.36-10.34,14l0.78,5.24c0.23,1.57-0.86,3.04-2.43,3.27c-0.14,0.02-0.28,0.03-0.42,0.03h-10.35l0.13,28.64
					C-1221.62-2156.08-1224.76-2152.97-1228.62-2152.99z M-1234.12-2194.23c1.59,0,2.88,1.28,2.88,2.87l0.14,31.42
					c0,0.37,0.93,1.19,2.47,1.19c0.66,0.01,1.22-0.51,1.26-1.17l-0.14-31.52c-0.01-1.59,1.27-2.89,2.86-2.9c0.01,0,0.01,0,0.02,0
					h9.91l-0.62-4.2c-0.21-1.4,0.63-2.74,1.97-3.17c6.67-2.13,10.35-9.26,8.22-15.94c-1.66-5.19-6.44-8.74-11.89-8.82
					c-1.41-0.02-2.6-1.06-2.81-2.46l-0.14-0.96c-0.01,0-2.66-13.23-10.74-12.84c-5.58,0.27-8.11,3.79-10.19,9
					c-0.94,2.36-2.99,6.87-5.15,11.63c-2.51,5.53-5.35,11.8-6.1,13.94c-0.15,0.42-0.26,0.76,0.49,1.02
					c0.43,0.15,1.44,0.24,1.69-0.45c0.04-0.1,0.08-0.19,0.12-0.29l11.9-24.67c0.69-1.43,2.42-2.03,3.85-1.34
					c1.16,0.56,1.81,1.82,1.59,3.09l-6.34,36.64l4.71-0.06H-1234.12z"/>
			</g>
		</g>
	</g>
	<rect id="Rectángulo_375" x="-1258.16" y="-2248.27" class="st1" width="140" height="139"/>
</g>
</svg>
