<?xml version="1.0" encoding="utf-8"?>
<!-- Generator: Adobe Illustrator 26.3.1, SVG Export Plug-In . SVG Version: 6.00 Build 0)  -->
<svg version="1.1" id="Capa_1" xmlns="http://www.w3.org/2000/svg" xmlns:xlink="http://www.w3.org/1999/xlink" x="0px" y="0px"
	 viewBox="0 0 140 140" style="enable-background:new 0 0 140 140;" xml:space="preserve">
<style type="text/css">
	.st0{fill:#0A2755;}
	.st1{fill:none;}
</style>
<g id="Grupo_1882" transform="translate(1518.4 2222.4)">
	<g id="Grupo_1881" transform="translate(11.616 11.618)">
		<g id="Grupo_1878">
			<g id="Grupo_1877">
				<path id="Trazado_887" class="st0" d="M-1445.49-2105.21h-29.21c-4.8-0.01-8.69-3.9-8.7-8.7v-26.89h-26.89
					c-4.8-0.01-8.69-3.9-8.7-8.7v-29.21c0.01-4.8,3.9-8.69,8.7-8.7h26.89v-26.89c0.01-4.8,3.9-8.69,8.7-8.7h29.21
					c4.8,0.01,8.69,3.9,8.7,8.7v26.89h26.89c4.8,0.01,8.69,3.9,8.7,8.7v29.21c-0.01,4.8-3.9,8.69-8.7,8.7h-26.89v26.89
					C-1436.8-2109.1-1440.69-2105.21-1445.49-2105.21z M-1510.3-2181.58c-1.59,0-2.87,1.29-2.88,2.87v29.21
					c0,1.59,1.29,2.87,2.88,2.87h32.71v32.72c0,1.59,1.29,2.87,2.88,2.88h29.21c1.59,0,2.87-1.29,2.88-2.88v-32.72h32.71
					c1.59,0,2.87-1.29,2.88-2.87v-29.21c0-1.59-1.29-2.87-2.88-2.87h-32.72v-32.71c0-1.59-1.28-2.88-2.87-2.88h-29.21
					c-1.59,0-2.88,1.29-2.88,2.88v32.71H-1510.3z"/>
			</g>
		</g>
		<g id="Grupo_1880" transform="translate(16.639 23.676)">
			<g id="Grupo_1879" transform="translate(0 0)">
				<path id="Trazado_888" class="st0" d="M-1472.61-2159.08c-0.04,0-0.07,0-0.11,0c-0.62-0.05-1.11-0.53-1.18-1.14l-6.04-51.03
					l-4.68,35.37c-0.09,0.71-0.75,1.21-1.46,1.12c-0.41-0.05-0.78-0.3-0.97-0.67l-6.03-11.13h-24.61c-0.72,0-1.3-0.58-1.3-1.3
					c0-0.72,0.58-1.3,1.3-1.3h25.39c0.48,0,0.92,0.26,1.14,0.68l4.48,8.29l5.52-41.68c0.12-0.63,0.66-1.1,1.3-1.13
					c0.66,0.01,1.2,0.5,1.28,1.15l6.51,54.96l6.19-21.32c0.16-0.56,0.67-0.94,1.25-0.94h26.89c0.72,0,1.3,0.58,1.3,1.3
					c0,0.72-0.58,1.3-1.3,1.3h-25.91l-7.7,26.54C-1471.53-2159.46-1472.04-2159.08-1472.61-2159.08z"/>
			</g>
		</g>
	</g>
	<rect id="Rectángulo_376" x="-1519.4" y="-2223.4" class="st1" width="142" height="142"/>
</g>
</svg>
