<?xml version="1.0" encoding="utf-8"?>
<!-- Generator: Adobe Illustrator 26.3.1, SVG Export Plug-In . SVG Version: 6.00 Build 0)  -->
<svg version="1.1" id="Capa_1" xmlns="http://www.w3.org/2000/svg" xmlns:xlink="http://www.w3.org/1999/xlink" x="0px" y="0px"
	 viewBox="0 0 140 140" style="enable-background:new 0 0 140 140;" xml:space="preserve">
<style type="text/css">
	.st0{fill:#0A2755;}
	.st1{fill:none;}
</style>
<g id="Grupo_1896" transform="translate(165.453 2581.12)">
	<g id="Grupo_1895" transform="translate(95.731 15.943)">
		<g id="Grupo_1890">
			<g id="Grupo_1889">
				<path id="Trazado_889" class="st0" d="M-191.18-2480.12c-0.47,0-0.93-0.13-1.33-0.37c-1.79-1.07-43.96-26.61-47.99-54.45
					c-2.02-13.98,2.52-23.1,6.69-28.3c4.77-6.11,11.86-9.97,19.58-10.68c12.15-0.93,19.56,7.66,23.05,13.24
					c3.49-5.58,10.9-14.18,23.06-13.24c7.72,0.71,14.8,4.58,19.57,10.69c4.17,5.19,8.71,14.32,6.69,28.3
					c-0.93,6.46-4.01,13.31-9.15,20.38c-0.9,1.12-2.54,1.29-3.66,0.38c-1.03-0.84-1.27-2.32-0.54-3.44
					c4.64-6.38,7.4-12.45,8.21-18.07c1.75-12.13-2.08-19.91-5.6-24.3c-3.87-4.99-9.63-8.16-15.91-8.76
					c-13.71-1-20,13.94-20.26,14.57c-0.4,0.97-1.35,1.61-2.4,1.61h-0.01c-1.05,0-2-0.64-2.4-1.62c-0.26-0.63-6.57-15.58-20.26-14.57
					c-6.28,0.6-12.04,3.77-15.91,8.76c-3.52,4.39-7.35,12.17-5.6,24.3c3.29,22.81,37,45.35,44.18,49.91
					c5.47-3.49,10.73-7.29,15.78-11.37c1.07-0.96,2.71-0.87,3.67,0.2c0.96,1.07,0.87,2.71-0.2,3.67c-0.07,0.06-0.14,0.12-0.21,0.17
					c-5.63,4.58-11.54,8.8-17.71,12.62C-190.25-2480.25-190.71-2480.12-191.18-2480.12z"/>
			</g>
		</g>
		<g id="Grupo_1892" transform="translate(74.571 50.702)">
			<g id="Grupo_1891">
				<path id="Trazado_890" class="st0" d="M-237.42-2539.58c-1.98,0-3.58-1.6-3.58-3.58v-27.25c0-1.98,1.6-3.58,3.58-3.58
					s3.58,1.6,3.58,3.58v27.25C-233.83-2541.19-235.44-2539.58-237.42-2539.58C-237.41-2539.58-237.42-2539.58-237.42-2539.58z"/>
			</g>
		</g>
		<g id="Grupo_1894" transform="translate(60.946 64.327)">
			<g id="Grupo_1893">
				<path id="Trazado_891" class="st0" d="M-210.17-2566.83h-27.25c-1.98,0-3.58-1.6-3.58-3.58c0-1.98,1.6-3.58,3.58-3.58h27.25
					c1.98,0,3.58,1.6,3.58,3.58C-206.58-2568.44-208.19-2566.83-210.17-2566.83L-210.17-2566.83z"/>
			</g>
		</g>
	</g>
	<rect id="Rectángulo_377" x="-158.45" y="-2574.12" class="st1" width="126" height="126"/>
</g>
</svg>
