<?xml version="1.0" encoding="utf-8"?>
<!-- Generator: Adobe Illustrator 26.3.1, SVG Export Plug-In . SVG Version: 6.00 Build 0)  -->
<svg version="1.1" id="Capa_1" xmlns="http://www.w3.org/2000/svg" xmlns:xlink="http://www.w3.org/1999/xlink" x="0px" y="0px"
	 viewBox="0 0 140 140" style="enable-background:new 0 0 140 140;" xml:space="preserve">
<style type="text/css">
	.st0{fill:#0A2755;}
	.st1{fill:none;}
</style>
<g id="Grupo_1912" transform="translate(497.299 2581.299)">
	<g id="Grupo_1911" transform="translate(11.778 44.109)">
		<g id="Grupo_1898">
			<g id="Grupo_1897">
				<path id="Trazado_892" class="st0" d="M-487.78-2529.82h-1.06c-4.51,0-8.16-3.66-8.16-8.16v-34.86c0-4.51,3.66-8.16,8.16-8.16
					h1.06c4.51,0,8.16,3.66,8.16,8.16v34.86C-479.62-2533.47-483.27-2529.82-487.78-2529.82z M-488.84-2575.24
					c-1.33,0-2.41,1.08-2.41,2.41v34.86c0,1.33,1.08,2.41,2.41,2.41h1.06c1.33,0,2.41-1.08,2.41-2.41v-34.86
					c0-1.33-1.08-2.41-2.41-2.41H-488.84z"/>
			</g>
		</g>
		<g id="Grupo_1900" transform="translate(11.629)">
			<g id="Grupo_1899">
				<path id="Trazado_893" class="st0" d="M-487.78-2529.82h-1.06c-4.51,0-8.16-3.66-8.16-8.16v-34.86c0-4.51,3.66-8.16,8.16-8.16
					h1.06c4.51,0,8.16,3.66,8.16,8.16v34.86C-479.62-2533.47-483.27-2529.82-487.78-2529.82z M-488.84-2575.24
					c-1.33,0-2.4,1.08-2.41,2.41v34.86c0,1.33,1.08,2.4,2.41,2.41h1.06c1.33,0,2.4-1.08,2.41-2.41v-34.86c0-1.33-1.08-2.4-2.41-2.41
					H-488.84z"/>
			</g>
		</g>
		<g id="Grupo_1902" transform="translate(23.259)">
			<g id="Grupo_1901">
				<path id="Trazado_894" class="st0" d="M-487.78-2529.82h-1.06c-4.51-0.01-8.16-3.66-8.16-8.16v-34.86
					c0-4.51,3.66-8.16,8.16-8.16h1.06c4.51,0,8.16,3.66,8.16,8.16v34.86C-479.62-2533.47-483.27-2529.82-487.78-2529.82z
					 M-488.84-2575.24c-1.33,0-2.4,1.08-2.4,2.41v34.86c0,1.33,1.07,2.4,2.4,2.41h1.06c1.33,0,2.4-1.08,2.41-2.41v-34.86
					c0-1.33-1.08-2.4-2.41-2.41H-488.84z"/>
			</g>
		</g>
		<g id="Grupo_1904" transform="translate(75.201)">
			<g id="Grupo_1903">
				<path id="Trazado_895" class="st0" d="M-487.77-2529.82h-1.07c-4.51,0-8.16-3.66-8.16-8.16v-34.86c0-4.51,3.66-8.16,8.16-8.16
					h1.07c4.51,0.01,8.16,3.66,8.16,8.16v34.86C-479.61-2533.47-483.27-2529.82-487.77-2529.82z M-488.84-2575.24
					c-1.33,0-2.4,1.08-2.41,2.41v34.86c0,1.33,1.08,2.4,2.41,2.41h1.07c1.33,0,2.4-1.08,2.4-2.41v-34.86c0-1.33-1.07-2.4-2.4-2.41
					H-488.84z"/>
			</g>
		</g>
		<g id="Grupo_1906" transform="translate(86.83)">
			<g id="Grupo_1905">
				<path id="Trazado_896" class="st0" d="M-487.78-2529.82h-1.06c-4.51,0-8.16-3.66-8.16-8.16v-34.86c0-4.51,3.66-8.16,8.16-8.16
					h1.06c4.51,0,8.16,3.66,8.16,8.16v34.86C-479.62-2533.47-483.27-2529.82-487.78-2529.82z M-488.84-2575.24
					c-1.33,0-2.41,1.08-2.41,2.41v34.86c0,1.33,1.08,2.4,2.41,2.41h1.06c1.33,0,2.4-1.08,2.41-2.41v-34.86
					c0-1.33-1.08-2.4-2.41-2.41H-488.84z"/>
			</g>
		</g>
		<g id="Grupo_1908" transform="translate(98.461)">
			<g id="Grupo_1907">
				<path id="Trazado_897" class="st0" d="M-487.78-2529.82h-1.06c-4.51,0-8.16-3.66-8.16-8.16v-34.86c0-4.51,3.66-8.16,8.16-8.16
					h1.06c4.5,0.01,8.15,3.66,8.16,8.16v34.86C-479.62-2533.48-483.27-2529.82-487.78-2529.82z M-488.84-2575.24
					c-1.33,0-2.41,1.08-2.41,2.41v34.86c0,1.33,1.08,2.41,2.41,2.41h1.06c1.33,0,2.41-1.08,2.41-2.41v-34.86
					c0-1.33-1.08-2.41-2.41-2.41H-488.84z"/>
			</g>
		</g>
		<g id="Grupo_1910" transform="translate(34.888 22.713)">
			<g id="Grupo_1909">
				<path id="Trazado_898" class="st0" d="M-453.81-2575.24h-40.31c-1.59,0-2.88-1.29-2.88-2.88s1.29-2.88,2.88-2.88h40.31
					c1.59,0,2.88,1.29,2.88,2.88S-452.22-2575.24-453.81-2575.24z"/>
			</g>
		</g>
	</g>
	<rect id="Rectángulo_378" x="-497.3" y="-2581.3" class="st1" width="140" height="140"/>
</g>
</svg>
