<?xml version="1.0" encoding="utf-8"?>
<!-- Generator: Adobe Illustrator 26.3.1, SVG Export Plug-In . SVG Version: 6.00 Build 0)  -->
<svg version="1.1" id="Capa_1" xmlns="http://www.w3.org/2000/svg" xmlns:xlink="http://www.w3.org/1999/xlink" x="0px" y="0px"
	 viewBox="0 0 140 140" style="enable-background:new 0 0 140 140;" xml:space="preserve">
<style type="text/css">
	.st0{fill:#0A2755;}
	.st1{fill:none;}
</style>
<g id="Grupo_1934" transform="translate(753 2581)">
	<g id="Grupo_1933" transform="translate(17.237 17.221)">
		<g id="Grupo_1914" transform="translate(16.961 37.021)">
			<g id="Grupo_1913">
				<path id="Trazado_899" class="st0" d="M-722.23-2568.66h-11.25v-11.01c-0.01-0.74-0.61-1.33-1.35-1.33h-4.2
					c-0.74-0.01-1.35,0.58-1.36,1.32c0,0,0,0,0,0v11.01h-11.25c-0.74-0.01-1.35,0.59-1.35,1.33c0,0,0,0,0,0v4.11
					c0.01,0.74,0.61,1.33,1.35,1.33c0,0,0,0,0,0h11.25v11.01c0.01,0.74,0.61,1.33,1.35,1.33c0,0,0,0,0,0h4.2
					c0.74,0.01,1.35-0.59,1.35-1.33v-11.01h11.25c0.74,0.01,1.35-0.59,1.35-1.33v-4.11
					C-720.88-2568.08-721.49-2568.67-722.23-2568.66z"/>
			</g>
		</g>
		<g id="Grupo_1916" transform="translate(39.853)">
			<g id="Grupo_1915">
				<rect id="Rect치ngulo_379" x="-753" y="-2581" class="st0" width="2.42" height="5.28"/>
			</g>
		</g>
		<g id="Grupo_1918" transform="translate(27.694 2.972)">
			<g id="Grupo_1917">
				<path id="Trazado_900" class="st0" d="M-750.13-2575.27l-2.87-4.47l2.05-1.26l2.87,4.47L-750.13-2575.27z"/>
			</g>
		</g>
		<g id="Grupo_1920" transform="translate(22.649 12.996)">
			<g id="Grupo_1919" transform="translate(0)">
				<rect id="Rect치ngulo_380" x="-753" y="-2581" class="st0" width="5.39" height="2.37"/>
			</g>
		</g>
		<g id="Grupo_1922" transform="translate(53.743 12.996)">
			<g id="Grupo_1921">
				<rect id="Rect치ngulo_381" x="-753" y="-2581" class="st0" width="5.39" height="2.37"/>
			</g>
		</g>
		<g id="Grupo_1924" transform="translate(47.679 2.1)">
			<g id="Grupo_1923">
				<path id="Trazado_901" class="st0" d="M-750.84-2575.22l-2.16-1.08l2.44-4.7l2.16,1.08L-750.84-2575.22z"/>
			</g>
		</g>
		<g id="Grupo_1930" transform="translate(0 7.593)">
			<g id="Grupo_1925" transform="translate(35.59 5.222)">
				<path id="Trazado_902" class="st1" d="M-742.05-2575.64c-0.06-3.02-2.56-5.43-5.58-5.37c-2.94,0.06-5.32,2.43-5.37,5.37v6.37
					h10.95V-2575.64z"/>
			</g>
			<g id="Grupo_1926" transform="translate(25.889 77.645)">
				<path id="Trazado_903" class="st1" d="M-739.46-2576.73c-1.55-3.59-5.72-5.25-9.32-3.69c-1.66,0.72-2.98,2.04-3.69,3.69
					c-0.71,1.67-0.71,3.55,0,5.22c1.55,3.59,5.72,5.24,9.31,3.69c1.66-0.72,2.98-2.04,3.69-3.69
					C-738.76-2573.17-738.76-2575.06-739.46-2576.73L-739.46-2576.73z"/>
			</g>
			<g id="Grupo_1927" transform="translate(70.441 77.645)">
				<path id="Trazado_904" class="st1" d="M-739.46-2576.73c-1.55-3.59-5.72-5.24-9.31-3.69c-1.66,0.72-2.98,2.04-3.69,3.69
					c-0.71,1.67-0.71,3.55,0,5.22c1.55,3.59,5.72,5.24,9.31,3.69c1.66-0.72,2.98-2.04,3.69-3.69
					C-738.75-2573.17-738.75-2575.06-739.46-2576.73z"/>
			</g>
			<g id="Grupo_1928" transform="translate(5.335 19.371)">
				<path id="Trazado_905" class="st1" d="M-654.99-2534.33c-3.67,0-10.4-2.8-10.4-7.36v-1.58c-0.08-6.87-5.71-12.38-12.58-12.31
					h-9.88v-19.88c-0.04-3.09-2.57-5.57-5.66-5.54h-53.84c-3.09-0.03-5.62,2.45-5.66,5.54v51.47c0.04,3.09,2.57,5.56,5.66,5.53h9
					c1.63-7.14,8.74-11.61,15.88-9.97c4.96,1.13,8.84,5.01,9.97,9.97h18.7c1.64-7.14,8.75-11.6,15.89-9.96
					c4.96,1.14,8.83,5.01,9.96,9.96h8.21c3.87,0.04,7.04-3.07,7.09-6.94v-6.64C-652.66-2533.31-653.71-2534.34-654.99-2534.33z"/>
			</g>
			<g id="Grupo_1929">
				<path id="Trazado_906" class="st0" d="M-649.65-2520.18c-1.81,0-4.75-1.43-5.06-2.14v-1.58c-0.12-9.78-8.13-17.63-17.91-17.53
					h-4.54v-14.66c-0.07-6-4.99-10.82-10.99-10.76h-12.96v-3.57c-0.13-5.97-5.07-10.71-11.04-10.58
					c-5.79,0.12-10.45,4.79-10.58,10.58v3.57h-19.27c-6-0.05-10.92,4.76-10.99,10.76v51.47c0.07,6,4.99,10.81,10.99,10.76h9
					c1.63,7.14,8.74,11.61,15.88,9.97c4.96-1.13,8.84-5.01,9.97-9.97h18.7c1.63,7.14,8.74,11.61,15.88,9.97
					c4.96-1.13,8.84-5.01,9.97-9.97h8.2c6.78,0.06,12.34-5.37,12.42-12.16v-6.64C-642.02-2516.85-645.46-2520.22-649.65-2520.18z
					 M-717.41-2570.42c0.06-3.02,2.56-5.43,5.58-5.37c2.94,0.06,5.32,2.43,5.37,5.37v6.37h-10.95V-2570.42z M-720.08-2489.58
					c-2.83,0.01-5.39-1.67-6.5-4.27c-0.71-1.67-0.71-3.55,0-5.22c1.55-3.59,5.72-5.25,9.32-3.69c1.66,0.72,2.98,2.04,3.69,3.69
					c0.71,1.67,0.71,3.55,0,5.22C-714.68-2491.25-717.25-2489.57-720.08-2489.58L-720.08-2489.58z M-675.53-2489.58
					c-2.83,0.01-5.39-1.67-6.5-4.27c-0.71-1.67-0.71-3.55,0-5.22c1.55-3.59,5.72-5.24,9.31-3.69c1.66,0.72,2.98,2.04,3.69,3.69
					c0.71,1.67,0.71,3.55,0,5.22C-670.13-2491.25-672.69-2489.57-675.53-2489.58L-675.53-2489.58z M-647.3-2506.02
					c-0.05,3.87-3.22,6.97-7.09,6.94h-8.21c-1.63-7.14-8.74-11.61-15.88-9.97c-4.96,1.13-8.84,5.01-9.97,9.97h-18.7
					c-1.63-7.14-8.74-11.61-15.88-9.97c-4.96,1.13-8.84,5.01-9.97,9.97h-9c-3.09,0.03-5.62-2.45-5.65-5.54v-51.47
					c0.04-3.09,2.56-5.57,5.65-5.54h53.84c3.09-0.03,5.62,2.45,5.66,5.54v19.88h9.88c6.87-0.06,12.5,5.44,12.58,12.31v1.58
					c0,4.57,6.73,7.36,10.4,7.36c1.28-0.01,2.33,1.02,2.35,2.3L-647.3-2506.02z"/>
			</g>
		</g>
		<g id="Grupo_1932" transform="translate(70.666 55.619)">
			<g id="Grupo_1931">
				<path id="Trazado_907" class="st0" d="M-736.51-2566.28H-753V-2581h4.98c6.29-0.06,11.44,4.98,11.52,11.27V-2566.28z
					 M-750.58-2568.65h11.64v-1.07c-0.06-4.97-4.13-8.95-9.09-8.9h-2.55L-750.58-2568.65z"/>
			</g>
		</g>
	</g>
	<rect id="Rect치ngulo_382" x="-753" y="-2581" class="st1" width="140" height="140"/>
</g>
</svg>
