<?xml version="1.0" encoding="utf-8"?>
<!-- Generator: Adobe Illustrator 26.3.1, SVG Export Plug-In . SVG Version: 6.00 Build 0)  -->
<svg version="1.1" id="Capa_1" xmlns="http://www.w3.org/2000/svg" xmlns:xlink="http://www.w3.org/1999/xlink" x="0px" y="0px"
	 viewBox="0 0 140 140" style="enable-background:new 0 0 140 140;" xml:space="preserve">
<style type="text/css">
	.st0{fill:#082854;}
	.st1{fill:none;}
</style>
<g id="Grupo_1956" transform="translate(1008.848 2581)">
	<g id="Grupo_1955" transform="translate(14.184 19.414)">
		<g id="Grupo_1936" transform="translate(0 32.316)">
			<g id="Grupo_1935">
				<path id="Trazado_908" class="st0" d="M-939.91-2512.69c-1.61,0.01-3.16-0.6-4.33-1.7c-3.93-3.66-61.56-59.91-64.01-62.31
					c-0.99-0.97-1.01-2.56-0.05-3.55s2.56-1.01,3.55-0.05c0,0,0,0,0,0c0.6,0.59,60.04,58.61,63.93,62.22
					c0.9,0.84,2.37,0.09,3.13-0.71c1.05-0.93,1.15-2.53,0.23-3.59c-0.12-0.14-0.25-0.26-0.4-0.37
					c-6.27-6.05-17.62-17.74-17.73-17.86c-0.97-1-0.94-2.59,0.05-3.55c1-0.97,2.59-0.94,3.55,0.05l0,0
					c0.11,0.12,11.4,11.75,17.61,17.74c3.13,2.73,3.46,7.47,0.73,10.6c-0.13,0.15-0.26,0.29-0.4,0.42
					C-935.56-2513.69-937.67-2512.74-939.91-2512.69z"/>
			</g>
		</g>
		<g id="Grupo_1938" transform="translate(10.088 49.14)">
			<g id="Grupo_1937">
				<path id="Trazado_909" class="st0" d="M-1000.88-2561.42c-0.23,0-0.46-0.01-0.69-0.03c-2.17-0.18-4.18-1.22-5.56-2.9
					c-2.69-3.26-2.44-8.04,0.58-11.01l5.07-4.94c0.97-0.99,2.56-1,3.55-0.02c0.99,0.97,1,2.56,0.02,3.55
					c-0.02,0.02-0.05,0.05-0.07,0.07l-5.07,4.94c-1.2,1.23-1.17,3.19,0.06,4.38c1.13,1.1,2.9,1.18,4.12,0.18l5.87-5.05
					c1.04-0.92,2.62-0.83,3.54,0.21c0.92,1.04,0.83,2.62-0.21,3.54c-0.02,0.02-0.04,0.04-0.07,0.06l-5.87,5.05
					C-997.07-2562.11-998.95-2561.42-1000.88-2561.42z"/>
			</g>
		</g>
		<g id="Grupo_1940" transform="translate(17.655 59.288)">
			<g id="Grupo_1939">
				<path id="Trazado_910" class="st0" d="M-1000.88-2561.42c-0.23,0-0.46-0.01-0.69-0.03c-2.17-0.18-4.18-1.22-5.56-2.9
					c-2.69-3.26-2.44-8.04,0.58-11.01l5.07-4.94c1.01-0.95,2.6-0.89,3.55,0.12c0.92,0.98,0.9,2.52-0.05,3.48l-5.07,4.94
					c-1.15,1.13-1.25,2.96-0.22,4.2c0.53,0.64,1.29,1.04,2.12,1.1c0.83,0.08,1.65-0.19,2.27-0.74l5.87-5.05
					c1.05-0.91,2.64-0.79,3.54,0.27c0.91,1.05,0.79,2.64-0.27,3.54l0,0l-5.87,5.05C-997.07-2562.11-998.94-2561.42-1000.88-2561.42z
					"/>
			</g>
		</g>
		<g id="Grupo_1942" transform="translate(24.388 66.975)">
			<g id="Grupo_1941">
				<path id="Trazado_911" class="st0" d="M-1000.88-2561.42c-0.23,0-0.46-0.01-0.69-0.03c-2.17-0.18-4.18-1.22-5.56-2.9
					c-2.69-3.26-2.44-8.04,0.58-11.01l5.07-4.93c0.99-0.97,2.58-0.95,3.55,0.05s0.95,2.58-0.05,3.55l-5.07,4.94
					c-1.15,1.13-1.25,2.96-0.22,4.2c1.1,1.32,3.05,1.49,4.37,0.4c0.01-0.01,0.02-0.02,0.03-0.03l5.87-5.05
					c1.05-0.9,2.64-0.78,3.54,0.27c0.9,1.05,0.78,2.64-0.27,3.54l0,0l-5.88,5.05C-997.07-2562.11-998.95-2561.41-1000.88-2561.42z"
					/>
			</g>
		</g>
		<g id="Grupo_1944" transform="translate(32.78 76.329)">
			<g id="Grupo_1943">
				<path id="Trazado_912" class="st0" d="M-1000.88-2561.42c-0.23,0-0.46-0.01-0.69-0.03c-2.17-0.18-4.18-1.22-5.56-2.9
					c-2.69-3.26-2.44-8.04,0.58-11.01l5.07-4.94c1.01-0.95,2.6-0.89,3.55,0.12c0.92,0.98,0.9,2.52-0.05,3.48l-5.07,4.94
					c-1.15,1.13-1.25,2.96-0.22,4.2c0.53,0.64,1.29,1.04,2.12,1.11c0.83,0.08,1.65-0.19,2.28-0.74l5.87-5.05
					c1.05-0.9,2.64-0.78,3.54,0.27s0.78,2.64-0.27,3.54l0,0l-5.88,5.05C-997.08-2562.11-998.95-2561.41-1000.88-2561.42z"/>
			</g>
		</g>
		<g id="Grupo_1946" transform="translate(56.251 60.2)">
			<g id="Grupo_1945">
				<path id="Trazado_913" class="st0" d="M-993.99-2548.8c-1.22-0.01-2.42-0.23-3.57-0.65c-1.32-0.44-2.03-1.86-1.59-3.18
					c0.44-1.32,1.86-2.03,3.18-1.59c0.03,0.01,0.06,0.02,0.09,0.03c2.72,0.97,4.16-0.2,4.89-1.35c0.94-1.48,0.81-3.09,0.43-3.47
					l-17.71-17.71c-0.98-0.98-0.98-2.57,0-3.55c0.98-0.98,2.57-0.98,3.55,0l17.72,17.71c2.23,2.23,2.34,6.4,0.26,9.7
					C-988.28-2550.33-991.03-2548.8-993.99-2548.8z"/>
			</g>
		</g>
		<g id="Grupo_1948" transform="translate(64.195 52.02)">
			<g id="Grupo_1947">
				<path id="Trazado_914" class="st0" d="M-994.01-2548.76c-1.72-0.01-3.4-0.53-4.83-1.5c-1.16-0.76-1.47-2.32-0.71-3.48
					s2.32-1.47,3.48-0.71l0,0c1.87,1.16,4.32,0.63,5.55-1.19c1.12-1.14,1.11-2.97-0.03-4.09c-0.02-0.02-0.05-0.05-0.07-0.07
					c-5.55-5.08-17.51-16.78-17.63-16.9c-0.99-0.97-1.01-2.56-0.04-3.55c0.97-0.99,2.56-1.01,3.55-0.04
					c0.12,0.12,12.01,11.76,17.5,16.77c3.17,2.89,3.44,7.4,0.67,10.95C-988.34-2550.23-991.08-2548.83-994.01-2548.76z"/>
			</g>
		</g>
		<g id="Grupo_1950" transform="translate(14.683 8.582)">
			<g id="Grupo_1949">
				<path id="Trazado_915" class="st0" d="M-939.39-2513.41c-0.29,0-0.58-0.01-0.87-0.03c-1.38-0.1-2.43-1.3-2.33-2.68
					c0.1-1.38,1.3-2.43,2.68-2.33c2.03,0.15,3.55-0.52,4.07-1.76c0.41-1.3-0.06-2.71-1.17-3.5c-4.03-3.51-32.27-32.25-37.36-37.43
					h-11.22c0.06,2.95-0.37,7.52-3.08,10.72c-2.14,2.43-5.27,3.76-8.51,3.62c-4.11,0-7.06-0.95-8.99-2.91
					c-2.89-2.92-2.84-7.2-2.78-11.73c0.02-1.29,0.03-2.62-0.02-3.99c-0.28-3.86,1.04-7.67,3.64-10.53c2.98-3.17,7.5-4.84,13.44-4.97
					c10.32-0.22,36.71,0.24,36.98,0.24c0.67,0.01,1.3,0.29,1.76,0.77l29.36,30.56c0.93,0.97,0.93,2.5,0,3.48l-13.93,14.55
					c1.92,1.89,3.34,3.26,4.02,3.85c2.75,2.2,3.76,5.92,2.51,9.21C-932.48-2515.23-935.57-2513.41-939.39-2513.41z M-988.31-2566.17
					h14.99c0.67,0,1.32,0.27,1.79,0.75c0.25,0.26,19.09,19.45,30.23,30.55l12.2-12.75l-26.96-28.08
					c-5.01-0.08-26.68-0.42-35.73-0.22c-4.54,0.1-7.87,1.24-9.89,3.39c-1.65,1.9-2.48,4.39-2.28,6.9c0.06,1.45,0.04,2.87,0.03,4.24
					c-0.04,3.6-0.08,6.71,1.33,8.14c0.93,0.94,2.76,1.42,5.42,1.42c1.76,0.14,3.48-0.54,4.67-1.84c2.26-2.66,2.01-7.82,1.73-9.58
					c-0.22-1.37,0.71-2.66,2.08-2.88C-988.58-2566.16-988.44-2566.17-988.31-2566.17z"/>
			</g>
		</g>
		<g id="Grupo_1952" transform="translate(67.352)">
			<g id="Grupo_1951">
				<path id="Trazado_916" class="st0" d="M-978.29-2536.53c-1.39,0-2.51-1.12-2.52-2.5c0-0.7,0.29-1.36,0.79-1.84l9.77-9.22
					c0.91-0.85,0.95-2.28,0.09-3.19c-0.01-0.01-0.03-0.03-0.04-0.04l-21.84-21.98c-0.85-0.86-2.24-0.9-3.13-0.07l-9.63,8.83
					c-1,0.96-2.59,0.94-3.55-0.06c-0.96-1-0.94-2.59,0.06-3.55c0.03-0.03,0.07-0.06,0.1-0.09l9.63-8.83
					c2.87-2.65,7.33-2.55,10.08,0.23l21.85,21.98c2.83,2.85,2.82,7.46-0.03,10.3c-0.04,0.04-0.09,0.09-0.13,0.13l-9.77,9.22
					C-977.03-2536.78-977.65-2536.53-978.29-2536.53z"/>
			</g>
		</g>
		<g id="Grupo_1954" transform="translate(95.948 25.826)">
			<g id="Grupo_1953">
				<circle id="Elipse_87" class="st0" cx="-1005.94" cy="-2577.94" r="3.06"/>
			</g>
		</g>
	</g>
	<rect id="Rectángulo_383" x="-1008.85" y="-2581" class="st1" width="140" height="140"/>
</g>
</svg>
