<?xml version="1.0" encoding="utf-8"?>
<!-- Generator: Adobe Illustrator 26.3.1, SVG Export Plug-In . SVG Version: 6.00 Build 0)  -->
<svg version="1.1" id="Capa_1" xmlns="http://www.w3.org/2000/svg" xmlns:xlink="http://www.w3.org/1999/xlink" x="0px" y="0px"
	 viewBox="0 0 140 140" style="enable-background:new 0 0 140 140;" xml:space="preserve">
<style type="text/css">
	.st0{fill:#0A2755;}
	.st1{fill:none;}
</style>
<g id="Grupo_1972" transform="translate(1264.998 2581.032)">
	<g id="Grupo_1971" transform="translate(18.921 11.278)">
		<g id="Grupo_1958" transform="translate(32.324 25.39)">
			<g id="Grupo_1957">
				<path id="Trazado_917" class="st0" d="M-1252.02-2555.04c-7.17,0-12.98-5.81-12.98-12.98c0-7.17,5.81-12.98,12.98-12.98
					c7.17,0,12.98,5.81,12.98,12.98C-1239.04-2560.85-1244.85-2555.05-1252.02-2555.04z M-1252.02-2576.37
					c-4.61,0-8.36,3.74-8.36,8.35c0,4.61,3.74,8.36,8.35,8.36c4.61,0,8.36-3.74,8.36-8.35c0,0,0,0,0,0
					C-1243.67-2572.63-1247.4-2576.37-1252.02-2576.37z"/>
			</g>
		</g>
		<g id="Grupo_1960" transform="translate(30.417 54.202)">
			<g id="Grupo_1959">
				<path id="Trazado_918" class="st0" d="M-1242.64-2517.6h-14.32c-1.28,0-2.31-1.04-2.31-2.31l0,0v-20.74h-3.41
					c-1.28,0-2.31-1.03-2.31-2.31c0,0,0,0,0,0v-35.72c0-1.28,1.04-2.31,2.31-2.31h25.6c1.28,0,2.31,1.04,2.31,2.31v35.72
					c0,1.28-1.04,2.31-2.31,2.31c0,0,0,0,0,0h-3.24v20.74C-1240.33-2518.64-1241.36-2517.6-1242.64-2517.6
					C-1242.64-2517.6-1242.64-2517.6-1242.64-2517.6z M-1254.64-2522.23h9.68v-20.73c0-1.28,1.04-2.31,2.32-2.31c0,0,0,0,0,0h3.24
					v-31.09h-20.97v31.09h3.41c1.28,0,2.31,1.03,2.31,2.31c0,0,0,0,0,0L-1254.64-2522.23z"/>
			</g>
		</g>
		<g id="Grupo_1962" transform="translate(71.041 25.39)">
			<g id="Grupo_1961">
				<path id="Trazado_919" class="st0" d="M-1252.02-2555.04c-7.17,0-12.98-5.81-12.98-12.98c0-7.17,5.81-12.98,12.98-12.98
					c7.17,0,12.98,5.81,12.98,12.98C-1239.04-2560.85-1244.85-2555.04-1252.02-2555.04z M-1252.02-2576.37
					c-4.61,0-8.36,3.74-8.36,8.35c0,4.61,3.74,8.36,8.35,8.36c4.61,0,8.36-3.74,8.36-8.35c0,0,0,0,0,0
					C-1243.67-2572.63-1247.41-2576.37-1252.02-2576.37z"/>
			</g>
		</g>
		<g id="Grupo_1964" transform="translate(67.248 54.202)">
			<g id="Grupo_1963">
				<path id="Trazado_920" class="st0" d="M-1232.31-2517.6h-30.38c-1.28,0-2.31-1.03-2.31-2.31c0-0.19,0.02-0.38,0.07-0.56
					l6.9-27.76h-2.77c-1.28,0-2.31-1.04-2.31-2.31v-28.14c0-1.28,1.04-2.31,2.31-2.31h25.6c1.28,0,2.31,1.04,2.31,2.31l0,0v28.14
					c0,1.28-1.04,2.31-2.31,2.31l0,0h-2.52l7.64,27.7c0.34,1.23-0.39,2.51-1.62,2.85C-1231.89-2517.63-1232.1-2517.6-1232.31-2517.6
					L-1232.31-2517.6z M-1259.73-2522.23h24.38l-7.64-27.7c-0.34-1.23,0.39-2.51,1.62-2.85c0.2-0.05,0.4-0.08,0.61-0.08h3.24v-23.51
					h-20.98v23.51h3.41c1.28,0,2.31,1.03,2.31,2.31c0,0.19-0.02,0.38-0.07,0.56L-1259.73-2522.23z"/>
			</g>
		</g>
		<g id="Grupo_1966" transform="translate(2.502 54.202)">
			<g id="Grupo_1965">
				<path id="Trazado_921" class="st0" d="M-1255.65-2562.3c-5.16,0-9.35-4.19-9.35-9.35c0-5.16,4.19-9.35,9.35-9.35
					c5.16,0,9.35,4.19,9.35,9.35C-1246.31-2566.49-1250.49-2562.3-1255.65-2562.3z M-1255.65-2576.37c-2.61,0-4.72,2.11-4.72,4.72
					s2.11,4.72,4.72,4.72s4.72-2.11,4.72-4.72l0,0C-1250.93-2574.26-1253.04-2576.37-1255.65-2576.37L-1255.65-2576.37z"/>
			</g>
		</g>
		<g id="Grupo_1968" transform="translate(0 74.205)">
			<g id="Grupo_1967">
				<path id="Trazado_922" class="st0" d="M-1242.65-2537.61h-20.04c-1.28,0-2.31-1.04-2.31-2.31c0-0.19,0.02-0.38,0.07-0.56
					l4.31-17.33h-0.82c-1.28,0-2.31-1.04-2.31-2.31l0,0v-18.56c0-1.28,1.04-2.31,2.31-2.31h16.89c1.28,0,2.31,1.04,2.31,2.31l0,0
					v18.56c0,1.28-1.04,2.31-2.31,2.31c0,0,0,0,0,0h-0.63l4.77,17.27c0.34,1.23-0.39,2.51-1.62,2.85
					C-1242.23-2537.64-1242.44-2537.61-1242.65-2537.61L-1242.65-2537.61z M-1259.73-2542.24h14.04l-4.76-17.27
					c-0.34-1.23,0.38-2.5,1.61-2.84c0.2-0.06,0.41-0.08,0.62-0.08h1.35v-13.94h-12.26v13.94h1.47c1.28,0,2.31,1.03,2.31,2.31
					c0,0.19-0.02,0.38-0.07,0.56L-1259.73-2542.24z"/>
			</g>
		</g>
		<g id="Grupo_1970" transform="translate(35.887)">
			<g id="Grupo_1969">
				<path id="Trazado_923" class="st0" d="M-1253.96-2560.25c0,0,10.02-6,10.93-12.3c0.75-5.18-2.54-8.2-5.59-8.43
					c-2.1-0.21-4.15,0.74-5.35,2.48c-1.2-1.74-3.25-2.69-5.35-2.48c-3.04,0.23-6.33,3.25-5.59,8.43
					C-1263.98-2566.25-1253.96-2560.25-1253.96-2560.25z"/>
			</g>
		</g>
	</g>
	<rect id="Rectángulo_384" x="-1265" y="-2581.03" class="st1" width="140" height="140"/>
</g>
</svg>
