<?xml version="1.0" encoding="utf-8"?>
<!-- Generator: Adobe Illustrator 26.3.1, SVG Export Plug-In . SVG Version: 6.00 Build 0)  -->
<svg version="1.1" id="Capa_1" xmlns="http://www.w3.org/2000/svg" xmlns:xlink="http://www.w3.org/1999/xlink" x="0px" y="0px"
	 viewBox="0 0 140 140" style="enable-background:new 0 0 140 140;" xml:space="preserve">
<style type="text/css">
	.st0{fill:#0A2755;}
</style>
<path class="st0" d="M113.67,109.57L75.38,71.51c2.47-2.88,4.48-6.15,5.91-9.68c1.72-4.23,2.6-8.74,2.59-13.31
	c0.01-4.56-0.87-9.08-2.58-13.31c-1.78-4.38-4.42-8.36-7.77-11.7L62.9,12.88c-0.07-0.07-0.14-0.12-0.22-0.18l-1.21-1.21
	c-0.9-0.9-2.35-0.9-3.25,0l-5.08,5.08c-0.9,0.9-0.9,2.35,0,3.25l5.08,5.08c0.9,0.9,2.35,0.9,3.25,0l2.6-2.6l7.22,7.22
	c10.2,10.2,8.32,29.66-1.88,39.86l-0.22,0.22c-10.2,10.2-29.46,11.88-39.67,1.68l-7.2-7.2l2.59-2.59c0.9-0.9,0.9-2.35,0-3.25
	l-5.08-5.08c-0.9-0.9-2.35-0.9-3.25,0l-5.08,5.08c-0.9,0.9-0.9,2.35,0,3.25l1.89,1.89c0.01,0.01,0.01,0.02,0.02,0.03l10.11,10.12
	c3.34,3.35,7.32,5.99,11.7,7.77c4.23,1.72,8.74,2.6,13.31,2.59c4.56,0.01,9.08-0.87,13.31-2.59c3.42-1.39,6.6-3.31,9.42-5.68
	l38.31,38.08c1.32,1.46,1.64,3.57,0.81,5.35c-0.71,1.72-2.33,3.45-4.33,3.45H55.28c-3.08,0-5.57-2.5-5.57-5.57v-0.71
	c4.9-1.38,8.49-5.87,8.49-11.21c0-6.44-5.22-11.66-11.66-11.66c0,0,0,0,0,0l0,0c-6.44,0-11.66,5.22-11.66,11.66
	c0,5.52,3.85,10.14,9,11.35v0.58c0.01,6.3,5.11,11.4,11.41,11.41h50.74c4.13,0,7.95-2.77,9.72-7.05
	C117.53,117.32,116.71,112.67,113.67,109.57z M40.64,105c0.01-3.25,2.64-5.89,5.89-5.89l0,0c3.25,0.01,5.89,2.64,5.89,5.89
	c0,3.25-2.64,5.89-5.89,5.89C43.28,110.89,40.64,108.25,40.64,105z"/>
</svg>
