<?xml version="1.0" encoding="utf-8"?>
<!-- Generator: Adobe Illustrator 26.3.1, SVG Export Plug-In . SVG Version: 6.00 Build 0)  -->
<svg version="1.1" id="Capa_1" xmlns="http://www.w3.org/2000/svg" xmlns:xlink="http://www.w3.org/1999/xlink" x="0px" y="0px"
	 viewBox="0 0 140 140" style="enable-background:new 0 0 140 140;" xml:space="preserve">
<style type="text/css">
	.st0{fill:#0A2755;}
	.st1{fill:none;}
</style>
<g>
	<path id="Trazado_924" class="st0" d="M91.56,125.71l-0.25-44.6c0-0.75,0.29-1.48,0.82-2.01c9.34-9.51,11.12-18.2,11.13-30.9
		c0.01-7.12-3.66-15.05-9.81-21.2c-6.42-6.42-14.67-10.1-22.65-10.1c-16.48,0-30.03,13.18-30.21,29.37l-0.06,5.24
		c-0.01,0.46-0.12,0.92-0.35,1.32l-8.66,15.97l9.42,0.26c1.57,0.03,2.83,1.31,2.85,2.88v12.31c0.05,4.84,4.01,8.74,8.85,8.7h9.34
		c1.6-0.01,2.91,1.28,2.93,2.88v29.86h-5.85V98.71h-6.42c-8.05,0.06-14.63-6.41-14.71-14.46v-9.51l-11.3-0.31
		c-1.01-0.02-1.93-0.56-2.45-1.43c-0.51-0.86-0.53-1.92-0.05-2.8l10.55-19.44l0.05-4.54c0.21-19.34,16.39-35.07,36.07-35.07
		c9.54,0,19.31,4.31,26.82,11.82c7.31,7.31,11.5,16.5,11.5,25.23c-0.02,13.16-2.04,23.52-11.95,34.03l0.24,43.44L91.56,125.71z"/>
	<path id="Trazado_925" class="st0" d="M80.92,70.51c-0.86-8.75-0.25-13.56,1.81-14.32c0.3-0.11,0.69-0.23,1.16-0.37
		c2.86-0.87,8.19-2.49,9.55-7.4c1.54-5.53-3.6-16.35-13.84-19.94c-11.01-3.86-20.18-1.8-27.28,6.15c-2.59,2.9-3.24,6.13-1.78,8.85
		c1.22,2.31,3.75,3.62,6.34,3.28c6.68-0.96,8.49-0.66,12.89,2.12c1.66,1.16,3.04,2.68,4.03,4.45c1.23,1.93,1.87,2.83,3.53,2.79
		l0.09,2.63c-3.18,0.14-4.61-2.08-5.84-4.01c-0.78-1.44-1.88-2.68-3.21-3.63c-3.7-2.34-4.76-2.65-11.11-1.74
		c-3.68,0.49-7.28-1.36-9.03-4.64c-1.98-3.7-1.19-8.13,2.14-11.85c7.76-8.69,18.18-11.08,30.11-6.88
		C91.54,29.88,98,41.82,95.97,49.12c-1.75,6.3-8.21,8.27-11.32,9.22c-0.34,0.1-0.63,0.19-0.87,0.27c-0.65,1.04-0.77,6.28-0.24,11.64
		L80.92,70.51z"/>
	<g id="Grupo_1979" transform="translate(21.353 18.253)">
		
			<rect id="Rectángulo_385" x="0.81" y="-0.91" transform="matrix(0.3641 -0.9313 0.9313 0.3641 -0.049 2.9361)" class="st0" width="2.63" height="4.83"/>
		<path id="Trazado_926" class="st0" d="M96.36,39.76l-9.63-3.77l0.96-2.45l9.63,3.77L96.36,39.76z M80.95,33.73l-9.63-3.77
			l0.96-2.45l9.63,3.77L80.95,33.73z M65.54,27.71l-9.63-3.77l0.96-2.45l9.63,3.77L65.54,27.71z M50.13,21.68l-9.63-3.77l0.96-2.45
			l9.63,3.76L50.13,21.68z M34.72,15.66l-9.63-3.77l0.96-2.45l9.63,3.76L34.72,15.66z M19.31,9.63L9.68,5.87l0.96-2.45l9.63,3.77
			L19.31,9.63z"/>
		
			<rect id="Rectángulo_386" x="103.55" y="39.25" transform="matrix(0.3641 -0.9313 0.9313 0.3641 27.8722 124.158)" class="st0" width="2.63" height="4.83"/>
	</g>
	<rect id="Rectángulo_387" class="st1" width="140" height="140"/>
</g>
</svg>
