<?xml version="1.0" encoding="utf-8"?>
<!-- Generator: Adobe Illustrator 26.3.1, SVG Export Plug-In . SVG Version: 6.00 Build 0)  -->
<svg version="1.1" id="Capa_1" xmlns="http://www.w3.org/2000/svg" xmlns:xlink="http://www.w3.org/1999/xlink" x="0px" y="0px"
	 viewBox="0 0 140 140" style="enable-background:new 0 0 140 140;" xml:space="preserve">
<style type="text/css">
	.st0{fill:#0A2755;}
	.st1{fill:none;}
</style>
<g>
	<path id="Trazado_927" class="st0" d="M55.3,123.55c-0.57,0-1.16-0.02-1.77-0.08c-9.83-0.94-14.17-9.19-15.58-12.66
		c-6.64-2.09-11.9-7.19-14.22-13.75c-2.95-8.16-1.8-13.09-0.62-15.53c-2.94-5.55-4.11-11.87-3.36-18.1
		c0.63-6.41,4.14-12.19,9.55-15.7c-0.57-3.55-1.09-10.87,2.92-16.38c2.58-3.55,6.5-5.69,11.65-6.38c1.58-3.73,5.69-8.63,13.7-8.79
		c11.6-0.18,15.12,6.85,15.26,7.15c0.18,0.38,0.28,0.79,0.27,1.21l-0.81,87.24c0,0.43-0.11,0.85-0.31,1.23
		C71.76,113.45,66.32,123.55,55.3,123.55z M28.33,83.41c0.01,0-2.49,3.29,0.6,11.8c1.83,5.29,6.22,9.3,11.65,10.65
		c1.02,0.19,1.84,0.94,2.13,1.93c0.11,0.38,2.89,9.43,11.35,10.24c7.29,0.67,11.6-5.23,12.74-7.03l0.79-85.72
		c-0.81-1.06-3.52-3.8-9.91-3.64c-7.38,0.15-8.92,5.82-9.07,6.47c-0.28,1.18-1.3,2.05-2.51,2.13c-4.36,0.28-7.52,1.72-9.4,4.29
		c-3.85,5.27-1.67,13.82-1.65,13.9c0.34,1.3-0.32,2.65-1.55,3.19c-4.69,2.46-7.8,7.14-8.27,12.41c-0.71,5.54,0.47,11.15,3.35,15.93
		C29.34,81.02,29.23,82.46,28.33,83.41L28.33,83.41z"/>
	<path id="Trazado_928" class="st0" d="M84.42,123.55c-11.03,0-16.45-10.09-16.69-10.54c-0.2-0.38-0.31-0.8-0.31-1.23l-0.81-87.24
		c0-0.42,0.09-0.84,0.27-1.21c0.14-0.3,3.61-7.15,14.7-7.15c0.18,0,0.37,0,0.56,0.01c8.02,0.16,12.13,5.07,13.71,8.79
		c5.15,0.69,9.07,2.83,11.65,6.38c4,5.51,3.49,12.83,2.92,16.38c5.4,3.51,8.92,9.29,9.55,15.7c0.75,6.23-0.42,12.55-3.36,18.1
		c1.17,2.44,2.33,7.37-0.62,15.53c-2.32,6.56-7.58,11.65-14.22,13.75c-1.4,3.47-5.75,11.72-15.58,12.66
		C85.58,123.52,84.99,123.55,84.42,123.55z M72.92,111c1.15,1.84,5.43,7.75,12.74,7.03c8.46-0.81,11.24-9.86,11.35-10.25
		c0.3-0.99,1.13-1.74,2.15-1.92c5.43-1.35,9.81-5.36,11.64-10.64c3.1-8.57,0.55-11.85,0.53-11.88c-0.89-0.93-0.96-2.37-0.17-3.39
		c2.87-4.78,4.05-10.39,3.34-15.92c-0.47-5.28-3.59-9.96-8.29-12.42c-1.22-0.55-1.87-1.89-1.54-3.19c0.02-0.08,2.2-8.63-1.65-13.9
		c-1.88-2.57-5.04-4.01-9.4-4.29c-1.23-0.07-2.25-0.95-2.52-2.15c-0.15-0.62-1.69-6.3-9.07-6.44c-6.38-0.14-9.07,2.55-9.9,3.65
		L72.92,111z"/>
	<path id="Trazado_929" class="st0" d="M50.73,61.42c-5.45,0-15.62-1.48-19.8-11.89c-0.23-0.68,0.13-1.41,0.81-1.64
		c0.63-0.21,1.31,0.08,1.59,0.68c5.03,12.53,19.92,10.17,20.56,10.07c0.7-0.11,1.36,0.36,1.49,1.06c0.12,0.7-0.35,1.37-1.06,1.49
		C53.13,61.35,51.93,61.43,50.73,61.42z"/>
	<path id="Trazado_930" class="st0" d="M39.74,109.94c-0.15,0-0.3-0.03-0.45-0.08c-0.67-0.25-1.01-0.99-0.77-1.66
		c6.02-16.42,21.51-13.84,21.66-13.82c0.69,0.18,1.11,0.89,0.93,1.59c-0.16,0.62-0.75,1.03-1.39,0.97
		c-0.55-0.09-13.52-2.19-18.78,12.16C40.77,109.6,40.28,109.94,39.74,109.94z"/>
	<path id="Trazado_931" class="st0" d="M49.79,97.83c-0.61,0-1.13-0.42-1.26-1.02c-1.43-6.52,4.01-13.59,12.66-16.44
		c0.66-0.29,1.42,0,1.72,0.65c0.29,0.66,0,1.42-0.65,1.72c-0.08,0.04-0.17,0.06-0.25,0.08c-7.26,2.39-12.07,8.29-10.94,13.42
		c0.15,0.7-0.29,1.39-0.99,1.54C49.98,97.82,49.88,97.83,49.79,97.83z"/>
	<path id="Trazado_932" class="st0" d="M49.67,74.36c-0.21,0-0.41-0.05-0.6-0.15C41,70,40.33,64.76,39.79,60.56
		c-0.1-0.76-0.19-1.5-0.33-2.22c-0.2-0.69,0.2-1.41,0.89-1.61c0.69-0.2,1.41,0.2,1.61,0.89c0.02,0.07,0.04,0.15,0.04,0.23
		c0.15,0.77,0.25,1.57,0.36,2.38c0.51,3.98,1.04,8.1,7.9,11.69c0.63,0.34,0.87,1.13,0.53,1.76C50.57,74.09,50.13,74.35,49.67,74.36
		L49.67,74.36z"/>
	<path id="Trazado_933" class="st0" d="M88.97,61.44c-0.12,0-0.24-0.02-0.36-0.05c-0.69-0.2-1.08-0.92-0.88-1.61
		c1.35-4.62,3.78-7.87,7.22-9.65c5.54-2.87,11.62-0.84,11.88-0.75c0.66,0.29,0.96,1.06,0.67,1.71c-0.26,0.58-0.89,0.89-1.51,0.74
		c-0.05-0.02-5.33-1.76-9.87,0.61c-2.78,1.45-4.76,4.16-5.9,8.06C90.05,61.06,89.54,61.44,88.97,61.44z"/>
	<path id="Trazado_934" class="st0" d="M93.72,53.86c-0.33,0-0.65-0.13-0.89-0.35c-0.36-0.34-3.46-3.37-2.99-6.68
		c0.33-1.83,1.57-3.37,3.28-4.09c0.64-0.33,1.42-0.08,1.75,0.55c0.33,0.64,0.08,1.42-0.55,1.75l0,0c-0.95,0.35-1.67,1.16-1.91,2.15
		c-0.24,1.69,1.56,3.82,2.21,4.43c0.52,0.5,0.54,1.32,0.04,1.84C94.4,53.72,94.07,53.87,93.72,53.86L93.72,53.86z"/>
	<path id="Trazado_935" class="st0" d="M99.96,109.96h-0.07c-0.71-0.04-1.26-0.65-1.23-1.36c0.71-13.41-10.98-19.46-11.48-19.72
		c-0.61-0.37-0.81-1.17-0.44-1.78c0.33-0.55,1.01-0.77,1.6-0.53c0.14,0.07,13.71,7.04,12.91,22.17
		C101.21,109.42,100.65,109.95,99.96,109.96z"/>
	<path id="Trazado_936" class="st0" d="M93.68,93.68c-0.72-0.02-1.28-0.62-1.26-1.34c0.02-0.61,0.46-1.13,1.07-1.24
		c1.12-0.33,2.05-1.1,2.59-2.14c0.74-1.02,1.15-2.24,1.2-3.5c-0.3-0.64-0.03-1.41,0.61-1.71c0,0,0.01,0,0.01,0
		c0.65-0.3,1.43-0.02,1.73,0.63c0.65,1.36-0.04,3.57-0.9,5.19c-1.24,2.33-3.01,3.83-4.86,4.1C93.82,93.67,93.75,93.68,93.68,93.68z"
		/>
	<path id="Trazado_937" class="st0" d="M82.66,77.11c-3.8,0-8.66-1.23-13.37-5.94c-0.46-0.55-0.39-1.37,0.16-1.83
		c0.48-0.41,1.19-0.41,1.68,0c8.44,8.44,17.04,4.17,17.4,3.99c0.66-0.29,1.42,0.01,1.71,0.67c0.26,0.6,0.04,1.29-0.51,1.63
		C87.5,76.63,85.09,77.13,82.66,77.11z"/>
	<path id="Trazado_938" class="st0" d="M63.98,51.97c-1.47,0-2.93-0.28-4.29-0.83c-3.96-1.73-6.97-5.09-8.25-9.22
		c-0.16-0.7,0.27-1.4,0.97-1.56c0.62-0.15,1.26,0.18,1.5,0.78c1.04,3.39,3.5,6.17,6.74,7.6c2.78,1.06,5.89,0.78,8.43-0.76
		c0.6-0.4,1.4-0.24,1.8,0.36c0.4,0.6,0.24,1.4-0.36,1.8c-0.06,0.04-0.13,0.08-0.2,0.11C68.39,51.34,66.21,51.94,63.98,51.97z"/>
	<rect id="Rectángulo_388" class="st1" width="140" height="140"/>
</g>
</svg>
