<?xml version="1.0" encoding="utf-8"?>
<!-- Generator: Adobe Illustrator 26.3.1, SVG Export Plug-In . SVG Version: 6.00 Build 0)  -->
<svg version="1.1" id="Capa_1" xmlns="http://www.w3.org/2000/svg" xmlns:xlink="http://www.w3.org/1999/xlink" x="0px" y="0px"
	 viewBox="0 0 140 140" style="enable-background:new 0 0 140 140;" xml:space="preserve">
<style type="text/css">
	.st0{fill:#0A2755;}
	.st1{fill:none;}
</style>
<g>
	<path id="Trazado_939" class="st0" d="M70.04,101.35c-0.43,0-0.87,0-1.3-0.01c-39.59-0.66-55.4-29.11-56.05-30.32
		c-0.48-0.9-0.44-1.98,0.11-2.84c11.39-17.61,29.44-28.6,49.5-30.14c22.85-1.75,45.73,8.83,64.44,29.79
		c0.81,0.91,0.94,2.23,0.32,3.28C126.32,72.37,108.71,101.35,70.04,101.35z M18.52,69.78c3.58,5.57,18.55,25.42,50.31,25.95
		c20.6,0.61,40.17-9.03,52.23-25.75C103.83,51.42,83.2,42.09,62.74,43.65C45.01,45.01,28.98,54.5,18.52,69.78z M15.18,69.7
		L15.18,69.7z"/>
	<path id="Trazado_940" class="st0" d="M69.9,99.81C53.28,99.8,39.81,86.33,39.79,69.7h2.55c0.02,15.21,12.35,27.54,27.56,27.56
		c15.21-0.02,27.54-12.35,27.56-27.56C97.45,54.49,85.12,42.16,69.9,42.14c-7.76,0.01-15.17,3.28-20.39,9.02l-1.88-1.72
		c5.71-6.27,13.8-9.85,22.28-9.86c16.62,0.02,30.09,13.49,30.11,30.11C99.99,86.33,86.52,99.8,69.9,99.81z"/>
	<path id="Trazado_941" class="st0" d="M69.9,52.18c-4.95,0-9.67,2.1-12.99,5.79L70.87,69.7l-18.49-0.05v0.05
		c0,9.68,7.85,17.53,17.53,17.53c9.68,0,17.53-7.85,17.53-17.53c0,0,0,0,0,0C87.43,60.02,79.58,52.18,69.9,52.18z"/>
	<rect id="Rectángulo_389" class="st1" width="140" height="140"/>
</g>
</svg>
