<?xml version="1.0" encoding="utf-8"?>
<!-- Generator: Adobe Illustrator 26.3.1, SVG Export Plug-In . SVG Version: 6.00 Build 0)  -->
<svg version="1.1" id="Capa_1" xmlns="http://www.w3.org/2000/svg" xmlns:xlink="http://www.w3.org/1999/xlink" x="0px" y="0px"
	 viewBox="0 0 140 140" style="enable-background:new 0 0 140 140;" xml:space="preserve">
<style type="text/css">
	.st0{fill:#0A2755;}
	.st1{fill:none;}
</style>
<g>
	<path id="Trazado_942" class="st0" d="M61.88,126.82c-24.51,0-29.34-36.15-29.53-37.69l5.34-0.66c0.04,0.33,4.42,33.02,24.19,33.02
		h0.03c8.73-0.01,11.49-5.65,15-12.79c2.75-5.61,5.87-11.97,12.6-15.27c13.64-6.69,22.76-15.14,22.91-34.66
		c0.1-12.65-3.83-23.6-11.07-30.83c-6.45-6.44-15.16-9.71-25.88-9.71c-25.04,0-35.32,27.17-35.43,27.45l-5.06-1.83
		c0.47-1.26,11.72-30.95,40.49-30.95c12.04,0,22.31,3.9,29.7,11.29c8.25,8.25,12.74,20.55,12.63,34.63
		c-0.18,23.62-13.2,33.18-25.9,39.41c-5.09,2.49-7.55,7.51-10.15,12.82c-3.63,7.4-7.74,15.78-19.83,15.8L61.88,126.82z"/>
	<path id="Trazado_943" class="st0" d="M58.65,84.89c-1.32,0-2.64-0.1-3.95-0.29l0.36-2.58c6.23,0.87,10.95-0.44,13.7-3.76
		c2.9-3.51,3.45-9.33,1.45-15.19c-1.05-3.66-4.07-6.43-7.81-7.14c-3.83-0.77-8.26,0.51-10.51,3.03c-1.18,1.33-2.21,1.35-2.86,1.14
		c-0.71-0.23-1.59-0.94-1.79-3.03c-0.52-5.35,3.58-18.16,15.79-24.95c6.61-3.88,14.66-4.41,21.72-1.44
		c7.92,3.52,13.79,10.48,15.93,18.88l-2.52,0.66c-1.98-7.6-7.28-13.9-14.43-17.15c-4.41-1.88-11.35-3.17-19.43,1.32
		c-7.11,3.97-12.23,10.73-14.12,18.65c-0.36,1.39-0.45,2.83-0.27,4.25l0.05-0.06c2.87-3.23,8.2-4.81,12.97-3.86
		c4.64,0.92,8.39,4.32,9.75,8.85c2.33,6.81,1.62,13.42-1.9,17.69C68.8,82.31,65.16,84.89,58.65,84.89z"/>
	<path id="Trazado_944" class="st0" d="M56.72,103.9c-1.05-0.03-2.08-0.34-2.97-0.89c-7.15-4.04-6.51-13.28-6.48-13.67l2.6,0.2
		c-0.01,0.08-0.53,7.99,5.16,11.21c2.28,1.29,3.26,0.28,6-3.07c2.51-3.07,5.96-7.27,12.51-9.89c4.86-1.94,8.61-7.11,9.81-13.49
		c1.3-6.93-0.65-13.61-5.23-17.89l1.78-1.9c5.23,4.88,7.48,12.46,6.01,20.27c-1.36,7.25-5.73,13.16-11.4,15.43
		c-5.93,2.37-9,6.11-11.46,9.12C61.14,101.67,59.3,103.9,56.72,103.9z"/>
	<rect id="Rectángulo_390" class="st1" width="140" height="140"/>
</g>
</svg>
