<?xml version="1.0" encoding="utf-8"?>
<!-- Generator: Adobe Illustrator 26.3.1, SVG Export Plug-In . SVG Version: 6.00 Build 0)  -->
<svg version="1.1" id="Capa_1" xmlns="http://www.w3.org/2000/svg" xmlns:xlink="http://www.w3.org/1999/xlink" x="0px" y="0px"
	 viewBox="0 0 140 140" style="enable-background:new 0 0 140 140;" xml:space="preserve">
<style type="text/css">
	.st0{fill:#0A2755;}
	.st1{fill:none;}
</style>
<g>
	<path id="Trazado_945" class="st0" d="M66.61,122.05c0,0,2-26.26,1.33-33.38s-1.93-10.56-4.19-11.9c-2.26-1.34-3.77-8.3,2.39-9.72
		c6.16-1.42,14.79-1.76,20.49,0c5.7,1.76,5.61,5.62,3.02,8.88s-5.2,4.78-5.45,9.47s-5.61,34.64-5.27,36.23"/>
	<path id="Trazado_946" class="st0" d="M32.14,37.01c0,0,26.5,8.48,30.77,12.08c4.27,3.6,4.69,12.07,12.49,14.42
		c7.8,2.35,11.39-4.47,11.55-7.83c0.21-4.6,4.04-5.33,2.95-9.94s-7.69-10.78-25.23-12.4c-8.02-0.74-26.52-6.44-26.52-6.44"/>
	<path id="Trazado_947" class="st0" d="M94.29,122.77l-5-0.27c0.36-6.65,3-15.63,5.36-21.82l2.54-6.67
		c3.75-9.79,5.15-13.46,6.6-19.23c0.27-1.05,0.53-2.1,0.8-3.14c2.99-11.56,5.57-21.54-2.11-28.96c-8.9-8.59-19.26-12.46-53.81-24.52
		l1.67-4.68c33.15,11.58,45.56,15.91,55.64,25.65c9.75,9.41,6.56,21.78,3.47,33.75c-0.27,1.03-0.54,2.07-0.8,3.11
		c-1.52,6.05-2.95,9.79-6.77,19.79l-2.54,6.66C96.54,109.77,94.56,117.75,94.29,122.77z"/>
	<path id="Trazado_948" class="st0" d="M48.39,122.09l-5.01-0.07c0.01-0.94,0.37-23.32,2.86-38.96c0.99-6.19,2.43-11.8,3.49-15.89
		c0.54-2.08,1.13-4.39,1.32-5.57c-3.14-2.14-15.99-7.83-27.6-12.51l1.87-4.65c6.31,2.54,27.14,11.08,30,14.22
		c1.39,1.53,0.9,3.44-0.72,9.75c-1.03,4-2.44,9.48-3.39,15.43C48.75,99.12,48.4,121.86,48.39,122.09z"/>
	<path id="Trazado_949" class="st0" d="M94.16,52.02c-4.54,0.57-6.67,8.27-5.08,11.88s3.6,3.08,5.72,2.76
		C96.92,66.34,98.4,51.49,94.16,52.02z"/>
	<rect id="Rectángulo_391" class="st1" width="140" height="140"/>
</g>
</svg>
