<?xml version="1.0" encoding="utf-8"?>
<!-- Generator: Adobe Illustrator 26.3.1, SVG Export Plug-In . SVG Version: 6.00 Build 0)  -->
<svg version="1.1" id="Capa_1" xmlns="http://www.w3.org/2000/svg" xmlns:xlink="http://www.w3.org/1999/xlink" x="0px" y="0px"
	 viewBox="0 0 140 140" style="enable-background:new 0 0 140 140;" xml:space="preserve">
<style type="text/css">
	.st0{fill:#0A2755;}
	.st1{fill:none;}
</style>
<g>
	<rect id="Rectángulo_392" x="57.61" y="75.15" class="st0" width="25.86" height="2.6"/>
	<path id="Trazado_951" class="st0" d="M68.11,105.11c-0.18,0-0.36-0.01-0.53-0.03c-2.61-0.29-4.49-2.64-4.2-5.25l0.41-3.65
		c0.32-2.61,2.69-4.47,5.29-4.15c2.57,0.31,4.42,2.63,4.16,5.2l-0.41,3.65C72.56,103.29,70.53,105.11,68.11,105.11z M68.51,94.55
		c-1.1,0-2.02,0.83-2.15,1.92l-0.41,3.64c-0.13,1.19,0.72,2.25,1.91,2.39c1.18,0.12,2.24-0.73,2.39-1.91l0.41-3.65
		c0.13-1.19-0.73-2.25-1.91-2.39C68.67,94.55,68.59,94.55,68.51,94.55L68.51,94.55z"/>
	<g>
		<path id="Trazado_950" class="st0" d="M70,122.96c-8.3-0.01-15.03-6.74-15.04-15.04V52.46h-0.19c-4.51,0-8.17-3.66-8.17-8.17
			v-1.18c0.01-4.51,3.66-8.17,8.17-8.17h30.46c4.51,0.01,8.16,3.66,8.17,8.17v1.18c-0.01,4.51-3.66,8.16-8.17,8.17h-0.19v55.46
			C85.03,116.23,78.3,122.95,70,122.96z M54.77,40.26c-1.58,0-2.86,1.28-2.86,2.86v1.18c0,1.58,1.28,2.86,2.86,2.86h5.5v60.77
			c0,5.37,4.36,9.73,9.73,9.73s9.73-4.36,9.73-9.73V47.16h5.5c1.58,0,2.86-1.28,2.86-2.86v-1.18c0-1.58-1.28-2.86-2.86-2.86
			L54.77,40.26z"/>
		
			<rect id="Rectángulo_393" x="37.31" y="57.4" transform="matrix(0.1104 -0.9939 0.9939 0.1104 6.1182 124.2311)" class="st0" width="70.29" height="2.6"/>
		<path id="Trazado_952" class="st0" d="M76.95,25.88c-0.18,0-0.35-0.01-0.53-0.03l0,0c-2.61-0.29-4.49-2.64-4.2-5.25l0.41-3.65
			c0.3-2.6,2.65-4.48,5.25-4.2c2.61,0.29,4.49,2.64,4.2,5.25c0,0,0,0,0,0l-0.41,3.65C81.41,24.06,79.37,25.88,76.95,25.88z
			 M76.71,23.27c1.18,0.12,2.24-0.73,2.39-1.91l0.41-3.65c0.13-1.19-0.72-2.25-1.91-2.39c0,0,0,0,0,0c-1.18-0.1-2.23,0.74-2.38,1.91
			l-0.41,3.65C74.68,22.07,75.53,23.14,76.71,23.27L76.71,23.27z"/>
		<rect id="Rectángulo_394" class="st1" width="140" height="140"/>
	</g>
</g>
</svg>
