<?xml version="1.0" encoding="utf-8"?>
<!-- Generator: Adobe Illustrator 26.3.1, SVG Export Plug-In . SVG Version: 6.00 Build 0)  -->
<svg version="1.1" id="Capa_1" xmlns="http://www.w3.org/2000/svg" xmlns:xlink="http://www.w3.org/1999/xlink" x="0px" y="0px"
	 viewBox="0 0 140 140" style="enable-background:new 0 0 140 140;" xml:space="preserve">
<style type="text/css">
	.st0{fill:#0A2755;}
	.st1{fill:none;}
</style>
<g id="Grupo_1991" transform="translate(240.824 3294.823)">
	<path id="Trazado_953" class="st0" d="M-149.35-3178.27c-4.07,0.01-7.83-2.14-9.89-5.65l-5.3-9.07c-0.99-1.69-2.81-2.74-4.77-2.74
		h-7.39c-3.05,0-5.52,2.47-5.52,5.52c0.05,6.32-5.04,11.49-11.36,11.54c-0.02,0-0.03,0-0.05,0h-23.59
		c-6.3-0.01-11.4-5.11-11.41-11.41v-0.28c0.01-6.3,5.11-11.4,11.41-11.41h5.43c-2.23-2.99-3.58-6.54-3.89-10.26
		c-0.01-0.08-0.01-0.16-0.01-0.24c0.02-14.24,11.56-25.79,25.8-25.81h29.68c5.06,0.02,9.51,3.36,10.95,8.21l10.82,36.99
		c1.78,6.04-1.68,12.37-7.71,14.14C-147.19-3178.42-148.27-3178.27-149.35-3178.27z M-176.69-3201.61h7.39
		c4.05,0.01,7.8,2.16,9.85,5.66l5.29,9.07c1.54,2.63,4.92,3.52,7.55,1.98c2.19-1.28,3.22-3.88,2.51-6.31l-10.82-37
		c-0.7-2.35-2.85-3.96-5.3-3.97h-29.68c-10.95,0.01-19.84,8.85-19.92,19.8c0.52,4.52,3.03,8.57,6.84,11.04
		c1.4,0.83,1.86,2.64,1.03,4.04c-0.53,0.89-1.49,1.44-2.53,1.44h-12.76c-3.05,0-5.52,2.47-5.52,5.52v0.28
		c0,3.05,2.47,5.52,5.52,5.52h23.59c3.05,0,5.52-2.47,5.52-5.52c-0.05-6.32,5.03-11.49,11.35-11.55
		C-176.73-3201.61-176.71-3201.61-176.69-3201.61z"/>
	<path id="Trazado_954" class="st0" d="M-134.51-3230.23c-12.15,0-22.01-9.85-22.01-22.01c0-12.15,9.85-22.01,22.01-22.01
		s22.01,9.85,22.01,22.01l0,0C-112.52-3240.09-122.36-3230.25-134.51-3230.23z M-134.51-3268.97c-9.24,0-16.73,7.49-16.73,16.73
		s7.49,16.73,16.73,16.73c9.24,0,16.72-7.49,16.72-16.73C-117.79-3261.47-125.28-3268.96-134.51-3268.97z"/>
	<rect id="Rectángulo_395" x="-240.82" y="-3294.82" class="st1" width="140" height="140"/>
</g>
</svg>
