<?xml version="1.0" encoding="utf-8"?>
<!-- Generator: Adobe Illustrator 26.3.1, SVG Export Plug-In . SVG Version: 6.00 Build 0)  -->
<svg version="1.1" id="Capa_1" xmlns="http://www.w3.org/2000/svg" xmlns:xlink="http://www.w3.org/1999/xlink" x="0px" y="0px"
	 viewBox="0 0 140 140" style="enable-background:new 0 0 140 140;" xml:space="preserve">
<style type="text/css">
	.st0{fill:#0A2755;}
</style>
<g>
	<circle class="st0" cx="70.86" cy="27.53" r="17.22"/>
	<path class="st0" d="M98.43,55.49h-2.68c-2.28-4.59-7-7.75-12.47-7.75H58.44c-5.47,0-10.19,3.16-12.47,7.75H41.8
		c-6.09,0.01-11.02,4.94-11.02,11.03v35.31c0,6.09,4.94,11.02,11.02,11.03h2.72v15.47H97.2v-15.47h1.23
		c6.09-0.01,11.02-4.94,11.03-11.03V66.51C109.45,60.43,104.52,55.5,98.43,55.49z M53.76,107.18h-9.24H41.8
		c-2.95,0-5.35-2.4-5.35-5.35V66.51c0-2.95,2.4-5.35,5.35-5.35h2.75h23.97v7.65c-5.79-0.32-11.25-1.82-15.26-4.03l-1.7,3.09
		c5.27,2.73,11.05,4.27,16.96,4.53v4.9c-5.79-0.32-11.25-1.82-15.26-4.03l-1.7,3.09c5.27,2.73,11.05,4.27,16.96,4.54v5.95
		c-5.79-0.32-11.25-1.82-15.26-4.03l-1.7,3.09c5.27,2.73,11.05,4.27,16.96,4.54v9.61c-1.52-0.39-2.99-1.35-4.77-2.71
		c-2.1-1.6-4.87-1.28-7.07,0.81C54.21,100.54,53.2,103.95,53.76,107.18z M84.54,107.18H57.38c-0.61-2.27-0.02-4.76,1.71-6.49
		c0.66-0.63,1.63-1.24,2.51-0.57c4.22,3.22,8.28,5.54,15.18,1.42c2.14-1.27,4.45-1.3,6.05-0.08
		C84.33,102.63,84.93,104.71,84.54,107.18z M103.78,101.83c0,2.95-2.4,5.35-5.35,5.35H97.2h-9.12c0.41-3.54-0.67-6.62-3.11-8.5
		c-2.76-2.13-6.59-2.19-10-0.16c-1.09,0.65-2.05,1.09-2.94,1.37v-9.44c5.99-0.13,11.87-1.68,17.13-4.57l-1.75-3.06
		c-4.67,2.67-10.08,3.9-15.39,4.07v-5.97c5.99-0.13,11.88-1.68,17.14-4.58l-1.75-3.05c-4.68,2.67-10.08,3.9-15.39,4.07v-4.93
		c5.99-0.13,11.87-1.68,17.13-4.57l-1.75-3.06c-4.68,2.67-10.08,3.9-15.39,4.07v-7.7h25.14h1.25c2.95,0,5.35,2.4,5.35,5.35V101.83z"
		/>
</g>
</svg>
