<?xml version="1.0" encoding="utf-8"?>
<!-- Generator: Adobe Illustrator 26.3.1, SVG Export Plug-In . SVG Version: 6.00 Build 0)  -->
<svg version="1.1" id="Capa_1" xmlns="http://www.w3.org/2000/svg" xmlns:xlink="http://www.w3.org/1999/xlink" x="0px" y="0px"
	 viewBox="0 0 140 140" style="enable-background:new 0 0 140 140;" xml:space="preserve">
<style type="text/css">
	.st0{fill:#0A2755;}
	.st1{fill:none;}
</style>
<g id="Grupo_1998" transform="translate(753 3295)">
	<path id="Trazado_960" class="st0" d="M-684.29-3167.37c-24.57,0-44.49-19.92-44.49-44.49c0-18.87,11.91-35.69,29.71-41.96v-9.87
		c-4.47-0.05-8.06-3.69-8.07-8.15v-1.13c0.01-4.5,3.65-8.15,8.16-8.15h29.38c4.5,0.01,8.15,3.65,8.15,8.15v1.13
		c-0.01,4.47-3.6,8.1-8.06,8.15v9.87c23.17,8.16,35.34,33.57,27.18,56.74C-648.6-3179.28-665.42-3167.37-684.29-3167.37
		L-684.29-3167.37z M-698.98-3275.47c-1.38,0-2.49,1.11-2.49,2.49v1.13c0,1.38,1.12,2.49,2.49,2.49h2.74c1.56,0,2.83,1.27,2.83,2.83
		v14.76c0,1.25-0.82,2.35-2.02,2.71c-20.54,6.15-32.21,27.79-26.06,48.33c6.15,20.54,27.79,32.21,48.33,26.06
		c20.54-6.15,32.21-27.79,26.06-48.33c-3.75-12.52-13.54-22.31-26.06-26.06c-1.2-0.36-2.02-1.46-2.02-2.71v-14.76
		c0-1.56,1.27-2.83,2.83-2.83h2.74c1.38,0,2.49-1.12,2.49-2.49v-1.13c0-1.37-1.12-2.49-2.49-2.49L-698.98-3275.47z"/>
	<path id="Trazado_961" class="st0" d="M-713.6-3200.63c5.47,16.19,23.03,24.87,39.22,19.4c9.14-3.09,16.31-10.26,19.4-19.4H-713.6z
		"/>
	<circle id="Elipse_89" class="st0" cx="-691.91" cy="-3212.88" r="6.53"/>
	<circle id="Elipse_90" class="st0" cx="-672.57" cy="-3225.44" r="4.48"/>
	<circle id="Elipse_91" class="st0" cx="-685.38" cy="-3241.83" r="3.6"/>
	<rect id="Rectángulo_400" x="-753" y="-3295" class="st1" width="140" height="140"/>
</g>
</svg>
