<?xml version="1.0" encoding="utf-8"?>
<!-- Generator: Adobe Illustrator 26.3.1, SVG Export Plug-In . SVG Version: 6.00 Build 0)  -->
<svg version="1.1" id="Capa_1" xmlns="http://www.w3.org/2000/svg" xmlns:xlink="http://www.w3.org/1999/xlink" x="0px" y="0px"
	 viewBox="0 0 140 140" style="enable-background:new 0 0 140 140;" xml:space="preserve">
<style type="text/css">
	.st0{fill:#0A2755;}
	.st1{fill:none;}
</style>
<g id="Grupo_2008" transform="translate(1265 3295)">
	<g id="Grupo_2007" transform="translate(0)">
		<g id="Grupo_2006" transform="translate(14.545 17.748)">
			<g id="Grupo_2001">
				<g id="Grupo_2000">
					<path id="Trazado_971" class="st0" d="M-1209.55-3190.5c-0.52,0-1.04-0.14-1.48-0.41c-2-1.2-48.93-29.62-53.42-60.62
						c-2.25-15.56,2.81-25.72,7.44-31.5c5.31-6.8,13.2-11.1,21.79-11.89c13.53-1.03,21.78,8.53,25.67,14.74
						c3.88-6.21,12.13-15.79,25.66-14.74c8.59,0.79,16.48,5.09,21.79,11.9c4.64,5.78,9.7,15.94,7.45,31.5
						c-1.04,7.19-4.47,14.82-10.19,22.69c-0.94,1.29-2.75,1.58-4.04,0.64c-1.29-0.94-1.58-2.75-0.64-4.04
						c5.16-7.1,8.24-13.86,9.14-20.11c1.95-13.5-2.31-22.17-6.23-27.05c-4.31-5.55-10.72-9.08-17.71-9.75
						c-15.26-1.12-22.27,15.51-22.56,16.22c-0.45,1.09-1.5,1.8-2.67,1.8h-0.01c-1.17,0-2.23-0.71-2.67-1.8
						c-0.29-0.71-7.32-17.34-22.56-16.22c-6.99,0.67-13.4,4.2-17.71,9.75c-3.92,4.89-8.19,13.55-6.23,27.05
						c3.67,25.39,41.2,50.49,49.18,55.56c6.08-3.89,11.95-8.11,17.56-12.66c1.24-1.01,3.06-0.81,4.07,0.43
						c1.01,1.24,0.81,3.06-0.43,4.07c-6.27,5.1-12.85,9.79-19.72,14.05C-1208.51-3190.64-1209.02-3190.5-1209.55-3190.5z"/>
				</g>
			</g>
			<g id="Grupo_2003" transform="translate(83.013 56.443)">
				<g id="Grupo_2002">
					<path id="Trazado_972" class="st0" d="M-1261.01-3256.69c-2.2,0-3.99-1.79-3.99-3.99v-30.34c0-2.2,1.79-3.99,3.99-3.99
						c2.2,0,3.99,1.79,3.99,3.99v30.34C-1257.02-3258.47-1258.81-3256.69-1261.01-3256.69z"/>
				</g>
			</g>
			<g id="Grupo_2005" transform="translate(67.845 71.61)">
				<g id="Grupo_2004">
					<path id="Trazado_973" class="st0" d="M-1230.68-3287.02h-30.33c-2.2,0-3.99-1.79-3.99-3.99s1.79-3.99,3.99-3.99h30.33
						c2.2,0,3.99,1.79,3.99,3.99S-1228.47-3287.02-1230.68-3287.02L-1230.68-3287.02z"/>
				</g>
			</g>
		</g>
		<rect id="Rectángulo_402" x="-1265" y="-3295" class="st1" width="140" height="140"/>
	</g>
	<rect id="Rectángulo_403" x="-1265" y="-3295" class="st1" width="140" height="140"/>
</g>
</svg>
