<?xml version="1.0" encoding="utf-8"?>
<!-- Generator: Adobe Illustrator 26.3.1, SVG Export Plug-In . SVG Version: 6.00 Build 0)  -->
<svg version="1.1" id="Capa_1" xmlns="http://www.w3.org/2000/svg" xmlns:xlink="http://www.w3.org/1999/xlink" x="0px" y="0px"
	 viewBox="0 0 140 140" style="enable-background:new 0 0 140 140;" xml:space="preserve">
<style type="text/css">
	.st0{fill:#0A2755;}
	.st1{fill:none;}
</style>
<g id="Grupo_2009" transform="translate(1521 3295)">
	<path id="Trazado_974" class="st0" d="M-1430.08-3169.6l-0.24-44.34c0-0.75,0.28-1.46,0.8-2c9.14-9.46,10.87-18.1,10.88-30.73
		c0.01-7.08-3.58-14.97-9.59-21.08c-6.27-6.38-14.34-10.04-22.13-10.04c-16.16,0.05-29.3,13.05-29.53,29.21l-0.06,5.21
		c-0.01,0.46-0.12,0.91-0.34,1.31l-8.46,15.87l9.2,0.25c1.55,0.04,2.78,1.31,2.78,2.86v12.24c0.01,4.78,3.88,8.65,8.65,8.65h9.13
		c1.58,0,2.86,1.28,2.86,2.86v29.7h-5.72v-26.84h-6.27c-7.94-0.01-14.37-6.44-14.38-14.38v-9.46l-11.04-0.31
		c-1.58-0.04-2.83-1.36-2.78-2.94c0.01-0.44,0.13-0.87,0.33-1.26l10.31-19.33l0.05-4.51c0.27-19.29,15.96-34.81,35.25-34.87
		c9.32,0,18.87,4.29,26.22,11.75c7.14,7.27,11.24,16.41,11.23,25.1c-0.01,13.09-1.99,23.38-11.67,33.84l0.24,43.2L-1430.08-3169.6z"
		/>
	<path id="Trazado_975" class="st0" d="M-1434.97-3236.74c2.19-0.47,6.39-3.22,8.14-9.51c1.75-6.29-3.99-17.42-14.34-21.05
		c-10.35-3.63-20.23-2.38-28.05,6.36c-6.35,7.11-0.77,14.9,5.6,13.99c6.37-0.91,7.74-0.63,11.73,1.89c3.99,2.52,4.2,7.55,8.11,7.27
		C-1440.41-3238.03-1439.24-3235.83-1434.97-3236.74z"/>
	<path id="Trazado_976" class="st0" d="M-1433.64-3238.77c-5.73,5.25-5.03,12.87-5.03,12.87h-2.31c0,0-2.1-8.95,1.82-14.27"/>
	<rect id="Rectángulo_404" x="-1521" y="-3295" class="st1" width="140" height="140"/>
</g>
</svg>
