<?xml version="1.0" encoding="utf-8"?>
<!-- Generator: Adobe Illustrator 26.3.1, SVG Export Plug-In . SVG Version: 6.00 Build 0)  -->
<svg version="1.1" id="Capa_1" xmlns="http://www.w3.org/2000/svg" xmlns:xlink="http://www.w3.org/1999/xlink" x="0px" y="0px"
	 viewBox="0 0 140 140" style="enable-background:new 0 0 140 140;" xml:space="preserve">
<style type="text/css">
	.st0{fill:#0A2755;}
	.st1{clip-path:url(#SVGID_00000129888921052699489810000015741121745679889836_);}
	.st2{fill:none;}
</style>
<g>
	<g id="Grupo_2011" transform="translate(41.685 -121.878)">
		<path id="Trazado_977" class="st0" d="M61.01,246.35c-3.14,0.01-6.04-1.66-7.63-4.36l-4.08-7c-0.76-1.31-2.16-2.11-3.68-2.11
			h-5.71c-2.35,0-4.26,1.91-4.26,4.26c0.04,4.88-3.89,8.87-8.77,8.91c-0.01,0-0.03,0-0.04,0H8.63c-4.86-0.01-8.8-3.95-8.81-8.81
			v-0.22c0.01-4.86,3.95-8.8,8.81-8.81h4.19c-1.72-2.31-2.76-5.05-3-7.92c-0.07-11.03,8.81-20.03,19.84-20.1c0.03,0,0.05,0,0.08,0
			h22.9c3.91,0.01,7.34,2.59,8.45,6.34l8.35,28.55c1.16,3.91-0.54,8.1-4.08,10.12C64.03,245.95,62.53,246.36,61.01,246.35z
			 M39.91,228.33h5.71c3.13,0.01,6.02,1.67,7.6,4.37l4.08,7c1.18,2.02,3.77,2.71,5.79,1.55c1.72-0.97,2.53-3,1.97-4.89l-8.35-28.55
			c-0.54-1.81-2.2-3.06-4.09-3.07h-22.9c-8.49,0.01-15.36,6.89-15.37,15.37c0.41,3.46,2.35,6.55,5.28,8.42
			c0.88,0.53,1.3,1.57,1.03,2.56c-0.27,0.99-1.16,1.67-2.19,1.67H8.63c-2.35,0-4.26,1.91-4.26,4.26v0.22c0,2.35,1.91,4.26,4.26,4.26
			h18.21c2.35,0,4.26-1.91,4.27-4.26c-0.04-4.88,3.89-8.87,8.77-8.91C39.89,228.33,39.9,228.33,39.91,228.33z"/>
		<path id="Trazado_978" class="st0" d="M72.46,206.24c-9.38-0.01-16.98-7.61-16.99-16.99c0.01-9.38,7.61-16.98,16.99-16.99
			c9.38,0.01,16.98,7.61,16.99,16.99C89.44,198.63,81.84,206.23,72.46,206.24z M72.46,176.35c-7.12,0.01-12.89,5.79-12.9,12.91
			c0.01,7.12,5.78,12.89,12.9,12.91c7.12-0.01,12.9-5.78,12.91-12.91C85.36,182.13,79.59,176.36,72.46,176.35z"/>
	</g>
	<g id="Grupo_2013" transform="translate(12.82 -151.148)">
		<path id="Trazado_979" class="st0" d="M36.2,245.02C16.12,245-0.15,228.73-0.18,208.65c0.02-20.08,16.29-36.36,36.38-36.38
			c20.08,0.02,36.35,16.3,36.38,36.38c0,8.59-3.05,16.91-8.59,23.47l-0.66,0.78l-1.02-0.07c-13.01-0.86-18.33,10.39-18.39,10.5
			l-0.45,0.97l-1.05,0.18C40.36,244.84,38.28,245.02,36.2,245.02z M36.2,176.35c-17.83,0.02-32.28,14.47-32.3,32.3
			c0.02,17.83,14.47,32.28,32.3,32.3c1.53,0,3.05-0.11,4.56-0.32c1.81-3.08,8.21-12.23,20.74-11.9c4.53-5.71,7-12.79,7-20.08
			C68.48,190.82,54.03,176.37,36.2,176.35z"/>
		<g>
			<defs>
				<path id="SVGID_1_" d="M36.2,245.02C16.12,245-0.15,228.73-0.18,208.65c0.02-20.08,16.29-36.36,36.38-36.38
					c20.08,0.02,36.35,16.3,36.38,36.38c0,8.59-3.05,16.91-8.59,23.47l-0.66,0.78l-1.02-0.07c-13.01-0.86-18.33,10.39-18.39,10.5
					l-0.45,0.97l-1.05,0.18C40.36,244.84,38.28,245.02,36.2,245.02z M36.2,176.35c-17.83,0.02-32.28,14.47-32.3,32.3
					c0.02,17.83,14.47,32.28,32.3,32.3c1.53,0,3.05-0.11,4.56-0.32c1.81-3.08,8.21-12.23,20.74-11.9c4.53-5.71,7-12.79,7-20.08
					C68.48,190.82,54.03,176.37,36.2,176.35z"/>
			</defs>
			<clipPath id="SVGID_00000176760631829072052130000001794265816616496519_">
				<use xlink:href="#SVGID_1_"  style="overflow:visible;"/>
			</clipPath>
			<g id="Grupo_2012" style="clip-path:url(#SVGID_00000176760631829072052130000001794265816616496519_);">
				<path id="Trazado_980" class="st0" d="M29.16,250.21c0,0,1.41-18.56,0.94-23.6c-0.47-5.04-1.36-7.47-2.96-8.41
					s-2.66-5.87,1.69-6.87s10.46-1.24,14.49,0s3.97,3.97,2.13,6.28s-3.67,3.38-3.85,6.7s-3.96,24.49-3.73,25.61"/>
				<path id="Trazado_981" class="st0" d="M4.68,189.57c0,0,18.73,6,21.75,8.54s3.32,8.53,8.83,10.19s8.05-3.16,8.16-5.54
					c0.15-3.25,2.86-3.77,2.09-7.02s-5.44-7.62-17.83-8.77c-5.67-0.52-18.75-4.55-18.75-4.55"/>
				<path id="Trazado_982" class="st0" d="M48.31,250.69l-2.58-0.14c0.24-4.38,2.87-13.07,4.67-17.84l1.75-4.62
					c2.42-6.38,2.79-7.36,3.82-11.49l0.57-2.24c2.15-8.39,4-15.63-1.62-21.12c-6.37-6.2-13.72-8.97-38.22-17.61l0.86-2.43
					c23.36,8.23,32.1,11.32,39.16,18.19c6.69,6.52,4.47,15.21,2.32,23.6l-0.56,2.23c-1.06,4.28-1.5,5.43-3.91,11.79l-1.75,4.61
					C51.13,238.11,48.53,246.63,48.31,250.69z"/>
				<path id="Trazado_983" class="st0" d="M15.57,250.23l-2.58-0.04c0-0.16,0.26-16.46,2.02-27.47c0.7-4.35,1.71-8.31,2.45-11.19
					c0.4-1.41,0.72-2.84,0.98-4.28c-1.86-1.42-11.28-5.62-19.85-9.07l0.96-2.39c3.16,1.27,19.03,7.73,21.03,9.93
					c0.81,0.89,0.45,2.29-0.62,6.45c-0.73,2.84-1.73,6.72-2.41,10.96C15.82,233.96,15.57,250.07,15.57,250.23z"/>
				<path id="Trazado_984" class="st0" d="M48.72,200.29c-3.21,0.4-4.71,5.85-3.6,8.4c1.11,2.55,2.55,2.18,4.05,1.95
					S51.72,199.92,48.72,200.29z"/>
			</g>
		</g>
	</g>
	<rect id="Rectángulo_405" class="st2" width="140" height="140"/>
</g>
</svg>
