<?xml version="1.0" encoding="utf-8"?>
<!-- Generator: Adobe Illustrator 26.3.1, SVG Export Plug-In . SVG Version: 6.00 Build 0)  -->
<svg version="1.1" id="Capa_1" xmlns="http://www.w3.org/2000/svg" xmlns:xlink="http://www.w3.org/1999/xlink" x="0px" y="0px"
	 viewBox="0 0 74 74" style="enable-background:new 0 0 74 74;" xml:space="preserve">
<style type="text/css">
	.st0{fill:#001F44;}
	.st1{fill:none;}
</style>
<g id="Grupo_2137" transform="translate(721 766)">
	<g id="Grupo_2136">
		<g id="Grupo_2122">
			<g id="Grupo_2121">
				<path id="Trazado_1039" class="st0" d="M-662.89-730.76c1.09,0,1.97,0.88,1.97,1.97v23.37c0,1.98-1.6,3.58-3.58,3.58
					c0,0,0,0,0,0h-38.99c-1.98,0-3.58-1.6-3.59-3.58c0,0,0,0,0,0v-18.52c0-1.98,1.61-3.59,3.59-3.59h26.32l3.32-3.23H-662.89
					 M-662.89-733.91h-12.25l-0.92,0.89l-2.4,2.34h-25.04c-3.72,0-6.73,3.02-6.73,6.73v18.52c0,3.72,3.02,6.73,6.73,6.73h38.99
					c3.72,0,6.73-3.02,6.73-6.73v-23.37C-657.78-731.62-660.07-733.91-662.89-733.91L-662.89-733.91z"/>
			</g>
		</g>
		<g id="Grupo_2129">
			<g id="Grupo_2123">
				<path id="Trazado_1040" class="st1" d="M-700.75-750.59h28.74l2.36-2.36h-28.56C-699.54-752.95-700.65-751.92-700.75-750.59z"/>
			</g>
			<g id="Grupo_2124">
				<path id="Trazado_1041" class="st0" d="M-663.99-746.46v15.19h1.57v-15.19c-0.01-1.52-0.85-2.92-2.2-3.63l-1.19,1.19
					C-664.74-748.57-664-747.58-663.99-746.46z"/>
			</g>
			<g id="Grupo_2125">
				<path id="Trazado_1042" class="st0" d="M-700.75-750.59c-0.01,0.07-0.02,0.13-0.02,0.2v0.71h-1.57v-0.73
					c-1.76,0.51-2.97,2.12-2.97,3.95v16.91h1.57v-16.91c0-1.41,1.15-2.56,2.56-2.56h27.6l1.57-1.57H-700.75z"/>
			</g>
			<g id="Grupo_2126">
				<path id="Trazado_1043" class="st0" d="M-700.75-750.59c0.1-1.33,1.21-2.36,2.54-2.36h28.56l1.57-1.57h-30.14
					c-2.28,0-4.12,1.84-4.13,4.12c0.38-0.12,0.77-0.18,1.16-0.19H-700.75z"/>
			</g>
			<g id="Grupo_2127">
				<path id="Trazado_1044" class="st0" d="M-661.06-753.65l-1.12,1.12c0.72,0.47,1.16,1.28,1.16,2.14v18.41h1.57v-18.41
					C-659.45-751.67-660.05-752.87-661.06-753.65z"/>
			</g>
			<g id="Grupo_2128">
				<path id="Trazado_1045" class="st0" d="M-702.34-749.68h1.57v-0.71c0-0.07,0.02-0.14,0.02-0.2h-0.43
					c-0.39,0.01-0.79,0.07-1.16,0.19L-702.34-749.68L-702.34-749.68z"/>
			</g>
		</g>
		<g id="Grupo_2135">
			<g id="Grupo_2134">
				<g id="Grupo_2131">
					<g id="Grupo_2130">
						<path id="Trazado_1046" class="st0" d="M-681.73-739.28l-0.94,3.08l3.2-0.89l18.26-18.24l-2.23-2.23L-681.73-739.28z"/>
					</g>
				</g>
				<g id="Grupo_2133">
					<g id="Grupo_2132">
						<path id="Trazado_1047" class="st0" d="M-659.92-758.84c-0.62-0.61-1.61-0.61-2.23,0l-0.3,0.3l2.23,2.23l0.3-0.3
							C-659.3-757.23-659.31-758.23-659.92-758.84z"/>
					</g>
				</g>
			</g>
		</g>
	</g>
	<rect id="Rectángulo_438" x="-721" y="-766" class="st1" width="74" height="74"/>
</g>
</svg>
