<?xml version="1.0" encoding="utf-8"?>
<!-- Generator: Adobe Illustrator 26.3.1, SVG Export Plug-In . SVG Version: 6.00 Build 0)  -->
<svg version="1.1" id="Capa_1" xmlns="http://www.w3.org/2000/svg" xmlns:xlink="http://www.w3.org/1999/xlink" x="0px" y="0px"
	 viewBox="0 0 74 74" style="enable-background:new 0 0 74 74;" xml:space="preserve">
<style type="text/css">
	.st0{fill:#001F44;}
	.st1{fill:none;}
</style>
<g id="Grupo_2159" transform="translate(1454 766)">
	<g id="Grupo_2158">
		<path id="Trazado_1051" class="st0" d="M-1417.22-708.52h-0.13c-0.26,0-0.52-0.08-0.74-0.22l-22.34-7.52
			c-0.56-0.19-0.94-0.72-0.94-1.31v-35.97c0-0.76,0.62-1.38,1.38-1.38c0.19,0,0.39,0.04,0.56,0.12l22.15,9.84l22.15-9.84
			c0.7-0.31,1.51,0,1.82,0.7c0.08,0.18,0.12,0.37,0.12,0.56v21.82h-2.76v-19.7l-20.39,9.06c-0.25,0.2-0.56,0.32-0.88,0.32h-0.13
			c-0.32,0-0.63-0.11-0.88-0.32l-20.39-9.06v32.86l21.33,7.18l7.39-2.49l0.88,2.62l-7.46,2.51
			C-1416.7-708.59-1416.96-708.52-1417.22-708.52z"/>
		<rect id="Rectángulo_443" x="-1390.78" y="-740.51" class="st0" width="2.76" height="13.85"/>
		<path id="Trazado_1052" class="st0" d="M-1417.27-703.08c-0.15,0-0.3-0.02-0.44-0.07l-28.4-9.49c-0.56-0.19-0.94-0.72-0.94-1.31
			v-26.55h2.76v25.55l27.04,9.04l11.21-3.39l0.8,2.64l-11.63,3.52C-1417-703.1-1417.14-703.08-1417.27-703.08z"/>
		<rect id="Rectángulo_444" x="-1417.89" y="-743.42" class="st0" width="1.33" height="33.52"/>
		<path id="Trazado_1053" class="st0" d="M-1400.06-710.18c-5.33,0-9.65-4.32-9.65-9.65c0-5.33,4.32-9.65,9.65-9.65
			c5.33,0,9.65,4.32,9.65,9.65C-1390.42-714.5-1394.74-710.19-1400.06-710.18z M-1400.06-726.56c-3.72,0-6.73,3.01-6.73,6.73
			c0,3.72,3.01,6.73,6.73,6.73c3.72,0,6.73-3.01,6.73-6.73C-1393.34-723.54-1396.35-726.56-1400.06-726.56z"/>
		
			<rect id="Rectángulo_445" x="-1392.68" y="-715.21" transform="matrix(0.6991 -0.7151 0.7151 0.6991 89.4957 -1208.6779)" class="st0" width="2.92" height="9.1"/>
		
			<rect id="Rectángulo_446" x="-1429.45" y="-746.86" transform="matrix(0.4061 -0.9138 0.9138 0.4061 -172.6504 -1744.9808)" class="st0" width="1.33" height="14.4"/>
		
			<rect id="Rectángulo_447" x="-1429.45" y="-730.17" transform="matrix(0.406 -0.9139 0.9139 0.406 -188.0503 -1735.2405)" class="st0" width="1.33" height="14.4"/>
		
			<rect id="Rectángulo_448" x="-1429.45" y="-738.92" transform="matrix(0.4061 -0.9138 0.9138 0.4061 -179.9126 -1740.261)" class="st0" width="1.33" height="14.4"/>
		
			<rect id="Rectángulo_449" x="-1413.84" y="-740.33" transform="matrix(0.9143 -0.4051 0.4051 0.9143 179.0509 -633.2703)" class="st0" width="14.39" height="1.33"/>
		
			<rect id="Rectángulo_450" x="-1413.84" y="-732.38" transform="matrix(0.9143 -0.4051 0.4051 0.9143 175.8314 -632.5889)" class="st0" width="14.39" height="1.33"/>
	</g>
	<rect id="Rectángulo_451" x="-1454" y="-766" class="st1" width="74" height="74"/>
</g>
</svg>
